<?xml  version="1.0" encoding="UTF-8"?>
<!DOCTYPE svg PUBLIC "-//W3C//DTD SVG 1.0//EN" "http://www.w3.org/TR/2001/REC-SVG-20010904/DTD/svg10.dtd" >
<svg xmlns="http://www.w3.org/2000/svg" >
<metadata>
<version>1.0</version>
<id><![CDATA[Frutiger Next W01 UltraLight It]]></id>
<vendor>Monotype Imaging Inc.</vendor>
<credits>
<name>Fonts.com WebFonts</name>
<URL>http://webfonts.fonts.com</URL>
<role>Home of the Web fonts</role>
</credits>
<license>
<URL>http://webfonts.fonts.com/Legal</URL>
</license>
<copyright><![CDATA[Copyright © 2007 Linotype GmbH, www.linotype.com. All rights reserved. This font software may not be reproduced, modified, disclosed or transferred without the express written approval of Linotype GmbH. Frutiger Next is a trademark of Linotype GmbH and may be registered in certain jurisdictions. This typeface is original artwork of Adrian Frutiger and Linotype Design Studio. The design may be protected in certain jurisdictions.]]></copyright>
<trademark><![CDATA[Frutiger Next is a trademark of Linotype GmbH and may be registered in certain jurisdictions.]]></trademark>
<licensee>
<name></name>
</licensee>
</metadata>
<defs >
<font horiz-adv-x="452" id="8522eb05-6953-4485-9fb2-5fbae7ced74b">
<font-face font-family="" panose-1="2 11 2 3 4 2 4 9 2 3" ascent="905" descent="-279" units-per-em="1000" alphabetic="0">
</font-face>
<missing-glyph horiz-adv-x="0" />

<glyph unicode="&#xA;" />
<glyph unicode="&#xD;" horiz-adv-x="0" />
<glyph unicode=" " horiz-adv-x="252" />
<glyph unicode="!" horiz-adv-x="252" d="M97 142H79L187 667H211L97 142ZM45 0L58 62H87L74 0H45Z"  />
<glyph unicode="&quot;" horiz-adv-x="370" d="M254 459L299 667H321L276 459H254ZM136 459L181 667H203L158 459H136Z"  />
<glyph unicode="#" horiz-adv-x="504" d="M78 0H56L113 233H21L26 253H119L159 417H61L66 437H165L220 667H242L187 437H365L420 667H442L387 437H479L474 417H381L341 253H439L434 233H335L278 0H256L313 233H135L78 0ZM319 253L359 417H181L141 253H319Z"  />
<glyph unicode="$" horiz-adv-x="504" d="M41 39Q69 26 101 18T172 9Q255 9 303 55T352 182Q352 210 344 232T321 274T288 311T248 344Q226 360 206 377T171 415T146 458T136 509Q136 550 151 581T193 633T252 665T321 677L343 774H365L343 676Q376 674 403 668T453 650L448 629Q422 642 392 649T326 657Q294 657 264 648T211 621T173 575T158 509Q158 484 166 464T189 426T221 392T261 360Q283 343 303 325T339 286T364 239T374 182Q374 141 361 107T324 48T266 8T190 -10L169 -108H147L168 -11Q130 -10 97 -3T36 17L41 39Z"  />
<glyph unicode="%" horiz-adv-x="785" d="M188 -24H165L605 691H628L188 -24ZM170 290Q206 290 234 312T281 370T311 449T322 536Q322 587 300 622T229 657Q194 657 166 635T119 577T89 497T78 410Q78 359 100 325T170 290ZM231 677Q258 677 279 666T315 636T336 591T344 536Q344 489 332 442T297 357T241 294T168 270Q141 270 120 281T85 311T63 355T56 410Q56 457 68 504T103 590T158 653T231 677ZM560 9Q596 9 624 31T671 89T701 168T712 255Q712 306 690 341T619 376Q584 376 556 354T509 296T479 216T468 129Q468 78 490 44T560 9ZM621 396Q648 396 669 385T705 355T726 310T734 255Q734 208 722 161T687 76T631 13T558 -11Q531 -11 510 0T475 30T453 74T446 129Q446 176 458 223T493 309T548 372T621 396Z"  />
<glyph unicode="&amp;" horiz-adv-x="594" d="M467 338L399 18Q371 10 349 5T305 -4T264 -9T219 -11Q183 -11 150 -1T92 29T51 80T36 151Q36 193 51 228T92 289T155 331T232 350Q176 361 149 397T121 480Q121 526 139 563T187 625T257 663T340 677Q375 677 407 671T470 651L465 629Q436 643 405 650T340 657Q301 657 266 646T203 612T159 556T142 480Q142 449 154 426T187 388T235 366T291 358H449L471 464H493L471 358H570L566 338H467ZM445 338H287Q241 338 200 327T127 293T77 235T58 151Q58 115 71 88T107 44T159 18T222 9Q265 9 300 15T380 33L445 338Z"  />
<glyph unicode="&apos;" horiz-adv-x="252" d="M136 459L181 667H203L158 459H136Z"  />
<glyph unicode="(" horiz-adv-x="252" d="M314 721Q268 658 225 596T149 469T95 332T75 177Q75 138 80 102T94 30T116 -45T145 -128H128Q111 -85 98 -47T74 28T59 102T53 182Q53 265 73 336T126 473T203 599T294 721H314Z"  />
<glyph unicode=")" horiz-adv-x="252" d="M-75 -128Q-29 -65 14 -3T90 124T144 261T164 416Q164 455 159 491T145 563T123 638T94 721H111Q127 678 141 640T165 565T180 491T186 411Q186 328 166 257T113 120T36 -6T-55 -128H-75Z"  />
<glyph unicode="*" horiz-adv-x="370" d="M207 667H229L228 541L339 585L347 566L234 524L309 409L292 398L218 514L144 398L127 409L202 524L89 566L97 585L208 541L207 667Z"  />
<glyph unicode="+" horiz-adv-x="504" d="M255 221V0H233V221H1V241H233V463H255V241H487V221H255Z"  />
<glyph unicode="&#x2c;" horiz-adv-x="252" d="M2 -128H-15L70 62H98L2 -128Z"  />
<glyph unicode="-" horiz-adv-x="310" d="M32 300L37 320H271L266 300H32Z"  />
<glyph unicode="." horiz-adv-x="252" d="M41 0L54 62H83L70 0H41Z"  />
<glyph unicode="/" horiz-adv-x="269" d="M-28 0H-51L295 667H318L-28 0Z"  />
<glyph unicode="0" horiz-adv-x="504" d="M308 657Q271 657 238 636T179 580T131 498T96 400T74 297T66 198Q66 107 98 58T196 9Q234 9 266 30T326 86T374 168T409 266T430 369T438 468Q438 559 406 608T308 657ZM308 677Q383 677 421 623T460 468Q460 419 452 365T429 257T391 156T339 70T274 11T196 -11Q121 -11 83 43T44 198Q44 247 52 301T75 409T113 510T165 596T230 655T308 677Z"  />
<glyph unicode="1" horiz-adv-x="504" d="M179 0L314 638L155 517L142 535L320 667H342L201 0H179Z"  />
<glyph unicode="2" horiz-adv-x="504" d="M286 677Q323 677 353 666T403 634T434 587T445 526Q445 487 434 452T397 380T328 298T221 195L27 20H358L354 0H-8L-5 18L207 211Q271 269 312 311T379 389T414 457T424 526Q424 583 388 620T286 657Q248 657 212 648T141 620V642Q176 659 210 668T286 677Z"  />
<glyph unicode="3" horiz-adv-x="504" d="M291 677Q369 677 411 636T454 528Q454 490 442 459T408 404T357 366T293 347Q350 337 377 301T405 212Q405 162 387 121T336 50T257 5T152 -11Q114 -11 78 -5T10 15L15 36Q46 22 81 16T152 9Q205 9 247 23T320 63T366 127T383 213Q383 277 345 308T240 339H151L155 359H244Q283 359 317 369T377 401T418 453T433 528Q433 584 397 620T291 657Q249 657 213 649T140 622V644Q176 661 211 669T291 677Z"  />
<glyph unicode="4" horiz-adv-x="504" d="M447 667L345 185H444L440 165H341L306 0H284L319 165H4L7 184L422 667H447ZM323 185L418 632L35 185H323Z"  />
<glyph unicode="5" horiz-adv-x="504" d="M462 647H181L125 378Q160 389 186 393T243 397Q283 397 314 385T367 350T400 298T411 233Q411 177 393 132T340 56T258 7T152 -11Q114 -11 80 -5T16 15L21 36Q50 22 83 16T152 9Q206 9 250 24T324 68T372 138T389 233Q389 299 351 338T241 377Q227 377 213 377T183 374T146 366T99 352L165 667H467L462 647Z"  />
<glyph unicode="6" horiz-adv-x="504" d="M212 9Q255 9 291 26T355 73T397 146T412 239Q412 269 403 296T376 342T333 373T276 385Q231 385 194 368T129 322T87 254T72 170Q72 95 111 52T212 9ZM212 -11Q177 -11 148 1T97 37T63 94T51 170Q51 280 76 373T146 533T255 639T396 677Q424 677 446 673T493 661L488 640Q465 648 443 652T395 657Q329 657 275 627T180 545T113 421T75 267Q110 339 162 372T276 405Q313 405 342 392T391 357T422 304T433 239Q433 185 417 140T371 61T301 8T212 -11Z"  />
<glyph unicode="7" horiz-adv-x="504" d="M485 649L88 0H63L458 647H105L109 667H488L485 649Z"  />
<glyph unicode="8" horiz-adv-x="504" d="M312 677Q380 677 423 639T466 535Q466 468 421 424T287 349Q326 326 351 305T392 263T413 219T419 173Q419 132 404 99T359 41T290 3T198 -11Q163 -11 131 -1T74 28T34 75T19 141Q19 218 72 269T236 354Q182 386 152 423T121 509Q121 543 135 573T174 627T234 663T312 677ZM310 657Q274 657 244 646T191 614T155 568T142 510Q142 470 170 433T264 361Q364 393 404 435T445 534Q445 591 407 624T310 657ZM261 341Q143 308 92 258T41 142Q41 109 54 84T90 43T140 18T200 9Q245 9 281 20T343 53T383 105T397 172Q397 193 392 213T372 254T331 296T261 341Z"  />
<glyph unicode="9" horiz-adv-x="504" d="M292 657Q249 657 213 640T149 593T107 520T92 427Q92 397 101 370T128 324T171 293T228 281Q273 281 310 298T375 344T417 412T432 496Q432 571 393 614T292 657ZM292 677Q327 677 356 665T407 629T441 572T453 496Q453 384 430 291T362 131T255 27T111 -11Q83 -11 59 -9T11 2L16 23Q39 15 62 12T112 9Q181 9 235 38T328 120T393 243T429 399Q394 327 342 294T228 261Q191 261 162 274T113 309T82 362T71 427Q71 481 87 526T133 605T203 658T292 677Z"  />
<glyph unicode=":" horiz-adv-x="252" d="M41 0L54 62H83L70 0H41ZM132 431L145 493H174L161 431H132Z"  />
<glyph unicode=";" horiz-adv-x="252" d="M132 431L145 493H174L161 431H132ZM2 -128H-15L70 62H98L2 -128Z"  />
<glyph unicode="&lt;" horiz-adv-x="504" d="M-21 220V241L465 434V412L3 230L465 42V20L-21 220Z"  />
<glyph unicode="=" horiz-adv-x="504" d="M-5 135V155H481V135H-5ZM-5 306V326H481V306H-5Z"  />
<glyph unicode="&gt;" horiz-adv-x="504" d="M16 20V42L478 230L16 412V434L502 241V220L16 20Z"  />
<glyph unicode="?" horiz-adv-x="367" d="M67 0L80 62H109L96 0H67ZM218 677Q283 677 322 640T361 541Q361 498 346 466T308 408T256 360T202 313T156 259T128 192L118 142H96L106 192Q114 234 135 265T181 321T235 368T286 415T324 470T339 541Q339 596 306 626T218 657Q186 657 155 649T91 624V646Q123 661 154 669T218 677Z"  />
<glyph unicode="@" horiz-adv-x="1030" d="M951 328Q951 255 933 193T882 86T808 15T717 -11Q667 -11 637 21T606 112Q571 46 526 18T425 -11Q367 -11 328 28T289 144Q289 211 314 275T383 390T488 472T620 503Q673 503 717 488L630 157Q627 144 626 135T625 112Q625 62 651 36T719 9Q762 9 800 33T866 99T912 200T929 328Q929 419 902 490T826 611T707 685T554 711Q455 711 369 674T220 571T120 413T84 213Q84 116 114 39T202 -93T340 -177T524 -207Q593 -207 656 -194T795 -149L799 -171Q762 -186 729 -196T662 -213T595 -223T522 -227Q417 -227 332 -196T187 -108T95 30T62 213Q62 324 99 418T203 582T360 691T556 731Q644 731 717 704T842 625T922 498T951 328ZM691 474Q676 479 656 481T619 483Q552 483 496 454T398 376T334 267T311 144Q311 76 345 43T431 9Q464 9 493 22T546 60T589 118T618 193L691 474Z"  />
<glyph unicode="A" horiz-adv-x="559" d="M431 197H88L-31 0H-57L344 667H368L488 0H465L431 197ZM98 217H427L352 641L98 217Z"  />
<glyph unicode="B" horiz-adv-x="498" d="M277 350Q304 347 328 337T370 310T398 268T409 213Q409 158 391 118T339 52T260 13T159 0H28L169 667H284Q366 667 412 632T458 530Q458 479 441 445T396 391T337 361T277 350ZM435 530Q435 590 395 618T280 647H187L126 361H206Q251 361 292 367T365 392T416 444T435 530ZM385 213Q385 278 340 309T221 341H122L54 21H150Q205 21 249 31T323 65T369 124T385 213Z"  />
<glyph unicode="C" horiz-adv-x="544" d="M435 677Q480 677 512 670T574 652L569 631Q542 643 509 650T433 657Q352 657 286 626T173 542T99 416T73 261Q73 209 86 164T128 84T200 29T305 9Q343 9 378 15T452 38V17Q415 0 375 -5T303 -11Q238 -11 191 10T113 69T66 155T51 261Q51 348 79 423T157 555T278 644T435 677Z"  />
<glyph unicode="D" horiz-adv-x="614" d="M563 424Q563 327 538 249T465 115T346 30T184 0H28L169 667H306Q435 667 499 603T563 424ZM541 424Q541 530 484 588T302 647H187L54 20H184Q270 20 336 48T448 128T517 255T541 424Z"  />
<glyph unicode="E" horiz-adv-x="453" d="M28 0L169 667H449L445 647H187L126 360H373L369 340H122L54 20H330L326 0H28Z"  />
<glyph unicode="F" horiz-adv-x="416" d="M187 647L126 360H367L363 340H122L50 0H28L169 667H442L438 647H187Z"  />
<glyph unicode="G" horiz-adv-x="629" d="M303 -11Q238 -11 191 10T113 69T66 155T51 261Q51 348 79 423T157 555T278 644T435 677Q486 677 522 669T594 645L589 624Q556 640 519 648T433 657Q352 657 286 626T173 542T99 416T73 261Q73 209 86 164T128 84T200 29T305 9Q356 9 399 18T480 45L540 323H357L361 343H566L498 31Q452 11 406 0T303 -11Z"  />
<glyph unicode="H" horiz-adv-x="603" d="M412 0L484 340H122L50 0H28L169 667H191L126 360H488L553 667H575L434 0H412Z"  />
<glyph unicode="I" horiz-adv-x="219" d="M50 0H28L169 667H191L50 0Z"  />
<glyph unicode="J" horiz-adv-x="263" d="M130 136Q122 101 112 74T84 27T43 -1T-16 -11Q-27 -11 -42 -9T-72 -2L-67 19Q-53 14 -39 12T-13 9Q42 9 68 41T109 140L221 667H243L130 136Z"  />
<glyph unicode="K" horiz-adv-x="502" d="M400 0L123 347L50 0H28L169 667H191L125 356L508 667H541L149 349L430 0H400Z"  />
<glyph unicode="L" horiz-adv-x="411" d="M28 0L169 667H191L54 20H345L341 0H28Z"  />
<glyph unicode="M" horiz-adv-x="809" d="M640 0H618L750 624L349 0H325L182 624L50 0H28L169 667H194L341 25L754 667H781L640 0Z"  />
<glyph unicode="N" horiz-adv-x="633" d="M464 0H443L182 628L50 0H28L169 667H190L451 39L583 667H605L464 0Z"  />
<glyph unicode="O" horiz-adv-x="643" d="M264 9Q338 9 395 47T491 145T550 281T570 432Q570 475 560 516T527 588T468 638T379 657Q305 657 248 619T152 520T93 384T73 234Q73 191 83 151T116 79T175 28T264 9ZM264 -11Q207 -11 167 9T101 64T63 142T51 234Q51 312 73 391T137 533T240 637T379 677Q436 677 476 657T542 602T580 524T592 432Q592 353 571 274T507 132T404 29T264 -11Z"  />
<glyph unicode="P" horiz-adv-x="465" d="M459 524Q459 471 442 433T395 370T322 333T230 321H118L50 0H28L169 667H295Q330 667 360 658T412 630T446 586T459 524ZM437 524Q437 587 397 617T291 647H187L122 341H222Q271 341 311 351T379 382T422 439T437 524Z"  />
<glyph unicode="Q" horiz-adv-x="643" d="M264 -11Q207 -11 167 9T101 64T63 142T51 234Q51 312 73 391T137 533T240 637T379 677Q436 677 476 657T542 602T580 524T592 432Q592 369 579 306T539 188T473 87T383 17L517 -128H486L363 8Q340 -1 316 -6T264 -11ZM264 9Q338 9 395 47T491 145T550 281T570 432Q570 475 560 516T527 588T468 638T379 657Q305 657 248 619T152 520T93 384T73 234Q73 191 83 151T116 79T175 28T264 9Z"  />
<glyph unicode="R" horiz-adv-x="495" d="M456 527Q456 476 439 442T394 387T332 355T263 344Q285 337 302 319T331 263L405 0H382L311 259Q301 296 276 317T205 339H122L50 0H28L169 667H290Q367 667 411 631T456 527ZM435 527Q435 587 395 617T286 647H187L126 359H216Q256 359 295 365T366 390T416 441T435 527Z"  />
<glyph unicode="S" horiz-adv-x="406" d="M-8 39Q20 26 52 18T123 9Q206 9 254 55T303 182Q303 210 295 232T272 274T239 311T199 344Q177 360 157 377T122 415T97 458T87 509Q87 551 103 582T145 635T206 666T277 677Q316 677 347 670T404 650L399 629Q373 642 343 649T277 657Q245 657 215 648T162 621T124 575T109 509Q109 484 117 464T140 426T172 392T212 360Q234 343 254 325T290 286T315 239T325 182Q325 139 311 104T271 43T207 3T123 -11Q84 -11 50 -3T-13 17L-8 39Z"  />
<glyph unicode="T" horiz-adv-x="398" d="M274 647L137 0H115L252 647H59L63 667H471L467 647H274Z"  />
<glyph unicode="U" horiz-adv-x="608" d="M492 219Q467 103 407 46T243 -11Q202 -11 168 0T110 33T73 85T59 152Q59 187 66 222L160 667H182L87 219Q83 202 82 186T81 152Q81 89 124 49T245 9Q339 9 393 62T470 219L565 667H587L492 219Z"  />
<glyph unicode="V" horiz-adv-x="508" d="M187 0H159L65 667H89L177 25L536 667H561L187 0Z"  />
<glyph unicode="W" horiz-adv-x="834" d="M546 0H518L466 638L152 0H124L69 667H93L142 25L458 667H484L536 25L861 667H886L546 0Z"  />
<glyph unicode="X" horiz-adv-x="517" d="M274 348L429 0H404L257 335L-34 0H-62L247 355L102 667H127L264 368L526 667H554L274 348Z"  />
<glyph unicode="Y" horiz-adv-x="501" d="M63 667H88L239 329L536 667H565L245 305L181 0H159L224 309L63 667Z"  />
<glyph unicode="Z" horiz-adv-x="435" d="M99 647L103 667H467L465 650L-17 20H339L335 0H-48L-45 17L438 647H99Z"  />
<glyph unicode="[" horiz-adv-x="252" d="M4 -128L185 721H289L285 701H203L31 -108H119L114 -128H4Z"  />
<glyph unicode="\" horiz-adv-x="252" d="M243 0L-13 667H11L267 0H243Z"  />
<glyph unicode="]" horiz-adv-x="252" d="M228 721L47 -128H-57L-53 -108H29L201 701H113L118 721H228Z"  />
<glyph unicode="^" horiz-adv-x="504" d="M227 667H251L418 260H394L238 639L79 260H56L227 667Z"  />
<glyph unicode="_" horiz-adv-x="500" d="M399 -125H-90L-79 -75H410L399 -125Z"  />
<glyph unicode="`" horiz-adv-x="188" d="M149 585L76 721H102L167 585H149Z"  />
<glyph unicode="a" horiz-adv-x="500" d="M45 151Q45 82 78 46T163 9Q201 9 235 27T296 77T344 151T375 244L424 472Q406 478 390 480T354 483Q286 483 230 453T132 375T68 268T45 151ZM396 240Q376 149 368 89T359 0H338Q339 28 344 63T362 153Q328 67 273 28T160 -11Q100 -11 63 31T25 149Q25 211 49 274T117 388T222 471T357 503Q378 503 400 500T449 487L396 240Z"  />
<glyph unicode="b" horiz-adv-x="503" d="M114 379Q136 416 160 440T210 478T258 497T302 503Q332 503 357 492T400 461T428 410T439 343Q439 277 417 214T352 100T251 20T117 -11Q96 -11 69 -8T13 5L165 721H187L114 379ZM419 341Q419 410 385 446T299 483Q262 483 229 466T168 422T122 358T94 282L38 19Q55 14 78 12T120 9Q187 9 242 38T337 113T397 219T419 341Z"  />
<glyph unicode="c" horiz-adv-x="412" d="M294 503Q325 503 349 499T396 485L391 464Q369 473 346 478T292 483Q234 483 189 456T112 386T65 289T48 181Q48 100 89 55T201 9Q228 9 251 13T302 27V6Q277 -3 254 -7T199 -11Q122 -11 74 40T26 181Q26 239 44 296T96 400T181 474T294 503Z"  />
<glyph unicode="d" horiz-adv-x="500" d="M396 240Q376 149 368 89T359 0H338Q339 28 344 63T362 153Q328 67 273 28T160 -11Q100 -11 63 31T25 149Q25 212 48 275T115 389T219 471T354 503Q371 503 389 501T427 493L476 721H498L396 240ZM45 151Q45 82 78 46T163 9Q201 9 235 27T296 77T344 151T375 244L423 473Q389 483 351 483Q283 483 227 453T131 376T68 269T45 151Z"  />
<glyph unicode="e" d="M392 398Q392 433 371 458T303 483Q258 483 220 462T151 409T99 339T65 265Q165 265 229 276T329 306T378 349T392 398ZM25 155Q25 207 45 267T102 380T191 468T306 503Q333 503 353 495T386 472T406 440T413 402Q413 371 399 343T345 293T237 258T59 245Q53 225 50 202T46 155Q46 85 81 47T185 9Q214 9 244 15T305 33V12Q276 1 246 -5T183 -11Q109 -11 67 32T25 155Z"  />
<glyph unicode="f" horiz-adv-x="258" d="M135 473H37L41 493H139L158 595Q170 661 202 696T285 731Q298 731 306 730T326 725L321 704Q312 707 303 709T283 711Q244 711 218 682T180 595L161 493H270L267 473H157L39 -91Q11 -227 -85 -227Q-98 -227 -107 -226T-134 -222L-129 -201Q-115 -204 -105 -205T-83 -207Q-45 -207 -20 -180T17 -91L135 473Z"  />
<glyph unicode="g" horiz-adv-x="505" d="M50 156Q50 91 82 56T165 20Q199 20 233 38T297 86T348 157T380 244L429 472Q411 478 395 480T359 483Q291 483 235 453T137 376T73 270T50 156ZM363 153Q321 72 267 36T162 0Q104 0 67 41T30 154Q30 214 54 276T122 388T227 471T362 503Q383 503 405 500T454 487L349 -5Q338 -58 320 -99T276 -168T212 -212T125 -227Q99 -227 63 -222T-19 -201L-14 -180Q28 -196 65 -201T130 -207Q215 -207 261 -155T329 -3L363 153Z"  />
<glyph unicode="h" horiz-adv-x="504" d="M12 0L165 721H187L119 398Q152 453 198 478T294 503Q358 503 392 468T427 377Q427 360 425 341T417 302L353 0H331L395 302Q400 322 402 341T405 377Q405 426 377 454T291 483Q258 483 227 471T171 436T126 379T98 301L34 0H12Z"  />
<glyph unicode="i" horiz-adv-x="189" d="M12 0L117 493H139L34 0H12ZM139 623L152 685H176L163 623H139Z"  />
<glyph unicode="j" horiz-adv-x="191" d="M13 -109Q8 -133 1 -154T-19 -191T-50 -217T-96 -227Q-115 -227 -137 -224L-132 -203Q-120 -205 -112 -206T-93 -207Q-71 -207 -57 -199T-33 -176T-19 -145T-9 -109L119 493H141L13 -109ZM141 623L154 685H178L165 623H141Z"  />
<glyph unicode="k" horiz-adv-x="400" d="M300 0L92 274L34 0H12L165 721H187L94 283L368 493H401L118 276L328 0H300Z"  />
<glyph unicode="l" horiz-adv-x="189" d="M12 0L165 721H187L34 0H12Z"  />
<glyph unicode="m" horiz-adv-x="771" d="M284 503Q343 503 370 468T398 380Q416 415 436 438T480 476T526 497T574 503Q633 503 663 467T694 377Q694 360 692 341T684 302L620 0H598L662 302Q667 322 669 341T672 377Q672 425 648 454T571 483Q506 483 458 435T391 299L327 0H305L368 298Q373 323 376 341T379 377Q379 399 374 418T358 452T328 474T281 483Q251 483 222 471T169 435T126 377T98 300L34 0H12L76 300Q82 327 85 346T93 386T100 430T110 493H131L113 389Q147 449 191 476T284 503Z"  />
<glyph unicode="n" horiz-adv-x="504" d="M113 389Q145 449 194 476T294 503Q358 503 392 468T427 377Q427 360 425 341T417 302L353 0H331L395 302Q400 322 402 341T405 377Q405 426 377 454T291 483Q258 483 227 471T171 436T126 378T98 300L34 0H12L76 300Q82 327 85 346T93 386T100 430T110 493H131L113 389Z"  />
<glyph unicode="o" horiz-adv-x="517" d="M283 483Q226 483 182 455T109 382T64 284T48 178Q48 144 56 114T83 60T129 23T196 9Q253 9 297 37T371 109T416 208T431 314Q431 348 423 378T396 432T350 469T283 483ZM283 503Q327 503 359 488T412 446T443 386T453 314Q453 257 436 200T385 95T305 19T196 -11Q152 -11 120 4T67 46T36 106T26 178Q26 234 43 291T94 396T175 473T283 503Z"  />
<glyph unicode="p" horiz-adv-x="502" d="M-12 -216H-34L75 295Q81 322 85 342T92 383T100 429T110 493H131L112 384Q147 448 198 475T299 503Q360 503 399 461T438 343Q438 277 416 214T351 100T250 20T116 -11Q95 -11 74 -9T33 -1L-12 -216ZM38 19Q55 14 78 12T119 9Q186 9 241 38T336 113T396 219T418 341Q418 410 384 446T296 483Q263 483 232 470T173 433T126 374T97 295L38 19Z"  />
<glyph unicode="q" horiz-adv-x="500" d="M45 151Q45 82 78 46T163 9Q200 9 234 27T296 77T344 151T375 244L424 472Q406 478 390 480T354 483Q286 483 230 453T132 375T68 268T45 151ZM353 136Q338 103 318 76T272 29T218 0T160 -11Q100 -11 63 31T25 149Q25 211 49 274T117 388T222 471T357 503Q378 503 400 500T449 487L299 -216H277L353 136Z"  />
<glyph unicode="r" horiz-adv-x="295" d="M75 299Q81 326 85 346T92 386T100 430T110 493H131L112 384Q142 444 186 473T275 503Q286 503 301 500L296 477Q283 481 270 481Q243 481 217 469T167 433T125 374T96 292L34 0H12L75 299Z"  />
<glyph unicode="s" horiz-adv-x="346" d="M-11 32Q40 9 104 9Q161 9 198 39T236 127Q236 150 230 167T212 199T184 227T147 254Q111 279 84 308T56 379Q56 409 68 432T101 471T147 495T201 503Q235 503 262 498T313 481L308 460Q286 471 260 477T201 483Q178 483 156 477T116 458T89 426T78 379Q78 342 102 318T163 267Q182 253 199 239T230 209T250 172T258 127Q258 96 246 71T213 27T164 -1T104 -11Q71 -11 40 -5T-16 11L-11 32Z"  />
<glyph unicode="t" horiz-adv-x="257" d="M258 473H148L78 141Q74 123 72 105T69 73Q69 39 84 24T128 9Q152 9 181 20V-1Q152 -11 126 -11Q90 -11 69 10T47 71Q47 100 56 141L126 473H28L32 493H130L156 616L179 620L152 493H261L258 473Z"  />
<glyph unicode="u" horiz-adv-x="499" d="M348 104Q320 44 273 17T171 -11Q108 -11 74 24T40 115Q40 132 42 151T50 190L114 493H136L72 190Q67 170 65 151T62 115Q62 66 89 38T174 9Q246 9 295 57T363 193L427 493H449L386 194Q380 167 376 147T368 107T360 62T350 0H329L348 104Z"  />
<glyph unicode="v" horiz-adv-x="407" d="M141 0H114L46 493H69L132 25L392 493H416L141 0Z"  />
<glyph unicode="w" horiz-adv-x="707" d="M449 0H422L373 466L137 0H110L47 493H70L128 25L365 493H390L440 25L691 493H715L449 0Z"  />
<glyph unicode="x" horiz-adv-x="430" d="M205 256L317 0H292L188 243L-20 0H-48L178 263L73 493H98L195 276L384 493H412L205 256Z"  />
<glyph unicode="y" horiz-adv-x="411" d="M85 -111Q65 -147 50 -169T20 -205T-8 -222T-41 -227Q-55 -227 -74 -223L-69 -202Q-60 -205 -53 -206T-38 -207Q-25 -207 -14 -203T9 -188T34 -157T65 -104L121 -1L48 493H71L138 27L394 493H418L85 -111Z"  />
<glyph unicode="z" horiz-adv-x="387" d="M74 473L78 493H383L380 476L-6 20H284L280 0H-37L-34 17L353 473H74Z"  />
<glyph unicode="{" horiz-adv-x="252" d="M25 308Q49 308 66 316T94 337T113 368T124 405L170 624Q181 678 206 699T267 721H303L299 701H264Q239 701 221 685T192 624L144 399Q136 358 114 331T52 296Q78 288 91 269T104 222Q104 209 101 194L53 -31Q49 -47 49 -63Q49 -89 61 -98T94 -108H137L132 -128H88Q61 -128 44 -111T27 -64Q27 -49 32 -26L78 188Q80 196 81 203T82 219Q82 245 69 265T20 287L25 308Z"  />
<glyph unicode="|" horiz-adv-x="219" d="M98 -216V775H120V-216H98Z"  />
<glyph unicode="}" horiz-adv-x="252" d="M213 285Q189 285 172 277T144 256T125 225T114 188L68 -31Q57 -85 32 -106T-29 -128H-65L-61 -108H-26Q-1 -108 17 -92T46 -31L94 194Q102 235 124 262T186 297Q160 305 147 324T134 371Q134 384 137 399L185 624Q189 640 189 656Q189 682 177 691T144 701H101L106 721H150Q177 721 194 704T211 657Q211 642 206 619L160 405Q158 397 157 390T156 374Q156 348 169 328T218 306L213 285Z"  />
<glyph unicode="~" horiz-adv-x="504" d="M87 255Q8 255 -1 175H-23Q-18 221 9 248T87 275Q123 275 160 264T234 241T307 217T377 206Q456 206 465 286H487Q482 239 455 213T377 186Q341 186 304 197T230 220T157 244T87 255Z"  />
<glyph unicode="&#xA0;" horiz-adv-x="252" />
<glyph unicode="&#xA1;" horiz-adv-x="252" d="M120 351H138L30 -174H6L120 351ZM172 493L159 431H130L143 493H172Z"  />
<glyph unicode="&#xA2;" horiz-adv-x="504" d="M224 93Q165 104 130 150T95 272Q95 324 111 376T157 472T231 543T331 577L350 667H372L354 578Q383 577 405 573T449 560L444 539Q423 547 401 552T349 558Q295 558 252 533T179 467T133 375T117 272Q117 194 156 152T263 110Q289 110 311 114T359 127V106Q335 98 312 94T260 90H245L226 0H204L224 93Z"  />
<glyph unicode="&#xA3;" horiz-adv-x="504" d="M390 677Q421 677 445 672T497 656L492 634Q466 645 442 651T390 657Q349 657 320 645T271 612T238 562T218 499L196 391H362L358 371H192L118 20H362L358 0H8L12 20H96L170 371H90L94 391H174L198 505Q205 541 219 572T256 627T312 663T390 677Z"  />
<glyph unicode="&#xA4;" horiz-adv-x="504" d="M447 331Q447 293 434 260T398 199L475 122L461 107L384 184Q358 159 325 145T254 130Q216 130 182 144T121 183L45 107L31 122L107 198Q84 224 72 258T59 331Q59 368 71 401T106 462L31 538L45 553L120 477Q146 503 180 517T254 532Q292 532 326 518T386 478L461 553L475 538L400 463Q422 437 434 404T447 331ZM426 331Q426 368 413 401T376 459T321 498T254 512Q218 512 186 498T131 460T94 402T80 331Q80 293 94 261T131 203T186 164T254 150Q289 150 320 164T375 203T412 261T426 331Z"  />
<glyph unicode="&#xA5;" horiz-adv-x="504" d="M258 304H387L383 284H243L223 189H367L363 169H219L185 0H163L197 169H59L63 189H201L221 284H79L83 304H216L111 667H135L237 309L487 667H513L258 304Z"  />
<glyph unicode="&#xA6;" horiz-adv-x="219" d="M98 379V775H120V379H98ZM98 -216V181H120V-216H98Z"  />
<glyph unicode="&#xA7;" horiz-adv-x="504" d="M328 677Q357 677 388 672T443 655L440 634Q418 647 385 652T327 657Q295 657 267 649T217 626T182 588T169 535Q169 507 186 484T233 444L340 385Q399 352 399 290Q399 247 373 212T287 139Q315 123 329 96T344 36Q344 -1 329 -30T287 -81T224 -113T147 -124Q113 -124 75 -119T5 -98L8 -77Q37 -93 76 -98T150 -104Q186 -104 217 -94T272 -66T309 -23T322 35Q322 64 309 88T267 129L148 198Q119 215 103 239T87 292Q87 337 116 367T214 433Q184 450 166 475T148 534Q148 568 163 594T202 639T259 667T328 677ZM229 423Q195 403 172 388T135 358T115 328T109 293Q109 264 125 245T162 214L273 149Q303 170 323 188T355 222T372 255T377 291Q377 320 361 339T325 369L229 423Z"  />
<glyph unicode="&#xA8;" horiz-adv-x="188" d="M73 623L86 685H110L97 623H73ZM200 623L213 685H237L224 623H200Z"  />
<glyph unicode="&#xA9;" horiz-adv-x="808" d="M533 144Q511 133 483 128T428 122Q377 122 338 137T271 181T230 247T216 333Q216 379 231 418T274 485T342 530T431 546Q457 546 483 541T533 525L529 503Q507 514 481 520T431 526Q386 526 351 512T292 472T254 411T241 334Q241 291 253 256T289 195T348 156T430 142Q483 142 529 164L533 144ZM404 9Q472 9 530 32T632 97T701 199T726 332Q726 404 701 463T633 566T531 633T404 657Q336 657 278 634T176 569T107 467T82 334Q82 262 107 203T175 100T277 33T404 9ZM404 -11Q329 -11 266 14T158 85T86 194T60 334Q60 411 86 474T159 582T268 652T404 677Q479 677 542 652T650 580T722 471T748 332Q748 255 722 192T649 84T540 14T404 -11Z"  />
<glyph unicode="&#xAA;" horiz-adv-x="350" d="M332 652Q320 655 311 656T289 657Q246 657 211 641T150 599T110 538T96 469Q96 434 113 413T166 392Q194 392 217 406T259 442T290 492T309 546L332 652ZM301 482Q274 422 238 397T163 372Q121 372 98 398T74 469Q74 507 90 544T134 611T202 659T288 677Q305 677 320 675T357 668L325 517Q321 500 318 481T311 443T306 408T303 379H283Q284 393 288 422T301 482Z"  />
<glyph unicode="&#xAB;" horiz-adv-x="400" d="M331 448H360L197 247L291 55H266L170 250L331 448ZM184 448H213L50 247L144 55H119L23 250L184 448Z"  />
<glyph unicode="&#xAC;" horiz-adv-x="504" d="M469 142V298H5V318H491V142H469Z"  />
<glyph unicode="&#xAD;" horiz-adv-x="310" d="M32 300L37 320H271L266 300H32Z"  />
<glyph unicode="&#xAE;" horiz-adv-x="808" d="M531 134L456 283Q444 307 425 321T374 335H317V134H295V545H398Q463 545 493 518T524 441Q524 418 515 400T491 369T457 349T417 342Q454 334 477 288L557 134H531ZM502 441Q502 479 477 502T398 525H317V354H389Q412 354 432 358T468 373T493 400T502 441ZM404 9Q472 9 530 32T632 97T701 199T726 332Q726 404 701 463T633 566T531 633T404 657Q336 657 278 634T176 569T107 467T82 334Q82 262 107 203T175 100T277 33T404 9ZM404 -11Q329 -11 266 14T158 85T86 194T60 334Q60 411 86 474T159 582T268 652T404 677Q479 677 542 652T650 580T722 471T748 332Q748 255 722 192T649 84T540 14T404 -11Z"  />
<glyph unicode="&#xAF;" horiz-adv-x="188" d="M60 646L65 666H249L244 646H60Z"  />
<glyph unicode="&#xB0;" horiz-adv-x="400" d="M254 657Q226 657 203 647T162 620T135 578T125 526Q125 481 152 453T229 425Q257 425 280 435T321 462T348 504T358 556Q358 601 331 629T254 657ZM255 677Q314 677 347 644T380 557Q380 525 369 498T337 450T289 417T228 405Q169 405 136 438T103 525Q103 557 114 584T146 632T194 665T255 677Z"  />
<glyph unicode="&#xB1;" horiz-adv-x="504" d="M233 254V67H211V254H-21V274H211V454H233V274H465V254H233ZM-21 0V20H465V0H-21Z"  />
<glyph unicode="&#xB2;" horiz-adv-x="380" d="M61 378L65 396L217 515Q256 546 281 569T319 613T338 650T343 687Q343 719 322 738T262 758Q235 758 210 752T159 733V754Q185 766 209 772T264 778Q312 778 338 752T365 687Q365 665 359 645T338 602T297 555T229 498L99 398H315L311 378H61Z"  />
<glyph unicode="&#xB3;" horiz-adv-x="380" d="M251 778Q279 778 300 771T334 751T354 722T361 689Q361 643 331 615T257 580Q289 575 310 553T332 498Q332 435 286 403T167 371Q138 371 112 374T62 385L67 406Q91 398 116 395T168 391Q230 391 270 416T310 498Q310 530 286 551T212 572H152L156 592H216Q241 592 263 598T302 616T329 646T339 688Q339 716 318 737T249 758Q199 758 149 739V759Q199 778 251 778Z"  />
<glyph unicode="&#xB4;" horiz-adv-x="188" d="M138 585H119L221 721H248L138 585Z"  />
<glyph unicode="&#xB5;" horiz-adv-x="505" d="M333 0L349 95Q295 -11 184 -11Q136 -11 102 16T63 94L-3 -216H-25L125 493H147L83 192Q76 160 76 131Q76 98 85 75T109 37T144 16T188 9Q258 9 303 56T366 187L431 493H453L375 122Q362 64 355 0H333Z"  />
<glyph unicode="&#xB6;" horiz-adv-x="504" d="M323 -108L485 659H313L151 -108H129L219 322Q184 322 155 333T106 363T74 410T62 471Q62 524 80 563T130 628T204 666T294 679H511L345 -108H323Z"  />
<glyph unicode="&#xB7;" horiz-adv-x="252" d="M100 280L114 342H143L129 280H100Z"  />
<glyph unicode="&#xB8;" horiz-adv-x="188" d="M5 -62Q24 -55 43 -55Q69 -55 83 -68T97 -104Q97 -132 76 -148T14 -165Q-6 -165 -23 -163T-60 -154L-55 -134Q-37 -141 -20 -143T14 -146Q45 -146 60 -135T76 -104Q76 -90 66 -81T33 -72Q10 -72 -17 -81L-23 -72L30 0H50L5 -62Z"  />
<glyph unicode="&#xB9;" horiz-adv-x="380" d="M203 378L280 744L164 669L153 686L287 771H308L225 378H203Z"  />
<glyph unicode="&#xBA;" horiz-adv-x="350" d="M194 392Q225 392 251 406T295 444T323 495T333 551Q333 599 309 628T231 657Q199 657 174 643T130 605T102 554T92 498Q92 450 116 421T194 392ZM192 372Q132 372 101 407T70 497Q70 528 82 560T115 618T167 660T233 677Q293 677 324 642T355 552Q355 520 343 488T310 431T258 389T192 372Z"  />
<glyph unicode="&#xBB;" horiz-adv-x="400" d="M29 55H0L163 256L69 448H94L190 253L29 55ZM176 55H147L310 256L216 448H241L337 253L176 55Z"  />
<glyph unicode="&#xBC;" horiz-adv-x="785" d="M149 -24H126L566 691H589L149 -24ZM164 277L241 643L125 568L114 585L248 670H269L186 277H164ZM597 99L576 0H554L575 99H360L364 118L635 391H660L601 119H664L660 99H597ZM633 364L391 119H580L633 364Z"  />
<glyph unicode="&#xBD;" horiz-adv-x="785" d="M138 -24H115L555 691H578L138 -24ZM150 277L227 643L111 568L100 585L234 670H255L172 277H150ZM399 0L403 18L555 137Q594 168 619 191T657 235T676 272T681 309Q681 341 660 360T600 380Q573 380 548 374T497 355V376Q523 388 547 394T602 400Q650 400 676 374T703 309Q703 287 697 267T676 224T635 177T567 120L437 20H653L649 0H399Z"  />
<glyph unicode="&#xBE;" horiz-adv-x="785" d="M210 -24H187L627 691H650L210 -24ZM230 677Q258 677 279 670T313 650T333 621T340 588Q340 542 310 514T236 479Q268 474 289 452T311 397Q311 334 265 302T146 270Q117 270 91 273T41 284L46 305Q70 297 95 294T147 290Q209 290 249 315T289 397Q289 429 265 450T191 471H131L135 491H195Q220 491 242 497T281 515T308 545T318 587Q318 615 297 636T228 657Q178 657 128 638V658Q178 677 230 677ZM649 99L628 0H606L627 99H412L416 118L687 391H712L653 119H716L712 99H649ZM685 364L443 119H632L685 364Z"  />
<glyph unicode="&#xBF;" horiz-adv-x="367" d="M259 493L246 431H217L230 493H259ZM108 -184Q43 -184 4 -147T-35 -48Q-35 -5 -20 27T18 85T70 133T124 180T170 233T198 301L208 351H230L220 301Q212 259 191 228T145 172T91 125T40 78T2 23T-13 -48Q-13 -103 20 -133T108 -164Q140 -164 171 -156T235 -131V-153Q203 -168 172 -176T108 -184Z"  />
<glyph unicode="&#xC0;" horiz-adv-x="559" d="M431 197H88L-31 0H-57L344 667H368L488 0H465L431 197ZM98 217H427L352 641L98 217ZM364 724L291 860H317L382 724H364Z"  />
<glyph unicode="&#xC1;" horiz-adv-x="559" d="M431 197H88L-31 0H-57L344 667H368L488 0H465L431 197ZM98 217H427L352 641L98 217ZM369 724H350L452 860H479L369 724Z"  />
<glyph unicode="&#xC2;" horiz-adv-x="559" d="M431 197H88L-31 0H-57L344 667H368L488 0H465L431 197ZM98 217H427L352 641L98 217ZM458 724L385 846L262 724H236L373 860H399L480 724H458Z"  />
<glyph unicode="&#xC3;" horiz-adv-x="559" d="M431 197H88L-31 0H-57L344 667H368L488 0H465L431 197ZM98 217H427L352 641L98 217ZM325 826Q342 826 355 818T379 801T402 783T429 775Q452 775 465 791T485 833H506Q498 795 478 775T427 755Q409 755 396 763T371 780T348 798T323 806Q300 806 287 790T267 748H246Q254 786 274 806T325 826Z"  />
<glyph unicode="&#xC4;" horiz-adv-x="559" d="M431 197H88L-31 0H-57L344 667H368L488 0H465L431 197ZM98 217H427L352 641L98 217ZM293 761L306 823H330L317 761H293ZM420 761L433 823H457L444 761H420Z"  />
<glyph unicode="&#xC5;" horiz-adv-x="559" d="M431 197H88L-31 0H-57L344 667H368L488 0H465L431 197ZM98 217H427L352 641L98 217ZM373 857Q344 857 327 839T310 792Q310 765 327 746T373 727Q402 727 418 745T435 792Q435 819 419 838T373 857ZM373 877Q410 877 433 852T456 792Q456 757 433 732T373 707Q336 707 313 732T289 792Q289 827 313 852T373 877Z"  />
<glyph unicode="&#xC6;" horiz-adv-x="754" d="M335 0L377 197H117L-40 0H-68L466 667H750L746 647H494L433 360H674L670 340H429L361 20H631L627 0H335ZM131 217H381L473 644L131 217Z"  />
<glyph unicode="&#xC7;" horiz-adv-x="544" d="M435 677Q480 677 512 670T574 652L569 631Q542 643 509 650T433 657Q352 657 286 626T173 542T99 416T73 261Q73 209 86 164T128 84T200 29T305 9Q343 9 378 15T452 38V17Q415 0 375 -5T303 -11H290L253 -62Q272 -55 291 -55Q317 -55 331 -68T345 -104Q345 -132 324 -148T262 -165Q242 -165 225 -163T188 -154L193 -134Q211 -141 228 -143T262 -146Q293 -146 308 -135T324 -104Q324 -90 314 -81T281 -72Q258 -72 231 -81L225 -72L271 -9Q215 -4 174 19T105 78T65 161T51 261Q51 348 79 423T157 555T278 644T435 677Z"  />
<glyph unicode="&#xC8;" horiz-adv-x="453" d="M28 0L169 667H449L445 647H187L126 360H373L369 340H122L54 20H330L326 0H28ZM329 724L256 860H282L347 724H329Z"  />
<glyph unicode="&#xC9;" horiz-adv-x="453" d="M28 0L169 667H449L445 647H187L126 360H373L369 340H122L54 20H330L326 0H28ZM316 724H297L399 860H426L316 724Z"  />
<glyph unicode="&#xCA;" horiz-adv-x="453" d="M28 0L169 667H449L445 647H187L126 360H373L369 340H122L54 20H330L326 0H28ZM415 724L342 846L219 724H193L330 860H356L437 724H415Z"  />
<glyph unicode="&#xCB;" horiz-adv-x="453" d="M28 0L169 667H449L445 647H187L126 360H373L369 340H122L54 20H330L326 0H28ZM249 761L262 823H286L273 761H249ZM376 761L389 823H413L400 761H376Z"  />
<glyph unicode="&#xCC;" horiz-adv-x="219" d="M50 0H28L169 667H191L50 0ZM194 724L121 860H147L212 724H194Z"  />
<glyph unicode="&#xCD;" horiz-adv-x="219" d="M50 0H28L169 667H191L50 0ZM183 724H164L266 860H293L183 724Z"  />
<glyph unicode="&#xCE;" horiz-adv-x="219" d="M50 0H28L169 667H191L50 0ZM286 724L213 846L90 724H64L201 860H227L308 724H286Z"  />
<glyph unicode="&#xCF;" horiz-adv-x="219" d="M50 0H28L169 667H191L50 0ZM118 761L131 823H155L142 761H118ZM245 761L258 823H282L269 761H245Z"  />
<glyph unicode="&#xD0;" horiz-adv-x="614" d="M563 424Q563 327 538 249T465 115T346 30T184 0H28L98 330H22L27 349H102L169 667H306Q435 667 499 603T563 424ZM541 424Q541 530 484 588T302 647H187L124 349H330L326 330H120L54 20H184Q270 20 336 48T448 128T517 255T541 424Z"  />
<glyph unicode="&#xD1;" horiz-adv-x="633" d="M464 0H443L182 628L50 0H28L169 667H190L451 39L583 667H605L464 0ZM353 826Q370 826 383 818T407 801T430 783T457 775Q480 775 493 791T513 833H534Q526 795 506 775T455 755Q437 755 424 763T399 780T376 798T351 806Q328 806 315 790T295 748H274Q282 786 302 806T353 826Z"  />
<glyph unicode="&#xD2;" horiz-adv-x="643" d="M264 9Q338 9 395 47T491 145T550 281T570 432Q570 475 560 516T527 588T468 638T379 657Q305 657 248 619T152 520T93 384T73 234Q73 191 83 151T116 79T175 28T264 9ZM264 -11Q207 -11 167 9T101 64T63 142T51 234Q51 312 73 391T137 533T240 637T379 677Q436 677 476 657T542 602T580 524T592 432Q592 353 571 274T507 132T404 29T264 -11ZM407 724L334 860H360L425 724H407Z"  />
<glyph unicode="&#xD3;" horiz-adv-x="643" d="M264 9Q338 9 395 47T491 145T550 281T570 432Q570 475 560 516T527 588T468 638T379 657Q305 657 248 619T152 520T93 384T73 234Q73 191 83 151T116 79T175 28T264 9ZM264 -11Q207 -11 167 9T101 64T63 142T51 234Q51 312 73 391T137 533T240 637T379 677Q436 677 476 657T542 602T580 524T592 432Q592 353 571 274T507 132T404 29T264 -11ZM394 724H375L477 860H504L394 724Z"  />
<glyph unicode="&#xD4;" horiz-adv-x="643" d="M264 9Q338 9 395 47T491 145T550 281T570 432Q570 475 560 516T527 588T468 638T379 657Q305 657 248 619T152 520T93 384T73 234Q73 191 83 151T116 79T175 28T264 9ZM264 -11Q207 -11 167 9T101 64T63 142T51 234Q51 312 73 391T137 533T240 637T379 677Q436 677 476 657T542 602T580 524T592 432Q592 353 571 274T507 132T404 29T264 -11ZM495 724L422 846L299 724H273L410 860H436L517 724H495Z"  />
<glyph unicode="&#xD5;" horiz-adv-x="643" d="M264 9Q338 9 395 47T491 145T550 281T570 432Q570 475 560 516T527 588T468 638T379 657Q305 657 248 619T152 520T93 384T73 234Q73 191 83 151T116 79T175 28T264 9ZM264 -11Q207 -11 167 9T101 64T63 142T51 234Q51 312 73 391T137 533T240 637T379 677Q436 677 476 657T542 602T580 524T592 432Q592 353 571 274T507 132T404 29T264 -11ZM359 826Q376 826 389 818T413 801T436 783T463 775Q486 775 499 791T519 833H540Q532 795 512 775T461 755Q443 755 430 763T405 780T382 798T357 806Q334 806 321 790T301 748H280Q288 786 308 806T359 826Z"  />
<glyph unicode="&#xD6;" horiz-adv-x="643" d="M264 9Q338 9 395 47T491 145T550 281T570 432Q570 475 560 516T527 588T468 638T379 657Q305 657 248 619T152 520T93 384T73 234Q73 191 83 151T116 79T175 28T264 9ZM264 -11Q207 -11 167 9T101 64T63 142T51 234Q51 312 73 391T137 533T240 637T379 677Q436 677 476 657T542 602T580 524T592 432Q592 353 571 274T507 132T404 29T264 -11ZM328 761L341 823H365L352 761H328ZM455 761L468 823H492L479 761H455Z"  />
<glyph unicode="&#xD7;" horiz-adv-x="504" d="M0 439L14 454L222 245L430 454L444 439L236 231L444 23L430 8L222 216L14 8L0 23L207 231L0 439Z"  />
<glyph unicode="&#xD8;" horiz-adv-x="643" d="M-5 -11L85 87Q67 119 59 156T51 234Q51 312 73 391T137 533T240 637T379 677Q439 677 480 655T548 594L636 691L650 677L558 577Q575 545 583 508T592 432Q592 353 571 274T507 132T404 29T264 -11Q204 -11 163 11T96 70L9 -25L-5 -11ZM73 234Q73 199 79 166T100 104L533 578Q510 613 473 635T379 657Q305 657 248 619T152 520T93 384T73 234ZM264 9Q338 9 395 47T491 145T550 281T570 432Q570 467 564 499T543 560L111 87Q134 52 171 31T264 9Z"  />
<glyph unicode="&#xD9;" horiz-adv-x="608" d="M492 219Q467 103 407 46T243 -11Q202 -11 168 0T110 33T73 85T59 152Q59 187 66 222L160 667H182L87 219Q83 202 82 186T81 152Q81 89 124 49T245 9Q339 9 393 62T470 219L565 667H587L492 219ZM387 724L314 860H340L405 724H387Z"  />
<glyph unicode="&#xDA;" horiz-adv-x="608" d="M492 219Q467 103 407 46T243 -11Q202 -11 168 0T110 33T73 85T59 152Q59 187 66 222L160 667H182L87 219Q83 202 82 186T81 152Q81 89 124 49T245 9Q339 9 393 62T470 219L565 667H587L492 219ZM374 724H355L457 860H484L374 724Z"  />
<glyph unicode="&#xDB;" horiz-adv-x="608" d="M492 219Q467 103 407 46T243 -11Q202 -11 168 0T110 33T73 85T59 152Q59 187 66 222L160 667H182L87 219Q83 202 82 186T81 152Q81 89 124 49T245 9Q339 9 393 62T470 219L565 667H587L492 219ZM475 724L402 846L279 724H253L390 860H416L497 724H475Z"  />
<glyph unicode="&#xDC;" horiz-adv-x="608" d="M492 219Q467 103 407 46T243 -11Q202 -11 168 0T110 33T73 85T59 152Q59 187 66 222L160 667H182L87 219Q83 202 82 186T81 152Q81 89 124 49T245 9Q339 9 393 62T470 219L565 667H587L492 219ZM308 761L321 823H345L332 761H308ZM435 761L448 823H472L459 761H435Z"  />
<glyph unicode="&#xDD;" horiz-adv-x="501" d="M63 667H88L239 329L536 667H565L245 305L181 0H159L224 309L63 667ZM312 724H293L395 860H422L312 724Z"  />
<glyph unicode="&#xDE;" horiz-adv-x="468" d="M426 369Q426 316 409 278T362 214T289 177T197 165H85L50 0H28L169 667H191L158 511H264Q336 511 381 475T426 369ZM404 369Q404 432 365 461T260 491H154L89 185H189Q238 185 278 195T346 227T389 284T404 369Z"  />
<glyph unicode="&#xDF;" horiz-adv-x="490" d="M418 124Q418 94 407 69T375 26T327 -1T266 -11Q231 -11 200 -5T144 11L149 32Q200 9 266 9Q325 9 360 38T396 124Q396 152 384 173T352 212T311 245T269 277T238 314T225 362Q225 388 234 406T260 439T296 464T338 484Q361 494 380 505T414 530T437 564T445 609Q445 660 414 685T331 711Q262 711 217 670T155 553L19 -91Q-9 -227 -102 -227Q-115 -227 -123 -227T-146 -222L-141 -201Q-129 -205 -120 -206T-100 -207Q-64 -207 -40 -180T-3 -91L133 553Q150 634 201 682T333 731Q391 731 428 700T465 609Q465 579 455 557T429 518T390 489T345 467Q324 458 306 449T275 429T254 401T246 362Q246 338 258 320T290 286T332 254T373 220T405 178T418 124Z"  />
<glyph unicode="&#xE0;" horiz-adv-x="500" d="M45 151Q45 82 78 46T163 9Q201 9 235 27T296 77T344 151T375 244L424 472Q406 478 390 480T354 483Q286 483 230 453T132 375T68 268T45 151ZM396 240Q376 149 368 89T359 0H338Q339 28 344 63T362 153Q328 67 273 28T160 -11Q100 -11 63 31T25 149Q25 211 49 274T117 388T222 471T357 503Q378 503 400 500T449 487L396 240ZM344 585L271 721H297L362 585H344Z"  />
<glyph unicode="&#xE1;" horiz-adv-x="500" d="M45 151Q45 82 78 46T163 9Q201 9 235 27T296 77T344 151T375 244L424 472Q406 478 390 480T354 483Q286 483 230 453T132 375T68 268T45 151ZM396 240Q376 149 368 89T359 0H338Q339 28 344 63T362 153Q328 67 273 28T160 -11Q100 -11 63 31T25 149Q25 211 49 274T117 388T222 471T357 503Q378 503 400 500T449 487L396 240ZM331 585H312L414 721H441L331 585Z"  />
<glyph unicode="&#xE2;" horiz-adv-x="500" d="M45 151Q45 82 78 46T163 9Q201 9 235 27T296 77T344 151T375 244L424 472Q406 478 390 480T354 483Q286 483 230 453T132 375T68 268T45 151ZM396 240Q376 149 368 89T359 0H338Q339 28 344 63T362 153Q328 67 273 28T160 -11Q100 -11 63 31T25 149Q25 211 49 274T117 388T222 471T357 503Q378 503 400 500T449 487L396 240ZM430 585L357 707L234 585H208L345 721H371L452 585H430Z"  />
<glyph unicode="&#xE3;" horiz-adv-x="500" d="M45 151Q45 82 78 46T163 9Q201 9 235 27T296 77T344 151T375 244L424 472Q406 478 390 480T354 483Q286 483 230 453T132 375T68 268T45 151ZM396 240Q376 149 368 89T359 0H338Q339 28 344 63T362 153Q328 67 273 28T160 -11Q100 -11 63 31T25 149Q25 211 49 274T117 388T222 471T357 503Q378 503 400 500T449 487L396 240ZM292 688Q309 688 322 680T346 663T369 645T396 637Q419 637 432 653T452 695H473Q465 657 445 637T394 617Q376 617 363 625T338 642T315 660T290 668Q267 668 254 652T234 610H213Q221 648 241 668T292 688Z"  />
<glyph unicode="&#xE4;" horiz-adv-x="500" d="M45 151Q45 82 78 46T163 9Q201 9 235 27T296 77T344 151T375 244L424 472Q406 478 390 480T354 483Q286 483 230 453T132 375T68 268T45 151ZM396 240Q376 149 368 89T359 0H338Q339 28 344 63T362 153Q328 67 273 28T160 -11Q100 -11 63 31T25 149Q25 211 49 274T117 388T222 471T357 503Q378 503 400 500T449 487L396 240ZM263 623L276 685H300L287 623H263ZM390 623L403 685H427L414 623H390Z"  />
<glyph unicode="&#xE5;" horiz-adv-x="500" d="M45 151Q45 82 78 46T163 9Q201 9 235 27T296 77T344 151T375 244L424 472Q406 478 390 480T354 483Q286 483 230 453T132 375T68 268T45 151ZM396 240Q376 149 368 89T359 0H338Q339 28 344 63T362 153Q328 67 273 28T160 -11Q100 -11 63 31T25 149Q25 211 49 274T117 388T222 471T357 503Q378 503 400 500T449 487L396 240ZM346 719Q317 719 300 701T283 654Q283 627 300 608T346 589Q375 589 391 607T408 654Q408 681 392 700T346 719ZM346 739Q383 739 406 714T429 654Q429 619 406 594T346 569Q309 569 286 594T262 654Q262 689 286 714T346 739Z"  />
<glyph unicode="&#xE6;" horiz-adv-x="775" d="M45 151Q45 82 78 46T163 9Q200 9 233 27T293 77T339 152T370 244L419 472Q401 478 384 480T347 483Q284 483 229 453T133 375T69 268T45 151ZM715 398Q715 433 694 458T626 483Q583 483 547 463T481 412T430 341T397 265Q494 265 555 276T652 306T701 349T715 398ZM391 245Q385 225 382 202T378 154Q378 88 412 49T513 9Q539 9 568 15T628 33V12Q599 1 571 -5T511 -11Q439 -11 399 33T359 152Q323 66 270 28T160 -11Q100 -11 63 31T25 149Q25 211 49 274T117 388T220 471T350 503Q373 503 395 500T444 487L408 336Q446 412 504 457T629 503Q656 503 676 495T709 472T729 440T736 402Q736 371 722 343T669 293T563 258T391 245Z"  />
<glyph unicode="&#xE7;" horiz-adv-x="412" d="M294 503Q325 503 349 499T396 485L391 464Q369 473 346 478T292 483Q234 483 189 456T112 386T65 289T48 181Q48 100 89 55T201 9Q228 9 251 13T302 27V6Q277 -3 253 -7T195 -11L158 -62Q177 -55 196 -55Q222 -55 236 -68T250 -104Q250 -132 229 -148T167 -165Q147 -165 130 -163T93 -154L98 -134Q116 -141 133 -143T167 -146Q198 -146 213 -135T229 -104Q229 -90 219 -81T186 -72Q163 -72 136 -81L130 -72L175 -10Q108 -2 67 48T26 181Q26 239 44 296T96 400T181 474T294 503Z"  />
<glyph unicode="&#xE8;" d="M392 398Q392 433 371 458T303 483Q258 483 220 462T151 409T99 339T65 265Q165 265 229 276T329 306T378 349T392 398ZM25 155Q25 207 45 267T102 380T191 468T306 503Q333 503 353 495T386 472T406 440T413 402Q413 371 399 343T345 293T237 258T59 245Q53 225 50 202T46 155Q46 85 81 47T185 9Q214 9 244 15T305 33V12Q276 1 246 -5T183 -11Q109 -11 67 32T25 155ZM322 585L249 721H275L340 585H322Z"  />
<glyph unicode="&#xE9;" d="M392 398Q392 433 371 458T303 483Q258 483 220 462T151 409T99 339T65 265Q165 265 229 276T329 306T378 349T392 398ZM25 155Q25 207 45 267T102 380T191 468T306 503Q333 503 353 495T386 472T406 440T413 402Q413 371 399 343T345 293T237 258T59 245Q53 225 50 202T46 155Q46 85 81 47T185 9Q214 9 244 15T305 33V12Q276 1 246 -5T183 -11Q109 -11 67 32T25 155ZM318 585H299L401 721H428L318 585Z"  />
<glyph unicode="&#xEA;" d="M392 398Q392 433 371 458T303 483Q258 483 220 462T151 409T99 339T65 265Q165 265 229 276T329 306T378 349T392 398ZM25 155Q25 207 45 267T102 380T191 468T306 503Q333 503 353 495T386 472T406 440T413 402Q413 371 399 343T345 293T237 258T59 245Q53 225 50 202T46 155Q46 85 81 47T185 9Q214 9 244 15T305 33V12Q276 1 246 -5T183 -11Q109 -11 67 32T25 155ZM412 585L339 707L216 585H190L327 721H353L434 585H412Z"  />
<glyph unicode="&#xEB;" d="M392 398Q392 433 371 458T303 483Q258 483 220 462T151 409T99 339T65 265Q165 265 229 276T329 306T378 349T392 398ZM25 155Q25 207 45 267T102 380T191 468T306 503Q333 503 353 495T386 472T406 440T413 402Q413 371 399 343T345 293T237 258T59 245Q53 225 50 202T46 155Q46 85 81 47T185 9Q214 9 244 15T305 33V12Q276 1 246 -5T183 -11Q109 -11 67 32T25 155ZM245 623L258 685H282L269 623H245ZM372 623L385 685H409L396 623H372Z"  />
<glyph unicode="&#xEC;" horiz-adv-x="189" d="M12 0L117 493H139L34 0H12ZM149 585L76 721H102L167 585H149Z"  />
<glyph unicode="&#xED;" horiz-adv-x="189" d="M12 0L117 493H139L34 0H12ZM138 585H119L221 721H248L138 585Z"  />
<glyph unicode="&#xEE;" horiz-adv-x="189" d="M12 0L117 493H139L34 0H12ZM241 585L168 707L45 585H19L156 721H182L263 585H241Z"  />
<glyph unicode="&#xEF;" horiz-adv-x="189" d="M12 0L117 493H139L34 0H12ZM73 623L86 685H110L97 623H73ZM200 623L213 685H237L224 623H200Z"  />
<glyph unicode="&#xF0;" horiz-adv-x="529" d="M343 651Q319 668 292 681T229 703L234 721Q271 712 301 697T361 661L470 721L477 705L376 648Q414 613 441 551T468 404Q468 335 453 262T405 128T320 28T192 -11Q150 -11 119 4T67 46T36 104T26 172Q26 230 44 287T95 389T177 463T286 491Q314 491 342 482T392 452T429 399T446 321Q448 350 448 369T449 404Q449 485 425 544T358 638L247 581L240 597L343 651ZM282 471Q226 471 183 445T109 376T64 280T48 175Q48 142 56 112T83 59T129 23T196 9Q254 9 298 37T372 109T417 203T432 299Q432 376 393 423T282 471Z"  />
<glyph unicode="&#xF1;" horiz-adv-x="504" d="M113 389Q145 449 194 476T294 503Q358 503 392 468T427 377Q427 360 425 341T417 302L353 0H331L395 302Q400 322 402 341T405 377Q405 426 377 454T291 483Q258 483 227 471T171 436T126 378T98 300L34 0H12L76 300Q82 327 85 346T93 386T100 430T110 493H131L113 389ZM245 688Q262 688 275 680T299 663T322 645T349 637Q372 637 385 653T405 695H426Q418 657 398 637T347 617Q329 617 316 625T291 642T268 660T243 668Q220 668 207 652T187 610H166Q174 648 194 668T245 688Z"  />
<glyph unicode="&#xF2;" horiz-adv-x="517" d="M283 483Q226 483 182 455T109 382T64 284T48 178Q48 144 56 114T83 60T129 23T196 9Q253 9 297 37T371 109T416 208T431 314Q431 348 423 378T396 432T350 469T283 483ZM283 503Q327 503 359 488T412 446T443 386T453 314Q453 257 436 200T385 95T305 19T196 -11Q152 -11 120 4T67 46T36 106T26 178Q26 234 43 291T94 396T175 473T283 503ZM314 585L241 721H267L332 585H314Z"  />
<glyph unicode="&#xF3;" horiz-adv-x="517" d="M283 483Q226 483 182 455T109 382T64 284T48 178Q48 144 56 114T83 60T129 23T196 9Q253 9 297 37T371 109T416 208T431 314Q431 348 423 378T396 432T350 469T283 483ZM283 503Q327 503 359 488T412 446T443 386T453 314Q453 257 436 200T385 95T305 19T196 -11Q152 -11 120 4T67 46T36 106T26 178Q26 234 43 291T94 396T175 473T283 503ZM301 585H282L384 721H411L301 585Z"  />
<glyph unicode="&#xF4;" horiz-adv-x="517" d="M283 483Q226 483 182 455T109 382T64 284T48 178Q48 144 56 114T83 60T129 23T196 9Q253 9 297 37T371 109T416 208T431 314Q431 348 423 378T396 432T350 469T283 483ZM283 503Q327 503 359 488T412 446T443 386T453 314Q453 257 436 200T385 95T305 19T196 -11Q152 -11 120 4T67 46T36 106T26 178Q26 234 43 291T94 396T175 473T283 503ZM401 585L328 707L205 585H179L316 721H342L423 585H401Z"  />
<glyph unicode="&#xF5;" horiz-adv-x="517" d="M283 483Q226 483 182 455T109 382T64 284T48 178Q48 144 56 114T83 60T129 23T196 9Q253 9 297 37T371 109T416 208T431 314Q431 348 423 378T396 432T350 469T283 483ZM283 503Q327 503 359 488T412 446T443 386T453 314Q453 257 436 200T385 95T305 19T196 -11Q152 -11 120 4T67 46T36 106T26 178Q26 234 43 291T94 396T175 473T283 503ZM265 688Q282 688 295 680T319 663T342 645T369 637Q392 637 405 653T425 695H446Q438 657 418 637T367 617Q349 617 336 625T311 642T288 660T263 668Q240 668 227 652T207 610H186Q194 648 214 668T265 688Z"  />
<glyph unicode="&#xF6;" horiz-adv-x="517" d="M283 483Q226 483 182 455T109 382T64 284T48 178Q48 144 56 114T83 60T129 23T196 9Q253 9 297 37T371 109T416 208T431 314Q431 348 423 378T396 432T350 469T283 483ZM283 503Q327 503 359 488T412 446T443 386T453 314Q453 257 436 200T385 95T305 19T196 -11Q152 -11 120 4T67 46T36 106T26 178Q26 234 43 291T94 396T175 473T283 503ZM233 623L246 685H270L257 623H233ZM360 623L373 685H397L384 623H360Z"  />
<glyph unicode="&#xF7;" horiz-adv-x="504" d="M-10 230V250H476V230H-10ZM265 48Q265 35 256 26T233 16Q219 16 210 25T201 48Q201 62 210 71T233 81Q247 81 256 72T265 48ZM265 432Q265 419 256 410T233 400Q219 400 210 409T201 432Q201 446 210 455T233 465Q247 465 256 456T265 432Z"  />
<glyph unicode="&#xF8;" horiz-adv-x="517" d="M283 503Q328 503 359 488T412 446L477 516L490 503L423 430Q453 380 453 314Q453 257 436 200T385 95T305 19T196 -11Q152 -11 121 3T68 44L4 -25L-9 -12L57 59Q41 84 34 114T26 178Q26 234 43 291T94 396T175 473T283 503ZM283 483Q226 483 182 455T109 382T64 284T48 178Q48 149 53 123T72 75L398 430Q380 454 352 468T283 483ZM431 314Q431 372 408 414L82 60Q100 37 128 23T196 9Q253 9 297 37T371 109T416 208T431 314Z"  />
<glyph unicode="&#xF9;" horiz-adv-x="499" d="M348 104Q320 44 273 17T171 -11Q108 -11 74 24T40 115Q40 132 42 151T50 190L114 493H136L72 190Q67 170 65 151T62 115Q62 66 89 38T174 9Q246 9 295 57T363 193L427 493H449L386 194Q380 167 376 147T368 107T360 62T350 0H329L348 104ZM297 585L224 721H250L315 585H297Z"  />
<glyph unicode="&#xFA;" horiz-adv-x="499" d="M348 104Q320 44 273 17T171 -11Q108 -11 74 24T40 115Q40 132 42 151T50 190L114 493H136L72 190Q67 170 65 151T62 115Q62 66 89 38T174 9Q246 9 295 57T363 193L427 493H449L386 194Q380 167 376 147T368 107T360 62T350 0H329L348 104ZM283 585H264L366 721H393L283 585Z"  />
<glyph unicode="&#xFB;" horiz-adv-x="499" d="M348 104Q320 44 273 17T171 -11Q108 -11 74 24T40 115Q40 132 42 151T50 190L114 493H136L72 190Q67 170 65 151T62 115Q62 66 89 38T174 9Q246 9 295 57T363 193L427 493H449L386 194Q380 167 376 147T368 107T360 62T350 0H329L348 104ZM392 585L319 707L196 585H170L307 721H333L414 585H392Z"  />
<glyph unicode="&#xFC;" horiz-adv-x="499" d="M348 104Q320 44 273 17T171 -11Q108 -11 74 24T40 115Q40 132 42 151T50 190L114 493H136L72 190Q67 170 65 151T62 115Q62 66 89 38T174 9Q246 9 295 57T363 193L427 493H449L386 194Q380 167 376 147T368 107T360 62T350 0H329L348 104ZM225 623L238 685H262L249 623H225ZM352 623L365 685H389L376 623H352Z"  />
<glyph unicode="&#xFD;" horiz-adv-x="411" d="M85 -111Q65 -147 50 -169T20 -205T-8 -222T-41 -227Q-55 -227 -74 -223L-69 -202Q-60 -205 -53 -206T-38 -207Q-25 -207 -14 -203T9 -188T34 -157T65 -104L121 -1L48 493H71L138 27L394 493H418L85 -111ZM242 585H223L325 721H352L242 585Z"  />
<glyph unicode="&#xFE;" horiz-adv-x="503" d="M187 721L114 379Q136 416 160 440T210 478T258 497T302 503Q332 503 357 492T400 461T428 410T439 343Q439 277 417 214T352 100T251 20T117 -11Q100 -11 78 -9T33 -1L-12 -216H-34L165 721H187ZM419 341Q419 410 385 446T299 483Q262 483 229 466T168 422T122 358T94 282L38 19Q55 14 78 12T120 9Q187 9 242 38T337 113T397 219T419 341Z"  />
<glyph unicode="&#xFF;" horiz-adv-x="411" d="M85 -111Q65 -147 50 -169T20 -205T-8 -222T-41 -227Q-55 -227 -74 -223L-69 -202Q-60 -205 -53 -206T-38 -207Q-25 -207 -14 -203T9 -188T34 -157T65 -104L121 -1L48 493H71L138 27L394 493H418L85 -111ZM174 623L187 685H211L198 623H174ZM301 623L314 685H338L325 623H301Z"  />
<glyph unicode="&#x131;" horiz-adv-x="189" d="M12 0L117 493H139L34 0H12Z"  />
<glyph unicode="&#x152;" horiz-adv-x="815" d="M405 0Q374 -6 350 -8T300 -11Q232 -11 185 9T108 63T65 143T51 239Q51 319 77 397T152 538T274 638T438 677Q464 677 492 675T547 667H811L807 647H555L494 360H735L731 340H490L422 20H692L688 0H405ZM300 9Q332 9 353 12T400 20L533 647Q507 652 487 654T438 657Q351 657 283 621T169 525T98 391T73 239Q73 192 86 151T127 78T197 28T300 9Z"  />
<glyph unicode="&#x153;" horiz-adv-x="820" d="M442 309Q481 406 544 454T674 503Q701 503 721 495T754 472T774 440T781 402Q781 371 767 343T714 293T608 258T436 245Q430 225 427 202T423 154Q423 88 457 49T558 9Q584 9 613 15T673 33V12Q644 1 616 -5T556 -11Q484 -11 445 34T404 149Q373 75 320 32T193 -11Q149 -11 118 4T66 45T36 105T26 178Q26 235 44 293T95 397T176 473T282 503Q325 503 355 488T405 446T433 385T442 309ZM193 9Q248 9 291 37T363 109T407 207T422 314Q422 349 415 379T391 433T348 469T282 483Q227 483 184 455T110 383T64 285T48 178Q48 143 56 113T81 59T126 23T193 9ZM760 398Q760 433 739 458T671 483Q628 483 592 463T526 412T475 341T442 265Q539 265 600 276T697 306T746 349T760 398Z"  />
<glyph unicode="&#x160;" horiz-adv-x="406" d="M-8 39Q20 26 52 18T123 9Q206 9 254 55T303 182Q303 210 295 232T272 274T239 311T199 344Q177 360 157 377T122 415T97 458T87 509Q87 551 103 582T145 635T206 666T277 677Q316 677 347 670T404 650L399 629Q373 642 343 649T277 657Q245 657 215 648T162 621T124 575T109 509Q109 484 117 464T140 426T172 392T212 360Q234 343 254 325T290 286T315 239T325 182Q325 139 311 104T271 43T207 3T123 -11Q84 -11 50 -3T-13 17L-8 39ZM213 860L286 738L409 860H435L298 724H272L191 860H213Z"  />
<glyph unicode="&#x161;" horiz-adv-x="346" d="M-11 32Q40 9 104 9Q161 9 198 39T236 127Q236 150 230 167T212 199T184 227T147 254Q111 279 84 308T56 379Q56 409 68 432T101 471T147 495T201 503Q235 503 262 498T313 481L308 460Q286 471 260 477T201 483Q178 483 156 477T116 458T89 426T78 379Q78 342 102 318T163 267Q182 253 199 239T230 209T250 172T258 127Q258 96 246 71T213 27T164 -1T104 -11Q71 -11 40 -5T-16 11L-11 32ZM148 721L221 599L344 721H370L233 585H207L126 721H148Z"  />
<glyph unicode="&#x178;" horiz-adv-x="501" d="M63 667H88L239 329L536 667H565L245 305L181 0H159L224 309L63 667ZM244 761L257 823H281L268 761H244ZM371 761L384 823H408L395 761H371Z"  />
<glyph unicode="&#x17D;" horiz-adv-x="435" d="M99 647L103 667H467L465 650L-17 20H339L335 0H-48L-45 17L438 647H99ZM220 860L293 738L416 860H442L305 724H279L198 860H220Z"  />
<glyph unicode="&#x17E;" horiz-adv-x="387" d="M74 473L78 493H383L380 476L-6 20H284L280 0H-37L-34 17L353 473H74ZM175 721L248 599L371 721H397L260 585H234L153 721H175Z"  />
<glyph unicode="&#x192;" horiz-adv-x="504" d="M391 657Q346 657 326 628T294 545L264 400H380V380H259L163 -83Q146 -164 115 -195T32 -227Q20 -227 11 -227T-12 -224L-11 -202Q4 -205 12 -206T32 -207Q53 -207 70 -201T100 -180T123 -141T141 -79L237 380H132V400H242L273 549Q286 611 312 644T391 677Q413 677 440 669L437 647Q413 657 391 657Z"  />
<glyph unicode="&#x2C6;" horiz-adv-x="188" d="M241 585L168 707L45 585H19L156 721H182L263 585H241Z"  />
<glyph unicode="&#x2C7;" horiz-adv-x="188" d="M67 721L140 599L263 721H289L152 585H126L45 721H67Z"  />
<glyph unicode="&#x2DA;" horiz-adv-x="188" d="M156 719Q127 719 110 701T93 654Q93 627 110 608T156 589Q185 589 201 607T218 654Q218 681 202 700T156 719ZM156 739Q193 739 216 714T239 654Q239 619 216 594T156 569Q119 569 96 594T72 654Q72 689 96 714T156 739Z"  />
<glyph unicode="&#x2DC;" horiz-adv-x="188" d="M102 688Q119 688 132 680T156 663T179 645T206 637Q229 637 242 653T262 695H283Q275 657 255 637T204 617Q186 617 173 625T148 642T125 660T100 668Q77 668 64 652T44 610H23Q31 648 51 668T102 688Z"  />
<glyph unicode="&#x2013;" horiz-adv-x="500" d="M502 320L497 300H-2L3 320H502Z"  />
<glyph unicode="&#x2014;" horiz-adv-x="1000" d="M-7 300L-2 320H996L991 300H-7Z"  />
<glyph unicode="&#x2018;" horiz-adv-x="252" d="M231 721H248L163 531H135L231 721Z"  />
<glyph unicode="&#x2019;" horiz-adv-x="252" d="M152 531H135L220 721H248L152 531Z"  />
<glyph unicode="&#x201A;" horiz-adv-x="252" d="M2 -128H-15L70 62H98L2 -128Z"  />
<glyph unicode="&#x201C;" horiz-adv-x="390" d="M369 721H386L301 531H273L369 721ZM231 721H248L163 531H135L231 721Z"  />
<glyph unicode="&#x201D;" horiz-adv-x="390" d="M152 531H135L220 721H248L152 531ZM290 531H273L358 721H386L290 531Z"  />
<glyph unicode="&#x201E;" horiz-adv-x="390" d="M2 -128H-15L70 62H98L2 -128ZM140 -128H123L208 62H236L140 -128Z"  />
<glyph unicode="&#x2020;" horiz-adv-x="504" d="M275 451L153 -128H131L253 451H75L79 471H257L309 721H331L279 471H457L453 451H275Z"  />
<glyph unicode="&#x2021;" horiz-adv-x="504" d="M275 451L211 144H389L383 124H205L153 -128H131L183 124H5L11 144H189L253 451H75L79 471H257L309 721H331L279 471H457L453 451H275Z"  />
<glyph unicode="&#x2022;" horiz-adv-x="504" d="M340 311Q340 292 333 275T314 246T285 226T250 218Q232 218 216 225T187 245T167 275T160 311Q160 330 167 347T186 376T215 396T250 404Q268 404 284 397T313 377T333 347T340 311Z"  />
<glyph unicode="&#x2026;" horiz-adv-x="1000" d="M82 0L95 62H124L111 0H82ZM415 0L428 62H457L444 0H415ZM748 0L761 62H790L777 0H748Z"  />
<glyph unicode="&#x2030;" horiz-adv-x="1111" d="M188 -24H165L605 691H628L188 -24ZM170 290Q206 290 234 312T281 370T311 449T322 536Q322 587 300 622T229 657Q194 657 166 635T119 577T89 497T78 410Q78 359 100 325T170 290ZM231 677Q258 677 279 666T315 636T336 591T344 536Q344 489 332 442T297 357T241 294T168 270Q141 270 120 281T85 311T63 355T56 410Q56 457 68 504T103 590T158 653T231 677ZM560 9Q596 9 624 31T671 89T701 168T712 255Q712 306 690 341T619 376Q584 376 556 354T509 296T479 216T468 129Q468 78 490 44T560 9ZM621 396Q648 396 669 385T705 355T726 310T734 255Q734 208 722 161T687 76T631 13T558 -11Q531 -11 510 0T475 30T453 74T446 129Q446 176 458 223T493 309T548 372T621 396ZM896 9Q932 9 960 31T1007 89T1037 168T1048 255Q1048 306 1026 341T955 376Q920 376 892 354T845 296T815 216T804 129Q804 78 826 44T896 9ZM957 396Q984 396 1005 385T1041 355T1062 310T1070 255Q1070 208 1058 161T1023 76T967 13T894 -11Q867 -11 846 0T811 30T789 74T782 129Q782 176 794 223T829 309T884 372T957 396Z"  />
<glyph unicode="&#x2039;" horiz-adv-x="252" d="M184 448H213L50 247L144 55H119L23 250L184 448Z"  />
<glyph unicode="&#x203A;" horiz-adv-x="252" d="M29 55H0L163 256L69 448H94L190 253L29 55Z"  />
<glyph unicode="&#x20AC;" horiz-adv-x="504" d="M426 677Q454 677 477 673T524 658L515 639Q492 649 472 653T424 657Q373 657 329 638T250 584T188 505T145 407H438L431 387H140Q133 361 130 334T124 280H400L393 260H124Q124 132 175 71T316 9Q342 9 362 13T404 24V3Q366 -11 314 -11Q217 -11 161 55T105 260H17L24 280H105Q108 335 120 387H37L44 407H125Q141 463 169 512T236 598T322 656T426 677Z"  />
<glyph unicode="&#x2122;" horiz-adv-x="843" d="M785 266V645L609 266H586L410 646V266H388V667H423L598 286L774 667H806V266H785ZM187 647V266H165V647H36V667H318V647H187Z"  />
<glyph unicode="&#xE300;" horiz-adv-x="188" d="M194 724L121 860H147L212 724H194Z"  />
<glyph unicode="&#xE301;" horiz-adv-x="188" d="M183 724H164L266 860H293L183 724Z"  />
<glyph unicode="&#xE302;" horiz-adv-x="188" d="M286 724L213 846L90 724H64L201 860H227L308 724H286Z"  />
<glyph unicode="&#xE303;" horiz-adv-x="188" d="M112 860L185 738L308 860H334L197 724H171L90 860H112Z"  />
<glyph unicode="&#xE304;" horiz-adv-x="188" d="M147 826Q164 826 177 818T201 801T224 783T251 775Q274 775 287 791T307 833H328Q320 795 300 775T249 755Q231 755 218 763T193 780T170 798T145 806Q122 806 109 790T89 748H68Q76 786 96 806T147 826Z"  />
<glyph unicode="&#xE305;" horiz-adv-x="188" d="M118 761L131 823H155L142 761H118ZM245 761L258 823H282L269 761H245Z"  />
<glyph unicode="&#xE308;" horiz-adv-x="188" d="M201 857Q172 857 155 839T138 792Q138 765 155 746T201 727Q230 727 246 745T263 792Q263 819 247 838T201 857ZM201 877Q238 877 261 852T284 792Q284 757 261 732T201 707Q164 707 141 732T117 792Q117 827 141 852T201 877Z"  />

</font>
</defs>
</svg>
