<?xml  version="1.0" encoding="UTF-8"?>
<!DOCTYPE svg PUBLIC "-//W3C//DTD SVG 1.0//EN" "http://www.w3.org/TR/2001/REC-SVG-20010904/DTD/svg10.dtd" >
<svg xmlns="http://www.w3.org/2000/svg" >
<metadata>
<version>1.0</version>
<id><![CDATA[Frutiger Next W01 Light Cn]]></id>
<vendor>Monotype Imaging Inc.</vendor>
<credits>
<name>Fonts.com WebFonts</name>
<URL>http://webfonts.fonts.com</URL>
<role>Home of the Web fonts</role>
</credits>
<license>
<URL>http://webfonts.fonts.com/Legal</URL>
</license>
<copyright><![CDATA[Copyright © 2007 Linotype GmbH, www.linotype.com. All rights reserved. This font software may not be reproduced, modified, disclosed or transferred without the express written approval of Linotype GmbH. Frutiger Next is a trademark of Linotype GmbH and may be registered in certain jurisdictions. This typeface is original artwork of Adrian Frutiger and Linotype Design Studio. The design may be protected in certain jurisdictions.]]></copyright>
<trademark><![CDATA[Frutiger Next is a trademark of Linotype GmbH and may be registered in certain jurisdictions.]]></trademark>
<licensee>
<name></name>
</licensee>
</metadata>
<defs >
<font horiz-adv-x="417" id="a369207c-7e56-40ac-a9f0-a984070f0643">
<font-face font-family="" panose-1="2 11 3 6 4 2 4 2 2 3" ascent="905" descent="-279" units-per-em="1000" alphabetic="0">
</font-face>
<missing-glyph horiz-adv-x="0" />

<glyph unicode="&#xA;" />
<glyph unicode="&#xD;" horiz-adv-x="0" />
<glyph unicode=" " horiz-adv-x="230" />
<glyph unicode="!" horiz-adv-x="257" d="M94 0V80H163V0H94ZM105 156L97 667H160L152 156H105Z"  />
<glyph unicode="&quot;" horiz-adv-x="357" d="M86 459V667H144V459H86ZM213 459V667H271V459H213Z"  />
<glyph unicode="#" horiz-adv-x="460" d="M164 259H275L292 408H181L164 259ZM88 0L112 213H32V259H118L135 408H55V454H141L165 667H211L187 454H298L322 667H368L344 454H428V408H338L321 259H405V213H315L291 0H245L269 213H158L134 0H88Z"  />
<glyph unicode="$" horiz-adv-x="460" d="M204 -108V-11Q189 -11 172 -9T138 -2T105 8T77 22L83 89Q99 74 117 65T152 51T182 45T204 43Q245 43 269 57T306 92T323 132T327 164Q327 190 322 208T305 242T275 272T231 307L172 352Q124 389 101 424T77 514Q77 557 90 585T124 632T168 660T212 673V774H253V677Q292 676 321 668T361 656L355 591Q335 604 310 613T247 623Q232 623 213 618T176 601T148 570T136 521Q136 476 157 449T213 396L272 352Q305 327 327 307T362 267T380 225T386 173Q386 101 347 53T247 -7V-108H204Z"  />
<glyph unicode="%" horiz-adv-x="730" d="M134 328Q149 311 174 311Q199 311 213 328T233 371T241 423T243 471Q243 491 242 518T234 571T213 613T174 631Q149 631 135 614T113 571T105 519T103 471Q103 450 104 423T113 371T134 328ZM518 52Q533 35 558 35Q583 35 597 52T617 95T625 147T627 195Q627 215 626 242T618 295T597 337T558 355Q533 355 519 338T497 295T489 243T487 195Q487 174 488 147T497 95T518 52ZM109 287Q85 309 72 340T55 407T51 471Q51 498 55 534T73 601T110 655T174 677Q214 677 238 655T274 602T291 535T295 471Q295 443 291 408T275 341T238 287T174 265Q134 265 109 287ZM204 -24L480 691H528L252 -24H204ZM493 11Q469 33 456 64T439 131T435 195Q435 222 439 258T457 325T494 379T558 401Q598 401 622 379T658 326T675 259T679 195Q679 167 675 132T659 65T622 11T558 -11Q518 -11 493 11Z"  />
<glyph unicode="&amp;" horiz-adv-x="515" d="M260 321Q228 321 202 311T156 281T126 236T115 176Q115 116 149 80T244 43Q276 43 304 47T362 62V321H260ZM416 18Q373 4 330 -3T242 -11Q156 -11 106 39T56 177Q56 211 67 241T98 295T146 331T209 347Q141 352 107 395T72 503Q72 543 85 575T120 629T174 664T244 677Q281 677 306 671T366 651L360 592Q343 601 330 606T303 616T276 621T242 623Q190 623 161 589T131 504Q131 442 164 408T260 373H362V456H416V373H495V321H416V18Z"  />
<glyph unicode="&apos;" horiz-adv-x="230" d="M86 459V667H144V459H86Z"  />
<glyph unicode="(" horiz-adv-x="241" d="M192 -128Q129 -30 91 74T53 297Q53 415 91 519T192 721H233Q179 620 146 516T112 297Q112 182 145 78T233 -128H192Z"  />
<glyph unicode=")" horiz-adv-x="241" d="M8 -128Q62 -27 95 77T129 296Q129 411 96 515T8 721H49Q112 623 150 519T188 296Q188 178 150 74T49 -128H8Z"  />
<glyph unicode="*" horiz-adv-x="363" d="M77 390L146 501L32 540L51 593L161 543L153 667H211L204 543L312 593L331 540L218 501L287 390L240 363L181 474L124 363L77 390Z"  />
<glyph unicode="+" horiz-adv-x="530" d="M17 217V266H238V483H292V266H514V217H292V0H238V217H17Z"  />
<glyph unicode="&#x2c;" horiz-adv-x="230" d="M37 -128L86 80H150L83 -128H37Z"  />
<glyph unicode="-" horiz-adv-x="278" d="M44 283V337H234V283H44Z"  />
<glyph unicode="." horiz-adv-x="230" d="M80 0V80H150V0H80Z"  />
<glyph unicode="/" horiz-adv-x="236" d="M10 0L174 667H226L62 0H10Z"  />
<glyph unicode="0" horiz-adv-x="460" d="M146 99Q160 74 180 59T231 43Q261 43 281 58T315 99T336 157T347 221T351 282T352 333Q352 354 352 383T348 445T337 509T316 566T282 607T231 623Q201 623 181 608T147 567T125 509T114 445T109 384T108 333Q108 312 109 283T113 221T125 157T146 99ZM161 6Q132 24 112 52T80 117T60 192T51 267T49 333Q49 362 51 399T61 474T81 548T114 613T163 659T231 677Q271 677 300 660T349 614T381 549T400 474T409 399T411 333Q411 304 409 267T399 192T380 118T347 53T299 7T231 -11Q191 -11 161 6Z"  />
<glyph unicode="1" horiz-adv-x="460" d="M225 0V604L138 506L108 547L223 667H281V0H225Z"  />
<glyph unicode="2" horiz-adv-x="460" d="M56 0V52L113 125Q155 179 191 228T254 324T296 415T312 502Q312 556 287 589T207 623Q176 623 146 612T87 582L81 642Q104 656 137 666T210 677Q258 677 289 661T338 620T364 565T371 508Q371 464 355 417T313 322T251 224T178 126L120 52H380V0H56Z"  />
<glyph unicode="3" horiz-adv-x="460" d="M53 71Q82 57 114 50T175 43Q203 43 229 51T275 78T307 124T319 191Q319 226 306 251T271 291T221 314T163 322H121V374H161Q227 374 271 408T315 514Q315 545 304 565T274 599T233 617T187 623Q129 623 76 591L70 648Q93 661 125 669T189 677Q226 677 260 668T319 639T359 588T374 514Q374 447 341 408T254 351Q314 337 346 298T378 195Q378 144 361 106T316 41T250 2T170 -11Q140 -11 108 -6T47 11L53 71Z"  />
<glyph unicode="4" horiz-adv-x="460" d="M88 208H296V606L88 208ZM38 156V213L277 667H352V208H421V156H352V0H296V156H38Z"  />
<glyph unicode="5" horiz-adv-x="460" d="M75 72Q101 58 130 51T186 43Q225 43 253 56T300 92T328 145T337 210Q337 276 304 316T198 356Q168 356 141 349T88 330L99 667H360V615H155L146 394Q180 408 218 408Q263 408 296 394T352 353T385 292T396 216Q396 168 383 127T342 55T275 7T182 -11Q156 -11 128 -6T67 12L75 72Z"  />
<glyph unicode="6" horiz-adv-x="460" d="M143 99Q157 75 179 59T234 43Q267 43 290 58T329 98T352 152T359 210Q359 239 353 267T332 316T294 351T238 365Q206 365 184 351T147 315T126 265T119 210Q119 183 124 154T143 99ZM384 599Q360 610 336 616T285 623Q230 623 197 593T146 517T119 419T106 322Q126 365 161 392T244 419Q288 419 321 402T375 355T407 288T418 210Q418 168 407 128T372 58T315 8T234 -11Q175 -11 139 18T84 92T57 189T50 287Q50 325 54 368T67 455T93 539T135 609T196 658T280 677Q308 677 335 672T390 659L384 599Z"  />
<glyph unicode="7" horiz-adv-x="460" d="M116 0L321 615H62V667H382V613L177 0H116Z"  />
<glyph unicode="8" horiz-adv-x="460" d="M124 318Q148 337 175 352Q148 367 128 383T93 420T71 464T64 519Q64 554 77 583T113 633T166 665T230 677Q264 677 294 667T346 637T382 589T396 524Q396 467 366 424T281 351Q313 334 338 316T380 275T405 227T414 166Q414 125 400 93T362 37T303 2T230 -11Q145 -11 96 34T46 161Q46 195 56 223T83 275T124 318ZM190 400Q211 387 234 376Q282 401 309 437T337 522Q337 567 307 595T230 623Q206 623 187 615T153 592T131 559T123 519Q123 491 131 470T155 431T190 400ZM272 297Q248 312 222 325Q173 301 139 261T105 166Q105 112 139 78T230 43Q285 43 320 77T355 165Q355 196 344 220T315 263T272 297Z"  />
<glyph unicode="9" horiz-adv-x="460" d="M130 352Q145 329 168 315T225 300Q256 300 278 314T314 351T335 401T342 456Q342 483 336 512T317 566T281 607T225 623Q190 623 167 609T129 572T108 521T101 462Q101 433 108 404T130 352ZM83 69Q110 58 133 51T187 43Q240 43 272 74T322 151T346 248T354 342Q335 297 300 272T216 246Q171 246 138 265T84 315T53 384T42 462Q42 505 54 544T89 612T147 659T226 677Q284 677 320 648T377 574T404 478T411 380Q411 343 409 300T398 214T375 130T336 58T276 8T192 -11Q164 -11 134 -6T77 7L83 69Z"  />
<glyph unicode=":" horiz-adv-x="230" d="M80 0V80H150V0H80ZM80 417V497H150V417H80Z"  />
<glyph unicode=";" horiz-adv-x="230" d="M37 -128L86 80H150L83 -128H37ZM80 417V497H149V417H80Z"  />
<glyph unicode="&lt;" horiz-adv-x="530" d="M15 213V267L512 467V413L77 240L512 68V15L15 213Z"  />
<glyph unicode="=" horiz-adv-x="530" d="M17 125V173H514V125H17ZM17 308V356H514V308H17Z"  />
<glyph unicode="&gt;" horiz-adv-x="530" d="M18 15V68L453 240L18 413V467L515 267V213L18 15Z"  />
<glyph unicode="?" horiz-adv-x="342" d="M103 0V80H173V0H103ZM111 156V170Q111 216 120 251T144 314T176 365T207 410T231 457T241 512Q241 561 213 592T134 623Q83 623 40 593L34 655Q58 665 82 671T131 677Q208 677 254 636T300 515Q300 479 290 453T265 403T233 357T200 308T175 250T165 173V156H111Z"  />
<glyph unicode="@" horiz-adv-x="860" d="M676 -184Q651 -194 627 -202T576 -215T521 -223T457 -226Q365 -226 292 -194T167 -102T89 39T62 221Q62 321 88 413T165 576T291 689T464 731Q542 731 603 702T708 618T775 490T798 325Q798 262 785 202T745 94T682 18T599 -11Q561 -11 534 13T504 89Q472 32 438 11T366 -11Q309 -11 274 33T239 157Q239 217 257 279T310 391T395 474T511 507Q537 507 565 503T623 487L553 170Q546 138 546 106Q546 75 560 55T606 35Q636 35 662 59T706 123T736 215T747 325Q747 405 728 471T672 584T581 658T458 685Q376 685 313 646T205 543T138 395T115 221Q115 132 137 59T204 -68T313 -150T463 -180Q523 -180 570 -169T669 -134L676 -184ZM566 450Q553 455 536 457T505 459Q452 459 412 429T346 353T306 255T293 157Q293 100 314 69T372 37Q426 37 463 96T526 267L566 450Z"  />
<glyph unicode="A" horiz-adv-x="521" d="M141 236H377L260 611L141 236ZM12 0L232 667H290L509 0H450L393 186H126L68 0H12Z"  />
<glyph unicode="B" horiz-adv-x="480" d="M142 52H235Q367 52 367 183Q367 246 335 283T237 321H142V52ZM142 371H231Q290 371 320 406T351 498Q351 555 320 585T232 615H142V371ZM86 0V667H236Q315 667 362 622T410 497Q410 443 384 404T304 348Q366 336 396 290T426 183Q426 133 411 98T369 42T304 10T219 0H86Z"  />
<glyph unicode="C" horiz-adv-x="474" d="M442 9Q384 -11 329 -11Q255 -11 203 18T117 96T68 206T52 333Q52 398 68 460T118 570T206 647T334 677Q360 677 387 672T441 654L435 592Q412 609 383 616T327 623Q267 623 226 597T159 528T122 434T111 332Q111 282 122 231T159 138T226 70T326 43Q357 43 382 49T436 71L442 9Z"  />
<glyph unicode="D" horiz-adv-x="542" d="M142 52H187Q253 52 299 74T375 136T418 227T431 340Q431 397 419 447T379 534T308 593T201 615H142V52ZM86 0V667H188Q267 667 324 644T418 579T472 476T490 340Q490 261 470 198T410 91T314 24T183 0H86Z"  />
<glyph unicode="E" horiz-adv-x="421" d="M86 0V667H364V615H142V372H353V322H142V52H375V0H86Z"  />
<glyph unicode="F" horiz-adv-x="393" d="M86 0V667H357V615H142V372H346V322H142V0H86Z"  />
<glyph unicode="G" horiz-adv-x="544" d="M482 27Q447 7 410 -2T335 -11Q260 -11 206 18T118 96T68 206T52 333Q52 397 69 458T122 568T209 647T332 677Q366 677 402 669T470 643L464 580Q437 600 398 611T326 623Q268 623 227 597T161 528T123 435T111 333Q111 280 123 228T163 135T233 69T338 43Q363 43 385 48T428 65V302H309V354H482V27Z"  />
<glyph unicode="H" horiz-adv-x="543" d="M86 0V667H142V374H401V667H457V0H401V322H142V0H86Z"  />
<glyph unicode="I" horiz-adv-x="228" d="M86 0V667H142V0H86Z"  />
<glyph unicode="J" horiz-adv-x="259" d="M6 55Q17 50 26 47T47 43Q76 43 92 56T115 88T124 132T125 178V667H181V175Q181 138 177 104T158 45T117 4T45 -11Q34 -11 23 -8T0 -2L6 55Z"  />
<glyph unicode="K" horiz-adv-x="477" d="M86 0V667H142V363L383 667H451L191 350L473 0H401L142 332V0H86Z"  />
<glyph unicode="L" horiz-adv-x="373" d="M86 0V667H142V52H355V0H86Z"  />
<glyph unicode="M" horiz-adv-x="717" d="M86 0V667H176L360 70L541 667H631V0H575V615L382 0H333L140 615V0H86Z"  />
<glyph unicode="N" horiz-adv-x="579" d="M86 0V667H166L439 68V667H493V0H413L140 597V0H86Z"  />
<glyph unicode="O" horiz-adv-x="563" d="M170 92Q189 69 216 56T281 42Q337 42 371 71T423 145T446 240T452 333Q452 376 447 427T424 522T372 595T281 624Q225 624 192 595T140 521T117 426T111 333Q111 304 113 272T121 207T139 145T170 92ZM164 21Q120 54 95 104T61 215T52 333Q52 389 62 449T99 560T169 644T281 677Q353 677 398 645T468 562T502 451T511 333Q511 277 501 217T465 106T395 22T281 -11Q209 -11 164 21Z"  />
<glyph unicode="P" horiz-adv-x="443" d="M142 344H209Q280 344 317 374T354 479Q354 556 312 585T194 615H142V344ZM86 0V667H209Q302 667 357 622T413 479Q413 393 365 343T228 292H142V0H86Z"  />
<glyph unicode="Q" horiz-adv-x="563" d="M170 92Q189 69 216 56T281 42Q337 42 371 71T423 145T446 240T452 333Q452 376 447 427T424 522T372 595T281 624Q225 624 192 595T140 521T117 426T111 333Q111 304 113 272T121 207T139 145T170 92ZM423 -128L317 -8Q300 -11 281 -11Q209 -11 165 21T95 104T61 215T52 333Q52 389 62 449T99 560T169 644T281 677Q353 677 398 645T468 562T502 451T511 333Q511 288 505 239T483 146T440 65T372 9L494 -128H423Z"  />
<glyph unicode="R" horiz-adv-x="477" d="M142 364H226Q291 364 322 397T353 494Q353 557 318 586T222 615H142V364ZM86 0V667H238Q317 667 364 621T412 495Q412 430 379 388T282 334Q311 329 324 315T347 275L451 0H391L308 230Q302 246 296 261T280 287T256 305T222 312H142V0H86Z"  />
<glyph unicode="S" horiz-adv-x="405" d="M46 79Q80 59 112 51T169 43Q229 43 263 75T297 170Q297 195 291 214T271 250T239 284T192 319L155 345Q105 381 81 415T56 504Q56 555 74 588T120 641T177 669T233 677Q291 677 340 658L334 598Q310 611 283 617T230 623Q210 623 190 617T153 597T126 562T115 511Q115 488 121 471T137 440T163 414T196 389L233 364Q262 344 285 325T324 283T349 235T358 176Q358 128 343 93T302 35T242 1T170 -11Q138 -11 105 -5T40 16L46 79Z"  />
<glyph unicode="T" horiz-adv-x="382" d="M163 0V615H12V667H370V615H219V0H163Z"  />
<glyph unicode="U" horiz-adv-x="543" d="M134 243Q134 206 138 170T156 106T198 59T271 41Q316 41 343 59T385 105T404 170T409 243V667H465V242Q465 194 456 148T425 67T365 11T271 -11Q212 -11 175 9T116 65T86 146T78 242V667H134V243Z"  />
<glyph unicode="V" horiz-adv-x="466" d="M204 0L10 667H69L236 64L402 667H456L264 0H204Z"  />
<glyph unicode="W" horiz-adv-x="734" d="M168 0L14 667H73L201 61L336 667H402L537 61L664 667H720L567 0H502L367 606L233 0H168Z"  />
<glyph unicode="X" horiz-adv-x="477" d="M12 0L207 354L32 667H96L241 396L388 667H447L271 354L465 0H402L237 313L74 0H12Z"  />
<glyph unicode="Y" horiz-adv-x="394" d="M169 0V291L2 667H62L199 340L336 667H392L225 291V0H169Z"  />
<glyph unicode="Z" horiz-adv-x="407" d="M30 0V57L313 615H41V667H371V613L87 52H377V0H30Z"  />
<glyph unicode="[" horiz-adv-x="241" d="M77 -128V721H201V672H127V-79H201V-128H77Z"  />
<glyph unicode="\" horiz-adv-x="236" d="M174 0L10 667H62L226 0H174Z"  />
<glyph unicode="]" horiz-adv-x="241" d="M40 -128V-79H114V672H40V721H164V-128H40Z"  />
<glyph unicode="^" horiz-adv-x="530" d="M71 252L239 667H292L459 252H402L264 604L129 252H71Z"  />
<glyph unicode="_" horiz-adv-x="500" d="M0 -125V-75H500V-125H0Z"  />
<glyph unicode="`" horiz-adv-x="198" d="M92 585L-1 721H63L138 585H92Z"  />
<glyph unicode="a" horiz-adv-x="428" d="M311 0L307 74Q291 39 256 14T173 -11Q111 -11 73 26T34 136Q34 184 55 215T111 264T186 290T268 297H304V334Q304 362 300 385T283 424T251 449T200 458Q171 458 139 449T83 424L77 476Q106 491 138 499T203 507Q283 507 318 464T354 346V108Q354 81 356 54T360 0H311ZM276 251Q243 251 210 247T150 231T106 195T89 133Q89 90 112 63T176 36Q207 36 231 48T271 83T296 134T304 195V251H276Z"  />
<glyph unicode="b" horiz-adv-x="451" d="M141 111Q153 80 176 59T239 38Q276 38 298 61T332 117T348 186T352 250Q352 278 349 314T334 382T300 436T239 458Q202 458 179 438T143 386T126 319T121 250Q121 218 125 181T141 111ZM74 0V721H124V429Q142 460 170 483T242 507Q292 507 324 482T374 418T400 335T407 250Q407 211 400 166T374 81T323 15T242 -11Q198 -11 170 11T123 67L121 0H74Z"  />
<glyph unicode="c" horiz-adv-x="366" d="M336 5Q300 -11 251 -11Q195 -11 156 12T92 72T56 156T44 250Q44 304 58 350T100 432T164 487T248 507Q271 507 290 504T331 491L325 435Q307 448 288 453T248 458Q206 458 178 438T132 388T107 321T99 250Q99 213 106 176T132 108T181 58T256 38Q276 38 296 42T332 57L336 5Z"  />
<glyph unicode="d" horiz-adv-x="451" d="M153 61Q175 38 212 38Q251 38 274 59T310 111T326 180T330 250Q330 282 326 318T308 386T272 437T212 458Q174 458 152 436T118 382T103 314T99 250Q99 223 103 187T119 117T153 61ZM335 0L332 72Q315 40 285 15T209 -11Q160 -11 128 15T78 80T52 165T44 250Q44 290 51 335T76 418T127 481T210 507Q254 507 281 484T327 429V721H377V154Q377 132 377 113Q377 95 377 77T379 41T381 0H335Z"  />
<glyph unicode="e" horiz-adv-x="406" d="M97 240Q97 204 104 168T129 103T176 56T248 38Q273 38 299 44T346 65L350 11Q302 -11 247 -11Q189 -11 150 12T86 71T52 155T41 250Q41 293 50 339T81 422T136 483T218 507Q267 507 296 484T341 425T362 344T367 253V240H97ZM313 286Q312 317 308 348T294 404T264 444T215 460Q184 460 163 443T127 400T106 344T97 286H313Z"  />
<glyph unicode="f" horiz-adv-x="246" d="M95 0V451H20V497H95V596Q95 668 121 699T211 731Q221 731 230 729T250 724L244 675Q227 682 207 682Q173 682 159 661T145 605V497H231V451H145V0H95Z"  />
<glyph unicode="g" horiz-adv-x="451" d="M117 120Q128 90 150 70T210 49Q250 49 274 69T310 119T326 184T330 250Q330 282 326 318T308 386T272 437T212 458Q174 458 152 436T118 382T103 314T99 250Q99 221 102 186T117 120ZM72 -140Q101 -157 133 -167T201 -177Q248 -177 273 -155T311 -100T325 -28T327 46V73Q307 40 278 20T209 0Q160 0 128 23T78 82T52 163T44 250Q44 290 51 335T77 418T128 481T210 507Q255 507 283 485T330 429V497H377V9Q377 -36 369 -78T340 -153T287 -206T202 -226Q166 -226 133 -218T66 -199L72 -140Z"  />
<glyph unicode="h" horiz-adv-x="450" d="M74 0V721H124V426Q140 459 171 483T243 507Q280 507 305 494T346 458T369 406T376 344V0H326V345Q326 368 321 388T306 424T278 449T236 458Q209 458 189 445T154 411T132 365T124 317V0H74Z"  />
<glyph unicode="i" horiz-adv-x="198" d="M72 611V690H126V611H72ZM74 0V497H124V0H74Z"  />
<glyph unicode="j" horiz-adv-x="202" d="M76 611V690H130V611H76ZM4 -171Q16 -177 27 -177Q38 -177 47 -175T63 -167T74 -147T78 -111V497H128V-103Q128 -124 125 -146T112 -185T84 -214T34 -226Q19 -226 11 -224T-2 -220L4 -171Z"  />
<glyph unicode="k" horiz-adv-x="390" d="M74 0V721H124V291L301 497H364L170 278L382 0H319L124 263V0H74Z"  />
<glyph unicode="l" horiz-adv-x="198" d="M74 0V721H124V0H74Z"  />
<glyph unicode="m" horiz-adv-x="658" d="M74 0V342Q74 380 73 419T70 497H117L119 426Q134 459 164 483T232 507Q276 507 302 487T344 426Q367 461 395 484T462 507Q528 507 556 466T584 351V0H534V345Q534 366 531 386T520 422T496 448T454 458Q430 458 412 445T381 411T361 365T354 318V0H304V345Q304 366 301 386T290 422T266 448T224 458Q201 458 183 445T151 411T131 365T124 318V0H74Z"  />
<glyph unicode="n" horiz-adv-x="450" d="M74 0V342Q74 381 73 419T70 497H117L119 426Q135 458 166 482T243 507Q280 507 305 494T346 458T369 406T376 344V0H326V345Q326 368 321 388T306 424T278 449T236 458Q208 458 187 445T152 411T131 365T124 317V0H74Z"  />
<glyph unicode="o" horiz-adv-x="444" d="M121 114Q134 82 158 60T222 38Q261 38 285 60T323 114T340 183T345 250Q345 281 341 317T324 384T287 437T222 458Q184 458 160 437T123 383T104 315T99 250Q99 220 103 183T121 114ZM135 13Q101 38 81 76T52 161T44 250Q44 293 53 338T83 421T138 483T222 507Q276 507 310 483T365 422T392 339T400 250Q400 207 392 161T364 77T309 14T222 -11Q169 -11 135 13Z"  />
<glyph unicode="p" horiz-adv-x="451" d="M141 110Q153 79 176 59T239 38Q276 38 298 61T332 117T348 186T352 250Q352 278 349 314T334 382T300 436T239 458Q202 458 179 438T143 388T126 320T121 250Q121 217 125 180T141 110ZM74 -216V342Q74 364 74 382Q74 401 74 419T72 456T70 497H117L119 424Q136 456 166 481T242 507Q292 507 324 482T374 418T400 335T407 250Q407 211 400 166T374 81T323 15T242 -11Q198 -11 170 10T124 65V-216H74Z"  />
<glyph unicode="q" horiz-adv-x="451" d="M153 61Q175 38 212 38Q251 38 274 59T310 111T326 180T330 250Q330 282 326 318T308 386T272 437T212 458Q174 458 152 436T118 382T103 314T99 250Q99 223 103 187T119 117T153 61ZM327 -216V65Q309 32 281 11T209 -11Q160 -11 128 15T78 80T52 165T44 250Q44 290 51 335T76 418T127 481T210 507Q255 507 283 485T330 429V497H377V-216H327Z"  />
<glyph unicode="r" horiz-adv-x="268" d="M74 0V342Q74 381 73 419T70 497H117L119 423Q134 457 164 482T232 507Q243 507 252 504L246 450Q236 452 231 452Q205 452 185 439T152 406T131 360T124 311V0H74Z"  />
<glyph unicode="s" horiz-adv-x="333" d="M39 64Q65 51 90 45T147 38Q192 38 218 60T244 126Q244 156 229 176T192 211T143 239T94 270T56 312T41 373Q41 407 53 432T86 473T132 498T186 507Q216 507 236 504T276 493L270 439Q232 458 187 458Q170 458 154 454T125 440T104 415T96 379Q96 349 111 330T148 297T197 270T246 240T284 198T299 135Q299 65 256 27T145 -11Q114 -11 87 -7T33 7L39 64Z"  />
<glyph unicode="t" horiz-adv-x="259" d="M239 0Q206 -11 175 -11Q151 -11 134 -3T107 19T93 52T88 92V451H16V497H88V612L138 630V497H237V451H138V112Q138 98 139 85T145 61T160 44T189 38Q201 38 211 43T233 54L239 0Z"  />
<glyph unicode="u" horiz-adv-x="446" d="M122 152Q122 129 127 109T142 72T170 47T211 38Q239 38 260 51T294 86T315 132T322 180V497H372V155Q372 116 373 78T376 0H329L327 70Q311 38 280 14T204 -11Q167 -11 142 2T102 38T79 91T72 153V497H122V152Z"  />
<glyph unicode="v" horiz-adv-x="364" d="M153 0L12 497H68L185 56L300 497H352L215 0H153Z"  />
<glyph unicode="w" horiz-adv-x="608" d="M141 0L14 497H71L173 54L276 497H338L439 54L543 497H594L468 0H405L305 429L204 0H141Z"  />
<glyph unicode="x" horiz-adv-x="371" d="M14 0L154 262L26 497H86L187 300L286 497H344L215 260L357 0H296L184 222L72 0H14Z"  />
<glyph unicode="y" horiz-adv-x="352" d="M40 -172Q47 -175 54 -176T67 -177Q78 -177 87 -175T104 -164T119 -140T133 -100L157 -11L16 497H71L183 78L287 497H340L185 -91Q179 -115 171 -139T150 -183T118 -214T71 -226Q60 -226 51 -225T35 -222L40 -172Z"  />
<glyph unicode="z" horiz-adv-x="340" d="M28 0V50L256 451H35V497H309V447L83 46H312V0H28Z"  />
<glyph unicode="{" horiz-adv-x="242" d="M184 -128Q134 -128 112 -104T89 -19V155Q89 193 86 216T76 253T59 271T32 276V318Q48 318 58 323T76 342T86 380T89 443V612Q89 672 111 696T184 721H225V678H198Q168 678 153 665T137 612V411Q137 354 120 330T77 297Q103 289 120 265T137 184V-18Q137 -57 152 -71T198 -85H225V-128H184Z"  />
<glyph unicode="|" horiz-adv-x="206" d="M76 -216V775H130V-216H76Z"  />
<glyph unicode="}" horiz-adv-x="243" d="M17 -128V-85H44Q74 -85 90 -71T106 -18V184Q106 240 123 264T167 297Q141 305 124 329T106 411V612Q106 651 90 664T44 678H17V721H58Q108 721 130 697T153 612V443Q153 405 156 381T166 342T184 323T211 318V276Q195 276 184 272T166 254T156 217T153 155V-19Q153 -79 131 -103T58 -128H17Z"  />
<glyph unicode="~" horiz-adv-x="530" d="M4 172Q8 198 16 221T38 263T74 292T125 303Q159 303 196 292T271 266T343 240T407 228Q443 228 463 253T490 310H526Q524 285 516 262T494 220T458 192T408 181Q373 181 336 192T262 218T190 243T125 255Q90 255 69 230T43 172H4Z"  />
<glyph unicode="&#xA0;" horiz-adv-x="230" />
<glyph unicode="&#xA1;" horiz-adv-x="257" d="M94 417V497H163V417H94ZM97 -170L105 341H152L160 -170H97Z"  />
<glyph unicode="&#xA2;" horiz-adv-x="460" d="M244 0V93Q200 100 170 123T121 181T94 255T85 336Q85 382 96 423T127 495T177 548T244 575V667H283V577Q320 576 357 560L351 503Q333 517 313 522T272 527Q234 527 209 509T168 463T147 401T140 336Q140 302 146 267T169 204T211 158T279 140Q296 140 317 147T354 167L360 109Q321 92 283 91V0H244Z"  />
<glyph unicode="&#xA3;" horiz-adv-x="460" d="M56 0V52H130V340H60V392H130V477Q130 517 142 553T177 616T233 660T308 677Q334 677 361 672T412 652L406 593Q386 608 361 615T311 623Q285 623 263 613T223 584T196 536T186 471V392H340V340H186V52H406V0H56Z"  />
<glyph unicode="&#xA4;" horiz-adv-x="460" d="M133 220Q152 199 177 187T230 174Q258 174 283 186T326 220T356 270T367 332Q367 365 357 393T327 443T283 477T230 490Q201 490 177 478T133 444T104 394T93 332Q93 299 104 271T133 220ZM56 105L26 139L82 202Q62 232 52 263T41 333Q41 405 82 463L25 527L55 561L112 497Q163 542 230 542Q265 542 292 531T348 498L405 560L435 526L378 463Q398 433 408 402T419 332Q419 261 378 203L435 138L405 104L347 169Q323 146 293 134T230 122Q198 122 168 134T113 168L56 105Z"  />
<glyph unicode="&#xA5;" horiz-adv-x="460" d="M202 0V158H81V204H202V275H81V321H189L36 667H95L230 342L365 667H424L271 321H378V275H258V204H378V158H258V0H202Z"  />
<glyph unicode="&#xA6;" horiz-adv-x="206" d="M76 -216V181H130V-216H76ZM76 379V775H130V379H76Z"  />
<glyph unicode="&#xA7;" horiz-adv-x="460" d="M270 164Q290 187 305 209T321 265Q321 288 305 311T263 354L200 402Q189 395 178 384T159 359T145 331T139 302Q139 279 150 257T182 222L270 164ZM94 -34Q103 -41 116 -48T144 -62T173 -71T199 -75Q220 -75 240 -69T275 -50T299 -20T308 21Q308 80 255 113L157 174Q127 193 106 221T85 292Q85 335 108 368T167 425Q132 445 118 475T104 546Q104 577 117 601T151 643T199 668T254 677Q279 677 308 670T361 651L355 602Q331 610 307 619T257 628Q239 628 222 623T190 607T168 581T159 545Q159 514 179 490T229 443L307 386Q335 366 355 336T376 264Q376 222 356 192T305 135Q333 110 348 85T363 20Q363 -14 349 -41T312 -86T259 -114T198 -124Q166 -124 142 -113T88 -89L94 -34Z"  />
<glyph unicode="&#xA8;" horiz-adv-x="198" d="M4 611V690H56V611H4ZM142 611V690H194V611H142Z"  />
<glyph unicode="&#xA9;" horiz-adv-x="792" d="M527 148Q505 138 480 133T430 128Q379 128 338 142T267 184T223 249T207 334Q207 380 223 418T269 483T339 525T430 540Q453 540 479 535T527 522L523 471Q503 480 479 485T432 491Q351 491 307 447T262 334Q262 264 305 221T432 177Q457 177 478 183T523 199L527 148ZM192 126Q231 86 283 63T396 39Q457 39 509 62T601 126T662 220T684 334Q684 394 662 447T600 540T509 603T396 627Q336 627 284 604T192 541T131 448T108 334Q108 274 130 221T192 126ZM262 16Q199 43 153 90T79 200T52 334Q52 405 79 467T152 576T262 650T396 677Q467 677 530 650T639 577T713 468T740 334Q740 263 713 200T640 90T530 16T396 -11Q325 -11 262 16Z"  />
<glyph unicode="&#xAA;" horiz-adv-x="300" d="M190 515Q167 515 146 512T109 502T84 483T74 453Q74 439 80 431T94 418T112 412T127 411Q163 411 182 435T201 491V515H190ZM205 372L203 414Q186 390 166 378T114 365Q90 365 73 373T44 393T27 421T22 451Q22 483 37 504T75 537T125 553T179 558H201V572Q201 599 187 615T134 631Q114 631 92 623T52 602L48 653Q71 664 91 670T139 677Q196 677 223 650T250 577V437Q250 420 251 404T254 372H205Z"  />
<glyph unicode="&#xAB;" horiz-adv-x="360" d="M141 55L32 253L141 452H190L88 253L190 55H141ZM269 55L160 253L269 452H318L216 253L318 55H269Z"  />
<glyph unicode="&#xAC;" horiz-adv-x="530" d="M15 308V356H512V125H462V308H15Z"  />
<glyph unicode="&#xAD;" horiz-adv-x="278" d="M44 283V337H234V283H44Z"  />
<glyph unicode="&#xAE;" horiz-adv-x="792" d="M319 367H365Q384 367 402 370T436 380T460 401T469 435Q469 454 460 466T436 484T402 493T363 495H319V367ZM267 140V541H389Q416 541 440 535T483 517T513 484T524 436Q524 417 516 401T494 371T462 350T424 339Q448 334 462 321T485 288L553 140H497L439 268Q432 283 426 293T410 309T387 318T355 321H319V140H267ZM192 126Q231 86 283 63T396 39Q456 39 508 62T600 126T661 220T684 334Q684 394 662 447T600 540T509 603T396 627Q336 627 284 604T192 541T131 448T108 334Q108 274 130 221T192 126ZM262 16Q199 43 153 90T79 200T52 334Q52 405 79 467T152 576T262 650T396 677Q467 677 530 650T639 577T713 468T740 334Q740 263 713 200T640 90T530 16T396 -11Q325 -11 262 16Z"  />
<glyph unicode="&#xAF;" horiz-adv-x="198" d="M-14 632V675H212V632H-14Z"  />
<glyph unicode="&#xB0;" horiz-adv-x="400" d="M104 539Q104 499 132 472T200 444Q240 444 268 471T296 539Q296 558 289 575T268 606T238 626T200 634Q180 634 163 627T133 606T112 576T104 539ZM146 412Q122 423 103 442T74 486T63 539Q63 567 73 592T103 636T146 666T200 677Q228 677 253 666T297 636T326 592T337 539Q337 511 327 486T297 442T253 412T200 401Q171 401 146 412Z"  />
<glyph unicode="&#xB1;" horiz-adv-x="530" d="M17 -8V40H514V-8H17ZM17 264V312H239V489H292V312H514V264H292V86H239V264H17Z"  />
<glyph unicode="&#xB2;" horiz-adv-x="350" d="M63 368V412L123 485Q168 539 193 583T219 669Q219 698 204 715T155 733Q133 733 116 726T81 708L77 757Q91 765 112 772T166 780Q193 780 213 771T246 747T265 713T272 672Q272 644 264 617T241 564T207 513T167 464L123 413H273V368H63Z"  />
<glyph unicode="&#xB3;" horiz-adv-x="350" d="M63 424Q97 409 137 409Q178 409 199 429T221 486Q221 523 195 539T129 556H107V602H128Q170 602 194 618T218 673Q218 703 197 718T144 733Q123 733 106 728T75 715L72 764Q88 771 109 775T153 780Q176 780 197 773T234 753T260 720T270 675Q270 640 252 616T203 581Q233 573 253 548T273 486Q273 428 236 395T135 361Q118 361 97 364T59 375L63 424Z"  />
<glyph unicode="&#xB4;" horiz-adv-x="198" d="M60 585L135 721H199L106 585H60Z"  />
<glyph unicode="&#xB5;" horiz-adv-x="460" d="M78 -216V497H128V152Q128 129 133 109T148 72T176 47T217 38Q245 38 266 51T300 86T321 132T328 180V497H378V155Q378 116 379 78T382 0H335L333 70Q317 38 286 14T210 -11Q188 -11 167 -5T128 18V-216H78Z"  />
<glyph unicode="&#xB6;" horiz-adv-x="530" d="M247 -108V322Q209 323 175 335T114 369T72 423T56 495Q56 542 71 574T113 627T177 657T258 666H429V-108H384V624H292V-108H247Z"  />
<glyph unicode="&#xB7;" horiz-adv-x="230" d="M80 270V350H150V270H80Z"  />
<glyph unicode="&#xB8;" horiz-adv-x="198" d="M21 -129Q41 -137 57 -140T90 -143Q112 -143 124 -134T137 -109Q137 -92 127 -85T102 -78Q83 -78 65 -84L53 -66L102 0H136L95 -54Q102 -52 107 -52T124 -51Q151 -51 169 -66T187 -106Q187 -139 161 -157T93 -176Q73 -176 53 -174T10 -161L21 -129Z"  />
<glyph unicode="&#xB9;" horiz-adv-x="350" d="M167 368V715L102 658L76 692L172 774H216V368H167Z"  />
<glyph unicode="&#xBA;" horiz-adv-x="300" d="M91 451Q99 434 113 423T150 411Q173 411 187 422T208 451T218 487T221 522Q221 538 219 557T210 592T188 620T150 631Q128 631 114 620T93 592T82 556T79 522Q79 507 81 488T91 451ZM91 379Q68 394 54 416T33 467T27 522Q27 549 33 576T54 626T91 663T150 677Q185 677 208 663T246 627T267 577T273 522Q273 495 267 467T247 417T209 380T150 365Q115 365 91 379Z"  />
<glyph unicode="&#xBB;" horiz-adv-x="360" d="M42 55L144 254L42 452H91L200 254L91 55H42ZM170 55L272 254L170 452H219L328 254L219 55H170Z"  />
<glyph unicode="&#xBC;" horiz-adv-x="730" d="M402 134H530V353L402 134ZM165 266V615L109 558L84 591L168 667H214V266H165ZM180 -24L456 691H504L228 -24H180ZM363 91V140L516 401H578V134H622V91H578V0H529V91H363Z"  />
<glyph unicode="&#xBD;" horiz-adv-x="730" d="M149 266V615L93 558L68 591L152 667H198V266H149ZM164 -24L440 691H488L212 -24H164ZM409 0V42L440 76Q459 97 482 124T525 181T558 241T572 299Q572 361 507 361Q484 361 465 355T427 338L423 383Q438 391 460 399T517 407Q546 407 566 398T599 374T618 340T624 302Q624 273 612 243T582 186T547 137T515 100L464 43H629V0H409Z"  />
<glyph unicode="&#xBE;" horiz-adv-x="730" d="M445 134H573V353L445 134ZM82 329Q100 321 120 316T161 311Q203 311 227 332T251 390Q251 426 222 442T153 459H127V502H152Q194 502 221 518T249 572Q249 602 224 616T167 631Q147 631 129 626T95 612L91 658Q108 666 132 671T177 677Q202 677 224 670T264 650T291 618T301 575Q301 538 279 515T219 481Q257 476 280 450T303 385Q303 328 264 297T158 265Q140 265 117 268T78 281L82 329ZM223 -24L499 691H547L271 -24H223ZM406 91V140L559 401H621V134H665V91H621V0H572V91H406Z"  />
<glyph unicode="&#xBF;" horiz-adv-x="342" d="M307 -158Q283 -168 259 -174T210 -180Q133 -180 87 -139T41 -18Q41 17 51 44T76 94T108 140T141 189T166 247T176 324V341H230V327Q230 280 221 246T197 183T165 132T134 87T110 40T100 -15Q100 -64 128 -95T207 -126Q257 -126 301 -96L307 -158ZM168 417V497H238V417H168Z"  />
<glyph unicode="&#xC0;" horiz-adv-x="521" d="M141 236H377L260 611L141 236ZM12 0L232 667H290L509 0H450L393 186H126L68 0H12ZM249 724L156 860H220L295 724H249Z"  />
<glyph unicode="&#xC1;" horiz-adv-x="521" d="M141 236H377L260 611L141 236ZM12 0L232 667H290L509 0H450L393 186H126L68 0H12ZM226 724L301 860H365L272 724H226Z"  />
<glyph unicode="&#xC2;" horiz-adv-x="521" d="M141 236H377L260 611L141 236ZM12 0L232 667H290L509 0H450L393 186H126L68 0H12ZM143 724L234 860H287L379 724H325L260 823L197 724H143Z"  />
<glyph unicode="&#xC3;" horiz-adv-x="521" d="M141 236H377L260 611L141 236ZM12 0L232 667H290L509 0H450L393 186H126L68 0H12ZM135 742Q135 759 140 776T154 806T178 827T212 835Q227 835 241 829T268 815T292 801T314 794Q331 794 340 810T349 841H387Q387 826 382 810T367 780T344 757T313 748Q295 748 282 754T258 768T236 782T212 789Q195 789 184 774T172 742H135Z"  />
<glyph unicode="&#xC4;" horiz-adv-x="521" d="M141 236H377L260 611L141 236ZM12 0L232 667H290L509 0H450L393 186H126L68 0H12ZM303 750V829H355V750H303ZM165 750V829H217V750H165Z"  />
<glyph unicode="&#xC5;" horiz-adv-x="521" d="M141 236H377L260 611L141 236ZM12 0L232 667H290L509 0H450L393 186H126L68 0H12ZM196 728Q169 754 169 792Q169 811 176 827T196 856T225 875T261 882Q299 882 325 856T351 792Q351 754 325 728T261 702Q223 702 196 728ZM203 792Q203 768 220 752T261 735Q285 735 301 751T317 792Q317 816 301 832T261 849Q238 849 221 832T203 792Z"  />
<glyph unicode="&#xC6;" horiz-adv-x="696" d="M170 236H361V623L170 236ZM-8 0L328 667H639V615H417V372H628V322H417V52H650V0H361V186H145L54 0H-8Z"  />
<glyph unicode="&#xC7;" horiz-adv-x="474" d="M214 -129Q234 -137 250 -140T283 -143Q305 -143 317 -134T330 -109Q330 -92 320 -85T295 -78Q276 -78 258 -84L246 -66L289 -8Q226 0 181 31T108 110T66 215T52 333Q52 398 68 460T118 570T206 647T334 677Q360 677 387 672T441 654L435 592Q412 609 383 616T327 623Q267 623 226 597T159 528T122 434T111 332Q111 282 122 231T159 138T226 70T326 43Q357 43 382 49T436 71L442 9Q384 -11 329 -11Q327 -11 325 -11T321 -10L288 -54Q295 -52 300 -52T317 -51Q344 -51 362 -66T380 -106Q380 -139 354 -157T286 -176Q266 -176 246 -174T203 -161L214 -129Z"  />
<glyph unicode="&#xC8;" horiz-adv-x="421" d="M86 0V667H364V615H142V372H353V322H142V52H375V0H86ZM213 724L120 860H184L259 724H213Z"  />
<glyph unicode="&#xC9;" horiz-adv-x="421" d="M86 0V667H364V615H142V372H353V322H142V52H375V0H86ZM192 724L267 860H331L238 724H192Z"  />
<glyph unicode="&#xCA;" horiz-adv-x="421" d="M86 0V667H364V615H142V372H353V322H142V52H375V0H86ZM107 724L198 860H251L343 724H289L224 823L161 724H107Z"  />
<glyph unicode="&#xCB;" horiz-adv-x="421" d="M86 0V667H364V615H142V372H353V322H142V52H375V0H86ZM268 750V829H320V750H268ZM130 750V829H182V750H130Z"  />
<glyph unicode="&#xCC;" horiz-adv-x="228" d="M86 0V667H142V0H86ZM104 724L11 860H75L150 724H104Z"  />
<glyph unicode="&#xCD;" horiz-adv-x="228" d="M86 0V667H142V0H86ZM78 724L153 860H217L124 724H78Z"  />
<glyph unicode="&#xCE;" horiz-adv-x="228" d="M86 0V667H142V0H86ZM-3 724L88 860H141L233 724H179L114 823L51 724H-3Z"  />
<glyph unicode="&#xCF;" horiz-adv-x="228" d="M86 0V667H142V0H86ZM157 750V829H209V750H157ZM19 750V829H71V750H19Z"  />
<glyph unicode="&#xD0;" horiz-adv-x="542" d="M142 52H187Q253 52 299 74T375 136T418 227T431 340Q431 397 419 447T379 534T308 593T201 615H142V363H286V314H142V52ZM86 0V314H27V363H86V667H188Q267 667 324 644T418 579T472 476T490 340Q490 261 471 198T411 91T312 24T173 0H86Z"  />
<glyph unicode="&#xD1;" horiz-adv-x="579" d="M86 0V667H166L439 68V667H493V0H413L140 597V0H86ZM167 742Q167 759 172 776T186 806T210 827T244 835Q259 835 273 829T300 815T324 801T346 794Q363 794 372 810T381 841H419Q419 826 414 810T399 780T376 757T345 748Q327 748 314 754T290 768T268 782T244 789Q227 789 216 774T204 742H167Z"  />
<glyph unicode="&#xD2;" horiz-adv-x="563" d="M170 92Q189 69 216 56T281 42Q337 42 371 71T423 145T446 240T452 333Q452 376 447 427T424 522T372 595T281 624Q225 624 192 595T140 521T117 426T111 333Q111 304 113 272T121 207T139 145T170 92ZM164 21Q120 54 95 104T61 215T52 333Q52 389 62 449T99 560T169 644T281 677Q353 677 398 645T468 562T502 451T511 333Q511 277 501 217T465 106T395 22T281 -11Q209 -11 164 21ZM263 724L170 860H234L309 724H263Z"  />
<glyph unicode="&#xD3;" horiz-adv-x="563" d="M170 92Q189 69 216 56T281 42Q337 42 371 71T423 145T446 240T452 333Q452 376 447 427T424 522T372 595T281 624Q225 624 192 595T140 521T117 426T111 333Q111 304 113 272T121 207T139 145T170 92ZM164 21Q120 54 95 104T61 215T52 333Q52 389 62 449T99 560T169 644T281 677Q353 677 398 645T468 562T502 451T511 333Q511 277 501 217T465 106T395 22T281 -11Q209 -11 164 21ZM253 724L328 860H392L299 724H253Z"  />
<glyph unicode="&#xD4;" horiz-adv-x="563" d="M170 92Q189 69 216 56T281 42Q337 42 371 71T423 145T446 240T452 333Q452 376 447 427T424 522T372 595T281 624Q225 624 192 595T140 521T117 426T111 333Q111 304 113 272T121 207T139 145T170 92ZM164 21Q120 54 95 104T61 215T52 333Q52 389 62 449T99 560T169 644T281 677Q353 677 398 645T468 562T502 451T511 333Q511 277 501 217T465 106T395 22T281 -11Q209 -11 164 21ZM163 724L254 860H307L399 724H345L280 823L217 724H163Z"  />
<glyph unicode="&#xD5;" horiz-adv-x="563" d="M170 92Q189 69 216 56T281 42Q337 42 371 71T423 145T446 240T452 333Q452 376 447 427T424 522T372 595T281 624Q225 624 192 595T140 521T117 426T111 333Q111 304 113 272T121 207T139 145T170 92ZM164 21Q120 54 95 104T61 215T52 333Q52 389 62 449T99 560T169 644T281 677Q353 677 398 645T468 562T502 451T511 333Q511 277 501 217T465 106T395 22T281 -11Q209 -11 164 21ZM156 742Q156 759 161 776T175 806T199 827T233 835Q248 835 262 829T289 815T313 801T335 794Q352 794 361 810T370 841H408Q408 826 403 810T388 780T365 757T334 748Q316 748 303 754T279 768T257 782T233 789Q216 789 205 774T193 742H156Z"  />
<glyph unicode="&#xD6;" horiz-adv-x="563" d="M170 92Q189 69 216 56T281 42Q337 42 371 71T423 145T446 240T452 333Q452 376 447 427T424 522T372 595T281 624Q225 624 192 595T140 521T117 426T111 333Q111 304 113 272T121 207T139 145T170 92ZM164 21Q120 54 95 104T61 215T52 333Q52 389 62 449T99 560T169 644T281 677Q353 677 398 645T468 562T502 451T511 333Q511 277 501 217T465 106T395 22T281 -11Q209 -11 164 21ZM324 750V829H376V750H324ZM186 750V829H238V750H186Z"  />
<glyph unicode="&#xD7;" horiz-adv-x="530" d="M32 44L229 241L32 438L68 475L265 277L462 474L499 438L302 241L499 44L462 7L266 205L69 8L32 44Z"  />
<glyph unicode="&#xD8;" horiz-adv-x="563" d="M148 126Q167 89 198 66T281 42Q337 42 371 71T423 145T446 240T452 333Q452 374 448 420T429 508L148 126ZM413 545Q394 580 363 602T281 624Q225 624 192 595T140 521T117 426T111 333Q111 294 115 250T133 163L413 545ZM14 1L93 108Q69 159 61 218T52 333Q52 389 62 449T99 560T169 644T281 677Q341 677 382 655T450 594L526 698L552 676L468 562Q493 511 502 451T511 333Q511 277 501 217T465 106T395 22T281 -11Q220 -11 179 13T111 76L40 -21L14 1Z"  />
<glyph unicode="&#xD9;" horiz-adv-x="543" d="M134 243Q134 206 138 170T156 106T198 59T271 41Q316 41 343 59T385 105T404 170T409 243V667H465V242Q465 194 456 148T425 67T365 11T271 -11Q212 -11 175 9T116 65T86 146T78 242V667H134V243ZM269 724L176 860H240L315 724H269Z"  />
<glyph unicode="&#xDA;" horiz-adv-x="543" d="M134 243Q134 206 138 170T156 106T198 59T271 41Q316 41 343 59T385 105T404 170T409 243V667H465V242Q465 194 456 148T425 67T365 11T271 -11Q212 -11 175 9T116 65T86 146T78 242V667H134V243ZM228 724L303 860H367L274 724H228Z"  />
<glyph unicode="&#xDB;" horiz-adv-x="543" d="M134 243Q134 206 138 170T156 106T198 59T271 41Q316 41 343 59T385 105T404 170T409 243V667H465V242Q465 194 456 148T425 67T365 11T271 -11Q212 -11 175 9T116 65T86 146T78 242V667H134V243ZM153 724L244 860H297L389 724H335L270 823L207 724H153Z"  />
<glyph unicode="&#xDC;" horiz-adv-x="543" d="M134 243Q134 206 138 170T156 106T198 59T271 41Q316 41 343 59T385 105T404 170T409 243V667H465V242Q465 194 456 148T425 67T365 11T271 -11Q212 -11 175 9T116 65T86 146T78 242V667H134V243ZM314 750V829H366V750H314ZM176 750V829H228V750H176Z"  />
<glyph unicode="&#xDD;" horiz-adv-x="394" d="M169 0V291L2 667H62L199 340L336 667H392L225 291V0H169ZM158 724L233 860H297L204 724H158Z"  />
<glyph unicode="&#xDE;" horiz-adv-x="443" d="M142 205H209Q280 205 317 235T354 340Q354 417 312 446T194 476H142V205ZM86 0V667H142V528H209Q302 528 357 483T413 340Q413 254 365 204T228 153H142V0H86Z"  />
<glyph unicode="&#xDF;" horiz-adv-x="452" d="M74 0V482Q74 537 83 582T112 661T164 712T241 731Q285 731 314 715T360 672T385 607T392 528Q392 516 391 496T388 464Q331 464 299 447T267 377Q267 353 278 334T307 299T344 266T382 230T410 186T422 129Q422 100 413 75T387 30T344 0T285 -11Q265 -11 244 -8T203 4L209 53Q230 44 248 41T283 37Q328 37 348 62T368 124Q368 149 357 169T328 207T292 242T255 279T227 322T215 377Q215 433 250 466T340 502Q341 509 341 517T342 533Q342 560 338 586T322 634T291 668T241 682Q207 682 185 666T149 623T130 559T124 482V0H74Z"  />
<glyph unicode="&#xE0;" horiz-adv-x="428" d="M311 0L307 74Q291 39 256 14T173 -11Q111 -11 73 26T34 136Q34 184 55 215T111 264T186 290T268 297H304V334Q304 362 300 385T283 424T251 449T200 458Q171 458 139 449T83 424L77 476Q106 491 138 499T203 507Q283 507 318 464T354 346V108Q354 81 356 54T360 0H311ZM276 251Q243 251 210 247T150 231T106 195T89 133Q89 90 112 63T176 36Q207 36 231 48T271 83T296 134T304 195V251H276ZM194 585L101 721H165L240 585H194Z"  />
<glyph unicode="&#xE1;" horiz-adv-x="428" d="M311 0L307 74Q291 39 256 14T173 -11Q111 -11 73 26T34 136Q34 184 55 215T111 264T186 290T268 297H304V334Q304 362 300 385T283 424T251 449T200 458Q171 458 139 449T83 424L77 476Q106 491 138 499T203 507Q283 507 318 464T354 346V108Q354 81 356 54T360 0H311ZM276 251Q243 251 210 247T150 231T106 195T89 133Q89 90 112 63T176 36Q207 36 231 48T271 83T296 134T304 195V251H276ZM166 585L241 721H305L212 585H166Z"  />
<glyph unicode="&#xE2;" horiz-adv-x="428" d="M311 0L307 74Q291 39 256 14T173 -11Q111 -11 73 26T34 136Q34 184 55 215T111 264T186 290T268 297H304V334Q304 362 300 385T283 424T251 449T200 458Q171 458 139 449T83 424L77 476Q106 491 138 499T203 507Q283 507 318 464T354 346V108Q354 81 356 54T360 0H311ZM276 251Q243 251 210 247T150 231T106 195T89 133Q89 90 112 63T176 36Q207 36 231 48T271 83T296 134T304 195V251H276ZM84 585L175 721H228L320 585H266L201 684L138 585H84Z"  />
<glyph unicode="&#xE3;" horiz-adv-x="428" d="M311 0L307 74Q291 39 256 14T173 -11Q111 -11 73 26T34 136Q34 184 55 215T111 264T186 290T268 297H304V334Q304 362 300 385T283 424T251 449T200 458Q171 458 139 449T83 424L77 476Q106 491 138 499T203 507Q283 507 318 464T354 346V108Q354 81 356 54T360 0H311ZM276 251Q243 251 210 247T150 231T106 195T89 133Q89 90 112 63T176 36Q207 36 231 48T271 83T296 134T304 195V251H276ZM79 603Q79 620 84 637T98 667T122 688T156 696Q171 696 185 690T212 676T236 662T258 655Q275 655 284 671T293 702H331Q331 687 326 671T311 641T288 618T257 609Q240 609 227 615T202 629T180 643T156 650Q139 650 128 635T116 603H79Z"  />
<glyph unicode="&#xE4;" horiz-adv-x="428" d="M311 0L307 74Q291 39 256 14T173 -11Q111 -11 73 26T34 136Q34 184 55 215T111 264T186 290T268 297H304V334Q304 362 300 385T283 424T251 449T200 458Q171 458 139 449T83 424L77 476Q106 491 138 499T203 507Q283 507 318 464T354 346V108Q354 81 356 54T360 0H311ZM276 251Q243 251 210 247T150 231T106 195T89 133Q89 90 112 63T176 36Q207 36 231 48T271 83T296 134T304 195V251H276ZM108 611V690H160V611H108ZM246 611V690H298V611H246Z"  />
<glyph unicode="&#xE5;" horiz-adv-x="428" d="M311 0L307 74Q291 39 256 14T173 -11Q111 -11 73 26T34 136Q34 184 55 215T111 264T186 290T268 297H304V334Q304 362 300 385T283 424T251 449T200 458Q171 458 139 449T83 424L77 476Q106 491 138 499T203 507Q283 507 318 464T354 346V108Q354 81 356 54T360 0H311ZM276 251Q243 251 210 247T150 231T106 195T89 133Q89 90 112 63T176 36Q207 36 231 48T271 83T296 134T304 195V251H276ZM146 653Q146 629 163 613T204 596Q228 596 244 612T260 653Q260 677 244 693T204 710Q181 710 164 693T146 653ZM139 589Q112 615 112 653Q112 672 119 688T139 717T168 736T204 743Q223 743 239 736T268 717T287 689T294 653Q294 615 268 589T204 563Q166 563 139 589Z"  />
<glyph unicode="&#xE6;" horiz-adv-x="647" d="M72 476Q101 491 133 499T198 507Q249 507 281 484T324 417Q341 457 376 482T459 507Q508 507 537 485T582 428T603 348T608 258V245H338Q338 209 345 172T370 106T417 57T489 38Q514 38 540 44T587 65L591 11Q543 -11 488 -11Q425 -11 380 16T313 101Q296 48 259 19T168 -11Q106 -11 70 25T33 133Q33 181 52 211T102 260T172 284T251 291H287V323Q287 351 284 375T270 418T241 447T195 458Q166 458 134 449T78 424L72 476ZM554 291Q553 322 549 352T535 407T505 445T456 460Q425 460 404 444T368 402T347 348T338 291H554ZM259 245Q226 245 196 242T141 226T103 191T88 130Q88 87 109 62T171 36Q201 36 223 48T259 82T280 132T287 193V245H259Z"  />
<glyph unicode="&#xE7;" horiz-adv-x="366" d="M145 -129Q165 -137 181 -140T214 -143Q236 -143 248 -134T261 -109Q261 -92 251 -85T226 -78Q207 -78 189 -84L177 -66L219 -9Q172 -2 139 22T84 83T54 162T44 250Q44 304 58 350T100 432T164 487T248 507Q271 507 290 504T331 491L325 435Q307 448 288 453T248 458Q206 458 178 438T132 388T107 321T99 250Q99 213 106 176T132 108T181 58T256 38Q276 38 296 42T332 57L336 5Q300 -11 253 -11H251L219 -54Q226 -52 231 -52T248 -51Q275 -51 293 -66T311 -106Q311 -139 285 -157T217 -176Q197 -176 177 -174T134 -161L145 -129Z"  />
<glyph unicode="&#xE8;" horiz-adv-x="406" d="M97 240Q97 204 104 168T129 103T176 56T248 38Q273 38 299 44T346 65L350 11Q302 -11 247 -11Q189 -11 150 12T86 71T52 155T41 250Q41 293 50 339T81 422T136 483T218 507Q267 507 296 484T341 425T362 344T367 253V240H97ZM313 286Q312 317 308 348T294 404T264 444T215 460Q184 460 163 443T127 400T106 344T97 286H313ZM199 585L106 721H170L245 585H199Z"  />
<glyph unicode="&#xE9;" horiz-adv-x="406" d="M97 240Q97 204 104 168T129 103T176 56T248 38Q273 38 299 44T346 65L350 11Q302 -11 247 -11Q189 -11 150 12T86 71T52 155T41 250Q41 293 50 339T81 422T136 483T218 507Q267 507 296 484T341 425T362 344T367 253V240H97ZM313 286Q312 317 308 348T294 404T264 444T215 460Q184 460 163 443T127 400T106 344T97 286H313ZM179 585L254 721H318L225 585H179Z"  />
<glyph unicode="&#xEA;" horiz-adv-x="406" d="M97 240Q97 204 104 168T129 103T176 56T248 38Q273 38 299 44T346 65L350 11Q302 -11 247 -11Q189 -11 150 12T86 71T52 155T41 250Q41 293 50 339T81 422T136 483T218 507Q267 507 296 484T341 425T362 344T367 253V240H97ZM313 286Q312 317 308 348T294 404T264 444T215 460Q184 460 163 443T127 400T106 344T97 286H313ZM88 585L179 721H232L324 585H270L205 684L142 585H88Z"  />
<glyph unicode="&#xEB;" horiz-adv-x="406" d="M97 240Q97 204 104 168T129 103T176 56T248 38Q273 38 299 44T346 65L350 11Q302 -11 247 -11Q189 -11 150 12T86 71T52 155T41 250Q41 293 50 339T81 422T136 483T218 507Q267 507 296 484T341 425T362 344T367 253V240H97ZM313 286Q312 317 308 348T294 404T264 444T215 460Q184 460 163 443T127 400T106 344T97 286H313ZM113 611V690H165V611H113ZM251 611V690H303V611H251Z"  />
<glyph unicode="&#xEC;" horiz-adv-x="198" d="M74 0V497H124V0H74ZM92 585L-1 721H63L138 585H92Z"  />
<glyph unicode="&#xED;" horiz-adv-x="198" d="M74 0V497H124V0H74ZM60 585L135 721H199L106 585H60Z"  />
<glyph unicode="&#xEE;" horiz-adv-x="198" d="M74 0V497H124V0H74ZM-19 585L72 721H125L217 585H163L98 684L35 585H-19Z"  />
<glyph unicode="&#xEF;" horiz-adv-x="198" d="M74 0V497H124V0H74ZM4 611V690H56V611H4ZM142 611V690H194V611H142Z"  />
<glyph unicode="&#xF0;" horiz-adv-x="444" d="M122 111Q136 80 160 59T222 38Q260 38 284 59T321 111T340 178T345 243Q345 273 341 308T323 374T286 425T222 446Q182 446 158 426T121 375T104 309T99 243Q99 214 104 178T122 111ZM108 594L197 651Q174 665 145 680T87 706L121 731Q153 719 182 706T236 675L325 731L352 709L265 652Q301 623 326 580T368 486T392 384T400 287Q400 242 395 190T371 93T317 19T222 -11Q171 -11 137 13T82 74T53 156T44 243Q44 286 52 331T82 412T137 472T224 495Q257 495 284 477T333 435Q316 489 293 540T225 629L136 570L108 594Z"  />
<glyph unicode="&#xF1;" horiz-adv-x="450" d="M74 0V342Q74 381 73 419T70 497H117L119 426Q135 458 166 482T243 507Q280 507 305 494T346 458T369 406T376 344V0H326V345Q326 368 321 388T306 424T278 449T236 458Q208 458 187 445T152 411T131 365T124 317V0H74ZM100 603Q100 620 105 637T119 667T143 688T177 696Q192 696 206 690T233 676T257 662T279 655Q296 655 305 671T314 702H352Q352 687 347 671T332 641T309 618T278 609Q261 609 248 615T223 629T201 643T177 650Q160 650 149 635T137 603H100Z"  />
<glyph unicode="&#xF2;" horiz-adv-x="444" d="M121 114Q134 82 158 60T222 38Q261 38 285 60T323 114T340 183T345 250Q345 281 341 317T324 384T287 437T222 458Q184 458 160 437T123 383T104 315T99 250Q99 220 103 183T121 114ZM135 13Q101 38 81 76T52 161T44 250Q44 293 53 338T83 421T138 483T222 507Q276 507 310 483T365 422T392 339T400 250Q400 207 392 161T364 77T309 14T222 -11Q169 -11 135 13ZM212 585L119 721H183L258 585H212Z"  />
<glyph unicode="&#xF3;" horiz-adv-x="444" d="M121 114Q134 82 158 60T222 38Q261 38 285 60T323 114T340 183T345 250Q345 281 341 317T324 384T287 437T222 458Q184 458 160 437T123 383T104 315T99 250Q99 220 103 183T121 114ZM135 13Q101 38 81 76T52 161T44 250Q44 293 53 338T83 421T138 483T222 507Q276 507 310 483T365 422T392 339T400 250Q400 207 392 161T364 77T309 14T222 -11Q169 -11 135 13ZM186 585L261 721H325L232 585H186Z"  />
<glyph unicode="&#xF4;" horiz-adv-x="444" d="M121 114Q134 82 158 60T222 38Q261 38 285 60T323 114T340 183T345 250Q345 281 341 317T324 384T287 437T222 458Q184 458 160 437T123 383T104 315T99 250Q99 220 103 183T121 114ZM135 13Q101 38 81 76T52 161T44 250Q44 293 53 338T83 421T138 483T222 507Q276 507 310 483T365 422T392 339T400 250Q400 207 392 161T364 77T309 14T222 -11Q169 -11 135 13ZM104 585L195 721H248L340 585H286L221 684L158 585H104Z"  />
<glyph unicode="&#xF5;" horiz-adv-x="444" d="M121 114Q134 82 158 60T222 38Q261 38 285 60T323 114T340 183T345 250Q345 281 341 317T324 384T287 437T222 458Q184 458 160 437T123 383T104 315T99 250Q99 220 103 183T121 114ZM135 13Q101 38 81 76T52 161T44 250Q44 293 53 338T83 421T138 483T222 507Q276 507 310 483T365 422T392 339T400 250Q400 207 392 161T364 77T309 14T222 -11Q169 -11 135 13ZM98 603Q98 620 103 637T117 667T141 688T175 696Q190 696 204 690T231 676T255 662T277 655Q294 655 303 671T312 702H350Q350 687 345 671T330 641T307 618T276 609Q259 609 246 615T221 629T199 643T175 650Q158 650 147 635T135 603H98Z"  />
<glyph unicode="&#xF6;" horiz-adv-x="444" d="M121 114Q134 82 158 60T222 38Q261 38 285 60T323 114T340 183T345 250Q345 281 341 317T324 384T287 437T222 458Q184 458 160 437T123 383T104 315T99 250Q99 220 103 183T121 114ZM135 13Q101 38 81 76T52 161T44 250Q44 293 53 338T83 421T138 483T222 507Q276 507 310 483T365 422T392 339T400 250Q400 207 392 161T364 77T309 14T222 -11Q169 -11 135 13ZM127 611V690H179V611H127ZM265 611V690H317V611H265Z"  />
<glyph unicode="&#xF7;" horiz-adv-x="530" d="M265 16Q245 16 232 29T219 63Q219 83 232 96T265 110Q285 110 298 97T312 63Q312 43 299 30T265 16ZM17 216V265H514V216H17ZM265 371Q246 371 233 384T219 418Q219 438 232 451T265 465Q285 465 298 452T312 418Q312 398 299 385T265 371Z"  />
<glyph unicode="&#xF8;" horiz-adv-x="444" d="M127 102Q141 74 164 56T222 38Q261 38 285 60T323 114T340 183T345 250Q345 276 342 306T331 364L127 102ZM319 398Q305 424 282 441T222 458Q184 458 160 437T123 383T104 315T99 250Q99 224 102 194T114 135L319 398ZM5 -4L76 87Q59 124 52 167T44 250Q44 293 53 338T83 421T138 483T222 507Q269 507 301 489T353 442L413 520L437 500L369 413Q386 377 393 335T400 250Q400 207 392 161T364 77T309 14T222 -11Q176 -11 145 7T92 57L29 -24L5 -4Z"  />
<glyph unicode="&#xF9;" horiz-adv-x="446" d="M122 152Q122 129 127 109T142 72T170 47T211 38Q239 38 260 51T294 86T315 132T322 180V497H372V155Q372 116 373 78T376 0H329L327 70Q311 38 280 14T204 -11Q167 -11 142 2T102 38T79 91T72 153V497H122V152ZM214 585L121 721H185L260 585H214Z"  />
<glyph unicode="&#xFA;" horiz-adv-x="446" d="M122 152Q122 129 127 109T142 72T170 47T211 38Q239 38 260 51T294 86T315 132T322 180V497H372V155Q372 116 373 78T376 0H329L327 70Q311 38 280 14T204 -11Q167 -11 142 2T102 38T79 91T72 153V497H122V152ZM184 585L259 721H323L230 585H184Z"  />
<glyph unicode="&#xFB;" horiz-adv-x="446" d="M122 152Q122 129 127 109T142 72T170 47T211 38Q239 38 260 51T294 86T315 132T322 180V497H372V155Q372 116 373 78T376 0H329L327 70Q311 38 280 14T204 -11Q167 -11 142 2T102 38T79 91T72 153V497H122V152ZM104 585L195 721H248L340 585H286L221 684L158 585H104Z"  />
<glyph unicode="&#xFC;" horiz-adv-x="446" d="M122 152Q122 129 127 109T142 72T170 47T211 38Q239 38 260 51T294 86T315 132T322 180V497H372V155Q372 116 373 78T376 0H329L327 70Q311 38 280 14T204 -11Q167 -11 142 2T102 38T79 91T72 153V497H122V152ZM127 611V690H179V611H127ZM265 611V690H317V611H265Z"  />
<glyph unicode="&#xFD;" horiz-adv-x="352" d="M40 -172Q47 -175 54 -176T67 -177Q78 -177 87 -175T104 -164T119 -140T133 -100L157 -11L16 497H71L183 78L287 497H340L185 -91Q179 -115 171 -139T150 -183T118 -214T71 -226Q60 -226 51 -225T35 -222L40 -172ZM144 585L219 721H283L190 585H144Z"  />
<glyph unicode="&#xFE;" horiz-adv-x="451" d="M141 110Q153 79 176 59T239 38Q276 38 298 61T332 117T348 186T352 250Q352 278 349 314T334 382T300 436T239 458Q202 458 179 438T143 388T126 320T121 250Q121 217 125 180T141 110ZM74 -216V721H124V429Q142 460 170 483T242 507Q292 507 324 482T374 418T400 335T407 250Q407 211 400 166T374 81T323 15T242 -11Q198 -11 170 10T124 65V-216H74Z"  />
<glyph unicode="&#xFF;" horiz-adv-x="352" d="M40 -172Q47 -175 54 -176T67 -177Q78 -177 87 -175T104 -164T119 -140T133 -100L157 -11L16 497H71L183 78L287 497H340L185 -91Q179 -115 171 -139T150 -183T118 -214T71 -226Q60 -226 51 -225T35 -222L40 -172ZM83 611V690H135V611H83ZM221 611V690H273V611H221Z"  />
<glyph unicode="&#x131;" horiz-adv-x="198" d="M74 0V497H124V0H74Z"  />
<glyph unicode="&#x152;" horiz-adv-x="705" d="M370 611Q356 616 335 620T282 624Q226 624 193 595T141 521T118 426T112 333Q112 304 114 272T122 207T140 145T171 92T217 56T282 42Q311 42 334 45T370 55V611ZM367 0Q355 -5 332 -8T282 -11Q210 -11 166 21T96 104T62 215T53 333Q53 389 63 449T100 560T170 644T282 677Q305 677 330 674T367 667H648V615H426V372H637V322H426V52H659V0H367Z"  />
<glyph unicode="&#x153;" horiz-adv-x="706" d="M121 114Q134 82 158 60T222 38Q261 38 285 60T323 114T340 183T345 250Q345 281 341 317T324 384T287 437T222 458Q184 458 160 437T123 383T104 315T99 250Q99 220 103 183T121 114ZM609 281Q609 305 605 336T590 394T560 439T510 458Q480 458 459 441T425 397T405 339T399 281H609ZM399 235Q399 201 404 166T425 103T466 56T535 38Q562 38 592 49T643 77L649 17Q624 3 591 -4T530 -11Q474 -11 434 14T370 93Q348 45 311 17T222 -11Q169 -11 135 13T81 76T52 161T44 250Q44 293 53 338T83 421T138 483T222 507Q275 507 311 481T370 405Q390 450 426 478T511 507Q559 507 588 483T635 423T658 343T664 261V235H399Z"  />
<glyph unicode="&#x160;" horiz-adv-x="405" d="M46 79Q80 59 112 51T169 43Q229 43 263 75T297 170Q297 195 291 214T271 250T239 284T192 319L155 345Q105 381 81 415T56 504Q56 555 74 588T120 641T177 669T233 677Q291 677 340 658L334 598Q310 611 283 617T230 623Q210 623 190 617T153 597T126 562T115 511Q115 488 121 471T137 440T163 414T196 389L233 364Q262 344 285 325T324 283T349 235T358 176Q358 128 343 93T302 35T242 1T170 -11Q138 -11 105 -5T40 16L46 79ZM185 724L93 860H147L212 761L275 860H329L238 724H185Z"  />
<glyph unicode="&#x161;" horiz-adv-x="333" d="M39 64Q65 51 90 45T147 38Q192 38 218 60T244 126Q244 156 229 176T192 211T143 239T94 270T56 312T41 373Q41 407 53 432T86 473T132 498T186 507Q216 507 236 504T276 493L270 439Q232 458 187 458Q170 458 154 454T125 440T104 415T96 379Q96 349 111 330T148 297T197 270T246 240T284 198T299 135Q299 65 256 27T145 -11Q114 -11 87 -7T33 7L39 64ZM140 585L48 721H102L167 622L230 721H284L193 585H140Z"  />
<glyph unicode="&#x178;" horiz-adv-x="394" d="M169 0V291L2 667H62L199 340L336 667H392L225 291V0H169ZM240 750V829H292V750H240ZM102 750V829H154V750H102Z"  />
<glyph unicode="&#x17D;" horiz-adv-x="407" d="M30 0V57L313 615H41V667H371V613L87 52H377V0H30ZM177 724L85 860H139L204 761L267 860H321L230 724H177Z"  />
<glyph unicode="&#x17E;" horiz-adv-x="340" d="M28 0V50L256 451H35V497H309V447L83 46H312V0H28ZM148 585L56 721H110L175 622L238 721H292L201 585H148Z"  />
<glyph unicode="&#x192;" horiz-adv-x="460" d="M-4 -170Q4 -173 11 -175T27 -178Q51 -178 67 -156T94 -103T111 -41T122 8L195 354H111V400H204L217 460Q224 491 231 529T253 600T291 655T354 677Q380 677 408 664L398 613Q378 628 356 628Q333 628 319 609T296 563T281 505T270 452L258 400H342V354H249L175 0Q169 -30 160 -69T135 -143T94 -202T29 -227Q18 -227 8 -226T-14 -220L-4 -170Z"  />
<glyph unicode="&#x2C6;" horiz-adv-x="198" d="M-19 585L72 721H125L217 585H163L98 684L35 585H-19Z"  />
<glyph unicode="&#x2C7;" horiz-adv-x="198" d="M73 585L-19 721H35L100 622L163 721H217L126 585H73Z"  />
<glyph unicode="&#x2DA;" horiz-adv-x="198" d="M42 653Q42 629 59 613T100 596Q124 596 140 612T156 653Q156 677 140 693T100 710Q77 710 60 693T42 653ZM35 589Q8 615 8 653Q8 672 15 688T35 717T64 736T100 743Q119 743 135 736T164 717T183 689T190 653Q190 615 164 589T100 563Q62 563 35 589Z"  />
<glyph unicode="&#x2DC;" horiz-adv-x="198" d="M-26 603Q-26 620 -21 637T-7 667T17 688T51 696Q66 696 80 690T107 676T131 662T153 655Q170 655 179 671T188 702H226Q226 687 221 671T206 641T183 618T152 609Q135 609 122 615T97 629T75 643T51 650Q34 650 23 635T11 603H-26Z"  />
<glyph unicode="&#x2013;" horiz-adv-x="500" d="M0 287V333H500V287H0Z"  />
<glyph unicode="&#x2014;" horiz-adv-x="1000" d="M0 287V333H1000V287H0Z"  />
<glyph unicode="&#x2018;" horiz-adv-x="230" d="M50 513L118 721H163L114 513H50Z"  />
<glyph unicode="&#x2019;" horiz-adv-x="230" d="M67 513L116 721H180L112 513H67Z"  />
<glyph unicode="&#x201A;" horiz-adv-x="230" d="M37 -128L86 80H150L83 -128H37Z"  />
<glyph unicode="&#x201C;" horiz-adv-x="362" d="M50 513L118 721H163L114 513H50ZM182 513L250 721H295L247 513H182Z"  />
<glyph unicode="&#x201D;" horiz-adv-x="362" d="M67 513L116 721H180L112 513H67ZM199 513L248 721H312L244 513H199Z"  />
<glyph unicode="&#x201E;" horiz-adv-x="362" d="M37 -128L86 80H150L83 -128H37ZM169 -128L218 80H282L215 -128H169Z"  />
<glyph unicode="&#x2020;" horiz-adv-x="460" d="M202 -128V435H71V487H202V721H258V487H389V435H258V-128H202Z"  />
<glyph unicode="&#x2021;" horiz-adv-x="460" d="M202 -128V106H71V158H202V435H71V487H202V721H258V487H389V435H258V158H389V106H258V-128H202Z"  />
<glyph unicode="&#x2022;" horiz-adv-x="460" d="M188 211Q169 220 155 234T132 268T123 310Q123 332 131 351T154 385T188 408T230 417Q252 417 271 409T305 386T328 352T337 310Q337 288 329 269T306 235T272 212T230 203Q208 203 188 211Z"  />
<glyph unicode="&#x2026;" horiz-adv-x="1000" d="M132 0V80H202V0H132ZM465 0V80H535V0H465ZM798 0V80H868V0H798Z"  />
<glyph unicode="&#x2030;" horiz-adv-x="1025" d="M134 328Q149 311 174 311Q199 311 213 328T233 371T241 423T243 471Q243 491 242 518T234 571T213 613T174 631Q149 631 135 614T113 571T105 519T103 471Q103 450 104 423T113 371T134 328ZM518 52Q533 35 558 35Q583 35 597 52T617 95T625 147T627 195Q627 215 626 242T618 295T597 337T558 355Q533 355 519 338T497 295T489 243T487 195Q487 174 488 147T497 95T518 52ZM813 52Q828 35 853 35Q878 35 892 52T912 95T920 147T922 195Q922 215 921 242T913 295T892 337T853 355Q828 355 814 338T792 295T784 243T782 195Q782 174 783 147T792 95T813 52ZM109 287Q85 309 72 340T55 407T51 471Q51 498 55 534T73 601T110 655T174 677Q214 677 238 655T274 602T291 535T295 471Q295 443 291 408T275 341T238 287T174 265Q134 265 109 287ZM204 -24L480 691H528L252 -24H204ZM493 11Q469 33 456 64T439 131T435 195Q435 222 439 258T457 325T494 379T558 401Q598 401 622 379T658 326T675 259T679 195Q679 167 675 132T659 65T622 11T558 -11Q518 -11 493 11ZM788 11Q764 33 751 64T734 131T730 195Q730 222 734 258T752 325T789 379T853 401Q893 401 917 379T953 326T970 259T974 195Q974 167 970 132T954 65T917 11T853 -11Q813 -11 788 11Z"  />
<glyph unicode="&#x2039;" horiz-adv-x="232" d="M141 55L32 253L141 452H190L88 253L190 55H141Z"  />
<glyph unicode="&#x203A;" horiz-adv-x="232" d="M42 55L144 254L42 452H91L200 254L91 55H42Z"  />
<glyph unicode="&#x20AC;" horiz-adv-x="460" d="M36 244L43 290H103Q102 301 102 311T101 333Q101 344 101 354T103 376H36L43 422H108Q114 467 129 512T169 594T233 654T324 677Q347 677 369 672T412 654L403 595Q397 602 387 607T366 616T344 622T324 624Q285 624 257 604T210 554T181 489T165 422H379L372 376H160Q159 365 159 354Q159 344 159 333Q159 322 159 311Q159 301 160 290H359L352 244H165Q169 212 180 177T210 111T257 62T324 42Q346 42 366 49T403 68L409 7Q368 -11 323 -11Q270 -11 232 11T168 70T128 152T107 244H36Z"  />
<glyph unicode="&#x2122;" horiz-adv-x="741" d="M105 266V627H8V667H252V627H155V266H105ZM316 266V667H392L501 328L610 667H685V266H637V625L520 266H479L362 625V266H316Z"  />
<glyph unicode="&#xE300;" horiz-adv-x="198" d="M92 724L-1 860H63L138 724H92Z"  />
<glyph unicode="&#xE301;" horiz-adv-x="198" d="M60 724L135 860H199L106 724H60Z"  />
<glyph unicode="&#xE302;" horiz-adv-x="198" d="M-19 724L72 860H125L217 724H163L98 823L35 724H-19Z"  />
<glyph unicode="&#xE303;" horiz-adv-x="198" d="M73 724L-19 860H35L100 761L163 860H217L126 724H73Z"  />
<glyph unicode="&#xE304;" horiz-adv-x="198" d="M-26 742Q-26 759 -21 776T-7 806T17 827T51 835Q66 835 80 829T107 815T131 801T153 794Q170 794 179 810T188 841H226Q226 826 221 810T206 780T183 757T152 748Q134 748 121 754T97 768T75 782T51 789Q34 789 23 774T11 742H-26Z"  />
<glyph unicode="&#xE305;" horiz-adv-x="198" d="M142 750V829H194V750H142ZM4 750V829H56V750H4Z"  />
<glyph unicode="&#xE308;" horiz-adv-x="198" d="M35 728Q8 754 8 792Q8 811 15 827T35 856T64 875T100 882Q138 882 164 856T190 792Q190 754 164 728T100 702Q62 702 35 728ZM42 792Q42 768 59 752T100 735Q124 735 140 751T156 792Q156 816 140 832T100 849Q77 849 60 832T42 792Z"  />

</font>
</defs>
</svg>
