<?xml  version="1.0" encoding="UTF-8"?>
<!DOCTYPE svg PUBLIC "-//W3C//DTD SVG 1.0//EN" "http://www.w3.org/TR/2001/REC-SVG-20010904/DTD/svg10.dtd" >
<svg xmlns="http://www.w3.org/2000/svg" >
<metadata>
<version>1.0</version>
<id><![CDATA[Frutiger Next W01 Medium Cn]]></id>
<vendor>Monotype Imaging Inc.</vendor>
<credits>
<name>Fonts.com WebFonts</name>
<URL>http://webfonts.fonts.com</URL>
<role>Home of the Web fonts</role>
</credits>
<license>
<URL>http://webfonts.fonts.com/Legal</URL>
</license>
<copyright><![CDATA[Copyright © 2007 Linotype GmbH, www.linotype.com. All rights reserved. This font software may not be reproduced, modified, disclosed or transferred without the express written approval of Linotype GmbH. Frutiger Next is a trademark of Linotype GmbH and may be registered in certain jurisdictions. This typeface is original artwork of Adrian Frutiger and Linotype Design Studio. The design may be protected in certain jurisdictions.]]></copyright>
<trademark><![CDATA[Frutiger Next is a trademark of Linotype GmbH and may be registered in certain jurisdictions.]]></trademark>
<licensee>
<name></name>
</licensee>
</metadata>
<defs >
<font horiz-adv-x="442" id="b79951b1-57b4-4d35-8e47-78e1a031b5c9">
<font-face font-family="" panose-1="2 11 6 6 4 2 4 2 2 3" ascent="905" descent="-279" units-per-em="1000" alphabetic="0">
</font-face>
<missing-glyph horiz-adv-x="237" />

<glyph unicode="&#xA;" />
<glyph unicode="&#xD;" horiz-adv-x="0" />
<glyph unicode=" " horiz-adv-x="237" />
<glyph unicode="!" horiz-adv-x="268" d="M87 0V109H181V0H87ZM97 183L85 667H183L172 183H97Z"  />
<glyph unicode="&quot;" horiz-adv-x="388" d="M75 459V667H156V459H75ZM232 459V667H313V459H232Z"  />
<glyph unicode="#" horiz-adv-x="475" d="M175 267H280L297 400H191L175 267ZM78 0L104 205H28V267H113L130 400H49V462H139L164 667H225L200 462H306L331 667H392L367 462H446V400H358L342 267H425V205H333L307 0H245L271 205H166L140 0H78Z"  />
<glyph unicode="$" horiz-adv-x="475" d="M206 -108V-11Q173 -10 134 -3T66 20L72 109Q89 95 108 87T144 74T177 67T203 65Q239 65 261 77T295 105T312 140T316 170Q316 195 310 212T292 244T264 269T227 294L167 333Q113 368 89 407T65 504Q65 545 78 574T113 624T160 656T213 673V774H266V677Q306 676 336 668T387 655L381 568Q358 582 329 592T264 602Q248 602 230 597T197 581T171 553T161 511Q161 471 180 448T234 403L292 366Q325 345 347 327T384 287T405 241T412 182Q412 107 370 58T260 -6V-108H206Z"  />
<glyph unicode="%" horiz-adv-x="780" d="M156 334Q168 320 189 320Q210 320 222 334T240 371T247 420T249 471Q249 495 248 522T240 571T222 607T189 622Q168 622 156 608T138 571T131 523T129 471Q129 446 130 419T138 370T156 334ZM560 58Q572 44 593 44Q614 44 626 58T643 95T650 144T652 195Q652 219 651 246T644 295T626 331T593 346Q572 346 560 332T542 295T534 247T532 195Q532 170 534 143T542 94T560 58ZM121 286Q96 307 83 338T65 405T60 471Q60 500 64 535T82 602T121 655T189 677Q232 677 257 656T296 604T314 537T318 471Q318 441 314 405T296 338T257 286T189 265Q147 265 121 286ZM219 -24L502 691H563L280 -24H219ZM525 10Q499 31 486 62T468 129T463 195Q463 224 467 259T486 326T525 379T593 401Q636 401 661 380T699 328T717 261T721 195Q721 165 717 129T699 62T660 10T593 -11Q551 -11 525 10Z"  />
<glyph unicode="&amp;" horiz-adv-x="537" d="M278 309Q249 309 225 300T182 275T154 235T143 183Q143 128 177 97T266 65Q290 65 311 68T356 79V309H278ZM441 18Q398 4 354 -3T264 -11Q219 -11 181 0T114 34T69 93T53 178Q53 213 65 242T98 294T149 329T212 345Q143 350 106 391T69 501Q69 543 85 575T128 630T190 665T266 677Q303 677 332 671T396 653L390 570Q373 578 359 584T331 594T301 600T265 602Q219 602 190 572T160 496Q160 441 191 411T278 381H356V457H441V381H519V309H441V18Z"  />
<glyph unicode="&apos;" horiz-adv-x="237" d="M78 459V667H159V459H78Z"  />
<glyph unicode="(" horiz-adv-x="256" d="M186 -128Q157 -82 132 -34T89 67T61 176T50 297Q50 361 60 417T89 526T132 626T186 721H255Q230 677 209 628T171 526T145 415T135 297Q135 236 144 179T170 68T208 -34T255 -128H186Z"  />
<glyph unicode=")" horiz-adv-x="256" d="M2 -128Q27 -84 48 -35T86 67T112 178T122 296Q122 357 113 414T87 525T49 627T2 721H71Q100 674 125 626T168 526T196 417T207 296Q207 232 197 176T168 67T125 -33T71 -128H2Z"  />
<glyph unicode="*" horiz-adv-x="374" d="M68 387L144 491L27 524L51 596L163 542L150 667H227L215 542L324 596L348 524L231 491L309 387L245 347L187 459L130 347L68 387Z"  />
<glyph unicode="+" horiz-adv-x="562" d="M28 212V285H243V497H320V285H535V212H320V0H243V212H28Z"  />
<glyph unicode="&#x2c;" horiz-adv-x="237" d="M28 -128L81 109H170L98 -128H28Z"  />
<glyph unicode="-" horiz-adv-x="292" d="M43 272V349H250V272H43Z"  />
<glyph unicode="." horiz-adv-x="237" d="M71 0V109H166V0H71Z"  />
<glyph unicode="/" horiz-adv-x="251" d="M7 0L176 667H245L76 0H7Z"  />
<glyph unicode="0" horiz-adv-x="475" d="M181 90Q202 63 238 63Q275 63 295 90T326 159T338 247T341 333Q341 371 339 418T326 506T296 575T238 603Q201 603 181 576T150 507T138 419T135 333Q135 293 137 246T150 159T181 90ZM164 5Q133 22 112 49T77 112T56 186T47 263T44 333Q44 364 47 401T57 477T78 551T113 615T165 660T238 677Q281 677 312 661T364 616T399 553T419 479T428 403T431 333Q431 301 429 263T419 186T398 113T363 50T311 6T238 -11Q195 -11 164 5Z"  />
<glyph unicode="1" horiz-adv-x="475" d="M220 0V562L134 470L89 536L230 667H311V0H220Z"  />
<glyph unicode="2" horiz-adv-x="475" d="M51 0V73L135 177Q164 213 193 252T247 333T286 415T302 494Q302 545 277 573T202 602Q167 602 138 589T78 558L72 638Q96 650 132 663T225 677Q269 677 301 663T355 623T386 566T396 499Q396 452 381 408T341 321T287 239T228 165L152 75H404V0H51Z"  />
<glyph unicode="3" horiz-adv-x="475" d="M50 95Q80 81 111 73T176 65Q236 65 272 96T309 193Q309 223 298 245T266 281T219 303T162 310H123V383H161Q191 383 217 389T263 410T294 446T305 501Q305 526 296 545T270 577T232 596T186 602Q154 602 125 592T70 567L64 647Q93 660 128 668T204 677Q243 677 278 667T339 635T382 581T398 505Q398 446 366 406T273 349Q330 341 366 299T403 188Q403 142 387 106T341 43T269 3T174 -11Q141 -11 107 -4T44 16L50 95Z"  />
<glyph unicode="4" horiz-adv-x="475" d="M101 219H288V574L101 219ZM34 146V233L266 667H374V219H443V146H374V0H286V146H34Z"  />
<glyph unicode="5" horiz-adv-x="475" d="M68 96Q94 82 124 74T185 65Q252 65 288 103T324 213Q324 279 288 312T186 345Q157 345 131 339T79 322L89 667H385V592H172L166 407Q180 412 194 414T226 417Q321 417 369 363T418 217Q418 166 402 124T356 52T283 6T187 -11Q157 -11 124 -4T61 16L68 96Z"  />
<glyph unicode="6" horiz-adv-x="475" d="M164 114Q175 92 193 78T241 63Q269 63 289 77T322 113T340 161T346 211Q346 235 341 259T323 303T292 335T244 348Q217 348 198 335T168 302T151 258T145 211Q145 188 149 162T164 114ZM403 576Q377 588 353 595T299 602Q249 602 219 576T170 511T145 426T134 339Q153 376 186 399T262 422Q307 422 340 405T394 358T426 291T436 213Q436 167 423 127T385 56T324 7T242 -11Q180 -11 142 18T82 93T54 192T47 295Q47 334 51 377T65 462T93 544T138 612T201 659T287 677Q318 677 348 672T409 656L403 576Z"  />
<glyph unicode="7" horiz-adv-x="475" d="M106 0L314 592H56V667H406V589L205 0H106Z"  />
<glyph unicode="8" horiz-adv-x="475" d="M271 291Q251 305 230 317Q212 305 195 291T163 260T140 222T131 176Q131 129 159 96T238 63Q286 63 315 95T344 175Q344 202 334 223T308 261T271 291ZM207 403Q225 391 245 380Q261 391 276 405T303 435T322 471T329 511Q329 549 305 576T238 603Q196 603 171 576T146 511Q146 485 154 466T175 431T207 403ZM119 316Q142 333 167 349Q115 377 87 416T58 516Q58 553 73 583T112 634T169 666T238 677Q274 677 306 666T363 635T402 584T417 516Q417 487 408 463T384 418T348 380T305 349Q330 334 353 318T395 280T424 233T435 173Q435 131 420 97T379 39T316 2T238 -11Q194 -11 158 2T96 39T55 97T40 174Q40 206 50 231T78 278T119 316Z"  />
<glyph unicode="9" horiz-adv-x="475" d="M153 365Q165 344 184 331T233 318Q260 318 279 331T309 364T326 408T332 455Q332 478 327 504T311 553T281 589T233 604Q203 604 183 591T152 557T135 511T130 460Q130 436 135 411T153 365ZM79 93Q107 81 131 73T187 65Q236 65 266 91T312 157T335 242T342 327Q323 289 290 267T214 244Q169 244 136 262T82 311T50 380T39 459Q39 503 52 543T90 613T151 660T233 678Q294 678 332 649T392 575T422 476T430 373Q430 335 427 292T414 206T389 124T347 55T285 8T199 -10Q168 -10 135 -5T73 11L79 93Z"  />
<glyph unicode=":" horiz-adv-x="237" d="M71 0V109H166V0H71ZM71 393V502H166V393H71Z"  />
<glyph unicode=";" horiz-adv-x="237" d="M28 -128L81 109H170L98 -128H28ZM71 393V502H165V393H71Z"  />
<glyph unicode="&lt;" horiz-adv-x="562" d="M26 208V286L533 489V411L113 247L533 85V7L26 208Z"  />
<glyph unicode="=" horiz-adv-x="562" d="M28 113V185H535V113H28ZM28 310V382H535V310H28Z"  />
<glyph unicode="&gt;" horiz-adv-x="563" d="M29 7V85L449 247L29 411V489L537 286V208L29 7Z"  />
<glyph unicode="?" horiz-adv-x="368" d="M111 0V109H205V0H111ZM117 183V202Q117 261 136 299T178 368T220 429T239 500Q239 545 212 572T137 600Q104 600 80 591T37 570L31 653Q53 662 83 669T149 677Q189 677 223 667T282 637T320 585T334 512Q334 478 324 452T299 402T267 357T234 313T209 262T199 200V183H117Z"  />
<glyph unicode="@" horiz-adv-x="885" d="M692 -186Q666 -196 641 -203T589 -216T533 -223T469 -226Q373 -226 296 -194T166 -104T83 38T54 222Q54 323 82 415T164 577T296 689T476 731Q559 731 625 701T737 618T807 491T832 330Q832 263 816 202T772 93T704 17T616 -11Q574 -11 545 12T511 87Q481 32 447 11T372 -11Q315 -11 278 34T241 161Q241 223 259 285T313 397T400 478T519 510Q550 510 581 505T650 486L580 169Q574 139 574 115Q574 88 586 71T627 53Q654 53 677 74T717 133T745 219T755 326Q755 402 737 463T682 569T592 637T470 661Q390 661 328 625T223 528T158 388T136 222Q136 137 158 67T223 -52T329 -129T476 -156Q534 -156 583 -146T685 -112L692 -186ZM561 433Q550 437 536 438T510 440Q465 440 430 412T372 342T337 252T325 163Q325 109 345 85T391 60Q436 60 468 109T524 263L561 433Z"  />
<glyph unicode="A" horiz-adv-x="553" d="M11 0L226 667H328L543 0H446L396 173H155L104 0H11ZM173 245H376L275 585L173 245Z"  />
<glyph unicode="B" horiz-adv-x="509" d="M172 74H250Q307 74 336 102T366 189Q366 245 337 277T252 309H172V74ZM172 379H245Q297 379 324 409T352 491Q352 542 324 568T245 594H172V379ZM81 0V667H264Q303 667 336 656T393 624T431 571T445 499Q445 442 415 402T334 347Q392 336 426 293T460 185Q460 137 445 103T402 45T337 11T254 0H81Z"  />
<glyph unicode="C" horiz-adv-x="497" d="M465 8Q439 0 410 -5T343 -11Q269 -11 214 16T123 91T68 200T50 333Q50 406 70 469T128 578T220 651T342 677Q380 677 410 670T463 653L457 567Q437 582 408 590T344 599Q293 599 256 577T194 517T158 431T146 332Q146 282 158 235T195 150T258 91T349 68Q381 68 407 73T459 92L465 8Z"  />
<glyph unicode="D" horiz-adv-x="574" d="M174 77H217Q277 77 317 97T382 152T417 234T428 335Q428 386 418 432T385 514T323 570T228 591H174V77ZM81 0V667H222Q299 667 356 643T450 576T506 472T525 338Q525 259 506 196T446 90T346 23T204 0H81Z"  />
<glyph unicode="E" horiz-adv-x="451" d="M81 0V667H396V591H173V383H384V308H173V77H407V0H81Z"  />
<glyph unicode="F" horiz-adv-x="424" d="M81 0V667H388V591H174V381H377V306H174V0H81Z"  />
<glyph unicode="G" horiz-adv-x="569" d="M511 26Q473 6 428 -2T341 -11Q265 -11 210 17T120 92T67 201T50 333Q50 401 69 463T127 572T220 648T349 677Q391 677 428 668T497 645L491 559Q462 578 426 589T350 600Q296 600 258 577T195 515T158 430T146 333Q146 284 157 236T192 151T254 90T349 66Q369 66 387 70T424 84V291H320V364H511V26Z"  />
<glyph unicode="H" horiz-adv-x="567" d="M81 0V667H174V385H394V667H487V0H394V307H174V0H81Z"  />
<glyph unicode="I" horiz-adv-x="254" d="M81 0V667H174V0H81Z"  />
<glyph unicode="J" horiz-adv-x="294" d="M9 83Q21 78 31 75T54 71Q81 71 95 82T117 110T126 148T128 191V667H221V191Q221 150 215 114T192 49T145 5T66 -11Q50 -11 35 -7T3 2L9 83Z"  />
<glyph unicode="K" horiz-adv-x="517" d="M81 0V667H174V372L384 667H492L254 352L513 0H398L174 323V0H81Z"  />
<glyph unicode="L" horiz-adv-x="403" d="M81 0V667H174V78H385V0H81Z"  />
<glyph unicode="M" horiz-adv-x="750" d="M81 0V667H220L375 125L530 667H670V0H579V584L407 0H335L164 584V0H81Z"  />
<glyph unicode="N" horiz-adv-x="602" d="M81 0V667H205L439 109V667H522V0H398L164 557V0H81Z"  />
<glyph unicode="O" horiz-adv-x="591" d="M172 154Q188 115 217 90T295 64Q344 64 374 91T419 158T440 246T445 333Q445 374 441 421T421 509T376 575T295 602Q247 602 218 575T172 508T151 420T146 333Q146 289 151 242T172 154ZM174 20Q127 51 100 100T61 211T50 333Q50 392 62 453T103 564T179 645T295 677Q369 677 417 646T492 565T531 454T542 333Q542 273 530 212T489 102T413 21T295 -11Q222 -11 174 20Z"  />
<glyph unicode="P" horiz-adv-x="478" d="M172 349H230Q293 349 324 378T355 471Q355 537 319 564T219 592H172V349ZM81 0V667H237Q285 667 324 655T391 619T434 558T450 471Q450 377 396 326T249 274H173V0H81Z"  />
<glyph unicode="Q" horiz-adv-x="591" d="M172 154Q188 115 217 90T295 64Q344 64 374 91T419 158T440 246T445 333Q445 374 441 421T421 509T376 575T295 602Q247 602 218 575T172 508T151 420T146 333Q146 289 151 242T172 154ZM423 -128L324 -9Q317 -11 310 -11Q303 -11 295 -11Q222 -11 175 20T100 100T61 211T50 333Q50 392 62 453T103 564T179 645T295 677Q369 677 417 646T492 565T531 454T542 333Q542 287 535 240T513 150T471 72T405 16L531 -128H423Z"  />
<glyph unicode="R" horiz-adv-x="511" d="M172 371H242Q299 371 327 400T356 485Q356 541 325 566T239 592H172V371ZM81 0V667H266Q306 667 339 656T398 622T437 568T451 495Q451 430 418 388T320 333Q351 327 367 310T395 258L487 0H388L315 218Q303 254 287 275T236 296H173V0H81Z"  />
<glyph unicode="S" horiz-adv-x="439" d="M55 109Q84 89 118 77T186 65Q234 65 267 91T300 166Q300 191 294 209T275 243T244 272T201 301L153 331Q99 365 74 404T48 498Q48 552 69 586T120 641T183 669T243 677Q281 677 313 671T370 655L364 568Q339 582 309 592T243 602Q227 602 210 597T178 581T154 551T144 505Q144 470 163 448T217 403L265 372Q301 349 325 329T366 288T389 241T396 182Q396 135 380 100T336 39T271 2T192 -11Q151 -11 114 -3T49 20L55 109Z"  />
<glyph unicode="T" horiz-adv-x="413" d="M160 0V589H13V667H401V589H253V0H160Z"  />
<glyph unicode="U" horiz-adv-x="564" d="M166 233Q166 202 169 172T185 118T220 80T282 65Q319 65 342 79T378 118T395 172T399 233V667H492V242Q492 190 481 144T445 64T380 9T282 -11Q222 -11 182 8T118 61T83 141T73 242V667H166V233Z"  />
<glyph unicode="V" horiz-adv-x="503" d="M201 0L9 667H109L255 105L400 667H494L304 0H201Z"  />
<glyph unicode="W" horiz-adv-x="768" d="M162 0L15 667H110L219 105L335 667H441L556 105L665 667H754L608 0H500L386 572L270 0H162Z"  />
<glyph unicode="X" horiz-adv-x="509" d="M11 0L199 354L28 667H134L258 421L381 667H481L310 354L499 0H394L252 287L111 0H11Z"  />
<glyph unicode="Y" horiz-adv-x="445" d="M176 0V278L0 667H104L226 362L346 667H445L269 278V0H176Z"  />
<glyph unicode="Z" horiz-adv-x="438" d="M31 0V81L304 591H40V667H403V589L130 77H408V0H31Z"  />
<glyph unicode="[" horiz-adv-x="256" d="M74 -128V721H228V654H149V-61H228V-128H74Z"  />
<glyph unicode="\" horiz-adv-x="251" d="M176 0L7 667H76L245 0H176Z"  />
<glyph unicode="]" horiz-adv-x="256" d="M29 -128V-61H108V654H29V721H183V-128H29Z"  />
<glyph unicode="^" horiz-adv-x="562" d="M74 246L245 667H318L489 246H407L280 577L156 246H74Z"  />
<glyph unicode="_" horiz-adv-x="500" d="M0 -125V-75H500V-125H0Z"  />
<glyph unicode="`" horiz-adv-x="222" d="M93 584L1 720H80L155 584H93Z"  />
<glyph unicode="a" horiz-adv-x="458" d="M316 0L312 66Q287 24 255 7T174 -11Q144 -11 119 -1T74 27T44 73T33 136Q33 186 55 218T113 269T190 295T274 303H307V333Q307 382 286 412T208 443Q179 443 143 431T78 398L72 473Q104 491 143 500T220 510Q312 510 351 465T391 341V109Q391 78 392 52T396 0H316ZM291 246Q261 246 231 243T176 229T136 197T120 140Q120 96 143 76T201 56Q229 56 249 68T282 99T301 143T307 193V246H291Z"  />
<glyph unicode="b" horiz-adv-x="486" d="M169 127Q180 98 200 79T255 59Q287 59 306 80T336 132T350 195T354 252Q354 276 351 308T338 370T308 420T255 440Q222 440 202 421T171 374T156 312T152 252Q152 224 155 191T169 127ZM68 0V721H154V430Q173 465 203 487T279 510Q330 510 362 485T413 422T439 338T446 252Q446 213 438 167T411 82T359 16T277 -11Q232 -11 201 11T151 70L149 0H68Z"  />
<glyph unicode="c" horiz-adv-x="386" d="M358 7Q342 -1 317 -6T265 -11Q204 -11 162 11T92 70T53 154T40 252Q40 307 55 354T100 436T170 490T264 510Q292 510 315 506T354 493L348 417Q333 425 312 431T268 437Q230 437 205 420T163 376T139 316T132 252Q132 219 139 185T163 124T207 79T273 62Q318 62 353 82L358 7Z"  />
<glyph unicode="d" horiz-adv-x="486" d="M179 80Q199 59 231 59Q265 59 285 78T316 127T330 190T334 252Q334 279 330 312T315 373T284 421T231 440Q198 440 179 420T149 371T135 309T132 252Q132 228 135 195T149 132T179 80ZM340 0L337 73Q319 38 288 14T209 -11Q159 -11 127 15T75 80T48 166T40 252Q40 292 47 337T74 421T125 485T209 510Q255 510 283 488T332 430V721H419V138Q419 100 419 69T422 0H340Z"  />
<glyph unicode="e" horiz-adv-x="435" d="M128 228Q128 197 135 167T157 112T198 72T262 56Q324 56 375 90L381 17Q320 -11 254 -11Q195 -11 155 10T89 68T52 151T40 252Q40 298 51 344T87 427T147 487T233 510Q286 510 318 487T368 428T392 347T398 260V228H128ZM314 286Q314 309 312 336T300 388T275 428T231 445Q204 445 185 429T153 390T134 338T128 286H314Z"  />
<glyph unicode="f" horiz-adv-x="281" d="M95 0V431H17V500H95V587Q95 665 128 698T224 731Q245 731 259 728T285 722L279 654Q264 661 242 661Q210 661 196 642T181 586V500H269V431H181V0H95Z"  />
<glyph unicode="g" horiz-adv-x="486" d="M148 136Q158 108 177 89T230 70Q265 70 286 88T317 134T331 193T334 252Q334 279 330 312T315 373T284 421T231 440Q198 440 179 420T149 371T135 309T132 252Q132 227 135 196T148 136ZM69 -117Q101 -135 136 -145T208 -156Q253 -156 278 -137T315 -88T329 -22T332 47V77Q314 44 284 22T209 0Q159 0 127 23T75 83T48 165T40 252Q40 293 47 338T74 422T126 485T208 510Q256 510 286 488T335 430V500H419V24Q419 -29 409 -74T374 -153T311 -206T215 -226Q175 -226 138 -218T63 -198L69 -117Z"  />
<glyph unicode="h" horiz-adv-x="480" d="M68 0V721H154V427Q169 462 202 486T276 510Q314 510 340 497T382 461T406 408T413 344V0H327V339Q327 359 323 377T310 409T285 431T249 439Q225 439 207 427T178 395T160 354T154 311V0H68Z"  />
<glyph unicode="i" horiz-adv-x="221" d="M67 603V699H155V603H67ZM68 0V500H154V0H68Z"  />
<glyph unicode="j" horiz-adv-x="224" d="M-4 -149Q3 -151 8 -152T18 -154Q41 -154 56 -141T71 -86V500H157V-80Q157 -107 153 -133T136 -180T102 -213T45 -226Q28 -226 14 -224T-10 -217L-4 -149ZM70 603V699H158V603H70Z"  />
<glyph unicode="k" horiz-adv-x="429" d="M68 0V721H154V295L308 500H407L231 278L423 0H323L154 257V0H68Z"  />
<glyph unicode="l" horiz-adv-x="221" d="M68 0V721H154V0H68Z"  />
<glyph unicode="m" horiz-adv-x="707" d="M68 0V362Q68 396 67 431T64 500H144L147 427Q164 463 195 486T268 510Q313 510 342 489T386 427Q409 465 439 487T510 510Q545 510 570 498T610 465T633 413T640 346V0H554V337Q554 355 552 373T542 406T520 430T483 439Q462 439 446 427T419 397T402 358T396 317V0H311V337Q311 355 309 373T299 406T277 430T240 439Q219 439 203 427T176 397T160 358T154 317V0H68Z"  />
<glyph unicode="n" horiz-adv-x="481" d="M68 0V362Q68 397 67 431T64 500H144L146 427Q163 462 196 486T276 510Q314 510 340 496T383 459T407 405T414 340V0H328V337Q328 357 324 375T311 408T286 430T249 439Q225 439 207 428T177 398T160 358T154 316V0H68Z"  />
<glyph unicode="o" horiz-adv-x="476" d="M150 129Q162 100 182 80T238 59Q272 59 293 79T325 129T340 192T344 252Q344 279 341 311T326 372T294 420T238 440Q205 440 184 420T152 371T136 310T132 252Q132 226 135 193T150 129ZM145 12Q108 35 85 72T51 157T40 252Q40 298 51 344T87 427T148 487T238 510Q294 510 332 488T393 429T426 347T436 252Q436 205 426 159T392 74T330 13T238 -11Q183 -11 145 12Z"  />
<glyph unicode="p" horiz-adv-x="486" d="M169 127Q180 98 200 79T255 59Q287 59 306 80T336 131T350 195T354 252Q354 276 351 308T338 370T309 420T256 440Q223 440 203 422T172 375T156 314T152 252Q152 223 155 190T169 127ZM68 -216V362Q68 400 67 431T64 500H147L149 426Q168 461 199 485T276 510Q327 510 360 485T412 422T438 339T446 252Q446 213 438 167T411 82T359 16T277 -11Q231 -11 202 10T154 68V-216H68Z"  />
<glyph unicode="q" horiz-adv-x="486" d="M179 80Q199 59 231 59Q265 59 285 78T316 127T330 190T334 252Q334 279 330 312T315 373T284 421T231 440Q198 440 179 420T149 371T135 309T132 252Q132 228 135 195T149 132T179 80ZM332 -216V68Q313 33 284 11T209 -11Q159 -11 127 15T75 80T48 166T40 252Q40 293 47 338T74 422T127 485T211 510Q256 510 286 488T336 430V500H419V-216H332Z"  />
<glyph unicode="r" horiz-adv-x="303" d="M68 0V362Q68 397 67 431T64 500H144L146 421Q163 459 194 484T268 510Q273 510 278 509T289 507L283 424Q277 425 271 426T258 427Q230 427 210 413T178 378T160 330T154 280V0H68Z"  />
<glyph unicode="s" horiz-adv-x="367" d="M43 92Q72 75 103 67T163 59Q197 59 221 75T246 129Q246 155 231 172T193 203T143 230T94 261T56 305T40 370Q40 407 54 433T92 477T144 502T203 510Q229 510 257 506T309 492L303 417Q259 440 207 440Q193 440 179 437T154 426T136 406T129 375Q129 348 144 331T182 301T232 275T281 245T319 202T335 138Q335 100 322 72T285 26T232 -2T167 -11Q97 -11 35 11L43 92Z"  />
<glyph unicode="t" horiz-adv-x="296" d="M277 3Q258 -4 237 -7T197 -11Q139 -11 115 22T90 109V431H18V500H91V610L176 638V500H273V431H176V130Q176 115 177 103T183 81T198 67T226 61Q238 61 249 65T271 75L277 3Z"  />
<glyph unicode="u" horiz-adv-x="477" d="M152 163Q152 143 156 125T169 92T193 70T230 61Q254 61 272 72T301 102T318 142T324 184V500H410V138Q410 103 411 69T414 0H334V72Q315 37 282 13T203 -11Q165 -11 139 3T96 40T73 95T66 160V500H152V163Z"  />
<glyph unicode="v" horiz-adv-x="408" d="M154 0L9 500H103L208 85L313 500H400L258 0H154Z"  />
<glyph unicode="w" horiz-adv-x="661" d="M139 0L11 500H103L192 85L284 500H384L476 85L566 500H651L523 0H423L332 409L239 0H139Z"  />
<glyph unicode="x" horiz-adv-x="414" d="M10 0L155 261L22 500H122L211 321L297 500H392L258 259L405 0H304L206 202L106 0H10Z"  />
<glyph unicode="y" horiz-adv-x="401" d="M43 -143Q51 -148 63 -151T87 -154Q108 -154 122 -134T143 -90L166 -5L11 500H106L210 109L305 500H393L229 -80Q220 -112 210 -139T183 -185T145 -215T92 -226Q65 -226 37 -216L43 -143Z"  />
<glyph unicode="z" horiz-adv-x="366" d="M28 0V75L246 431H35V500H336V425L118 69H339V0H28Z"  />
<glyph unicode="{" horiz-adv-x="269" d="M205 -128Q154 -128 124 -102T93 -12V158Q93 192 89 213T76 247T55 264T28 269V326Q43 326 55 330T75 347T88 381T93 437V605Q93 667 124 694T205 721H257V666H224Q193 666 181 651T168 599V412Q168 382 161 361T143 327T119 307T91 297Q105 294 118 288T143 268T161 234T168 181V-5Q168 -42 180 -57T224 -72H257V-128H205Z"  />
<glyph unicode="|" horiz-adv-x="207" d="M68 -216V776H140V-216H68Z"  />
<glyph unicode="}" horiz-adv-x="270" d="M13 -128V-72H46Q77 -72 90 -57T103 -5V181Q103 213 110 234T128 268T153 287T181 297Q167 300 153 307T128 327T110 361T103 412V599Q103 636 90 651T46 666H13V721H66Q117 721 147 695T177 605V437Q177 403 182 382T196 348T217 331T244 326V269Q229 269 217 265T196 248T182 214T177 158V-12Q177 -75 148 -101T66 -128H13Z"  />
<glyph unicode="~" horiz-adv-x="562" d="M15 172Q18 199 26 225T51 273T89 308T144 321Q177 321 213 310T286 285T356 260T420 249Q454 249 472 272T496 325H547Q545 298 537 272T513 224T475 190T421 177Q386 177 350 188T279 212T209 237T144 248Q111 248 92 225T68 172H15Z"  />
<glyph unicode="&#xA0;" horiz-adv-x="237" />
<glyph unicode="&#xA1;" horiz-adv-x="268" d="M85 -167L97 318H172L183 -167H85ZM87 391V500H181V391H87Z"  />
<glyph unicode="&#xA2;" horiz-adv-x="475" d="M245 0V93Q201 100 170 122T120 178T91 252T81 336Q81 382 92 422T125 494T176 546T245 574V667H293V577Q315 576 335 571T376 558L370 484Q352 495 332 500T291 506Q257 506 234 491T197 451T176 396T169 336Q169 305 175 274T195 218T234 177T296 161Q315 161 335 168T373 186L379 111Q356 103 336 98T293 91V0H245Z"  />
<glyph unicode="&#xA3;" horiz-adv-x="475" d="M54 0V71H126V323H59V392H126V473Q126 518 139 555T178 620T240 662T322 677Q350 677 378 672T433 652L427 576Q407 589 382 596T332 603Q308 603 287 594T249 568T224 525T214 467V392H362V323H214V71H427V0H54Z"  />
<glyph unicode="&#xA4;" horiz-adv-x="475" d="M152 232Q169 213 191 202T238 190Q263 190 285 201T323 231T349 277T359 333Q359 362 350 388T324 433T285 464T238 475Q213 475 191 464T153 434T127 389T117 333Q117 304 126 278T152 232ZM68 96L26 144L83 208Q65 237 55 266T45 333Q45 368 54 398T83 458L25 523L67 570L125 505Q175 546 238 546Q271 546 297 536T351 506L408 569L451 522L393 458Q410 429 420 399T430 332Q430 263 393 208L451 143L409 96L350 161Q300 119 238 119Q207 119 179 129T125 160L68 96Z"  />
<glyph unicode="&#xA5;" horiz-adv-x="475" d="M195 0V139H69V204H195V275H69V340H171L29 667H118L240 366L359 667H447L304 340H407V275H279V204H407V139H279V0H195Z"  />
<glyph unicode="&#xA6;" horiz-adv-x="207" d="M68 -216V181H140V-216H68ZM68 379V775H140V379H68Z"  />
<glyph unicode="&#xA7;" horiz-adv-x="475" d="M279 175Q297 195 309 215T321 263Q321 285 305 307T265 346L202 392Q193 386 184 376T168 354T157 330T152 305Q152 282 164 261T197 227L279 175ZM84 -14Q108 -29 141 -42T204 -55Q223 -55 240 -50T271 -34T292 -8T300 26Q300 54 285 74T243 110L157 162Q123 182 98 213T72 289Q72 311 79 331T98 368T125 398T155 420Q120 443 106 471T91 540Q91 568 103 593T138 637T191 666T258 677Q291 677 325 669T380 651L374 580Q347 590 320 599T265 608Q250 608 235 604T208 591T188 569T180 538Q180 511 198 491T244 451L316 402Q354 376 378 346T402 269Q402 224 380 194T330 139Q356 118 372 91T388 25Q388 -7 375 -34T339 -81T282 -112T209 -124Q174 -124 142 -114T78 -89L84 -14Z"  />
<glyph unicode="&#xA8;" horiz-adv-x="221" d="M2 602V698H72V602H2ZM150 602V698H220V602H150Z"  />
<glyph unicode="&#xA9;" horiz-adv-x="787" d="M523 159Q501 150 476 146T427 141Q378 141 339 154T271 192T228 253T212 334Q212 378 228 413T273 474T341 513T427 527Q450 527 475 523T523 511L519 453Q500 461 478 466T435 471Q364 471 325 434T285 334Q285 272 324 235T435 198Q458 198 478 203T519 217L523 159ZM196 133Q234 94 285 71T394 48Q452 48 503 71T591 133T649 224T671 334Q671 392 650 443T591 534T503 595T394 618Q336 618 285 596T197 534T138 444T116 334Q116 276 137 224T196 133ZM260 16Q197 43 151 90T77 200T50 334Q50 405 77 467T150 576T260 650T394 677Q465 677 528 650T637 577T711 468T738 334Q738 263 711 200T638 90T528 16T394 -11Q323 -11 260 16Z"  />
<glyph unicode="&#xAA;" horiz-adv-x="320" d="M212 366L210 409Q195 385 174 372T124 359Q82 359 58 385T33 450Q33 481 47 501T83 533T133 550T187 555H209V568Q209 593 196 609T149 626Q129 626 107 619T64 601L60 658Q83 666 107 671T161 677Q219 677 246 651T273 578V434Q273 412 274 396T277 366H212ZM199 512Q181 512 163 510T131 502T108 485T99 454Q99 435 110 423T144 410Q162 410 174 417T194 435T205 460T209 488V512H199Z"  />
<glyph unicode="&#xAB;" horiz-adv-x="403" d="M141 55L32 256L141 457H216L114 256L216 55H141ZM293 55L184 256L293 457H368L266 256L368 55H293Z"  />
<glyph unicode="&#xAC;" horiz-adv-x="562" d="M26 310V382H533V113H458V310H26Z"  />
<glyph unicode="&#xAD;" horiz-adv-x="292" d="M43 272V349H250V272H43Z"  />
<glyph unicode="&#xAE;" horiz-adv-x="787" d="M326 365H368Q384 365 400 367T430 377T451 395T459 425Q459 442 451 452T430 467T401 475T367 477H326V365ZM257 153V529H399Q425 529 449 524T491 506T520 475T531 429Q531 391 503 367T437 337Q462 332 476 319T499 285L556 153H481L434 265Q423 292 409 303T360 314H327V153H257ZM196 133Q234 94 285 71T394 48Q452 48 502 71T590 133T649 224T671 334Q671 392 650 443T591 534T503 595T394 618Q336 618 285 596T197 534T138 444T116 334Q116 276 137 224T196 133ZM260 16Q197 43 151 90T77 200T50 334Q50 405 77 467T150 576T260 650T394 677Q465 677 528 650T637 577T711 468T738 334Q738 263 711 200T638 90T528 16T394 -11Q323 -11 260 16Z"  />
<glyph unicode="&#xAF;" horiz-adv-x="221" d="M-12 623V681H234V623H-12Z"  />
<glyph unicode="&#xB0;" horiz-adv-x="400" d="M136 472Q162 446 200 446Q237 446 263 471T290 535Q290 572 264 598T200 624Q163 624 137 598T111 535Q111 498 136 472ZM144 403Q119 415 100 434T69 480T58 535Q58 564 69 590T99 635T144 666T200 677Q230 677 255 666T300 636T331 590T342 535Q342 506 331 480T301 435T256 404T200 392Q170 392 144 403Z"  />
<glyph unicode="&#xB1;" horiz-adv-x="562" d="M28 -17V55H535V-17H28ZM28 269V341H244V513H320V341H535V269H320V99H244V269H28Z"  />
<glyph unicode="&#xB2;" horiz-adv-x="360" d="M59 370V425L118 492Q161 542 188 583T215 664Q215 693 200 708T153 724Q131 724 113 718T76 701L72 758Q87 765 111 772T173 780Q228 780 257 748T287 670Q287 641 277 614T252 561T219 513T182 471L139 425H288V370H59Z"  />
<glyph unicode="&#xB3;" horiz-adv-x="360" d="M60 436Q99 420 139 420Q176 420 196 438T217 488Q217 522 193 537T129 552H108V607H128Q166 607 190 621T215 670Q215 698 195 711T146 724Q123 724 106 719T71 706L68 764Q88 772 111 776T163 780Q187 780 209 774T248 754T275 721T285 674Q285 641 266 617T212 582Q241 575 264 552T288 486Q288 432 251 398T140 363Q120 363 96 367T56 377L60 436Z"  />
<glyph unicode="&#xB4;" horiz-adv-x="221" d="M57 584L132 720H211L118 584H57Z"  />
<glyph unicode="&#xB5;" horiz-adv-x="475" d="M64 -216V500H150V163Q150 143 154 125T167 92T191 70T228 61Q252 61 270 73T299 103T316 142T322 184V500H409V139Q409 69 412 0H333L330 76Q323 61 313 46T288 18T256 -3T217 -11Q197 -11 179 -4T146 19V-216H64Z"  />
<glyph unicode="&#xB6;" horiz-adv-x="562" d="M244 -108V322Q207 322 174 334T115 368T75 422T60 495Q60 542 76 574T120 627T187 657T272 666H469V-108H403V612H309V-108H244Z"  />
<glyph unicode="&#xB7;" horiz-adv-x="237" d="M71 256V365H166V256H71Z"  />
<glyph unicode="&#xB8;" horiz-adv-x="221" d="M28 -134Q41 -139 57 -144T94 -149Q147 -149 147 -115Q147 -99 135 -91T107 -83Q86 -83 71 -89L55 -69L107 0H148L107 -54Q115 -52 122 -52T139 -51Q171 -51 189 -67T207 -113Q207 -148 178 -168T101 -189Q76 -189 53 -185T15 -172L28 -134Z"  />
<glyph unicode="&#xB9;" horiz-adv-x="360" d="M165 370V696L102 642L68 688L176 774H234V370H165Z"  />
<glyph unicode="&#xBA;" horiz-adv-x="320" d="M98 373Q73 387 58 409T35 461T27 520Q27 549 35 577T59 627T101 663T160 677Q196 677 221 664T262 629T285 579T293 520Q293 490 286 462T262 410T220 373T160 359Q124 359 98 373ZM108 451Q115 435 127 424T160 413Q180 413 192 424T210 452T219 487T221 520Q221 534 219 552T211 585T193 612T160 623Q140 623 128 612T109 585T100 551T98 520Q98 505 100 487T108 451Z"  />
<glyph unicode="&#xBB;" horiz-adv-x="403" d="M35 55L137 256L35 457H110L219 256L110 55H35ZM187 55L289 256L187 457H262L371 256L262 55H187Z"  />
<glyph unicode="&#xBC;" horiz-adv-x="780" d="M200 -24L482 691H543L261 -24H200ZM181 267V593L118 539L84 585L192 671H250V267H181ZM404 84V147L553 404H631V138H675V84H631V0H566V84H404ZM457 138H568V333L457 138Z"  />
<glyph unicode="&#xBD;" horiz-adv-x="780" d="M180 -24L462 691H523L241 -24H180ZM443 0V55L502 122Q545 172 572 213T599 294Q599 323 584 338T537 354Q515 354 497 348T460 331L456 388Q471 395 495 402T557 410Q612 410 641 378T671 300Q671 271 661 244T636 191T603 143T566 101L523 55H672V0H443ZM160 267V593L97 539L63 585L171 671H229V267H160Z"  />
<glyph unicode="&#xBE;" horiz-adv-x="780" d="M235 -24L517 691H578L296 -24H235ZM90 333Q129 317 169 317Q206 317 226 335T247 385Q247 419 223 434T159 449H138V504H158Q196 504 220 518T245 567Q245 595 225 608T176 621Q153 621 136 616T101 603L98 661Q118 669 141 673T193 677Q217 677 239 671T278 651T305 618T315 571Q315 538 296 514T242 479Q271 472 294 449T318 383Q318 329 281 295T170 260Q150 260 126 264T86 274L90 333ZM439 84V147L588 404H666V138H710V84H666V0H601V84H439ZM492 138H603V333L492 138Z"  />
<glyph unicode="&#xBF;" horiz-adv-x="368" d="M337 -153Q315 -162 285 -169T219 -177Q178 -177 145 -167T86 -137T48 -85T34 -12Q34 22 44 48T69 98T102 143T135 187T160 238T170 300V318H251V299Q251 240 232 202T190 132T148 71T129 0Q129 -45 156 -72T231 -99Q264 -99 288 -90T331 -69L337 -153ZM163 391V500H258V391H163Z"  />
<glyph unicode="&#xC0;" horiz-adv-x="553" d="M11 0L226 667H328L543 0H446L396 173H155L104 0H11ZM173 245H376L275 585L173 245ZM258 724L166 860H245L320 724H258Z"  />
<glyph unicode="&#xC1;" horiz-adv-x="553" d="M11 0L226 667H328L543 0H446L396 173H155L104 0H11ZM173 245H376L275 585L173 245ZM236 724L311 860H390L297 724H236Z"  />
<glyph unicode="&#xC2;" horiz-adv-x="553" d="M11 0L226 667H328L543 0H446L396 173H155L104 0H11ZM173 245H376L275 585L173 245ZM150 724L242 860H311L403 724H334L276 816L220 724H150Z"  />
<glyph unicode="&#xC3;" horiz-adv-x="553" d="M11 0L226 667H328L543 0H446L396 173H155L104 0H11ZM173 245H376L275 585L173 245ZM143 736Q143 754 148 773T163 807T189 833T225 843Q241 843 256 837T284 823T309 809T331 802Q347 802 354 818T362 847H412Q412 830 407 811T392 776T367 750T332 739Q315 739 301 745T275 760T251 774T227 781Q212 781 202 766T192 736H143Z"  />
<glyph unicode="&#xC4;" horiz-adv-x="553" d="M11 0L226 667H328L543 0H446L396 173H155L104 0H11ZM173 245H376L275 585L173 245ZM316 742V838H386V742H316ZM168 742V838H238V742H168Z"  />
<glyph unicode="&#xC5;" horiz-adv-x="553" d="M11 0L226 667H328L543 0H446L396 173H155L104 0H11ZM173 245H376L275 585L173 245ZM210 725Q182 752 182 792Q182 812 189 829T210 859T241 879T278 886Q317 886 344 859T372 792Q372 752 345 725T278 698Q238 698 210 725ZM222 792Q222 769 238 753T278 737Q301 737 316 753T332 792Q332 815 317 831T278 847Q256 847 239 831T222 792Z"  />
<glyph unicode="&#xC6;" horiz-adv-x="740" d="M205 245H374V601L205 245ZM-7 0L315 667H685V591H465V383H673V308H465V77H696V0H374V173H174L93 0H-7Z"  />
<glyph unicode="&#xC7;" horiz-adv-x="497" d="M225 -138Q238 -143 254 -148T292 -153Q314 -153 328 -144T342 -115Q342 -99 331 -91T305 -82Q291 -82 283 -84T267 -90L254 -69L299 -9Q236 -2 189 28T112 104T66 209T50 333Q50 406 70 469T127 578T217 651T336 677Q378 677 409 669T463 651L457 565Q437 580 408 589T344 599Q293 599 256 577T194 517T158 431T146 332Q146 282 157 235T193 150T255 91T343 68Q384 68 410 78T459 99L465 10Q439 2 408 -4T338 -11L304 -54Q310 -52 318 -51T338 -49Q366 -49 385 -66T405 -113Q405 -148 376 -168T302 -189Q277 -189 252 -185T212 -172L225 -138Z"  />
<glyph unicode="&#xC8;" horiz-adv-x="451" d="M81 0V667H396V591H173V383H384V308H173V77H407V0H81ZM219 724L127 860H206L281 724H219Z"  />
<glyph unicode="&#xC9;" horiz-adv-x="451" d="M81 0V667H396V591H173V383H384V308H173V77H407V0H81ZM196 724L271 860H350L257 724H196Z"  />
<glyph unicode="&#xCA;" horiz-adv-x="451" d="M81 0V667H396V591H173V383H384V308H173V77H407V0H81ZM111 724L203 860H272L364 724H295L237 816L181 724H111Z"  />
<glyph unicode="&#xCB;" horiz-adv-x="451" d="M81 0V667H396V591H173V383H384V308H173V77H407V0H81ZM277 742V838H347V742H277ZM129 742V838H199V742H129Z"  />
<glyph unicode="&#xCC;" horiz-adv-x="254" d="M81 0V667H174V0H81ZM106 724L14 860H93L168 724H106Z"  />
<glyph unicode="&#xCD;" horiz-adv-x="254" d="M81 0V667H174V0H81ZM85 724L160 860H239L146 724H85Z"  />
<glyph unicode="&#xCE;" horiz-adv-x="254" d="M81 0V667H174V0H81ZM1 724L93 860H162L254 724H185L127 816L71 724H1Z"  />
<glyph unicode="&#xCF;" horiz-adv-x="254" d="M81 0V667H174V0H81ZM167 742V838H237V742H167ZM19 742V838H89V742H19Z"  />
<glyph unicode="&#xD0;" horiz-adv-x="574" d="M81 0V302H22V368H81V667H222Q299 667 356 643T450 576T506 472T525 338Q525 259 506 196T446 90T346 23T204 0H81ZM174 77H217Q277 77 317 97T382 152T417 234T428 335Q428 386 418 432T385 514T323 570T228 591H174V368H300V302H174V77Z"  />
<glyph unicode="&#xD1;" horiz-adv-x="602" d="M81 0V667H205L439 109V667H522V0H398L164 557V0H81ZM171 736Q171 754 176 773T191 807T217 833T253 843Q269 843 284 837T312 823T337 809T359 802Q375 802 382 818T390 847H440Q440 830 435 811T420 776T395 750T360 739Q343 739 329 745T303 760T279 774T255 781Q240 781 230 766T220 736H171Z"  />
<glyph unicode="&#xD2;" horiz-adv-x="591" d="M172 154Q188 115 217 90T295 64Q344 64 374 91T419 158T440 246T445 333Q445 374 441 421T421 509T376 575T295 602Q247 602 218 575T172 508T151 420T146 333Q146 289 151 242T172 154ZM174 20Q127 51 100 100T61 211T50 333Q50 392 62 453T103 564T179 645T295 677Q369 677 417 646T492 565T531 454T542 333Q542 273 530 212T489 102T413 21T295 -11Q222 -11 174 20ZM272 724L180 860H259L334 724H272Z"  />
<glyph unicode="&#xD3;" horiz-adv-x="591" d="M172 154Q188 115 217 90T295 64Q344 64 374 91T419 158T440 246T445 333Q445 374 441 421T421 509T376 575T295 602Q247 602 218 575T172 508T151 420T146 333Q146 289 151 242T172 154ZM174 20Q127 51 100 100T61 211T50 333Q50 392 62 453T103 564T179 645T295 677Q369 677 417 646T492 565T531 454T542 333Q542 273 530 212T489 102T413 21T295 -11Q222 -11 174 20ZM257 724L332 860H411L318 724H257Z"  />
<glyph unicode="&#xD4;" horiz-adv-x="591" d="M172 154Q188 115 217 90T295 64Q344 64 374 91T419 158T440 246T445 333Q445 374 441 421T421 509T376 575T295 602Q247 602 218 575T172 508T151 420T146 333Q146 289 151 242T172 154ZM174 20Q127 51 100 100T61 211T50 333Q50 392 62 453T103 564T179 645T295 677Q369 677 417 646T492 565T531 454T542 333Q542 273 530 212T489 102T413 21T295 -11Q222 -11 174 20ZM169 724L261 860H330L422 724H353L295 816L239 724H169Z"  />
<glyph unicode="&#xD5;" horiz-adv-x="591" d="M172 154Q188 115 217 90T295 64Q344 64 374 91T419 158T440 246T445 333Q445 374 441 421T421 509T376 575T295 602Q247 602 218 575T172 508T151 420T146 333Q146 289 151 242T172 154ZM174 20Q127 51 100 100T61 211T50 333Q50 392 62 453T103 564T179 645T295 677Q369 677 417 646T492 565T531 454T542 333Q542 273 530 212T489 102T413 21T295 -11Q222 -11 174 20ZM161 736Q161 754 166 773T181 807T207 833T243 843Q259 843 274 837T302 823T327 809T349 802Q365 802 372 818T380 847H430Q430 830 425 811T410 776T385 750T350 739Q333 739 319 745T293 760T269 774T245 781Q230 781 220 766T210 736H161Z"  />
<glyph unicode="&#xD6;" horiz-adv-x="591" d="M172 154Q188 115 217 90T295 64Q344 64 374 91T419 158T440 246T445 333Q445 374 441 421T421 509T376 575T295 602Q247 602 218 575T172 508T151 420T146 333Q146 289 151 242T172 154ZM174 20Q127 51 100 100T61 211T50 333Q50 392 62 453T103 564T179 645T295 677Q369 677 417 646T492 565T531 454T542 333Q542 273 530 212T489 102T413 21T295 -11Q222 -11 174 20ZM334 742V838H404V742H334ZM186 742V838H256V742H186Z"  />
<glyph unicode="&#xD7;" horiz-adv-x="562" d="M93 8L41 60L229 248L41 437L93 490L281 300L470 489L522 437L334 248L522 60L470 7L282 196L93 8Z"  />
<glyph unicode="&#xD8;" horiz-adv-x="592" d="M178 143Q195 108 222 86T295 64Q344 64 374 91T419 158T440 246T445 333Q445 367 442 405T428 478L178 143ZM412 528Q395 561 368 581T295 602Q247 602 218 575T172 508T151 420T146 333Q146 301 149 264T163 193L412 528ZM19 4L96 106Q70 156 60 215T50 333Q50 392 62 453T103 564T179 645T295 677Q355 677 397 656T469 600L541 697L574 670L494 563Q521 513 531 453T542 333Q542 273 530 212T489 102T413 21T295 -11Q234 -11 192 11T121 70L52 -22L19 4Z"  />
<glyph unicode="&#xD9;" horiz-adv-x="564" d="M166 233Q166 202 169 172T185 118T220 80T282 65Q319 65 342 79T378 118T395 172T399 233V667H492V242Q492 190 481 144T445 64T380 9T282 -11Q222 -11 182 8T118 61T83 141T73 242V667H166V233ZM272 724L180 860H259L334 724H272Z"  />
<glyph unicode="&#xDA;" horiz-adv-x="564" d="M166 233Q166 202 169 172T185 118T220 80T282 65Q319 65 342 79T378 118T395 172T399 233V667H492V242Q492 190 481 144T445 64T380 9T282 -11Q222 -11 182 8T118 61T83 141T73 242V667H166V233ZM235 724L310 860H389L296 724H235Z"  />
<glyph unicode="&#xDB;" horiz-adv-x="564" d="M166 233Q166 202 169 172T185 118T220 80T282 65Q319 65 342 79T378 118T395 172T399 233V667H492V242Q492 190 481 144T445 64T380 9T282 -11Q222 -11 182 8T118 61T83 141T73 242V667H166V233ZM156 724L248 860H317L409 724H340L282 816L226 724H156Z"  />
<glyph unicode="&#xDC;" horiz-adv-x="564" d="M166 233Q166 202 169 172T185 118T220 80T282 65Q319 65 342 79T378 118T395 172T399 233V667H492V242Q492 190 481 144T445 64T380 9T282 -11Q222 -11 182 8T118 61T83 141T73 242V667H166V233ZM321 742V838H391V742H321ZM173 742V838H243V742H173Z"  />
<glyph unicode="&#xDD;" horiz-adv-x="445" d="M176 0V278L0 667H104L226 362L346 667H445L269 278V0H176ZM181 724L256 860H335L242 724H181Z"  />
<glyph unicode="&#xDE;" horiz-adv-x="478" d="M172 217H230Q293 217 324 246T355 338Q355 404 319 432T219 460H172V217ZM81 0V667H173V535H237Q285 535 324 523T391 487T434 425T450 338Q450 244 396 193T249 142H173V0H81Z"  />
<glyph unicode="&#xDF;" horiz-adv-x="501" d="M68 0V491Q68 540 78 584T113 660T177 712T275 731Q320 731 352 717T405 676T436 613T446 531Q446 494 439 459Q414 459 391 458T351 449T323 426T312 385Q312 361 324 343T354 309T392 277T431 241T461 196T473 135Q473 63 432 26T321 -11Q303 -11 277 -6T221 8L226 81Q249 70 272 64T319 57Q349 57 368 75T387 127Q387 152 375 170T345 205T307 238T268 274T238 319T226 380Q226 414 238 437T269 476T312 499T360 509Q363 522 363 542Q363 563 360 584T346 623T318 652T272 663Q236 663 213 647T177 606T159 551T154 491V0H68Z"  />
<glyph unicode="&#xE0;" horiz-adv-x="458" d="M316 0L312 66Q287 24 255 7T174 -11Q144 -11 119 -1T74 27T44 73T33 136Q33 186 55 218T113 269T190 295T274 303H307V333Q307 382 286 412T208 443Q179 443 143 431T78 398L72 473Q104 491 143 500T220 510Q312 510 351 465T391 341V109Q391 78 392 52T396 0H316ZM291 246Q261 246 231 243T176 229T136 197T120 140Q120 96 143 76T201 56Q229 56 249 68T282 99T301 143T307 193V246H291ZM205 584L113 720H192L267 584H205Z"  />
<glyph unicode="&#xE1;" horiz-adv-x="458" d="M316 0L312 66Q287 24 255 7T174 -11Q144 -11 119 -1T74 27T44 73T33 136Q33 186 55 218T113 269T190 295T274 303H307V333Q307 382 286 412T208 443Q179 443 143 431T78 398L72 473Q104 491 143 500T220 510Q312 510 351 465T391 341V109Q391 78 392 52T396 0H316ZM291 246Q261 246 231 243T176 229T136 197T120 140Q120 96 143 76T201 56Q229 56 249 68T282 99T301 143T307 193V246H291ZM176 584L251 720H330L237 584H176Z"  />
<glyph unicode="&#xE2;" horiz-adv-x="458" d="M316 0L312 66Q287 24 255 7T174 -11Q144 -11 119 -1T74 27T44 73T33 136Q33 186 55 218T113 269T190 295T274 303H307V333Q307 382 286 412T208 443Q179 443 143 431T78 398L72 473Q104 491 143 500T220 510Q312 510 351 465T391 341V109Q391 78 392 52T396 0H316ZM291 246Q261 246 231 243T176 229T136 197T120 140Q120 96 143 76T201 56Q229 56 249 68T282 99T301 143T307 193V246H291ZM94 584L186 720H255L347 584H278L220 676L164 584H94Z"  />
<glyph unicode="&#xE3;" horiz-adv-x="458" d="M316 0L312 66Q287 24 255 7T174 -11Q144 -11 119 -1T74 27T44 73T33 136Q33 186 55 218T113 269T190 295T274 303H307V333Q307 382 286 412T208 443Q179 443 143 431T78 398L72 473Q104 491 143 500T220 510Q312 510 351 465T391 341V109Q391 78 392 52T396 0H316ZM291 246Q261 246 231 243T176 229T136 197T120 140Q120 96 143 76T201 56Q229 56 249 68T282 99T301 143T307 193V246H291ZM90 596Q90 614 95 633T111 667T136 693T172 703Q188 703 203 697T231 683T256 669T278 662Q294 662 301 678T309 707H359Q359 690 354 671T339 636T314 610T279 599Q262 599 248 605T222 620T198 634T174 641Q159 641 149 626T139 596H90Z"  />
<glyph unicode="&#xE4;" horiz-adv-x="458" d="M316 0L312 66Q287 24 255 7T174 -11Q144 -11 119 -1T74 27T44 73T33 136Q33 186 55 218T113 269T190 295T274 303H307V333Q307 382 286 412T208 443Q179 443 143 431T78 398L72 473Q104 491 143 500T220 510Q312 510 351 465T391 341V109Q391 78 392 52T396 0H316ZM291 246Q261 246 231 243T176 229T136 197T120 140Q120 96 143 76T201 56Q229 56 249 68T282 99T301 143T307 193V246H291ZM113 602V698H183V602H113ZM261 602V698H331V602H261Z"  />
<glyph unicode="&#xE5;" horiz-adv-x="458" d="M316 0L312 66Q287 24 255 7T174 -11Q144 -11 119 -1T74 27T44 73T33 136Q33 186 55 218T113 269T190 295T274 303H307V333Q307 382 286 412T208 443Q179 443 143 431T78 398L72 473Q104 491 143 500T220 510Q312 510 351 465T391 341V109Q391 78 392 52T396 0H316ZM291 246Q261 246 231 243T176 229T136 197T120 140Q120 96 143 76T201 56Q229 56 249 68T282 99T301 143T307 193V246H291ZM167 652Q167 629 183 613T223 597Q246 597 261 613T277 652Q277 675 262 691T223 707Q201 707 184 691T167 652ZM155 585Q127 612 127 652Q127 672 134 689T155 719T186 739T223 746Q262 746 289 719T317 652Q317 612 290 585T223 558Q183 558 155 585Z"  />
<glyph unicode="&#xE6;" horiz-adv-x="687" d="M277 236Q252 236 225 232T174 217T135 185T120 133Q120 98 140 77T195 55Q223 55 242 68T274 101T291 147T297 196V236H277ZM72 471Q106 491 140 500T219 510Q266 510 302 488T350 429Q370 464 405 487T486 510Q539 510 571 488T621 432T645 354T651 269V237H381Q381 206 388 174T410 116T451 73T515 56Q577 56 628 90L634 17Q573 -11 507 -11Q436 -11 396 17T330 96Q314 49 275 19T169 -11Q104 -11 69 28T33 131Q33 175 52 206T103 257T173 286T252 295H297V318Q297 339 293 361T279 401T252 431T207 443Q171 443 140 431T78 398L72 471ZM567 295Q567 318 565 344T553 392T528 430T484 445Q457 445 438 431T406 394T387 346T381 295H567Z"  />
<glyph unicode="&#xE7;" horiz-adv-x="386" d="M144 -134Q157 -139 173 -144T210 -149Q263 -149 263 -115Q263 -99 251 -91T223 -83Q202 -83 187 -89L171 -69L216 -6Q169 3 136 27T81 86T50 164T40 252Q40 307 55 354T100 436T170 490T264 510Q292 510 315 506T354 493L348 417Q333 425 312 431T268 437Q230 437 205 420T163 376T139 316T132 252Q132 219 139 185T163 124T207 79T273 62Q318 62 353 82L358 7Q342 -1 317 -6T265 -11H254L223 -54Q231 -52 238 -52T255 -51Q287 -51 305 -67T323 -113Q323 -148 294 -168T217 -189Q192 -189 169 -185T131 -172L144 -134Z"  />
<glyph unicode="&#xE8;" horiz-adv-x="435" d="M128 228Q128 197 135 167T157 112T198 72T262 56Q324 56 375 90L381 17Q320 -11 254 -11Q195 -11 155 10T89 68T52 151T40 252Q40 298 51 344T87 427T147 487T233 510Q286 510 318 487T368 428T392 347T398 260V228H128ZM314 286Q314 309 312 336T300 388T275 428T231 445Q204 445 185 429T153 390T134 338T128 286H314ZM205 584L113 720H192L267 584H205Z"  />
<glyph unicode="&#xE9;" horiz-adv-x="435" d="M128 228Q128 197 135 167T157 112T198 72T262 56Q324 56 375 90L381 17Q320 -11 254 -11Q195 -11 155 10T89 68T52 151T40 252Q40 298 51 344T87 427T147 487T233 510Q286 510 318 487T368 428T392 347T398 260V228H128ZM314 286Q314 309 312 336T300 388T275 428T231 445Q204 445 185 429T153 390T134 338T128 286H314ZM184 584L259 720H338L245 584H184Z"  />
<glyph unicode="&#xEA;" horiz-adv-x="435" d="M128 228Q128 197 135 167T157 112T198 72T262 56Q324 56 375 90L381 17Q320 -11 254 -11Q195 -11 155 10T89 68T52 151T40 252Q40 298 51 344T87 427T147 487T233 510Q286 510 318 487T368 428T392 347T398 260V228H128ZM314 286Q314 309 312 336T300 388T275 428T231 445Q204 445 185 429T153 390T134 338T128 286H314ZM95 584L187 720H256L348 584H279L221 676L165 584H95Z"  />
<glyph unicode="&#xEB;" horiz-adv-x="435" d="M128 228Q128 197 135 167T157 112T198 72T262 56Q324 56 375 90L381 17Q320 -11 254 -11Q195 -11 155 10T89 68T52 151T40 252Q40 298 51 344T87 427T147 487T233 510Q286 510 318 487T368 428T392 347T398 260V228H128ZM314 286Q314 309 312 336T300 388T275 428T231 445Q204 445 185 429T153 390T134 338T128 286H314ZM114 602V698H184V602H114ZM262 602V698H332V602H262Z"  />
<glyph unicode="&#xEC;" horiz-adv-x="221" d="M68 0V500H154V0H68ZM93 584L1 720H80L155 584H93Z"  />
<glyph unicode="&#xED;" horiz-adv-x="221" d="M68 0V500H154V0H68ZM67 584L142 720H221L128 584H67Z"  />
<glyph unicode="&#xEE;" horiz-adv-x="221" d="M68 0V500H154V0H68ZM-16 584L76 720H145L237 584H168L110 676L54 584H-16Z"  />
<glyph unicode="&#xEF;" horiz-adv-x="221" d="M68 0V500H154V0H68ZM2 602V698H72V602H2ZM150 602V698H220V602H150Z"  />
<glyph unicode="&#xF0;" horiz-adv-x="475" d="M152 125Q164 97 184 78T238 59Q272 59 293 78T325 125T341 186T345 247Q345 273 342 304T327 362T294 407T238 425Q204 425 183 407T151 363T136 305T132 247Q132 220 136 187T152 125ZM102 592L192 644Q172 657 147 670T95 694L158 731Q187 720 213 708T261 680L350 731L385 698L302 648Q339 616 364 572T405 479T428 379T435 280Q435 233 427 182T397 88T337 17T238 -11Q184 -11 147 11T86 70T51 153T40 247Q40 293 50 337T83 417T140 473T224 495Q256 495 283 479T331 440Q314 491 292 535T232 613L138 557L102 592Z"  />
<glyph unicode="&#xF1;" horiz-adv-x="481" d="M68 0V362Q68 397 67 431T64 500H144L146 427Q163 462 196 486T276 510Q314 510 340 496T383 459T407 405T414 340V0H328V337Q328 357 324 375T311 408T286 430T249 439Q225 439 207 428T177 398T160 358T154 316V0H68ZM107 596Q107 614 112 633T128 667T153 693T189 703Q205 703 220 697T248 683T273 669T295 662Q311 662 318 678T326 707H376Q376 690 371 671T356 636T331 610T296 599Q279 599 265 605T239 620T215 634T191 641Q176 641 166 626T156 596H107Z"  />
<glyph unicode="&#xF2;" horiz-adv-x="476" d="M150 129Q162 100 182 80T238 59Q272 59 293 79T325 129T340 192T344 252Q344 279 341 311T326 372T294 420T238 440Q205 440 184 420T152 371T136 310T132 252Q132 226 135 193T150 129ZM145 12Q108 35 85 72T51 157T40 252Q40 298 51 344T87 427T148 487T238 510Q294 510 332 488T393 429T426 347T436 252Q436 205 426 159T392 74T330 13T238 -11Q183 -11 145 12ZM223 584L131 720H210L285 584H223Z"  />
<glyph unicode="&#xF3;" horiz-adv-x="476" d="M150 129Q162 100 182 80T238 59Q272 59 293 79T325 129T340 192T344 252Q344 279 341 311T326 372T294 420T238 440Q205 440 184 420T152 371T136 310T132 252Q132 226 135 193T150 129ZM145 12Q108 35 85 72T51 157T40 252Q40 298 51 344T87 427T148 487T238 510Q294 510 332 488T393 429T426 347T436 252Q436 205 426 159T392 74T330 13T238 -11Q183 -11 145 12ZM192 584L267 720H346L253 584H192Z"  />
<glyph unicode="&#xF4;" horiz-adv-x="476" d="M150 129Q162 100 182 80T238 59Q272 59 293 79T325 129T340 192T344 252Q344 279 341 311T326 372T294 420T238 440Q205 440 184 420T152 371T136 310T132 252Q132 226 135 193T150 129ZM145 12Q108 35 85 72T51 157T40 252Q40 298 51 344T87 427T148 487T238 510Q294 510 332 488T393 429T426 347T436 252Q436 205 426 159T392 74T330 13T238 -11Q183 -11 145 12ZM112 584L204 720H273L365 584H296L238 676L182 584H112Z"  />
<glyph unicode="&#xF5;" horiz-adv-x="476" d="M150 129Q162 100 182 80T238 59Q272 59 293 79T325 129T340 192T344 252Q344 279 341 311T326 372T294 420T238 440Q205 440 184 420T152 371T136 310T132 252Q132 226 135 193T150 129ZM145 12Q108 35 85 72T51 157T40 252Q40 298 51 344T87 427T148 487T238 510Q294 510 332 488T393 429T426 347T436 252Q436 205 426 159T392 74T330 13T238 -11Q183 -11 145 12ZM105 596Q105 614 110 633T126 667T151 693T187 703Q203 703 218 697T246 683T271 669T293 662Q309 662 316 678T324 707H374Q374 690 369 671T354 636T329 610T294 599Q277 599 263 605T237 620T213 634T189 641Q174 641 164 626T154 596H105Z"  />
<glyph unicode="&#xF6;" horiz-adv-x="476" d="M150 129Q162 100 182 80T238 59Q272 59 293 79T325 129T340 192T344 252Q344 279 341 311T326 372T294 420T238 440Q205 440 184 420T152 371T136 310T132 252Q132 226 135 193T150 129ZM145 12Q108 35 85 72T51 157T40 252Q40 298 51 344T87 427T148 487T238 510Q294 510 332 488T393 429T426 347T436 252Q436 205 426 159T392 74T330 13T238 -11Q183 -11 145 12ZM130 602V698H200V602H130ZM278 602V698H348V602H278Z"  />
<glyph unicode="&#xF7;" horiz-adv-x="562" d="M281 7Q257 7 241 24T224 65Q224 89 241 105T281 122Q305 122 322 106T339 65Q339 41 322 24T281 7ZM28 211V284H535V211H28ZM281 373Q258 373 241 390T224 431Q224 455 240 472T281 489Q305 489 322 472T339 431Q339 407 322 390T281 373Z"  />
<glyph unicode="&#xF8;" horiz-adv-x="476" d="M19 -2L82 79Q59 117 50 162T40 252Q40 298 51 344T87 427T148 487T238 510Q283 510 316 495T372 453L427 525L456 501L395 423Q418 386 427 342T436 252Q436 205 426 159T392 74T330 13T238 -11Q194 -11 162 4T105 48L48 -26L19 -2ZM321 387Q310 410 291 425T238 440Q205 440 184 420T151 371T135 310T130 252Q130 231 132 205T141 156L321 387ZM156 114Q167 90 187 75T238 59Q272 59 293 79T326 128T342 191T346 252Q346 272 344 297T336 345L156 114Z"  />
<glyph unicode="&#xF9;" horiz-adv-x="477" d="M152 163Q152 143 156 125T169 92T193 70T230 61Q254 61 272 72T301 102T318 142T324 184V500H410V138Q410 103 411 69T414 0H334V72Q315 37 282 13T203 -11Q165 -11 139 3T96 40T73 95T66 160V500H152V163ZM223 584L131 720H210L285 584H223Z"  />
<glyph unicode="&#xFA;" horiz-adv-x="477" d="M152 163Q152 143 156 125T169 92T193 70T230 61Q254 61 272 72T301 102T318 142T324 184V500H410V138Q410 103 411 69T414 0H334V72Q315 37 282 13T203 -11Q165 -11 139 3T96 40T73 95T66 160V500H152V163ZM191 584L266 720H345L252 584H191Z"  />
<glyph unicode="&#xFB;" horiz-adv-x="477" d="M152 163Q152 143 156 125T169 92T193 70T230 61Q254 61 272 72T301 102T318 142T324 184V500H410V138Q410 103 411 69T414 0H334V72Q315 37 282 13T203 -11Q165 -11 139 3T96 40T73 95T66 160V500H152V163ZM112 584L204 720H273L365 584H296L238 676L182 584H112Z"  />
<glyph unicode="&#xFC;" horiz-adv-x="477" d="M152 163Q152 143 156 125T169 92T193 70T230 61Q254 61 272 72T301 102T318 142T324 184V500H410V138Q410 103 411 69T414 0H334V72Q315 37 282 13T203 -11Q165 -11 139 3T96 40T73 95T66 160V500H152V163ZM129 602V698H199V602H129ZM277 602V698H347V602H277Z"  />
<glyph unicode="&#xFD;" horiz-adv-x="401" d="M43 -143Q51 -148 63 -151T87 -154Q108 -154 122 -134T143 -90L166 -5L11 500H106L210 109L305 500H393L229 -80Q220 -112 210 -139T183 -185T145 -215T92 -226Q65 -226 37 -216L43 -143ZM163 584L238 720H317L224 584H163Z"  />
<glyph unicode="&#xFE;" horiz-adv-x="486" d="M169 127Q180 98 200 79T255 59Q287 59 306 80T336 131T350 195T354 252Q354 276 351 308T338 370T309 420T256 440Q223 440 203 422T172 375T156 314T152 252Q152 223 155 190T169 127ZM68 -216V721H154V430Q173 465 203 487T279 510Q330 510 362 485T413 422T439 338T446 252Q446 213 438 167T411 82T359 16T277 -11Q231 -11 202 10T154 68V-216H68Z"  />
<glyph unicode="&#xFF;" horiz-adv-x="401" d="M43 -143Q51 -148 63 -151T87 -154Q108 -154 122 -134T143 -90L166 -5L11 500H106L210 109L305 500H393L229 -80Q220 -112 210 -139T183 -185T145 -215T92 -226Q65 -226 37 -216L43 -143ZM97 602V698H167V602H97ZM245 602V698H315V602H245Z"  />
<glyph unicode="&#x131;" horiz-adv-x="221" d="M68 0V500H154V0H68Z"  />
<glyph unicode="&#x152;" horiz-adv-x="748" d="M382 589Q367 594 347 598T299 602Q250 602 221 576T175 510T153 423T147 333Q147 290 152 243T174 156T220 90T299 64Q325 64 345 66T382 77V589ZM405 0Q384 -3 355 -7T297 -11Q223 -11 175 20T100 100T61 211T50 333Q50 392 62 453T102 564T178 645T297 677Q324 677 352 674T405 667H693V591H473V383H681V308H473V77H704V0H405Z"  />
<glyph unicode="&#x153;" horiz-adv-x="737" d="M150 128Q162 99 182 79T238 58Q272 58 293 78T325 129T340 192T344 252Q344 279 341 312T326 374T294 422T238 442Q205 442 184 422T152 373T136 310T132 252Q132 225 135 192T150 128ZM430 228Q430 197 437 167T459 112T500 72T564 56Q626 56 677 90L683 17Q622 -11 556 -11Q498 -11 455 11T386 81Q364 39 326 14T238 -11Q183 -11 146 12T85 72T51 157T40 252Q40 298 51 344T87 427T148 487T238 510Q292 510 329 487T389 421Q409 459 445 484T535 510Q588 510 620 487T670 428T694 347T700 260V228H430ZM616 286Q616 309 614 336T602 388T577 428T533 445Q506 445 487 429T455 390T436 338T430 286H616Z"  />
<glyph unicode="&#x160;" horiz-adv-x="439" d="M55 109Q84 89 118 77T186 65Q234 65 267 91T300 166Q300 191 294 209T275 243T244 272T201 301L153 331Q99 365 74 404T48 498Q48 552 69 586T120 641T183 669T243 677Q281 677 313 671T370 655L364 568Q339 582 309 592T243 602Q227 602 210 597T178 581T154 551T144 505Q144 470 163 448T217 403L265 372Q301 349 325 329T366 288T389 241T396 182Q396 135 380 100T336 39T271 2T192 -11Q151 -11 114 -3T49 20L55 109ZM192 724L100 860H170L228 768L284 860H353L262 724H192Z"  />
<glyph unicode="&#x161;" horiz-adv-x="367" d="M43 92Q72 75 103 67T163 59Q197 59 221 75T246 129Q246 155 231 172T193 203T143 230T94 261T56 305T40 370Q40 407 54 433T92 477T144 502T203 510Q229 510 257 506T309 492L303 417Q259 440 207 440Q193 440 179 437T154 426T136 406T129 375Q129 348 144 331T182 301T232 275T281 245T319 202T335 138Q335 100 322 72T285 26T232 -2T167 -11Q97 -11 35 11L43 92ZM149 584L57 720H127L185 628L241 720H310L219 584H149Z"  />
<glyph unicode="&#x178;" horiz-adv-x="445" d="M176 0V278L0 667H104L226 362L346 667H445L269 278V0H176ZM262 742V838H332V742H262ZM114 742V838H184V742H114Z"  />
<glyph unicode="&#x17D;" horiz-adv-x="438" d="M31 0V81L304 591H40V667H403V589L130 77H408V0H31ZM185 724L93 860H163L221 768L277 860H346L255 724H185Z"  />
<glyph unicode="&#x17E;" horiz-adv-x="366" d="M28 0V75L246 431H35V500H336V425L118 69H339V0H28ZM152 584L60 720H130L188 628L244 720H313L222 584H152Z"  />
<glyph unicode="&#x192;" horiz-adv-x="475" d="M-4 -147Q4 -150 12 -152T28 -155Q47 -155 61 -140T86 -101T103 -50T115 3L184 331H97V400H198L212 466Q220 503 229 540T255 608T297 658T362 677Q398 677 430 664L421 592Q401 605 378 605Q357 605 344 590T321 551T307 503T297 457L285 400H372V331H271L200 -6Q193 -39 183 -77T155 -149T111 -205T47 -227Q31 -227 16 -225T-13 -218L-4 -147Z"  />
<glyph unicode="&#x2C6;" horiz-adv-x="221" d="M-16 584L76 720H145L237 584H168L110 676L54 584H-16Z"  />
<glyph unicode="&#x2C7;" horiz-adv-x="221" d="M76 584L-16 720H54L112 628L168 720H237L146 584H76Z"  />
<glyph unicode="&#x2DA;" horiz-adv-x="221" d="M56 652Q56 629 72 613T112 597Q135 597 150 613T166 652Q166 675 151 691T112 707Q90 707 73 691T56 652ZM44 585Q16 612 16 652Q16 672 23 689T44 719T75 739T112 746Q151 746 178 719T206 652Q206 612 179 585T112 558Q72 558 44 585Z"  />
<glyph unicode="&#x2DC;" horiz-adv-x="221" d="M-23 596Q-23 614 -18 633T-2 667T23 693T59 703Q75 703 90 697T118 683T143 669T165 662Q181 662 188 678T196 707H246Q246 690 241 671T226 636T201 610T166 599Q149 599 135 605T109 620T85 634T61 641Q46 641 36 626T26 596H-23Z"  />
<glyph unicode="&#x2013;" horiz-adv-x="500" d="M0 277V344H500V277H0Z"  />
<glyph unicode="&#x2014;" horiz-adv-x="1000" d="M0 277V344H1000V277H0Z"  />
<glyph unicode="&#x2018;" horiz-adv-x="237" d="M37 484L109 721H179L126 484H37Z"  />
<glyph unicode="&#x2019;" horiz-adv-x="237" d="M58 484L111 721H200L128 484H58Z"  />
<glyph unicode="&#x201A;" horiz-adv-x="237" d="M28 -128L81 109H170L98 -128H28Z"  />
<glyph unicode="&#x201C;" horiz-adv-x="388" d="M37 484L109 721H179L126 484H37ZM188 484L261 721H330L278 484H188Z"  />
<glyph unicode="&#x201D;" horiz-adv-x="388" d="M58 484L111 721H200L128 484H58ZM209 484L263 721H351L279 484H209Z"  />
<glyph unicode="&#x201E;" horiz-adv-x="388" d="M28 -128L81 109H170L98 -128H28ZM179 -128L233 109H321L250 -128H179Z"  />
<glyph unicode="&#x2020;" horiz-adv-x="475" d="M194 -128V423H61V499H194V721H282V499H414V423H282V-128H194Z"  />
<glyph unicode="&#x2021;" horiz-adv-x="475" d="M194 -128V94H61V170H194V423H61V499H194V721H282V499H414V423H282V170H414V94H282V-128H194Z"  />
<glyph unicode="&#x2022;" horiz-adv-x="475" d="M193 203Q172 212 156 228T131 265T122 310Q122 334 131 355T156 392T193 417T238 426Q262 426 283 417T319 392T344 355T353 310Q353 286 344 265T320 228T283 203T238 194Q214 194 193 203Z"  />
<glyph unicode="&#x2026;" horiz-adv-x="1000" d="M120 0V109H215V0H120ZM453 0V109H548V0H453ZM786 0V109H881V0H786Z"  />
<glyph unicode="&#x2030;" horiz-adv-x="1088" d="M156 334Q168 320 189 320Q210 320 222 334T240 371T247 420T249 471Q249 495 248 522T240 571T222 607T189 622Q168 622 156 608T138 571T131 523T129 471Q129 446 130 419T138 370T156 334ZM560 58Q572 44 593 44Q614 44 626 58T643 95T650 144T652 195Q652 219 651 246T644 295T626 331T593 346Q572 346 560 332T542 295T534 247T532 195Q532 170 534 143T542 94T560 58ZM866 58Q878 44 899 44Q920 44 932 58T950 95T957 144T959 195Q959 219 958 246T950 295T932 331T899 346Q878 346 866 332T848 295T841 247T839 195Q839 170 840 143T848 94T866 58ZM121 286Q96 307 83 338T65 405T60 471Q60 500 64 535T82 602T121 655T189 677Q232 677 257 656T296 604T314 537T318 471Q318 441 314 405T296 338T257 286T189 265Q147 265 121 286ZM219 -24L502 691H563L280 -24H219ZM525 10Q499 31 486 62T468 129T463 195Q463 224 467 259T486 326T525 379T593 401Q636 401 661 380T699 328T717 261T721 195Q721 165 717 129T699 62T660 10T593 -11Q551 -11 525 10ZM831 10Q806 31 793 62T775 129T770 195Q770 224 774 259T792 326T831 379T899 401Q942 401 967 380T1006 328T1024 261T1028 195Q1028 165 1024 129T1006 62T967 10T899 -11Q857 -11 831 10Z"  />
<glyph unicode="&#x2039;" horiz-adv-x="251" d="M142 55L32 256L142 457H217L114 256L217 55H142Z"  />
<glyph unicode="&#x203A;" horiz-adv-x="251" d="M35 55L138 256L35 457H110L220 256L110 55H35Z"  />
<glyph unicode="&#x20AC;" horiz-adv-x="475" d="M35 241L44 293H101Q100 304 100 313Q100 322 100 333Q100 344 100 353Q100 362 101 373H35L44 426H108Q115 471 131 516T173 597T239 655T332 677Q389 677 435 651L421 574Q407 588 384 595T341 602Q306 602 282 585T240 543T213 486T198 426H399L390 373H192Q191 362 191 353Q191 344 191 333Q191 323 191 313Q191 304 192 293H377L368 241H198Q202 212 212 181T239 124T282 81T342 64Q385 64 420 88L426 7Q381 -11 331 -11Q277 -11 238 11T171 68T129 149T106 241H35Z"  />
<glyph unicode="&#x2122;" horiz-adv-x="776" d="M103 266V614H8V667H269V614H174V266H103ZM330 266V667H433L526 356L620 667H724V266H656V609L551 266H497L392 609V266H330Z"  />
<glyph unicode="&#xE300;" horiz-adv-x="222" d="M93 724L1 860H80L155 724H93Z"  />
<glyph unicode="&#xE301;" horiz-adv-x="221" d="M57 724L132 860H211L118 724H57Z"  />
<glyph unicode="&#xE302;" horiz-adv-x="221" d="M-16 724L76 860H145L237 724H168L110 816L54 724H-16Z"  />
<glyph unicode="&#xE303;" horiz-adv-x="221" d="M76 724L-16 860H54L112 768L168 860H237L146 724H76Z"  />
<glyph unicode="&#xE304;" horiz-adv-x="221" d="M-23 736Q-23 754 -18 773T-3 807T23 833T59 843Q75 843 90 837T118 823T143 809T165 802Q181 802 188 818T196 847H246Q246 830 241 811T226 776T201 750T166 739Q149 739 135 745T109 760T85 774T61 781Q46 781 36 766T26 736H-23Z"  />
<glyph unicode="&#xE305;" horiz-adv-x="221" d="M150 742V838H220V742H150ZM2 742V838H72V742H2Z"  />
<glyph unicode="&#xE308;" horiz-adv-x="221" d="M44 725Q16 752 16 792Q16 812 23 829T44 859T75 879T112 886Q151 886 178 859T206 792Q206 752 179 725T112 698Q72 698 44 725ZM56 792Q56 769 72 753T112 737Q135 737 150 753T166 792Q166 815 151 831T112 847Q90 847 73 831T56 792Z"  />

</font>
</defs>
</svg>
