<?xml  version="1.0" encoding="UTF-8"?>
<!DOCTYPE svg PUBLIC "-//W3C//DTD SVG 1.0//EN" "http://www.w3.org/TR/2001/REC-SVG-20010904/DTD/svg10.dtd" >
<svg xmlns="http://www.w3.org/2000/svg" >
<metadata>
<version>1.0</version>
<id><![CDATA[Frutiger Next W01 Heavy]]></id>
<vendor>Monotype Imaging Inc.</vendor>
<credits>
<name>Fonts.com WebFonts</name>
<URL>http://webfonts.fonts.com</URL>
<role>Home of the Web fonts</role>
</credits>
<license>
<URL>http://webfonts.fonts.com/Legal</URL>
</license>
<copyright><![CDATA[Copyright © 2007 Linotype GmbH, www.linotype.com. All rights reserved. This font software may not be reproduced, modified, disclosed or transferred without the express written approval of Linotype GmbH. Frutiger Next is a trademark of Linotype GmbH and may be registered in certain jurisdictions. This typeface is original artwork of Adrian Frutiger and Linotype Design Studio. The design may be protected in certain jurisdictions.]]></copyright>
<trademark><![CDATA[Frutiger Next is a trademark of Linotype GmbH and may be registered in certain jurisdictions.]]></trademark>
<licensee>
<name></name>
</licensee>
</metadata>
<defs >
<font horiz-adv-x="570" id="d75679b8-056b-48fb-990f-61c2c4d0e096">
<font-face font-family="" panose-1="2 11 9 3 4 2 4 2 2 3" ascent="905" descent="-279" units-per-em="1000" alphabetic="0">
</font-face>
<missing-glyph horiz-adv-x="310" />

<glyph unicode="&#xA;" />
<glyph unicode="&#xD;" horiz-adv-x="0" />
<glyph unicode=" " horiz-adv-x="310" />
<glyph unicode="!" horiz-adv-x="310" d="M72 0V143H239V0H72ZM85 209L55 667H256L226 209H85Z"  />
<glyph unicode="&quot;" horiz-adv-x="508" d="M93 459V667H218V459H93ZM291 459V667H416V459H291Z"  />
<glyph unicode="#" horiz-adv-x="620" d="M226 281H377L393 387H243L226 281ZM82 0L108 184H37V281H121L138 387H67V485H152L178 667H283L257 485H407L433 667H538L512 485H583V387H498L482 281H553V184H469L442 0H337L364 184H213L186 0H82Z"  />
<glyph unicode="$" horiz-adv-x="620" d="M257 -108V-10Q159 -7 67 19L73 160Q116 140 167 129T269 118Q287 118 307 121T345 132T373 154T385 190Q385 207 374 219T345 240T306 257T266 273L198 300Q172 310 148 325T104 362T74 411T62 475Q62 523 79 557T124 615T190 652T267 672V774H370V678Q415 677 456 671T533 655L527 518Q495 531 455 540T369 549Q352 549 331 547T291 538T258 518T245 484Q245 469 255 458T280 437T314 422T349 409L422 383Q450 373 476 359T524 324T557 273T570 201Q570 151 553 114T507 52T440 13T359 -7V-108H257Z"  />
<glyph unicode="%" horiz-adv-x="1000" d="M173 380Q179 362 190 352T222 341Q242 341 254 351T272 380T279 421T281 471Q281 499 279 523T271 564T253 591T222 601Q203 601 192 592T174 565T166 523T164 471Q164 445 165 422T173 380ZM729 104Q735 86 746 76T778 65Q798 65 809 75T827 104T834 145T836 195Q836 223 834 247T826 288T809 315T778 325Q759 325 748 316T730 289T722 247T720 195Q720 169 721 146T729 104ZM135 281Q100 298 78 326T47 391T37 471Q37 513 47 550T79 616T136 660T222 677Q273 677 308 661T365 616T398 551T408 471Q408 429 398 392T366 326T309 282T222 265Q171 265 135 281ZM238 -24L661 691H763L340 -24H238ZM691 5Q656 22 634 50T603 115T593 195Q593 237 603 274T635 340T692 384T778 401Q829 401 864 385T921 340T953 275T963 195Q963 153 953 116T922 50T865 6T778 -11Q727 -11 691 5Z"  />
<glyph unicode="&amp;" horiz-adv-x="751" d="M366 288Q301 288 262 265T223 193Q223 142 263 124T366 105Q409 105 454 117V288H366ZM626 21Q609 16 576 11T506 0T431 -8T366 -11Q298 -11 238 -3T134 28T63 87T37 183Q37 216 49 244T84 293T135 326T198 342Q165 346 139 359T96 392T70 435T61 482Q61 530 82 566T144 627T241 664T368 677Q428 677 481 670T575 652L570 527Q523 547 474 555T368 564Q344 564 321 559T279 543T249 517T237 480Q237 438 267 417T366 396H454V445H626V396H735V288H626V21Z"  />
<glyph unicode="&apos;" horiz-adv-x="310" d="M93 459V667H218V459H93Z"  />
<glyph unicode="(" horiz-adv-x="316" d="M184 -128Q124 -31 85 75T45 297Q45 355 55 410T85 518T129 622T184 721H319Q265 622 233 517T201 297Q201 183 233 77T319 -128H184Z"  />
<glyph unicode=")" horiz-adv-x="316" d="M-2 -128Q52 -29 84 77T117 297Q117 410 85 516T-2 721H133Q163 673 188 622T232 518T261 410T272 297Q272 181 233 75T133 -128H-2Z"  />
<glyph unicode="*" horiz-adv-x="453" d="M66 343L160 448L30 475L62 590L188 531L169 667H287L269 531L392 590L424 475L296 447L386 343L289 280L226 400L162 280L66 343Z"  />
<glyph unicode="+" horiz-adv-x="620" d="M43 200V331H244V531H377V331H577V200H377V0H244V200H43Z"  />
<glyph unicode="&#x2c;" horiz-adv-x="310" d="M25 -128L83 143H247L146 -128H25Z"  />
<glyph unicode="-" horiz-adv-x="342" d="M42 244V376H301V244H42Z"  />
<glyph unicode="." horiz-adv-x="310" d="M72 0V143H239V0H72Z"  />
<glyph unicode="/" horiz-adv-x="334" d="M-30 0L232 667H365L103 0H-30Z"  />
<glyph unicode="0" horiz-adv-x="620" d="M259 128Q278 109 310 109Q342 109 360 128T388 178T400 249T403 333Q403 381 400 422T387 493T359 540T310 557Q279 557 261 540T234 493T221 422T218 333Q218 290 220 250T232 178T259 128ZM178 16Q124 44 91 91T44 200T29 333Q29 403 44 465T92 575T179 649T310 677Q387 677 441 650T528 575T577 465T592 333Q592 264 578 202T530 92T442 17T310 -11Q232 -11 178 16Z"  />
<glyph unicode="1" horiz-adv-x="620" d="M276 0V482L134 379L76 513L302 667H463V0H276Z"  />
<glyph unicode="2" horiz-adv-x="620" d="M44 0V138L233 282Q258 301 281 320T323 361T352 404T363 452Q363 479 352 497T323 525T283 540T236 544Q193 544 147 532T63 502L58 637Q161 677 276 677Q326 677 375 668T464 636T527 575T552 478Q552 438 540 404T506 340T455 283T389 228L260 129H556V0H44Z"  />
<glyph unicode="3" horiz-adv-x="620" d="M49 139Q90 123 134 116T222 109Q245 109 271 112T318 126T354 153T369 198Q369 226 354 243T315 270T264 283T211 287H130V399H198Q223 399 252 402T305 413T345 438T361 480Q361 505 347 520T313 543T271 554T230 557Q190 557 146 548T63 527L57 648Q105 663 156 670T259 677Q302 677 353 671T448 645T521 591T550 500Q550 437 514 398T420 342Q449 337 474 326T519 295T550 251T562 196Q562 133 534 93T461 30T363 -2T257 -11Q202 -11 149 -5T43 16L49 139Z"  />
<glyph unicode="4" horiz-adv-x="620" d="M25 133V283L320 667H511V262H607V133H511V0H330V133H25ZM146 257H333V512L146 257Z"  />
<glyph unicode="5" horiz-adv-x="620" d="M63 142Q100 131 136 125T212 118Q237 118 265 122T316 138T355 168T371 217Q371 246 356 265T318 295T267 311T215 316Q180 316 146 312T74 298L83 667H532V542H250L246 404Q260 408 276 409T307 411Q355 411 401 403T483 373T542 314T564 217Q564 155 536 112T464 42T365 2T257 -11Q208 -11 157 -5T58 16L63 142Z"  />
<glyph unicode="6" horiz-adv-x="620" d="M543 534Q508 545 472 551T397 557Q356 557 323 544T266 506T231 449T218 375Q247 405 288 418T371 431Q420 431 461 417T532 375T578 309T595 218Q595 161 572 118T510 47T422 4T320 -11Q248 -11 195 13T106 80T53 183T35 315Q35 394 58 460T126 575T234 650T379 677Q422 677 464 673T549 659L543 534ZM244 134Q270 101 319 101Q369 101 395 131T422 210Q422 258 397 288T321 319Q272 319 246 290T219 212Q219 167 244 134Z"  />
<glyph unicode="7" horiz-adv-x="620" d="M102 0L379 521H47V667H567V521L321 0H102Z"  />
<glyph unicode="8" horiz-adv-x="620" d="M381 273Q352 300 310 308Q266 301 239 273T211 201Q211 156 237 129T310 102Q357 102 383 129T410 202Q410 247 381 273ZM246 423Q273 398 311 391Q347 397 374 424T401 490Q401 528 375 550T310 572Q272 572 246 550T220 490Q220 449 246 423ZM60 288Q97 327 165 345Q105 362 72 399T39 501Q39 549 66 582T135 637T223 667T310 677Q352 677 399 669T487 641T555 587T582 501Q582 438 547 401T453 345Q521 328 559 290T597 177Q597 123 569 87T498 29T405 -2T310 -11Q263 -11 213 -2T120 28T51 86T24 177Q24 250 60 288Z"  />
<glyph unicode="9" horiz-adv-x="620" d="M223 376Q248 345 299 345Q349 345 375 375T401 453Q401 498 376 531T302 565Q252 565 226 535T199 456Q199 408 223 376ZM75 132Q149 109 226 109Q311 109 355 156T402 287Q372 258 332 246T250 234Q202 234 161 249T90 291T43 358T26 447Q26 505 49 548T110 619T197 662T298 677Q368 677 422 655T512 592T568 494T587 364Q587 280 566 211T503 93T397 16T249 -11Q158 -11 70 7L75 132Z"  />
<glyph unicode=":" horiz-adv-x="310" d="M72 0V143H239V0H72ZM72 362V505H239V362H72Z"  />
<glyph unicode=";" horiz-adv-x="310" d="M25 -128L83 143H247L146 -128H25ZM71 362V505H239V362H71Z"  />
<glyph unicode="&lt;" horiz-adv-x="620" d="M43 196V333L577 544V405L193 264L577 126V-14L43 196Z"  />
<glyph unicode="=" horiz-adv-x="620" d="M43 84V216H577V84H43ZM43 314V446H577V314H43Z"  />
<glyph unicode="&gt;" horiz-adv-x="620" d="M43 -14V126L427 264L43 405V544L577 333V196L43 -14Z"  />
<glyph unicode="?" horiz-adv-x="486" d="M124 0V143H291V0H124ZM132 209V222Q132 266 142 296T167 347T201 383T234 413T260 444T270 483Q270 501 261 513T237 531T206 541T174 544Q105 544 37 516L31 645Q78 659 122 668T219 677Q258 677 300 669T377 643T434 593T457 514Q457 477 444 451T412 403T370 364T328 325T296 281T283 223V209H132Z"  />
<glyph unicode="@" horiz-adv-x="1100" d="M878 -175Q801 -201 724 -213T555 -226Q441 -226 349 -196T191 -108T90 33T54 220Q54 336 94 430T205 591T375 694T591 731Q687 731 770 705T915 627T1012 503T1047 335Q1047 258 1024 195T962 85T871 14T761 -11Q705 -11 668 15T619 101Q587 44 547 17T446 -11Q412 -11 384 1T334 36T302 91T290 165Q290 239 313 303T378 414T482 488T620 515Q661 515 709 509T806 485L743 196Q738 171 738 148Q738 90 788 90Q813 90 836 105T878 150T908 224T920 328Q920 404 894 459T823 551T716 605T582 623Q496 623 424 594T299 513T217 386T187 220Q187 140 212 77T286 -29T405 -96T566 -119Q649 -119 721 -105T869 -61L878 -175ZM644 396Q631 400 623 401T604 402Q565 402 535 381T483 327T452 256T441 183Q441 143 456 123T498 102Q539 102 569 145T614 255L644 396Z"  />
<glyph unicode="A" horiz-adv-x="746" d="M277 285H458L369 552L277 285ZM-6 0L239 667H504L752 0H546L494 156H241L188 0H-6Z"  />
<glyph unicode="B" horiz-adv-x="680" d="M253 112H321Q342 112 364 116T405 130T434 157T446 200Q446 228 435 245T405 272T365 285T319 288H253V112ZM253 391H320Q341 391 361 395T398 408T425 434T435 475Q435 498 426 513T401 538T367 551T329 555H253V391ZM64 0V667H404Q445 667 485 660T557 633T609 582T629 502Q629 436 594 397T495 344Q559 333 601 294T644 187Q644 126 621 90T559 33T473 7T375 0H64Z"  />
<glyph unicode="C" horiz-adv-x="614" d="M590 16Q554 2 513 -4T423 -11Q337 -11 266 10T142 75T61 182T32 333Q32 414 63 478T147 586T271 653T423 677Q468 677 510 673T588 657L582 517Q521 540 449 540Q402 540 363 526T297 484T254 419T238 333Q238 235 294 181T449 126Q485 126 518 132T584 153L590 16Z"  />
<glyph unicode="D" horiz-adv-x="735" d="M64 0V667H323Q403 667 472 651T593 596T673 496T703 343Q703 261 677 197T603 90T489 23T341 0H64ZM261 129H305Q358 129 394 145T454 190T487 258T497 343Q497 433 453 485T309 538H261V129Z"  />
<glyph unicode="E" horiz-adv-x="610" d="M64 0V667H564V538H257V401H552V273H257V129H572V0H64Z"  />
<glyph unicode="F" horiz-adv-x="586" d="M64 0V667H557V538H261V389H545V261H261V0H64Z"  />
<glyph unicode="G" horiz-adv-x="716" d="M369 265V384H661V27Q601 7 545 -2T423 -11Q342 -11 271 10T146 75T63 182T32 333Q32 419 67 483T159 591T290 655T441 677Q497 677 549 671T650 650L644 507Q604 527 560 535T470 544Q420 544 378 530T304 490T256 424T238 333Q238 289 249 251T284 184T344 139T428 122Q449 122 462 123T490 128V265H369Z"  />
<glyph unicode="H" horiz-adv-x="745" d="M64 0V667H261V417H484V667H681V0H484V263H261V0H64Z"  />
<glyph unicode="I" horiz-adv-x="325" d="M64 0V667H261V0H64Z"  />
<glyph unicode="J" horiz-adv-x="415" d="M11 147Q24 140 38 138T66 135Q114 135 137 163T161 236V667H358V198Q358 95 299 42T140 -11Q106 -11 72 -6T5 8L11 147Z"  />
<glyph unicode="K" horiz-adv-x="718" d="M65 0V667H262V387L466 667H695L439 355L717 0H477L262 307V0H65Z"  />
<glyph unicode="L" horiz-adv-x="580" d="M64 0V667H261V154H561V0H64Z"  />
<glyph unicode="M" horiz-adv-x="982" d="M64 0V667H356L493 211L627 667H918V0H740V550L571 0H404L236 550V0H64Z"  />
<glyph unicode="N" horiz-adv-x="784" d="M64 0V667H355L549 149V667H720V0H429L236 517V0H64Z"  />
<glyph unicode="O" horiz-adv-x="759" d="M266 192Q282 160 309 139T379 118Q423 118 450 138T494 190T515 260T521 333Q521 368 516 406T494 475T451 527T379 548Q337 548 310 527T266 474T244 405T238 333Q238 299 244 262T266 192ZM123 77Q32 166 32 333Q32 414 56 478T125 586T234 653T379 677Q461 677 525 655T635 588T703 480T727 333Q727 251 703 187T634 79T525 12T379 -11Q214 -11 123 77Z"  />
<glyph unicode="P" horiz-adv-x="670" d="M64 0V667H342Q496 667 571 612T646 450Q646 391 625 348T565 277T472 236T354 222H257V0H64ZM256 346H305Q332 346 358 349T404 364T436 395T449 449Q449 479 437 497T406 525T363 538T315 542H256V346Z"  />
<glyph unicode="Q" horiz-adv-x="759" d="M266 192Q282 160 309 139T379 118Q423 118 450 138T494 190T515 260T521 333Q521 368 516 406T494 475T451 527T379 548Q337 548 310 527T266 474T244 405T238 333Q238 299 244 262T266 192ZM500 -128L402 -10Q397 -11 391 -11Q385 -11 379 -11Q214 -11 123 77T32 333Q32 414 56 478T125 586T234 653T379 677Q461 677 525 655T635 588T703 480T727 333Q727 228 689 152T577 35L721 -128H500Z"  />
<glyph unicode="R" horiz-adv-x="688" d="M256 378H320Q343 378 365 381T404 394T432 419T443 463Q443 488 433 504T407 528T369 539T324 542H256V378ZM64 0V667H398Q442 667 485 659T563 630T619 575T641 488Q641 452 629 424T596 375T547 341T484 321Q535 311 560 286T602 212L670 0H463L411 170Q404 193 398 209T381 234T354 248T311 253H257V0H64Z"  />
<glyph unicode="S" horiz-adv-x="599" d="M47 159Q97 136 147 127T251 118Q269 118 289 121T325 131T353 152T364 186Q364 202 357 213T335 234T297 253T242 273L197 288Q163 299 135 314T87 350T55 401T43 471Q43 532 71 572T143 635T239 668T338 678Q387 678 434 672T529 655L524 518Q483 534 441 541T354 549Q337 549 317 547T280 538T250 518T238 484Q238 468 244 458T263 440T293 426T333 413L390 395Q427 383 458 369T512 332T548 279T561 205Q561 144 536 103T471 37T379 0T276 -11Q216 -11 158 -5T42 18L47 159Z"  />
<glyph unicode="T" horiz-adv-x="652" d="M227 0V513H11V667H642V513H425V0H227Z"  />
<glyph unicode="U" horiz-adv-x="728" d="M255 259Q255 232 260 208T278 166T312 137T363 126Q393 126 414 137T449 166T468 208T474 259V667H671V262Q671 193 647 142T580 56T482 6T362 -11Q298 -11 243 4T146 51T82 133T58 253V667H255V259Z"  />
<glyph unicode="V" horiz-adv-x="706" d="M235 0L-7 667H204L357 191L512 667H713L465 0H235Z"  />
<glyph unicode="W" horiz-adv-x="1035" d="M175 0L4 667H191L298 179L426 667H620L745 179L855 667H1032L862 0H647L517 490L391 0H175Z"  />
<glyph unicode="X" horiz-adv-x="734" d="M-3 0L239 345L25 667H249L381 441L511 667H719L497 345L738 0H506L359 246L212 0H-3Z"  />
<glyph unicode="Y" horiz-adv-x="666" d="M233 0V229L-13 667H201L340 371L475 667H680L430 229V0H233Z"  />
<glyph unicode="Z" horiz-adv-x="611" d="M27 0V154L361 530H38V667H575V512L249 137H585V0H27Z"  />
<glyph unicode="[" horiz-adv-x="335" d="M68 -128V721H329V612H213V-19H329V-128H68Z"  />
<glyph unicode="\" horiz-adv-x="334" d="M232 0L-30 667H103L365 0H232Z"  />
<glyph unicode="]" horiz-adv-x="335" d="M7 -128V-19H123V612H7V721H269V-128H7Z"  />
<glyph unicode="^" horiz-adv-x="620" d="M69 232L249 667H370L551 232H409L309 511L210 232H69Z"  />
<glyph unicode="_" horiz-adv-x="500" d="M0 -125V-75H500V-125H0Z"  />
<glyph unicode="`" horiz-adv-x="294" d="M84 582L-39 718H138L211 582H84Z"  />
<glyph unicode="a" horiz-adv-x="587" d="M370 0L367 71Q341 33 300 11T199 -11Q164 -11 132 -2T76 26T38 75T24 146Q24 197 45 230T103 282T185 310T282 318Q300 318 322 317T363 314V326Q363 350 354 366T328 393T290 407T243 411Q205 411 164 401T85 371L79 484Q124 498 174 506T272 515Q326 515 374 507T459 476T517 414T539 313V126Q539 79 539 52T543 0H370ZM322 231Q301 231 279 228T238 217T208 195T196 158Q196 140 202 128T219 108T242 97T267 94Q292 94 310 103T340 129T357 166T363 210V231H322Z"  />
<glyph unicode="b" horiz-adv-x="631" d="M250 161Q260 139 277 125T321 110Q349 110 366 124T392 160T404 207T407 254Q407 275 404 299T392 345T367 379T322 393Q294 393 277 380T251 346T238 301T235 254Q235 233 238 208T250 161ZM55 0V721H240V423Q259 468 301 491T392 515Q449 515 489 494T554 436T592 353T604 255Q604 202 592 154T554 70T487 11T387 -11Q336 -11 293 11T227 82L224 0H55Z"  />
<glyph unicode="c" horiz-adv-x="500" d="M475 9Q440 -2 408 -6T334 -11Q266 -11 210 5T113 55T50 139T28 255Q28 319 52 367T117 449T215 498T336 515Q372 515 405 511T473 496L467 376Q443 387 419 392T365 398Q300 398 263 359T225 255Q225 191 263 150T367 109Q396 109 420 114T470 132L475 9Z"  />
<glyph unicode="d" horiz-adv-x="631" d="M239 159Q248 138 265 124T311 110Q338 110 355 124T381 160T394 207T397 253Q397 275 394 299T382 344T355 378T310 392Q282 392 266 379T240 344T228 299T225 253Q225 231 227 206T239 159ZM409 0L405 82Q382 34 339 12T245 -11Q186 -11 145 11T78 69T40 154T28 255Q28 306 40 353T78 436T144 493T241 515Q289 515 331 492T392 423V721H577V127Q577 82 578 54T581 0H409Z"  />
<glyph unicode="e" horiz-adv-x="567" d="M209 211Q211 179 225 158T260 123T307 103T360 97Q392 97 433 103T509 127L515 17Q467 1 418 -5T324 -11Q259 -11 205 5T112 55T50 138T28 255Q28 317 49 365T107 447T194 497T301 515Q367 515 412 495T486 438T528 352T541 242V211H209ZM382 300Q382 320 379 341T368 379T344 408T304 420Q278 420 261 409T232 380T215 341T208 300H382Z"  />
<glyph unicode="f" horiz-adv-x="398" d="M104 0V389H14V505H104V547Q104 635 146 683T287 731Q317 731 348 729T409 718L403 610Q391 615 379 616T353 617Q334 617 322 610T303 592T292 568T289 542V505H395V389H290V0H104Z"  />
<glyph unicode="g" horiz-adv-x="631" d="M240 166Q249 147 266 134T310 121Q337 121 354 133T380 165T393 208T397 253Q397 275 394 299T382 344T355 378T310 392Q282 392 266 379T240 344T228 299T225 253Q225 232 228 209T240 166ZM75 -70Q110 -89 150 -99T234 -109Q312 -109 352 -72T392 37V84Q364 43 324 22T233 0Q178 0 139 21T76 78T40 160T28 255Q28 306 39 353T75 436T139 493T235 515Q287 515 330 493T396 423V505H577V38Q577 -31 556 -81T496 -163T403 -211T283 -226Q229 -226 175 -221T69 -199L75 -70Z"  />
<glyph unicode="h" horiz-adv-x="619" d="M55 0V721H240V423Q261 469 302 492T395 515Q482 515 523 469T564 338V0H379V293Q379 311 378 328T370 358T350 380T315 389Q293 389 279 380T256 355T244 321T240 284V0H55Z"  />
<glyph unicode="i" horiz-adv-x="294" d="M55 0V505H240V0H55ZM55 586V713H240V586H55Z"  />
<glyph unicode="j" horiz-adv-x="299" d="M-34 -94Q-25 -98 -16 -99T3 -100Q35 -100 47 -78T60 -27V505H244V-42Q244 -82 235 -115T206 -173T156 -212T82 -226Q51 -226 20 -224T-40 -215L-34 -94ZM60 586V713H244V586H60Z"  />
<glyph unicode="k" horiz-adv-x="631" d="M55 0V721H240V299L401 505H613L426 278L628 0H409L240 251V0H55Z"  />
<glyph unicode="l" horiz-adv-x="294" d="M55 0V721H240V0H55Z"  />
<glyph unicode="m" horiz-adv-x="924" d="M55 0V396Q55 423 55 450T51 505H226L228 422Q250 467 292 491T392 515Q447 515 487 491T543 419Q553 443 570 461T608 491T654 509T702 515Q751 515 783 501T835 460T862 396T870 315V0H685V303Q685 319 683 334T674 362T655 381T623 389Q602 389 589 380T568 355T557 321T554 284V0H371V303Q371 319 369 334T360 362T341 381T310 389Q290 389 277 380T255 355T244 321T240 284V0H55Z"  />
<glyph unicode="n" horiz-adv-x="619" d="M55 0V396Q55 423 55 450T51 505H226L228 422Q251 470 296 492T392 515Q480 515 522 469T564 336V0H379V292Q379 309 378 326T370 358T350 380T315 389Q292 389 278 380T255 355T244 321T240 283V0H55Z"  />
<glyph unicode="o" horiz-adv-x="623" d="M242 154Q252 133 269 120T312 107Q339 107 355 119T382 153T395 200T399 255Q399 278 396 303T383 350T356 384T312 398Q286 398 269 385T242 350T229 304T225 255Q225 228 229 202T242 154ZM105 56Q68 90 48 140T28 255Q28 322 50 371T110 452T200 499T312 515Q375 515 427 500T516 453T575 372T596 255Q596 189 576 140T518 57T428 6T312 -11Q247 -11 195 6T105 56Z"  />
<glyph unicode="p" horiz-adv-x="631" d="M250 162Q260 140 277 126T321 111Q349 111 366 125T392 161T404 208T407 255Q407 276 404 300T392 345T367 379T322 393Q294 393 277 380T251 346T238 301T235 255Q235 234 238 209T250 162ZM55 -216V374Q55 420 54 449T51 505H226L229 422Q251 469 296 492T392 515Q449 515 489 494T554 436T592 353T604 255Q604 202 593 154T555 70T488 11T387 -11Q340 -11 299 12T240 81V-216H55Z"  />
<glyph unicode="q" horiz-adv-x="631" d="M239 162Q248 141 265 127T311 112Q338 112 355 126T381 163T394 210T397 256Q397 278 394 302T382 346T355 380T310 394Q282 394 266 381T240 347T228 302T225 256Q225 234 227 209T239 162ZM392 -216V82Q374 37 333 13T245 -11Q186 -11 145 11T78 69T40 154T28 255Q28 306 40 353T77 436T143 493T240 515Q292 515 336 493T403 423L404 505H577V-216H392Z"  />
<glyph unicode="r" horiz-adv-x="426" d="M55 0V396Q55 423 55 450T51 504H226L228 405Q238 427 252 447T284 482T326 507T376 516Q386 516 395 515T415 511L410 351Q399 356 388 357T365 358Q332 358 309 346T270 312T248 264T240 208V0H55Z"  />
<glyph unicode="s" horiz-adv-x="487" d="M39 131Q74 112 120 103T206 94Q220 94 233 96T258 105T276 121T283 146Q283 169 265 182T220 205T161 223T102 248T57 289T39 358Q39 405 61 435T119 484T195 509T274 516Q316 516 356 511T437 495L431 385Q361 411 286 411Q274 411 261 410T237 403T218 389T210 365Q210 347 228 337T273 319T332 301T391 275T437 231T455 160Q455 107 432 74T374 22T297 -4T219 -11Q125 -11 33 15L39 131Z"  />
<glyph unicode="t" horiz-adv-x="415" d="M8 390V505H96V600L281 658V505H391V390H281V186Q281 156 292 136T338 115Q365 115 392 126L397 11Q364 0 328 -5T257 -11Q211 -11 180 2T131 39T104 97T96 175V390H8Z"  />
<glyph unicode="u" horiz-adv-x="616" d="M391 0L389 83Q366 35 321 13T225 -10Q137 -10 95 36T53 169V505H238V214Q238 197 239 180T247 148T267 125T302 116Q324 116 339 125T362 150T373 185T377 223V505H561V110Q561 83 562 55T566 0H391Z"  />
<glyph unicode="v" horiz-adv-x="550" d="M158 -1L2 505H194L280 133L366 505H548L393 -1H158Z"  />
<glyph unicode="w" horiz-adv-x="903" d="M138 0L6 505H188L269 135L349 505H568L652 135L728 505H898L767 0H536L455 376L368 0H138Z"  />
<glyph unicode="x" horiz-adv-x="590" d="M4 0L174 264L21 505H218L304 335L382 505H570L419 264L587 0H389L292 185L193 0H4Z"  />
<glyph unicode="y" horiz-adv-x="546" d="M35 -95Q65 -104 97 -104Q127 -104 149 -92T182 -48L191 -21L3 505H195L284 155L366 505H546L370 -34Q359 -68 343 -102T302 -164T242 -209T156 -226Q117 -226 88 -223T29 -212L35 -95Z"  />
<glyph unicode="z" horiz-adv-x="531" d="M30 0V138L290 389H38V505H498V368L242 117H502V0H30Z"  />
<glyph unicode="{" horiz-adv-x="339" d="M217 -128Q190 -128 167 -117T128 -87T102 -44T93 5V170Q93 204 75 227T21 251V343Q56 343 74 367T93 425V588Q93 613 102 637T127 679T167 709T217 721H327V634H299Q237 634 237 567V407Q237 361 211 335T139 297Q184 286 210 260T237 187V27Q237 -41 299 -41H327V-128H217Z"  />
<glyph unicode="|" horiz-adv-x="213" d="M41 -216V776H172V-216H41Z"  />
<glyph unicode="}" horiz-adv-x="339" d="M13 -128V-41H42Q74 -41 88 -24T103 27V187Q103 233 130 259T202 297Q157 308 130 334T103 407V567Q103 600 89 617T42 634H13V721H124Q151 721 174 710T213 680T239 637T248 588V425Q248 391 266 367T320 343V251Q285 251 267 228T248 170V5Q248 -20 239 -44T214 -86T174 -116T124 -128H13Z"  />
<glyph unicode="~" horiz-adv-x="620" d="M33 170Q34 201 43 235T71 297T116 345T179 364Q211 364 245 354T313 333T380 311T443 301Q472 301 484 318T501 362H588Q586 331 577 297T551 233T507 185T443 166Q410 166 376 176T309 198T242 220T179 230Q151 230 137 213T119 170H33Z"  />
<glyph unicode="&#xA0;" horiz-adv-x="310" />
<glyph unicode="&#xA1;" horiz-adv-x="310" d="M55 -162L85 297H226L256 -162H55ZM72 362V505H239V362H72Z"  />
<glyph unicode="&#xA2;" horiz-adv-x="620" d="M309 0V93Q212 106 156 167T99 337Q99 389 114 430T158 501T224 549T309 575V667H396V577Q425 576 454 571T512 558L506 444Q483 455 460 462T412 469Q352 469 317 433T282 337Q282 308 290 283T315 239T355 210T410 199Q436 199 460 205T508 225L514 111Q485 101 456 97T396 91V0H309Z"  />
<glyph unicode="&#xA3;" horiz-adv-x="620" d="M79 0V118H154V278H83V392H154V440Q154 560 221 618T409 677Q491 677 568 656L561 536Q535 545 507 550T451 556Q386 556 361 524T335 434V392H493V278H335V118H561V0H79Z"  />
<glyph unicode="&#xA4;" horiz-adv-x="620" d="M206 333Q206 289 236 259T310 229Q332 229 351 237T384 259T406 292T415 333Q415 355 407 374T384 407T351 429T310 438Q288 438 269 430T236 407T214 374T206 333ZM132 75L53 155L118 222Q103 249 96 275T88 333Q88 365 95 392T119 446L52 512L132 592L199 526Q227 541 252 549T310 557Q342 557 368 549T423 526L489 591L569 511L503 446Q517 419 525 392T534 333Q534 302 526 275T503 221L569 155L490 75L423 142Q396 126 370 118T312 109Q280 109 253 117T198 141L132 75Z"  />
<glyph unicode="&#xA5;" horiz-adv-x="620" d="M63 107V211H211V268H63V372H157L2 667H192L311 399L433 667H619L455 372H554V268H397V211H554V107H397V0H211V107H63Z"  />
<glyph unicode="&#xA6;" horiz-adv-x="213" d="M41 -216V181H172V-216H41ZM41 379V775H172V379H41Z"  />
<glyph unicode="&#xA7;" horiz-adv-x="620" d="M93 16Q135 1 174 -6T257 -13Q270 -13 288 -12T321 -5T348 10T359 38Q359 61 335 74T281 100L199 132Q173 142 150 154T108 185T79 227T68 285Q68 330 95 360T161 411Q126 428 110 454T93 519Q93 563 114 593T168 642T243 669T325 677Q354 677 378 676T423 672T465 665T506 656L500 543Q465 552 429 559T355 566Q342 566 327 564T297 557T274 542T264 516Q264 497 279 487T326 465L423 430Q449 421 473 411T515 384T545 346T556 290Q556 245 532 213T473 157Q503 134 516 108T530 40Q530 -6 508 -37T450 -87T371 -115T287 -124Q232 -124 184 -118T87 -99L93 16ZM378 199Q392 213 403 230T414 268Q414 283 407 294T387 313T359 327T326 339L253 363Q234 352 222 338T210 301Q210 287 217 277T237 259T265 243T298 230L378 199Z"  />
<glyph unicode="&#xA8;" horiz-adv-x="294" d="M-31 586V713H106V586H-31ZM189 586V713H325V586H189Z"  />
<glyph unicode="&#xA9;" horiz-adv-x="760" d="M506 178Q461 164 413 164Q369 164 332 174T268 206T226 260T210 334Q210 374 226 405T270 459T335 492T413 504Q436 504 459 501T505 492L502 421Q468 434 432 434Q381 434 350 408T318 334Q318 286 348 260T430 234Q449 234 466 238T502 249L506 178ZM195 145Q231 108 278 87T380 65Q434 65 481 86T564 145T619 231T639 334Q639 388 619 436T564 521T482 579T380 601Q326 601 279 580T196 523T140 438T120 334Q120 280 140 231T195 145ZM246 16Q183 43 137 90T63 200T36 334Q36 405 63 467T136 576T246 650T380 677Q451 677 514 650T623 577T697 468T724 334Q724 263 697 200T624 90T514 16T380 -11Q309 -11 246 16Z"  />
<glyph unicode="&#xAA;" horiz-adv-x="420" d="M246 366L244 408Q208 359 135 359Q86 359 55 382T23 454Q23 485 37 505T73 538T125 554T185 559Q197 559 214 559T242 557V563Q242 590 221 600T168 611Q143 611 115 605T63 587L59 659Q85 668 120 672T185 677Q219 677 251 672T307 654T346 616T361 554V444Q361 414 361 398T364 366H246ZM222 504Q208 504 194 503T166 497T145 484T137 462Q137 442 151 434T181 426Q213 426 227 446T242 492V504H222Z"  />
<glyph unicode="&#xAB;" horiz-adv-x="544" d="M150 55L17 258L150 460H296L168 258L296 55H150ZM372 55L239 258L372 460H518L390 258L518 55H372Z"  />
<glyph unicode="&#xAC;" horiz-adv-x="620" d="M42 314V446H576V84H439V314H42Z"  />
<glyph unicode="&#xAD;" horiz-adv-x="342" d="M42 244V376H301V244H42Z"  />
<glyph unicode="&#xAE;" horiz-adv-x="760" d="M331 362H365Q377 362 389 363T410 370T426 383T432 406Q432 431 412 438T366 445H331V362ZM230 175V506H407Q430 506 453 502T494 488T524 460T536 417Q536 381 512 360T452 333Q479 328 493 316T515 280L551 175H444L416 259Q412 270 409 278T399 291T384 298T361 301H332V175H230ZM196 145Q231 108 278 87T380 65Q434 65 481 86T564 145T620 231T640 334Q640 388 620 436T565 521T482 579T380 601Q326 601 279 580T196 523T141 438T121 334Q121 280 141 231T196 145ZM246 16Q183 43 137 90T63 200T36 334Q36 405 63 467T136 576T246 650T380 677Q451 677 514 650T623 577T697 468T724 334Q724 263 697 200T624 90T514 16T380 -11Q309 -11 246 16Z"  />
<glyph unicode="&#xAF;" horiz-adv-x="294" d="M-25 608V692H321V608H-25Z"  />
<glyph unicode="&#xB0;" horiz-adv-x="400" d="M121 517Q121 484 144 462T200 439Q232 439 255 461T279 517Q279 551 257 573T200 595Q166 595 144 573T121 517ZM86 403Q64 425 52 454T39 517Q39 551 51 580T86 630T137 664T200 677Q233 677 262 665T314 631T348 580T361 517Q361 483 349 454T314 404T263 370T200 358Q167 358 138 370T86 403Z"  />
<glyph unicode="&#xB1;" horiz-adv-x="620" d="M43 -40V90H577V-40H43ZM43 281V412H244V571H377V412H577V281H377V130H244V281H43Z"  />
<glyph unicode="&#xB2;" horiz-adv-x="480" d="M66 372V460L151 514Q171 526 192 541T230 572T259 606T270 642Q270 668 250 681T196 695Q158 695 130 688T78 671L75 756Q110 766 145 772T217 779Q249 779 281 773T340 753T382 715T399 655Q399 607 363 567T262 484L216 454H401V372H66Z"  />
<glyph unicode="&#xB3;" horiz-adv-x="480" d="M70 459Q95 450 126 446T186 442Q204 442 220 445T248 454T268 469T276 493Q276 508 267 517T244 532T211 540T173 543H122V614H164Q186 614 205 616T239 623T262 637T271 660Q271 673 264 681T244 694T217 701T185 703Q161 703 132 699T79 687L75 763Q102 771 136 775T205 780Q233 780 267 776T329 760T377 727T397 671Q397 633 375 611T318 579Q353 573 379 551T405 492Q405 454 387 429T339 390T274 371T205 365Q170 365 135 368T66 381L70 459Z"  />
<glyph unicode="&#xB4;" horiz-adv-x="294" d="M71 582L144 718H321L198 582H71Z"  />
<glyph unicode="&#xB5;" horiz-adv-x="620" d="M55 -216V505H240V208Q240 190 241 173T249 142T269 120T304 112Q327 112 341 121T364 145T375 179T378 217V505H562V108Q562 74 563 49T567 0H393L389 87Q380 68 367 52T339 23T308 4T276 -3Q253 -3 238 10V-216H55Z"  />
<glyph unicode="&#xB6;" horiz-adv-x="620" d="M232 -108V322Q193 322 156 332T89 364T43 418T25 495Q25 548 44 582T95 635T168 662T255 670H562V-108H445V586H349V-108H232Z"  />
<glyph unicode="&#xB7;" horiz-adv-x="310" d="M72 239V381H239V239H72Z"  />
<glyph unicode="&#xB8;" horiz-adv-x="294" d="M42 -130Q70 -139 88 -142T128 -146Q148 -146 162 -140T177 -119Q177 -106 164 -99T137 -92Q127 -92 117 -93T96 -97L71 -68L116 0H186L153 -50Q161 -49 172 -48T194 -47Q228 -47 249 -65T270 -115Q270 -153 237 -177T142 -201Q112 -201 85 -198T22 -182L42 -130Z"  />
<glyph unicode="&#xB9;" horiz-adv-x="480" d="M218 372V657L121 593L82 678L236 773H343V372H218Z"  />
<glyph unicode="&#xBA;" horiz-adv-x="420" d="M75 399Q25 439 25 519Q25 560 39 589T78 638T137 667T210 677Q250 677 284 668T343 640T381 590T395 519Q395 439 344 399T210 359Q125 359 75 399ZM168 461Q174 449 184 442T210 434Q226 434 236 441T253 460T261 487T263 519Q263 532 261 546T254 573T238 594T210 602Q194 602 184 594T167 574T159 547T157 519Q157 503 159 488T168 461Z"  />
<glyph unicode="&#xBB;" horiz-adv-x="544" d="M27 55L154 257L27 460H172L306 257L172 55H27ZM249 55L376 257L249 460H394L528 257L394 55H249Z"  />
<glyph unicode="&#xBC;" horiz-adv-x="1000" d="M538 79V174L727 402H855V161H916V79H855V0H734V79H538ZM612 157H736V312L612 157ZM177 269V555L80 491L41 576L195 671H302V269H177ZM206 -24L629 691H727L303 -24H206Z"  />
<glyph unicode="&#xBD;" horiz-adv-x="1000" d="M599 0V88L684 142Q704 154 725 169T763 200T792 234T803 270Q803 296 783 310T729 324Q691 324 663 317T611 300L608 385Q643 395 678 401T750 408Q782 408 814 402T873 382T915 343T932 283Q932 235 896 195T795 112L749 82H934V0H599ZM163 269V555L66 491L27 576L181 671H288V269H163ZM192 -24L615 691H713L289 -24H192Z"  />
<glyph unicode="&#xBE;" horiz-adv-x="1000" d="M57 356Q82 347 113 343T173 339Q191 339 207 342T235 351T255 366T263 390Q263 405 254 414T231 429T198 437T160 440H109V511H151Q173 511 192 513T226 520T249 534T258 557Q258 570 251 578T231 591T204 598T172 600Q148 600 119 596T66 584L62 660Q89 668 123 672T192 677Q220 677 254 673T316 657T364 624T384 568Q384 530 362 508T305 476Q340 470 366 448T392 389Q392 351 374 326T326 287T261 268T192 262Q157 262 122 265T53 278L57 356ZM607 79V174L796 402H924V161H985V79H924V0H803V79H607ZM681 157H805V312L681 157ZM276 -24L699 691H797L373 -24H276Z"  />
<glyph unicode="&#xBF;" horiz-adv-x="486" d="M455 -140Q408 -154 364 -163T267 -172Q228 -172 186 -164T109 -138T52 -88T29 -9Q29 28 42 54T74 102T116 141T158 180T190 224T203 282V297H354V284Q354 240 344 210T319 159T285 123T252 93T226 62T216 23Q216 5 225 -7T249 -26T280 -36T312 -39Q347 -39 381 -32T449 -11L455 -140ZM195 362V505H362V362H195Z"  />
<glyph unicode="&#xC0;" horiz-adv-x="746" d="M277 285H458L369 552L277 285ZM-6 0L239 667H504L752 0H546L494 156H241L188 0H-6ZM321 724L198 860H375L448 724H321Z"  />
<glyph unicode="&#xC1;" horiz-adv-x="746" d="M277 285H458L369 552L277 285ZM-6 0L239 667H504L752 0H546L494 156H241L188 0H-6ZM308 724L381 860H558L435 724H308Z"  />
<glyph unicode="&#xC2;" horiz-adv-x="746" d="M277 285H458L369 552L277 285ZM-6 0L239 667H504L752 0H546L494 156H241L188 0H-6ZM191 724L294 860H442L545 724H431L368 802L305 724H191Z"  />
<glyph unicode="&#xC3;" horiz-adv-x="746" d="M277 285H458L369 552L277 285ZM-6 0L239 667H504L752 0H546L494 156H241L188 0H-6ZM184 724Q186 747 193 770T212 813T245 844T292 856Q314 856 334 850T373 838T409 825T443 819Q461 819 471 830T485 858H561Q560 834 552 811T530 768T495 737T447 725Q425 725 406 731T370 743T336 756T302 762Q286 762 274 751T260 724H184Z"  />
<glyph unicode="&#xC4;" horiz-adv-x="746" d="M277 285H458L369 552L277 285ZM-6 0L239 667H504L752 0H546L494 156H241L188 0H-6ZM194 728V855H331V728H194ZM414 728V855H550V728H414Z"  />
<glyph unicode="&#xC5;" horiz-adv-x="746" d="M277 285H458L369 552L277 285ZM-6 0L239 667H504L752 0H546L494 156H241L188 0H-6ZM319 792Q319 771 334 757T369 742Q390 742 404 756T419 792Q419 812 405 826T369 841Q348 841 334 827T319 792ZM328 695Q309 703 295 717T272 751T264 792Q264 814 272 833T294 866T328 888T369 896Q391 896 410 888T443 866T465 833T474 792Q474 770 466 751T443 718T410 695T369 687Q347 687 328 695Z"  />
<glyph unicode="&#xC6;" horiz-adv-x="1019" d="M333 285H494V561L333 285ZM-16 0L377 667H973V538H688V400H959V273H688V129H981V0H494V156H269L179 0H-16Z"  />
<glyph unicode="&#xC7;" horiz-adv-x="614" d="M277 -130Q305 -139 323 -142T363 -146Q383 -146 397 -140T412 -119Q412 -106 399 -99T372 -92Q362 -92 352 -93T331 -97L306 -68L345 -6Q275 3 218 28T119 96T55 198T32 333Q32 414 63 478T147 586T271 653T423 677Q468 677 510 673T588 657L582 517Q521 540 449 540Q402 540 363 526T297 484T254 419T238 333Q238 235 294 181T449 126Q485 126 518 132T584 153L590 16Q554 2 513 -4T423 -11H412L388 -50Q396 -49 407 -48T429 -47Q463 -47 484 -65T505 -115Q505 -153 472 -177T377 -201Q347 -201 320 -198T257 -182L277 -130Z"  />
<glyph unicode="&#xC8;" horiz-adv-x="610" d="M64 0V667H564V538H257V401H552V273H257V129H572V0H64ZM272 724L149 860H326L399 724H272Z"  />
<glyph unicode="&#xC9;" horiz-adv-x="610" d="M64 0V667H564V538H257V401H552V273H257V129H572V0H64ZM229 724L302 860H479L356 724H229Z"  />
<glyph unicode="&#xCA;" horiz-adv-x="610" d="M64 0V667H564V538H257V401H552V273H257V129H572V0H64ZM136 724L239 860H387L490 724H376L313 802L250 724H136Z"  />
<glyph unicode="&#xCB;" horiz-adv-x="610" d="M64 0V667H564V538H257V401H552V273H257V129H572V0H64ZM137 728V855H274V728H137ZM357 728V855H493V728H357Z"  />
<glyph unicode="&#xCC;" horiz-adv-x="325" d="M64 0V667H261V0H64ZM108 724L-15 860H162L235 724H108Z"  />
<glyph unicode="&#xCD;" horiz-adv-x="325" d="M64 0V667H261V0H64ZM89 724L162 860H339L216 724H89Z"  />
<glyph unicode="&#xCE;" horiz-adv-x="325" d="M64 0V667H261V0H64ZM-15 724L88 860H236L339 724H225L162 802L99 724H-15Z"  />
<glyph unicode="&#xCF;" horiz-adv-x="325" d="M64 0V667H261V0H64ZM-16 728V855H121V728H-16ZM204 728V855H340V728H204Z"  />
<glyph unicode="&#xD0;" horiz-adv-x="735" d="M261 129H305Q358 129 394 145T454 190T487 258T497 343Q497 433 453 485T309 538H261V385H379V284H261V129ZM64 0V284H-2V385H64V667H323Q403 667 472 651T593 596T673 496T703 343Q703 261 677 197T603 90T489 23T341 0H64Z"  />
<glyph unicode="&#xD1;" horiz-adv-x="784" d="M64 0V667H355L549 149V667H720V0H429L236 517V0H64ZM213 724Q215 747 222 770T241 813T274 844T321 856Q343 856 363 850T402 838T438 825T472 819Q490 819 500 830T514 858H590Q589 834 581 811T559 768T524 737T476 725Q454 725 435 731T399 743T365 756T331 762Q315 762 303 751T289 724H213Z"  />
<glyph unicode="&#xD2;" horiz-adv-x="759" d="M266 192Q282 160 309 139T379 118Q423 118 450 138T494 190T515 260T521 333Q521 368 516 406T494 475T451 527T379 548Q337 548 310 527T266 474T244 405T238 333Q238 299 244 262T266 192ZM123 77Q32 166 32 333Q32 414 56 478T125 586T234 653T379 677Q461 677 525 655T635 588T703 480T727 333Q727 251 703 187T634 79T525 12T379 -11Q214 -11 123 77ZM329 724L206 860H383L456 724H329Z"  />
<glyph unicode="&#xD3;" horiz-adv-x="759" d="M266 192Q282 160 309 139T379 118Q423 118 450 138T494 190T515 260T521 333Q521 368 516 406T494 475T451 527T379 548Q337 548 310 527T266 474T244 405T238 333Q238 299 244 262T266 192ZM123 77Q32 166 32 333Q32 414 56 478T125 586T234 653T379 677Q461 677 525 655T635 588T703 480T727 333Q727 251 703 187T634 79T525 12T379 -11Q214 -11 123 77ZM303 724L376 860H553L430 724H303Z"  />
<glyph unicode="&#xD4;" horiz-adv-x="759" d="M266 192Q282 160 309 139T379 118Q423 118 450 138T494 190T515 260T521 333Q521 368 516 406T494 475T451 527T379 548Q337 548 310 527T266 474T244 405T238 333Q238 299 244 262T266 192ZM123 77Q32 166 32 333Q32 414 56 478T125 586T234 653T379 677Q461 677 525 655T635 588T703 480T727 333Q727 251 703 187T634 79T525 12T379 -11Q214 -11 123 77ZM202 724L305 860H453L556 724H442L379 802L316 724H202Z"  />
<glyph unicode="&#xD5;" horiz-adv-x="759" d="M266 192Q282 160 309 139T379 118Q423 118 450 138T494 190T515 260T521 333Q521 368 516 406T494 475T451 527T379 548Q337 548 310 527T266 474T244 405T238 333Q238 299 244 262T266 192ZM123 77Q32 166 32 333Q32 414 56 478T125 586T234 653T379 677Q461 677 525 655T635 588T703 480T727 333Q727 251 703 187T634 79T525 12T379 -11Q214 -11 123 77ZM192 724Q194 747 201 770T220 813T253 844T300 856Q322 856 342 850T381 838T417 825T451 819Q469 819 479 830T493 858H569Q568 834 560 811T538 768T503 737T455 725Q433 725 414 731T378 743T344 756T310 762Q294 762 282 751T268 724H192Z"  />
<glyph unicode="&#xD6;" horiz-adv-x="759" d="M266 192Q282 160 309 139T379 118Q423 118 450 138T494 190T515 260T521 333Q521 368 516 406T494 475T451 527T379 548Q337 548 310 527T266 474T244 405T238 333Q238 299 244 262T266 192ZM123 77Q32 166 32 333Q32 414 56 478T125 586T234 653T379 677Q461 677 525 655T635 588T703 480T727 333Q727 251 703 187T634 79T525 12T379 -11Q214 -11 123 77ZM201 728V855H338V728H201ZM421 728V855H557V728H421Z"  />
<glyph unicode="&#xD7;" horiz-adv-x="620" d="M143 7L52 98L219 265L52 432L143 525L310 356L478 524L569 432L402 265L569 98L478 6L310 174L143 7Z"  />
<glyph unicode="&#xD8;" horiz-adv-x="759" d="M22 35L97 112Q34 196 34 333Q34 414 58 478T126 586T235 653T380 677Q516 677 598 615L672 691L737 632L662 554Q728 472 728 333Q728 251 704 187T635 79T526 12T380 -11Q244 -11 159 50L87 -24L22 35ZM482 503Q465 524 441 536T380 548Q338 548 310 527T266 474T242 405T235 333Q235 315 237 294T243 256L482 503ZM278 166Q295 143 320 131T380 118Q424 118 452 138T496 190T518 260T524 333Q524 352 523 375T517 414L278 166Z"  />
<glyph unicode="&#xD9;" horiz-adv-x="728" d="M255 259Q255 232 260 208T278 166T312 137T363 126Q393 126 414 137T449 166T468 208T474 259V667H671V262Q671 193 647 142T580 56T482 6T362 -11Q298 -11 243 4T146 51T82 133T58 253V667H255V259ZM327 724L204 860H381L454 724H327Z"  />
<glyph unicode="&#xDA;" horiz-adv-x="728" d="M255 259Q255 232 260 208T278 166T312 137T363 126Q393 126 414 137T449 166T468 208T474 259V667H671V262Q671 193 647 142T580 56T482 6T362 -11Q298 -11 243 4T146 51T82 133T58 253V667H255V259ZM274 724L347 860H524L401 724H274Z"  />
<glyph unicode="&#xDB;" horiz-adv-x="728" d="M255 259Q255 232 260 208T278 166T312 137T363 126Q393 126 414 137T449 166T468 208T474 259V667H671V262Q671 193 647 142T580 56T482 6T362 -11Q298 -11 243 4T146 51T82 133T58 253V667H255V259ZM186 724L289 860H437L540 724H426L363 802L300 724H186Z"  />
<glyph unicode="&#xDC;" horiz-adv-x="728" d="M255 259Q255 232 260 208T278 166T312 137T363 126Q393 126 414 137T449 166T468 208T474 259V667H671V262Q671 193 647 142T580 56T482 6T362 -11Q298 -11 243 4T146 51T82 133T58 253V667H255V259ZM186 728V855H323V728H186ZM406 728V855H542V728H406Z"  />
<glyph unicode="&#xDD;" horiz-adv-x="666" d="M233 0V229L-13 667H201L340 371L475 667H680L430 229V0H233ZM262 724L335 860H512L389 724H262Z"  />
<glyph unicode="&#xDE;" horiz-adv-x="670" d="M256 239H309Q336 239 362 242T408 255T440 286T453 339Q453 367 442 386T413 415T371 430T324 435H256V239ZM64 0V667H257V559H416Q466 559 509 545T583 502T632 433T650 340Q650 284 633 242T585 172T510 129T414 114H257V0H64Z"  />
<glyph unicode="&#xDF;" horiz-adv-x="658" d="M55 0V441Q55 579 127 655T336 731Q387 731 434 719T516 682T573 618T594 525Q594 510 593 496T589 467Q571 465 553 462T521 450T498 427T489 391Q489 372 499 357T526 327T560 297T594 262T620 217T631 159Q631 114 613 82T566 29T500 -1T426 -11Q396 -11 365 -7T304 4L310 110Q329 104 344 102T374 99Q405 99 424 116T443 169Q443 191 434 208T410 239T379 266T348 296T324 334T314 384Q314 438 345 468T418 505Q421 515 422 524T423 542Q423 577 403 598T347 619Q317 619 297 606T264 568T246 512T240 442V0H55Z"  />
<glyph unicode="&#xE0;" horiz-adv-x="587" d="M370 0L367 71Q341 33 300 11T199 -11Q164 -11 132 -2T76 26T38 75T24 146Q24 197 45 230T103 282T185 310T282 318Q300 318 322 317T363 314V326Q363 350 354 366T328 393T290 407T243 411Q205 411 164 401T85 371L79 484Q124 498 174 506T272 515Q326 515 374 507T459 476T517 414T539 313V126Q539 79 539 52T543 0H370ZM322 231Q301 231 279 228T238 217T208 195T196 158Q196 140 202 128T219 108T242 97T267 94Q292 94 310 103T340 129T357 166T363 210V231H322ZM252 582L129 718H306L379 582H252Z"  />
<glyph unicode="&#xE1;" horiz-adv-x="587" d="M370 0L367 71Q341 33 300 11T199 -11Q164 -11 132 -2T76 26T38 75T24 146Q24 197 45 230T103 282T185 310T282 318Q300 318 322 317T363 314V326Q363 350 354 366T328 393T290 407T243 411Q205 411 164 401T85 371L79 484Q124 498 174 506T272 515Q326 515 374 507T459 476T517 414T539 313V126Q539 79 539 52T543 0H370ZM322 231Q301 231 279 228T238 217T208 195T196 158Q196 140 202 128T219 108T242 97T267 94Q292 94 310 103T340 129T357 166T363 210V231H322ZM211 582L284 718H461L338 582H211Z"  />
<glyph unicode="&#xE2;" horiz-adv-x="587" d="M370 0L367 71Q341 33 300 11T199 -11Q164 -11 132 -2T76 26T38 75T24 146Q24 197 45 230T103 282T185 310T282 318Q300 318 322 317T363 314V326Q363 350 354 366T328 393T290 407T243 411Q205 411 164 401T85 371L79 484Q124 498 174 506T272 515Q326 515 374 507T459 476T517 414T539 313V126Q539 79 539 52T543 0H370ZM322 231Q301 231 279 228T238 217T208 195T196 158Q196 140 202 128T219 108T242 97T267 94Q292 94 310 103T340 129T357 166T363 210V231H322ZM124 582L227 718H375L478 582H364L301 660L238 582H124Z"  />
<glyph unicode="&#xE3;" horiz-adv-x="587" d="M370 0L367 71Q341 33 300 11T199 -11Q164 -11 132 -2T76 26T38 75T24 146Q24 197 45 230T103 282T185 310T282 318Q300 318 322 317T363 314V326Q363 350 354 366T328 393T290 407T243 411Q205 411 164 401T85 371L79 484Q124 498 174 506T272 515Q326 515 374 507T459 476T517 414T539 313V126Q539 79 539 52T543 0H370ZM322 231Q301 231 279 228T238 217T208 195T196 158Q196 140 202 128T219 108T242 97T267 94Q292 94 310 103T340 129T357 166T363 210V231H322ZM116 582Q118 605 125 628T144 671T177 702T224 714Q246 714 266 708T305 696T341 683T375 677Q393 677 403 688T417 716H493Q492 692 484 669T462 626T427 595T379 583Q357 583 338 589T302 601T268 614T234 620Q218 620 206 609T192 582H116Z"  />
<glyph unicode="&#xE4;" horiz-adv-x="587" d="M370 0L367 71Q341 33 300 11T199 -11Q164 -11 132 -2T76 26T38 75T24 146Q24 197 45 230T103 282T185 310T282 318Q300 318 322 317T363 314V326Q363 350 354 366T328 393T290 407T243 411Q205 411 164 401T85 371L79 484Q124 498 174 506T272 515Q326 515 374 507T459 476T517 414T539 313V126Q539 79 539 52T543 0H370ZM322 231Q301 231 279 228T238 217T208 195T196 158Q196 140 202 128T219 108T242 97T267 94Q292 94 310 103T340 129T357 166T363 210V231H322ZM122 586V713H259V586H122ZM342 586V713H478V586H342Z"  />
<glyph unicode="&#xE5;" horiz-adv-x="587" d="M370 0L367 71Q341 33 300 11T199 -11Q164 -11 132 -2T76 26T38 75T24 146Q24 197 45 230T103 282T185 310T282 318Q300 318 322 317T363 314V326Q363 350 354 366T328 393T290 407T243 411Q205 411 164 401T85 371L79 484Q124 498 174 506T272 515Q326 515 374 507T459 476T517 414T539 313V126Q539 79 539 52T543 0H370ZM322 231Q301 231 279 228T238 217T208 195T196 158Q196 140 202 128T219 108T242 97T267 94Q292 94 310 103T340 129T357 166T363 210V231H322ZM242 650Q242 629 257 615T292 600Q313 600 327 614T342 650Q342 670 328 684T292 699Q271 699 257 685T242 650ZM251 553Q232 561 218 575T195 609T187 650Q187 672 195 691T217 724T251 746T292 754Q314 754 333 746T366 724T388 691T397 650Q397 628 389 609T366 576T333 553T292 545Q270 545 251 553Z"  />
<glyph unicode="&#xE6;" horiz-adv-x="878" d="M324 227Q297 227 273 224T230 214T201 192T190 157Q190 124 211 109T261 94Q287 94 304 102T332 126T347 161T352 204V227H324ZM79 484Q117 498 166 506T269 515Q295 515 321 512T370 499T412 476T444 440Q470 473 512 494T610 515Q676 515 721 495T795 438T837 352T850 242V211H518Q520 179 534 158T569 123T616 103T669 97Q701 97 742 103T818 127L824 17Q776 1 727 -5T639 -11Q611 -11 580 -8T518 6T459 34T407 81Q373 30 318 10T204 -11Q170 -11 138 -2T80 27T39 76T23 144Q23 193 44 225T101 277T180 303T272 311Q291 311 311 311T352 308V329Q352 353 342 368T317 393T281 406T241 410Q158 410 85 369L79 484ZM691 300Q691 320 688 341T677 379T653 408T613 420Q587 420 570 409T541 380T524 341T517 300H691Z"  />
<glyph unicode="&#xE7;" horiz-adv-x="500" d="M188 -130Q216 -139 234 -142T274 -146Q294 -146 308 -140T323 -119Q323 -106 310 -99T283 -92Q273 -92 263 -93T242 -97L217 -68L256 -5Q204 3 162 23T90 76T44 153T28 255Q28 319 52 367T117 449T215 498T336 515Q372 515 405 511T473 496L467 376Q443 387 419 392T365 398Q300 398 263 359T225 255Q225 191 263 150T367 109Q396 109 420 114T470 132L475 9Q440 -2 408 -6T334 -11H322L299 -50Q307 -49 318 -48T340 -47Q374 -47 395 -65T416 -115Q416 -153 383 -177T288 -201Q258 -201 231 -198T168 -182L188 -130Z"  />
<glyph unicode="&#xE8;" horiz-adv-x="567" d="M209 211Q211 179 225 158T260 123T307 103T360 97Q392 97 433 103T509 127L515 17Q467 1 418 -5T324 -11Q259 -11 205 5T112 55T50 138T28 255Q28 317 49 365T107 447T194 497T301 515Q367 515 412 495T486 438T528 352T541 242V211H209ZM382 300Q382 320 379 341T368 379T344 408T304 420Q278 420 261 409T232 380T215 341T208 300H382ZM249 582L126 718H303L376 582H249Z"  />
<glyph unicode="&#xE9;" horiz-adv-x="567" d="M209 211Q211 179 225 158T260 123T307 103T360 97Q392 97 433 103T509 127L515 17Q467 1 418 -5T324 -11Q259 -11 205 5T112 55T50 138T28 255Q28 317 49 365T107 447T194 497T301 515Q367 515 412 495T486 438T528 352T541 242V211H209ZM382 300Q382 320 379 341T368 379T344 408T304 420Q278 420 261 409T232 380T215 341T208 300H382ZM214 582L287 718H464L341 582H214Z"  />
<glyph unicode="&#xEA;" horiz-adv-x="567" d="M209 211Q211 179 225 158T260 123T307 103T360 97Q392 97 433 103T509 127L515 17Q467 1 418 -5T324 -11Q259 -11 205 5T112 55T50 138T28 255Q28 317 49 365T107 447T194 497T301 515Q367 515 412 495T486 438T528 352T541 242V211H209ZM382 300Q382 320 379 341T368 379T344 408T304 420Q278 420 261 409T232 380T215 341T208 300H382ZM116 582L219 718H367L470 582H356L293 660L230 582H116Z"  />
<glyph unicode="&#xEB;" horiz-adv-x="567" d="M209 211Q211 179 225 158T260 123T307 103T360 97Q392 97 433 103T509 127L515 17Q467 1 418 -5T324 -11Q259 -11 205 5T112 55T50 138T28 255Q28 317 49 365T107 447T194 497T301 515Q367 515 412 495T486 438T528 352T541 242V211H209ZM382 300Q382 320 379 341T368 379T344 408T304 420Q278 420 261 409T232 380T215 341T208 300H382ZM114 586V713H251V586H114ZM334 586V713H470V586H334Z"  />
<glyph unicode="&#xEC;" horiz-adv-x="294" d="M55 0V505H240V0H55ZM96 582L-27 718H150L223 582H96Z"  />
<glyph unicode="&#xED;" horiz-adv-x="294" d="M55 0V505H240V0H55ZM66 582L139 718H316L193 582H66Z"  />
<glyph unicode="&#xEE;" horiz-adv-x="294" d="M55 0V505H240V0H55ZM-30 582L73 718H221L324 582H210L147 660L84 582H-30Z"  />
<glyph unicode="&#xEF;" horiz-adv-x="294" d="M55 0V505H240V0H55ZM-31 586V713H106V586H-31ZM189 586V713H325V586H189Z"  />
<glyph unicode="&#xF0;" horiz-adv-x="623" d="M242 152Q252 132 269 120T312 107Q338 107 355 119T381 152T395 198T399 253Q399 275 396 298T383 341T356 373T312 386Q286 386 269 374T242 342T229 299T225 253Q225 225 229 199T242 152ZM111 572L217 621Q194 632 169 640T120 653L197 731Q235 724 272 709T343 677L458 731L517 682L424 638Q471 605 504 565T557 478T587 381T596 275Q596 209 576 156T517 66T426 9T308 -11Q244 -11 193 5T105 54T48 136T28 253Q28 305 43 350T87 430T160 483T261 503Q286 503 306 499T345 487T380 465T414 434Q398 481 368 518T297 583L170 523L111 572Z"  />
<glyph unicode="&#xF1;" horiz-adv-x="619" d="M55 0V396Q55 423 55 450T51 505H226L228 422Q251 470 296 492T392 515Q480 515 522 469T564 336V0H379V292Q379 309 378 326T370 358T350 380T315 389Q292 389 278 380T255 355T244 321T240 283V0H55ZM125 582Q127 605 134 628T153 671T186 702T233 714Q255 714 275 708T314 696T350 683T384 677Q402 677 412 688T426 716H502Q501 692 493 669T471 626T436 595T388 583Q366 583 347 589T311 601T277 614T243 620Q227 620 215 609T201 582H125Z"  />
<glyph unicode="&#xF2;" horiz-adv-x="623" d="M242 154Q252 133 269 120T312 107Q339 107 355 119T382 153T395 200T399 255Q399 278 396 303T383 350T356 384T312 398Q286 398 269 385T242 350T229 304T225 255Q225 228 229 202T242 154ZM105 56Q68 90 48 140T28 255Q28 322 50 371T110 452T200 499T312 515Q375 515 427 500T516 453T575 372T596 255Q596 189 576 140T518 57T428 6T312 -11Q247 -11 195 6T105 56ZM262 582L139 718H316L389 582H262Z"  />
<glyph unicode="&#xF3;" horiz-adv-x="623" d="M242 154Q252 133 269 120T312 107Q339 107 355 119T382 153T395 200T399 255Q399 278 396 303T383 350T356 384T312 398Q286 398 269 385T242 350T229 304T225 255Q225 228 229 202T242 154ZM105 56Q68 90 48 140T28 255Q28 322 50 371T110 452T200 499T312 515Q375 515 427 500T516 453T575 372T596 255Q596 189 576 140T518 57T428 6T312 -11Q247 -11 195 6T105 56ZM231 582L304 718H481L358 582H231Z"  />
<glyph unicode="&#xF4;" horiz-adv-x="623" d="M242 154Q252 133 269 120T312 107Q339 107 355 119T382 153T395 200T399 255Q399 278 396 303T383 350T356 384T312 398Q286 398 269 385T242 350T229 304T225 255Q225 228 229 202T242 154ZM105 56Q68 90 48 140T28 255Q28 322 50 371T110 452T200 499T312 515Q375 515 427 500T516 453T575 372T596 255Q596 189 576 140T518 57T428 6T312 -11Q247 -11 195 6T105 56ZM134 582L237 718H385L488 582H374L311 660L248 582H134Z"  />
<glyph unicode="&#xF5;" horiz-adv-x="623" d="M242 154Q252 133 269 120T312 107Q339 107 355 119T382 153T395 200T399 255Q399 278 396 303T383 350T356 384T312 398Q286 398 269 385T242 350T229 304T225 255Q225 228 229 202T242 154ZM105 56Q68 90 48 140T28 255Q28 322 50 371T110 452T200 499T312 515Q375 515 427 500T516 453T575 372T596 255Q596 189 576 140T518 57T428 6T312 -11Q247 -11 195 6T105 56ZM123 582Q125 605 132 628T151 671T184 702T231 714Q253 714 273 708T312 696T348 683T382 677Q400 677 410 688T424 716H500Q499 692 491 669T469 626T434 595T386 583Q364 583 345 589T309 601T275 614T241 620Q225 620 213 609T199 582H123Z"  />
<glyph unicode="&#xF6;" horiz-adv-x="623" d="M242 154Q252 133 269 120T312 107Q339 107 355 119T382 153T395 200T399 255Q399 278 396 303T383 350T356 384T312 398Q286 398 269 385T242 350T229 304T225 255Q225 228 229 202T242 154ZM105 56Q68 90 48 140T28 255Q28 322 50 371T110 452T200 499T312 515Q375 515 427 500T516 453T575 372T596 255Q596 189 576 140T518 57T428 6T312 -11Q247 -11 195 6T105 56ZM134 586V713H271V586H134ZM354 586V713H490V586H354Z"  />
<glyph unicode="&#xF7;" horiz-adv-x="620" d="M310 -17Q275 -17 251 8T226 68Q226 103 250 128T310 153Q328 153 343 146T369 128T387 101T394 68Q394 33 370 8T310 -17ZM43 199V331H577V199H43ZM310 378Q275 378 251 402T226 462Q226 497 250 522T310 547Q345 547 369 522T394 462Q394 427 370 403T310 378Z"  />
<glyph unicode="&#xF8;" horiz-adv-x="623" d="M23 24L81 81Q29 147 29 255Q29 322 50 371T110 452T200 499T312 515Q364 515 409 505T490 472L549 530L601 481L545 425Q570 393 583 351T596 255Q596 189 576 140T518 57T428 6T312 -11Q205 -11 135 34L75 -25L23 24ZM379 362Q359 398 312 398Q286 398 269 385T241 350T226 304T222 255Q222 244 223 232T226 208L379 362ZM243 148Q262 107 312 107Q337 107 354 118T382 150T397 197T402 256Q402 267 401 281T397 306L243 148Z"  />
<glyph unicode="&#xF9;" horiz-adv-x="616" d="M391 0L389 83Q366 35 321 13T225 -10Q137 -10 95 36T53 169V505H238V214Q238 197 239 180T247 148T267 125T302 116Q324 116 339 125T362 150T373 185T377 223V505H561V110Q561 83 562 55T566 0H391ZM266 582L143 718H320L393 582H266Z"  />
<glyph unicode="&#xFA;" horiz-adv-x="616" d="M391 0L389 83Q366 35 321 13T225 -10Q137 -10 95 36T53 169V505H238V214Q238 197 239 180T247 148T267 125T302 116Q324 116 339 125T362 150T373 185T377 223V505H561V110Q561 83 562 55T566 0H391ZM220 582L293 718H470L347 582H220Z"  />
<glyph unicode="&#xFB;" horiz-adv-x="616" d="M391 0L389 83Q366 35 321 13T225 -10Q137 -10 95 36T53 169V505H238V214Q238 197 239 180T247 148T267 125T302 116Q324 116 339 125T362 150T373 185T377 223V505H561V110Q561 83 562 55T566 0H391ZM131 582L234 718H382L485 582H371L308 660L245 582H131Z"  />
<glyph unicode="&#xFC;" horiz-adv-x="616" d="M391 0L389 83Q366 35 321 13T225 -10Q137 -10 95 36T53 169V505H238V214Q238 197 239 180T247 148T267 125T302 116Q324 116 339 125T362 150T373 185T377 223V505H561V110Q561 83 562 55T566 0H391ZM129 586V713H266V586H129ZM349 586V713H485V586H349Z"  />
<glyph unicode="&#xFD;" horiz-adv-x="546" d="M35 -95Q65 -104 97 -104Q127 -104 149 -92T182 -48L191 -21L3 505H195L284 155L366 505H546L370 -34Q359 -68 343 -102T302 -164T242 -209T156 -226Q117 -226 88 -223T29 -212L35 -95ZM202 582L275 718H452L329 582H202Z"  />
<glyph unicode="&#xFE;" horiz-adv-x="631" d="M250 162Q260 140 277 126T321 111Q349 111 366 125T392 161T404 208T407 255Q407 276 404 300T392 345T367 379T322 393Q294 393 277 380T251 346T238 301T235 255Q235 234 238 209T250 162ZM55 -216V721H240V423Q259 468 301 491T392 515Q449 515 489 494T554 436T592 353T604 255Q604 202 593 154T555 70T488 11T387 -11Q340 -11 299 12T240 81V-216H55Z"  />
<glyph unicode="&#xFF;" horiz-adv-x="546" d="M35 -95Q65 -104 97 -104Q127 -104 149 -92T182 -48L191 -21L3 505H195L284 155L366 505H546L370 -34Q359 -68 343 -102T302 -164T242 -209T156 -226Q117 -226 88 -223T29 -212L35 -95ZM102 586V713H239V586H102ZM322 586V713H458V586H322Z"  />
<glyph unicode="&#x131;" horiz-adv-x="294" d="M55 0V505H240V0H55Z"  />
<glyph unicode="&#x152;" horiz-adv-x="993" d="M549 0Q506 -6 470 -8T406 -11Q324 -11 255 10T137 74T60 181T32 333Q32 418 62 482T143 589T265 655T416 677Q445 677 476 675T542 667H948V538H680V400H933V273H680V129H955V0H549ZM493 539Q476 543 457 545T416 548Q369 548 335 530T280 482T248 413T237 333Q237 288 248 249T281 181T337 135T416 118Q439 118 458 120T493 128V539Z"  />
<glyph unicode="&#x153;" horiz-adv-x="928" d="M230 154Q240 133 257 120T300 107Q327 107 343 119T370 153T383 200T387 255Q387 278 384 303T371 350T344 384T300 398Q274 398 257 385T230 350T217 304T213 255Q213 228 217 202T230 154ZM569 211Q571 179 585 158T620 123T667 103T720 97Q752 97 793 103T869 127L875 17Q827 1 779 -5T687 -11Q623 -11 572 6T483 71Q450 27 399 8T290 -11Q228 -11 180 8T98 61T46 145T28 255Q28 315 47 363T102 444T185 496T292 515Q354 515 400 496T484 432Q519 471 561 493T661 515Q727 515 772 495T846 438T888 352T901 242V211H569ZM742 300Q742 320 739 341T728 379T704 408T664 420Q638 420 621 409T592 380T575 341T568 300H742Z"  />
<glyph unicode="&#x160;" horiz-adv-x="599" d="M47 159Q97 136 147 127T251 118Q269 118 289 121T325 131T353 152T364 186Q364 202 357 213T335 234T297 253T242 273L197 288Q163 299 135 314T87 350T55 401T43 471Q43 532 71 572T143 635T239 668T338 678Q387 678 434 672T529 655L524 518Q483 534 441 541T354 549Q337 549 317 547T280 538T250 518T238 484Q238 468 244 458T263 440T293 426T333 413L390 395Q427 383 458 369T512 332T548 279T561 205Q561 144 536 103T471 37T379 0T276 -11Q216 -11 158 -5T42 18L47 159ZM226 724L123 860H237L300 781L363 860H476L373 724H226Z"  />
<glyph unicode="&#x161;" horiz-adv-x="487" d="M39 131Q74 112 120 103T206 94Q220 94 233 96T258 105T276 121T283 146Q283 169 265 182T220 205T161 223T102 248T57 289T39 358Q39 405 61 435T119 484T195 509T274 516Q316 516 356 511T437 495L431 385Q361 411 286 411Q274 411 261 410T237 403T218 389T210 365Q210 347 228 337T273 319T332 301T391 275T437 231T455 160Q455 107 432 74T374 22T297 -4T219 -11Q125 -11 33 15L39 131ZM175 582L72 718H186L249 639L312 718H425L322 582H175Z"  />
<glyph unicode="&#x178;" horiz-adv-x="666" d="M233 0V229L-13 667H201L340 371L475 667H680L430 229V0H233ZM160 728V855H297V728H160ZM380 728V855H516V728H380Z"  />
<glyph unicode="&#x17D;" horiz-adv-x="611" d="M27 0V154L361 530H38V667H575V512L249 137H585V0H27ZM232 724L129 860H243L306 781L369 860H482L379 724H232Z"  />
<glyph unicode="&#x17E;" horiz-adv-x="531" d="M30 0V138L290 389H38V505H498V368L242 117H502V0H30ZM195 582L92 718H206L269 639L332 718H445L342 582H195Z"  />
<glyph unicode="&#x192;" horiz-adv-x="620" d="M32 -98Q42 -102 51 -103T71 -104Q88 -104 101 -96T124 -74T140 -44T149 -13L211 286H103V400H235L256 492Q277 585 324 631T458 677Q484 677 511 675T564 664L558 556Q546 560 534 561T510 563Q491 563 478 556T455 538T439 512T430 482L412 400H521V286H388L324 -22Q316 -62 301 -99T263 -164T209 -209T136 -226Q108 -226 80 -224T26 -215L32 -98Z"  />
<glyph unicode="&#x2C6;" horiz-adv-x="294" d="M-30 582L73 718H221L324 582H210L147 660L84 582H-30Z"  />
<glyph unicode="&#x2C7;" horiz-adv-x="294" d="M74 582L-29 718H85L148 639L211 718H324L221 582H74Z"  />
<glyph unicode="&#x2DA;" horiz-adv-x="294" d="M98 650Q98 629 113 615T148 600Q169 600 183 614T198 650Q198 670 184 684T148 699Q127 699 113 685T98 650ZM107 553Q88 561 74 575T51 609T43 650Q43 672 51 691T73 724T107 746T148 754Q170 754 189 746T222 724T244 691T253 650Q253 628 245 609T222 576T189 553T148 545Q126 545 107 553Z"  />
<glyph unicode="&#x2DC;" horiz-adv-x="294" d="M-41 582Q-39 605 -32 628T-13 671T20 702T67 714Q89 714 109 708T148 696T184 683T218 677Q236 677 246 688T260 716H336Q335 692 327 669T305 626T270 595T222 583Q200 583 181 589T145 601T111 614T77 620Q61 620 49 609T35 582H-41Z"  />
<glyph unicode="&#x2013;" horiz-adv-x="500" d="M0 253V367H500V253H0Z"  />
<glyph unicode="&#x2014;" horiz-adv-x="1000" d="M0 253V367H1000V253H0Z"  />
<glyph unicode="&#x2018;" horiz-adv-x="310" d="M40 450L141 721H262L203 450H40Z"  />
<glyph unicode="&#x2019;" horiz-adv-x="310" d="M50 450L108 721H272L171 450H50Z"  />
<glyph unicode="&#x201A;" horiz-adv-x="310" d="M25 -128L83 143H247L146 -128H25Z"  />
<glyph unicode="&#x201C;" horiz-adv-x="533" d="M40 450L141 721H262L203 450H40ZM263 450L364 721H484L426 450H263Z"  />
<glyph unicode="&#x201D;" horiz-adv-x="533" d="M49 450L107 721H271L170 450H49ZM271 450L330 721H493L392 450H271Z"  />
<glyph unicode="&#x201E;" horiz-adv-x="533" d="M25 -127L83 144H247L146 -127H25ZM248 -127L306 144H469L368 -127H248Z"  />
<glyph unicode="&#x2020;" horiz-adv-x="620" d="M221 -128V389H45V533H221V721H400V533H576V389H400V-128H221Z"  />
<glyph unicode="&#x2021;" horiz-adv-x="620" d="M221 -128V60H45V204H221V389H45V533H221V721H400V533H576V389H400V204H576V60H400V-128H221Z"  />
<glyph unicode="&#x2022;" horiz-adv-x="620" d="M249 165Q221 178 200 199T166 249T153 310Q153 342 165 370T199 420T249 454T310 467Q342 467 371 455T421 421T455 371T468 310Q468 278 456 250T422 200T371 166T310 153Q278 153 249 165Z"  />
<glyph unicode="&#x2026;" horiz-adv-x="1000" d="M84 0V143H251V0H84ZM417 0V143H585V0H417ZM750 0V143H918V0H750Z"  />
<glyph unicode="&#x2030;" horiz-adv-x="1418" d="M173 380Q179 362 191 352T223 341Q243 341 254 351T272 380T279 421T281 471Q281 499 279 523T271 564T254 591T223 601Q204 601 193 592T175 565T166 523T164 471Q164 445 165 422T173 380ZM730 104Q736 86 747 76T779 65Q799 65 811 75T829 104T836 145T838 195Q838 223 836 247T828 288T810 315T779 325Q760 325 749 316T731 289T723 247T721 195Q721 169 722 146T730 104ZM1147 104Q1153 86 1164 76T1196 65Q1216 65 1228 75T1246 104T1253 145T1255 195Q1255 223 1253 247T1245 288T1227 315T1196 325Q1177 325 1166 316T1148 289T1141 247T1139 195Q1139 169 1140 146T1147 104ZM136 281Q101 298 79 326T47 391T37 471Q37 513 47 550T79 616T137 660T223 677Q274 677 309 661T366 616T398 551T408 471Q408 429 398 392T367 326T310 282T223 265Q172 265 136 281ZM238 -24L662 691H764L341 -24H238ZM692 5Q657 22 635 50T604 115T594 195Q594 237 604 274T636 340T693 384T779 401Q830 401 865 385T922 340T955 275T965 195Q965 153 955 116T923 50T866 6T779 -11Q728 -11 692 5ZM1109 5Q1074 22 1053 50T1022 115T1012 195Q1012 237 1022 274T1054 340T1111 384T1196 401Q1247 401 1282 385T1339 340T1372 275T1382 195Q1382 153 1372 116T1340 50T1283 6T1196 -11Q1145 -11 1109 5Z"  />
<glyph unicode="&#x2039;" horiz-adv-x="322" d="M150 55L17 258L150 460H296L168 258L296 55H150Z"  />
<glyph unicode="&#x203A;" horiz-adv-x="322" d="M27 55L154 257L27 460H173L306 257L173 55H27Z"  />
<glyph unicode="&#x20AC;" horiz-adv-x="620" d="M32 233L49 300H112Q111 308 111 317Q111 326 111 334Q111 342 111 350Q111 358 112 366H33L50 433H122Q136 489 166 534T239 611T333 660T443 677Q481 677 519 671T595 654L563 524Q520 540 477 540Q422 540 383 511T323 433H544L527 366H303Q302 358 302 350T301 334Q301 326 301 317T303 300H514L497 233H322Q342 185 381 157T474 129Q521 129 564 146L570 8Q541 -3 508 -7T443 -11Q383 -11 330 4T235 51T164 127T121 233H32Z"  />
<glyph unicode="&#x2122;" horiz-adv-x="1072" d="M148 267V574H6V667H422V574H280V267H148ZM470 267V667H665L752 397L835 667H1030V267H910V595L804 267H692L584 595V267H470Z"  />
<glyph unicode="&#xE300;" horiz-adv-x="294" d="M84 724L-39 860H138L211 724H84Z"  />
<glyph unicode="&#xE301;" horiz-adv-x="294" d="M71 724L144 860H321L198 724H71Z"  />
<glyph unicode="&#xE302;" horiz-adv-x="294" d="M-30 724L73 860H221L324 724H210L147 802L84 724H-30Z"  />
<glyph unicode="&#xE303;" horiz-adv-x="294" d="M74 724L-29 860H85L148 781L211 860H324L221 724H74Z"  />
<glyph unicode="&#xE304;" horiz-adv-x="294" d="M-41 724Q-39 747 -32 770T-13 813T20 844T67 856Q89 856 109 850T148 838T184 825T218 819Q236 819 246 830T260 858H336Q335 834 327 811T305 768T270 737T222 725Q200 725 181 731T145 743T111 756T77 762Q61 762 49 751T35 724H-41Z"  />
<glyph unicode="&#xE305;" horiz-adv-x="294" d="M-31 728V855H106V728H-31ZM189 728V855H325V728H189Z"  />
<glyph unicode="&#xE308;" horiz-adv-x="294" d="M98 792Q98 771 113 757T148 742Q169 742 183 756T198 792Q198 812 184 826T148 841Q127 841 113 827T98 792ZM107 695Q88 703 74 717T51 751T43 792Q43 814 51 833T73 866T107 888T148 896Q170 896 189 888T222 866T244 833T253 792Q253 770 245 751T222 718T189 695T148 687Q126 687 107 695Z"  />

</font>
</defs>
</svg>
