<?xml  version="1.0" encoding="UTF-8"?>
<!DOCTYPE svg PUBLIC "-//W3C//DTD SVG 1.0//EN" "http://www.w3.org/TR/2001/REC-SVG-20010904/DTD/svg10.dtd" >
<svg xmlns="http://www.w3.org/2000/svg" >
<metadata>
<version>1.0</version>
<id><![CDATA[Frutiger Next W01 Medium Italic]]></id>
<vendor>Monotype Imaging Inc.</vendor>
<credits>
<name>Fonts.com WebFonts</name>
<URL>http://webfonts.fonts.com</URL>
<role>Home of the Web fonts</role>
</credits>
<license>
<URL>http://webfonts.fonts.com/Legal</URL>
</license>
<copyright><![CDATA[Copyright © 2007 Linotype GmbH, www.linotype.com. All rights reserved. This font software may not be reproduced, modified, disclosed or transferred without the express written approval of Linotype GmbH. Frutiger Next is a trademark of Linotype GmbH and may be registered in certain jurisdictions. This typeface is original artwork of Adrian Frutiger and Linotype Design Studio. The design may be protected in certain jurisdictions.]]></copyright>
<trademark><![CDATA[Frutiger Next is a trademark of Linotype GmbH and may be registered in certain jurisdictions.]]></trademark>
<licensee>
<name></name>
</licensee>
</metadata>
<defs >
<font horiz-adv-x="511" id="e6087d5a-47c0-47af-acd4-13ed57e9c550">
<font-face font-family="" panose-1="2 11 6 3 4 2 4 9 2 3" ascent="905" descent="-279" units-per-em="1000" alphabetic="0">
</font-face>
<missing-glyph horiz-adv-x="281" />

<glyph unicode="&#xA;" />
<glyph unicode="&#xD;" horiz-adv-x="0" />
<glyph unicode=" " horiz-adv-x="281" />
<glyph unicode="!" horiz-adv-x="279" d="M16 0L38 103H143L122 0H16ZM66 179L153 667H269L149 179H66Z"  />
<glyph unicode="&quot;" horiz-adv-x="432" d="M122 459L166 667H244L200 459H122ZM273 459L317 667H395L350 459H273Z"  />
<glyph unicode="#" horiz-adv-x="562" d="M185 267H345L378 401H218L185 267ZM55 0L103 203H20L34 267H117L150 401H67L81 465H164L213 667H281L232 465H392L440 667H508L460 465H543L529 401H445L412 267H496L482 203H398L350 0H283L331 203H171L122 0H55Z"  />
<glyph unicode="$" horiz-adv-x="562" d="M157 -108L178 -11Q138 -10 100 -4T26 18L52 106Q78 91 117 80T199 68Q231 68 260 76T311 101T347 141T360 195Q360 223 342 244T297 282T239 317T180 355T135 405T117 473Q117 517 133 551T179 611T247 651T331 673L353 774H419L398 677Q432 677 466 672T531 655L507 570Q480 582 446 590T380 598Q356 598 329 592T278 572T239 537T223 486Q223 461 241 443T286 408T345 374T404 335T449 283T467 210Q467 166 451 129T406 63T336 16T245 -8L224 -108H157Z"  />
<glyph unicode="%" horiz-adv-x="951" d="M154 337Q160 327 171 321T200 315Q234 315 258 343T298 411T321 491T328 556Q328 569 326 582T317 605T299 622T271 628Q237 628 213 600T173 532T150 452T143 387Q143 373 145 361T154 337ZM635 61Q647 39 682 39Q716 39 740 67T780 135T803 215T810 280Q810 293 808 306T799 329T781 346T753 352Q719 352 695 324T655 256T632 176T624 111Q624 84 635 61ZM134 275Q111 285 97 302T75 344T68 395Q68 438 80 487T119 579T185 649T281 677Q344 677 373 642T403 553Q403 508 392 457T356 364T289 293T189 265Q157 265 134 275ZM230 -24L653 691H722L298 -24H230ZM616 -1Q593 9 578 26T556 68T549 119Q549 162 561 211T600 303T666 373T763 401Q826 401 855 366T885 277Q885 232 874 181T838 88T771 17T671 -11Q639 -11 616 -1Z"  />
<glyph unicode="&amp;" horiz-adv-x="672" d="M329 310Q292 310 257 301T194 274T149 226T132 156Q132 130 143 112T174 83T220 68T277 63Q310 63 339 67T401 81L449 310H329ZM485 19Q459 12 430 7T371 -3T313 -9T260 -11Q212 -11 170 -3T95 23T45 69T26 138Q26 183 42 218T85 280T148 323T227 346Q177 351 144 382T111 457Q111 514 137 555T206 624T301 664T405 677Q487 677 565 650L543 570Q507 589 469 596T389 603Q356 603 324 594T268 568T228 524T212 463Q212 436 224 420T256 395T299 385T344 382H464L480 454H578L563 382H664L648 310H547L485 19Z"  />
<glyph unicode="&apos;" horiz-adv-x="281" d="M122 459L166 667H244L200 459H122Z"  />
<glyph unicode="(" horiz-adv-x="281" d="M117 -128Q86 -54 66 25T45 182Q45 264 65 337T118 476T195 603T287 721H362Q319 662 278 600T204 471T152 332T132 180Q132 97 149 22T191 -128H117Z"  />
<glyph unicode=")" horiz-adv-x="281" d="M-92 -128Q-49 -69 -7 -8T69 120T124 258T145 409Q145 490 126 567T82 721H157Q188 645 209 565T231 409Q231 327 211 255T156 116T77 -10T-16 -128H-92Z"  />
<glyph unicode="*" horiz-adv-x="419" d="M114 375L193 483L73 518L96 591L210 539L200 667H276L265 539L379 591L402 518L283 483L360 375L296 335L237 450L178 335L114 375Z"  />
<glyph unicode="+" horiz-adv-x="562" d="M11 211V289H225V500H307V289H522V211H307V0H225V211H11Z"  />
<glyph unicode="&#x2c;" horiz-adv-x="281" d="M-47 -128L60 103H161L28 -128H-47Z"  />
<glyph unicode="-" horiz-adv-x="326" d="M30 269L47 351H290L273 269H30Z"  />
<glyph unicode="." horiz-adv-x="281" d="M21 0L43 103H149L127 0H21Z"  />
<glyph unicode="/" horiz-adv-x="303" d="M-56 0L275 667H360L28 0H-56Z"  />
<glyph unicode="0" horiz-adv-x="562" d="M151 105Q162 87 180 76T227 65Q264 65 293 87T345 146T384 227T411 318T427 405T432 475Q432 499 428 521T414 561T385 590T339 601Q303 601 274 579T221 520T182 439T154 349T138 263T133 193Q133 169 137 146T151 105ZM129 6Q95 24 74 53T42 122T32 205Q32 252 40 305T65 410T108 511T169 596T251 655T353 677Q400 677 434 662T490 618T522 553T533 472Q533 423 526 368T503 260T462 157T402 71T319 11T212 -11Q163 -11 129 6Z"  />
<glyph unicode="1" horiz-adv-x="562" d="M192 0L310 557L170 458L129 532L346 667H436L297 0H192Z"  />
<glyph unicode="2" horiz-adv-x="562" d="M-18 0L1 81L244 278Q289 314 320 344T370 400T397 451T406 504Q406 543 378 569T299 596Q245 596 205 582T125 549L135 635Q172 655 219 666T318 677Q411 677 464 634T518 519Q518 479 505 444T463 372T393 296T292 210L130 80H441L423 0H-18Z"  />
<glyph unicode="3" horiz-adv-x="562" d="M-5 100Q31 82 72 75T155 68Q188 68 221 75T283 99T328 145T346 217Q346 244 334 262T301 292T253 308T195 313H117L133 388H210Q242 388 276 394T337 416T382 455T400 515Q400 539 389 555T359 581T317 595T269 600Q226 600 188 591T110 566L121 648Q147 656 192 666T296 677Q335 677 373 669T441 644T489 598T508 528Q508 491 494 461T457 407T403 370T338 349Q394 335 423 303T453 219Q453 158 426 115T357 43T260 2T152 -11Q108 -11 60 -6T-30 16L-5 100Z"  />
<glyph unicode="4" horiz-adv-x="562" d="M98 226H330L406 581L98 226ZM-4 147L16 237L402 667H517L425 227H519L502 147H407L376 0H280L312 147H-4Z"  />
<glyph unicode="5" horiz-adv-x="562" d="M28 100Q61 85 101 77T177 68Q218 68 254 78T318 108T361 158T377 229Q377 263 365 284T334 319T289 337T238 342Q188 342 150 334T81 316L162 667H540L522 588H241L195 398Q215 403 239 406T294 410Q330 410 364 401T426 371T469 318T486 242Q486 175 461 127T393 49T295 4T178 -11Q138 -11 92 -5T11 15L28 100Z"  />
<glyph unicode="6" horiz-adv-x="562" d="M529 570Q503 584 467 592T398 601Q343 601 303 579T235 520T190 439T162 347Q191 384 236 403T330 423Q372 423 404 410T459 374T494 320T506 254Q506 193 487 144T432 61T350 8T246 -11Q189 -11 150 6T87 53T51 120T40 199Q40 279 59 364T122 518T234 632T402 677Q441 677 482 669T555 647L529 570ZM164 105Q178 87 199 76T251 65Q290 65 318 79T366 119T394 176T404 244Q404 288 377 319T295 350Q261 350 233 338T183 304T151 253T139 190Q139 167 145 145T164 105Z"  />
<glyph unicode="7" horiz-adv-x="562" d="M41 0L439 582H81L99 667H560L542 583L161 0H41Z"  />
<glyph unicode="8" horiz-adv-x="562" d="M133 325Q169 341 207 352Q186 361 167 372T133 400T110 437T101 487Q101 538 123 574T181 633T260 666T345 677Q376 677 412 671T478 648T528 604T548 534Q548 496 534 466T496 414T441 375T377 346Q400 336 422 323T460 291T487 250T497 199Q497 143 473 104T410 39T322 1T222 -11Q188 -11 151 -4T82 21T31 69T10 147Q10 192 26 225T70 284T133 325ZM227 427Q251 403 299 382Q325 390 350 403T396 434T429 474T442 526Q442 564 412 585T336 606Q311 606 287 599T245 579T215 544T203 496Q203 452 227 427ZM322 297Q302 309 281 318Q250 309 221 297T168 266T130 223T116 162Q116 134 125 115T151 84T189 67T235 62Q264 62 292 70T342 96T378 138T392 197Q392 219 383 237T358 271T322 297Z"  />
<glyph unicode="9" horiz-adv-x="562" d="M36 96Q62 82 98 74T167 65Q222 65 262 87T330 145T375 226T403 319Q374 282 329 263T235 243Q193 243 161 256T106 292T71 346T59 412Q59 473 78 522T133 605T215 658T319 677Q376 677 415 660T478 613T514 546T525 467Q525 387 506 302T443 148T331 34T163 -11Q124 -11 83 -3T10 19L36 96ZM188 345Q216 316 270 316Q304 316 332 328T382 362T414 413T426 476Q426 498 420 520T401 561T366 590T314 601Q275 601 247 586T199 547T171 490T161 422Q161 375 188 345Z"  />
<glyph unicode=":" horiz-adv-x="281" d="M21 0L43 103H149L127 0H21ZM104 398L126 500H231L210 398H104Z"  />
<glyph unicode=";" horiz-adv-x="281" d="M-47 -128L60 103H161L28 -128H-47ZM104 398L126 500H231L210 398H104Z"  />
<glyph unicode="&lt;" horiz-adv-x="562" d="M25 207V291L536 495V410L119 249L536 89V5L25 207Z"  />
<glyph unicode="=" horiz-adv-x="562" d="M25 111V188H536V111H25ZM25 310V388H536V310H25Z"  />
<glyph unicode="&gt;" horiz-adv-x="562" d="M38 5V89L454 249L38 410V495L548 291V207L38 5Z"  />
<glyph unicode="?" horiz-adv-x="427" d="M94 179L99 208Q106 251 125 283T168 340T217 385T264 426T299 468T313 520Q313 558 285 577T219 596Q184 596 147 587T81 564L95 646Q120 655 158 666T254 677Q285 677 315 669T368 644T406 602T421 545Q421 501 406 470T368 413T316 368T262 325T216 275T189 211L183 179H94ZM48 0L69 103H175L154 0H48Z"  />
<glyph unicode="@" horiz-adv-x="1055" d="M833 -171Q796 -185 761 -195T689 -213T613 -223T528 -227Q421 -227 334 -196T186 -108T91 31T57 211Q57 325 96 420T205 585T368 692T571 731Q658 731 733 705T864 628T952 503T984 332Q984 258 964 195T908 87T825 15T725 -11Q675 -11 641 17T603 106Q536 -11 428 -11Q361 -11 320 33T279 156Q279 228 304 292T374 404T480 481T615 510Q648 510 685 505T757 488L682 174Q679 162 678 149T677 126Q677 94 692 75T739 56Q770 56 799 76T851 132T887 218T901 329Q901 412 875 474T802 577T695 638T563 658Q475 658 399 625T265 533T176 391T143 211Q143 127 170 60T249 -55T373 -128T539 -154Q578 -154 613 -151T683 -140T752 -121T824 -94L833 -171ZM658 431Q644 435 632 436T602 438Q551 438 509 413T435 349T387 261T369 164Q369 115 390 88T453 61Q481 61 505 76T550 116T586 174T611 246L658 431Z"  />
<glyph unicode="A" horiz-adv-x="648" d="M191 255H440L386 590L191 255ZM-64 0L333 667H469L586 0H475L449 176H149L47 0H-64Z"  />
<glyph unicode="B" horiz-adv-x="567" d="M130 73H200Q236 73 270 79T331 101T374 146T391 218Q391 248 376 265T339 293T290 306T241 309H180L130 73ZM196 382H268Q301 382 332 388T386 411T424 452T439 515Q439 538 429 553T402 578T366 591T327 595H240L196 382ZM11 0L153 667H366Q399 667 431 659T489 635T531 592T547 529Q547 457 504 409T386 346Q442 333 471 299T500 213Q500 150 473 109T404 43T310 10T206 0H11Z"  />
<glyph unicode="C" horiz-adv-x="572" d="M486 17Q448 1 404 -5T320 -11Q249 -11 196 12T107 74T55 162T37 261Q37 361 69 438T158 569T290 649T450 677Q507 677 548 668T613 650L584 564Q533 594 448 594Q380 594 325 570T230 503T170 402T148 277Q148 233 160 196T197 131T259 88T347 72Q385 72 422 79T497 102L486 17Z"  />
<glyph unicode="D" horiz-adv-x="666" d="M11 0L153 667H348Q410 667 461 651T550 602T607 523T628 412Q628 319 601 243T520 113T391 30T216 0H11ZM136 79H190Q353 79 435 165T517 401Q517 498 466 543T320 588H243L136 79Z"  />
<glyph unicode="E" horiz-adv-x="520" d="M11 0L153 667H531L514 588H243L199 380H457L439 302H183L135 79H416L399 0H11Z"  />
<glyph unicode="F" horiz-adv-x="489" d="M11 0L153 667H523L505 588H243L198 377H450L433 298H182L119 0H11Z"  />
<glyph unicode="G" horiz-adv-x="661" d="M548 29Q506 11 452 0T348 -11Q273 -11 215 10T118 67T58 154T37 263Q37 363 73 440T170 570T309 650T474 677Q516 677 562 669T647 645L621 560Q587 579 548 587T474 596Q403 596 344 572T241 505T173 402T148 270Q148 230 160 194T199 130T265 86T359 70Q387 70 413 75T462 88L506 293H361L378 369H620L548 29Z"  />
<glyph unicode="H" horiz-adv-x="672" d="M11 0L153 667H260L201 387H495L554 667H662L520 0H412L476 299H182L118 0H11Z"  />
<glyph unicode="I" horiz-adv-x="271" d="M11 0L153 667H261L119 0H11Z"  />
<glyph unicode="J" horiz-adv-x="336" d="M-48 86Q-34 79 -20 77T9 75Q37 75 57 86T91 114T113 154T126 199L226 667H334L231 181Q212 92 160 41T16 -11Q-11 -11 -29 -8T-68 3L-48 86Z"  />
<glyph unicode="K" horiz-adv-x="593" d="M11 0L153 667H259L196 372L518 667H654L288 347L530 0H402L187 329L117 0H11Z"  />
<glyph unicode="L" horiz-adv-x="476" d="M11 0L153 667H260L137 88H422L403 0H11Z"  />
<glyph unicode="M" horiz-adv-x="890" d="M11 0L153 667H316L399 119L717 667H880L738 0H637L763 590L422 0H323L233 591L108 0H11Z"  />
<glyph unicode="N" horiz-adv-x="698" d="M11 0L153 667H305L471 94L590 667H688L545 0H393L229 572L108 0H11Z"  />
<glyph unicode="O" horiz-adv-x="698" d="M183 119Q201 96 228 83T294 69Q360 69 408 101T488 184T535 297T550 419Q550 452 542 484T516 541T470 581T399 597Q335 597 288 563T210 477T164 362T148 241Q148 206 156 175T183 119ZM168 12Q121 36 92 72T50 153T37 239Q37 322 61 400T133 540T251 639T412 677Q480 677 527 653T604 591T647 508T661 420Q661 335 638 257T568 120T450 25T283 -11Q215 -11 168 12Z"  />
<glyph unicode="P" horiz-adv-x="551" d="M11 0L153 667H332Q373 667 412 659T482 632T532 580T551 500Q551 430 524 385T454 314T360 277T263 267H174L118 0H11ZM190 345H239Q279 345 316 350T381 370T425 415T442 492Q442 520 430 539T400 569T358 585T310 590H242L190 345Z"  />
<glyph unicode="Q" horiz-adv-x="698" d="M183 119Q201 96 228 83T294 69Q361 69 409 101T488 184T535 297T550 419Q550 452 542 484T516 541T469 581T398 597Q334 597 287 563T209 477T163 362T148 241Q148 206 156 175T183 119ZM463 -128L373 4Q332 -11 282 -11Q216 -11 169 12T93 71T51 151T37 239Q37 323 62 401T134 541T252 640T412 677Q481 677 528 653T605 591T648 508T661 420Q661 362 650 305T616 198T556 105T470 35L591 -128H463Z"  />
<glyph unicode="R" horiz-adv-x="566" d="M11 0L152 667H338Q372 667 409 662T477 640T528 597T549 525Q549 474 530 440T483 383T421 349T357 333Q395 325 409 302T431 243L488 0H373L331 207Q326 230 320 247T303 274T275 290T229 295H180L118 0H11ZM196 372H262Q289 372 320 376T378 393T421 433T439 502Q439 551 401 571T300 591H241L196 372Z"  />
<glyph unicode="S" horiz-adv-x="499" d="M12 105Q49 88 87 78T170 68Q195 68 221 74T268 93T302 128T316 181Q316 215 299 239T256 283T200 321T144 360T101 410T83 479Q83 531 104 568T160 630T242 665T338 677Q379 677 423 671T497 651L470 569Q458 575 442 580T407 590T369 596T334 599Q309 599 284 594T239 577T207 546T194 497Q194 469 211 449T255 409T311 371T367 327T410 269T428 190Q428 137 407 100T349 37T264 1T164 -11Q125 -11 77 -5T-16 18L12 105Z"  />
<glyph unicode="T" horiz-adv-x="506" d="M128 0L252 579H51L69 667H578L559 579H359L236 0H128Z"  />
<glyph unicode="U" horiz-adv-x="662" d="M158 241Q155 226 153 211T151 180Q151 157 158 137T181 103T222 80T282 72Q320 72 350 85T402 120T439 174T462 242L552 667H660L570 243Q541 107 463 48T263 -11Q221 -11 182 -1T112 30T63 86T44 169Q44 186 45 203T50 240L142 667H249L158 241Z"  />
<glyph unicode="V" horiz-adv-x="597" d="M159 0L59 667H172L243 105L550 667H665L285 0H159Z"  />
<glyph unicode="W" horiz-adv-x="921" d="M109 0L67 667H174L199 104L472 667H588L621 104L887 667H987L662 0H539L506 564L234 0H109Z"  />
<glyph unicode="X" horiz-adv-x="624" d="M-65 0L255 352L100 667H219L334 408L548 667H671L380 349L545 0H424L302 291L58 0H-65Z"  />
<glyph unicode="Y" horiz-adv-x="578" d="M161 0L217 266L59 667H179L291 349L540 667H655L325 266L268 0H161Z"  />
<glyph unicode="Z" horiz-adv-x="520" d="M-38 0L-20 86L423 585H97L115 667H560L541 581L103 82H444L427 0H-38Z"  />
<glyph unicode="[" horiz-adv-x="287" d="M2 -128L182 721H369L355 655H255L103 -61H203L189 -128H2Z"  />
<glyph unicode="\" horiz-adv-x="338" d="M223 0L32 667H115L306 0H223Z"  />
<glyph unicode="]" horiz-adv-x="287" d="M-97 -128L-83 -61H17L169 655H69L83 721H270L90 -128H-97Z"  />
<glyph unicode="^" horiz-adv-x="562" d="M70 245L242 667H319L491 245H404L279 571L157 245H70Z"  />
<glyph unicode="_" horiz-adv-x="500" d="M-90 -125L-79 -75H410L399 -125H-90Z"  />
<glyph unicode="`" horiz-adv-x="243" d="M148 584L75 720H182L223 584H148Z"  />
<glyph unicode="a" horiz-adv-x="570" d="M353 0Q354 20 358 54T369 127Q333 60 282 25T170 -11Q101 -11 63 33T25 152Q25 223 51 287T124 401T238 480T386 510Q428 510 465 505T538 490L480 220Q465 150 456 92T447 0H353ZM425 427Q401 436 371 436Q320 436 276 413T199 350T149 262T130 160Q130 114 151 89T212 63Q241 63 270 83T324 135T367 205T394 281L425 427Z"  />
<glyph unicode="b" horiz-adv-x="565" d="M188 389Q220 447 267 478T374 510Q443 510 479 464T516 346Q516 272 493 207T428 94T325 17T192 -11Q147 -11 101 -4T10 15L160 721H260L188 389ZM122 71Q142 66 159 65T195 63Q243 63 283 85T351 144T395 231T411 337Q411 383 391 409T336 436Q308 436 280 419T226 372T182 305T154 226L122 71Z"  />
<glyph unicode="c" horiz-adv-x="468" d="M366 7Q339 -1 309 -6T246 -11Q205 -11 166 -2T97 29T48 86T29 175Q29 244 51 305T115 411T216 483T347 510Q415 510 467 490L446 412Q423 425 398 430T345 436Q296 436 257 415T191 359T150 283T135 197Q135 158 146 132T176 91T220 70T274 63Q298 63 325 68T377 85L366 7Z"  />
<glyph unicode="d" horiz-adv-x="578" d="M425 427Q412 433 396 434T366 436Q316 436 273 413T198 350T148 262T130 160Q130 114 151 89T212 63Q241 63 270 83T325 135T368 205T394 281L425 427ZM354 0Q355 20 359 54T370 127Q332 58 281 24T170 -11Q101 -11 63 33T25 152Q25 223 50 287T122 401T231 480T371 510Q385 510 406 508T440 502L486 721H587L481 223Q466 153 457 93T448 0H354Z"  />
<glyph unicode="e" horiz-adv-x="509" d="M175 338Q158 310 148 283Q186 283 229 286T308 301T369 333T393 390Q393 421 373 432T325 444Q293 444 266 429T216 391T175 338ZM386 26Q348 6 303 -2T213 -11Q174 -11 140 -2T80 28T39 80T24 154Q24 226 49 291T118 404T219 481T338 510Q366 510 392 504T440 485T474 450T487 397Q487 357 470 328T425 280T360 248T284 230T207 222T136 220Q131 207 129 191T127 160Q127 107 158 82T241 57Q277 57 315 67T385 98L386 26Z"  />
<glyph unicode="f" horiz-adv-x="322" d="M-101 -147Q-91 -149 -82 -150T-64 -151Q-39 -151 -22 -139T6 -108T25 -64T38 -15L131 427H37L53 500H146L159 559Q166 593 179 624T215 679T269 717T346 731Q365 731 383 729T415 721L394 651Q372 659 348 659Q326 659 311 649T285 623T269 589T259 552L248 500H357L341 427H233L138 -22Q131 -56 119 -92T85 -159T29 -208T-55 -227Q-92 -227 -120 -220L-101 -147Z"  />
<glyph unicode="g" horiz-adv-x="573" d="M-3 -120Q30 -138 66 -145T136 -153Q182 -153 216 -141T274 -107T313 -53T338 16L360 110Q323 56 278 28T173 0Q104 0 66 43T28 158Q28 227 54 291T127 403T241 481T389 510Q431 510 468 505T541 490L447 51Q432 -18 410 -70T352 -157T263 -209T133 -227Q89 -227 49 -219T-25 -200L-3 -120ZM428 427Q404 436 374 436Q323 436 279 413T202 351T152 265T133 166Q133 121 154 96T215 71Q244 71 273 88T326 134T369 201T397 281L428 427Z"  />
<glyph unicode="h" horiz-adv-x="556" d="M7 0L160 721H260L194 418Q229 462 270 486T367 510Q425 510 463 479T502 388Q502 377 502 369T500 353T497 333T491 306L426 0H325L388 298Q391 314 393 329T395 359Q395 392 378 414T319 436Q284 436 259 423T215 387T186 335T167 275L108 0H7Z"  />
<glyph unicode="i" horiz-adv-x="243" d="M7 0L112 500H213L108 0H7ZM132 603L152 700H255L235 603H132Z"  />
<glyph unicode="j" horiz-adv-x="249" d="M-115 -145Q-100 -151 -81 -151Q-62 -151 -49 -143T-27 -123T-12 -95T-3 -63L116 500H217L98 -72Q91 -104 79 -132T48 -182T2 -215T-61 -227Q-80 -227 -99 -226T-136 -219L-115 -145ZM136 603L155 700H258L239 603H136Z"  />
<glyph unicode="k" horiz-adv-x="494" d="M7 0L158 721H259L169 292L397 500H522L263 275L434 0H316L163 266L108 0H7Z"  />
<glyph unicode="l" horiz-adv-x="252" d="M7 0L160 721H261L108 0H7Z"  />
<glyph unicode="m" horiz-adv-x="839" d="M7 0L88 385Q94 414 99 442T107 500H202L187 413Q220 461 262 485T363 510Q410 510 444 483T480 406Q509 452 554 481T655 510Q713 510 749 479T786 388Q786 374 784 361T779 333L709 0H607L675 325Q680 348 680 369Q680 436 611 436Q581 436 557 422T515 386T485 336T467 282L408 0H307L375 325Q380 348 380 369Q380 404 362 420T309 436Q279 436 255 422T213 385T184 335T167 282L108 0H7Z"  />
<glyph unicode="n" horiz-adv-x="554" d="M7 0L88 385Q94 414 99 442T107 500H201L186 411Q222 460 262 485T365 510Q426 510 463 478T500 384Q500 370 498 356T493 325L425 0H324L387 302Q390 316 392 330T395 359Q395 391 378 413T317 436Q284 436 259 423T215 388T186 339T168 282L108 0H7Z"  />
<glyph unicode="o" horiz-adv-x="577" d="M86 33Q60 55 45 89T29 169Q29 238 49 299T109 408T204 482T334 510Q374 510 409 499T472 465T514 409T530 331Q530 263 510 202T450 93T355 17T227 -11Q185 -11 149 0T86 33ZM154 98Q166 82 186 73T239 63Q282 63 316 87T375 149T412 230T425 312Q425 339 420 361T403 400T369 426T315 436Q271 436 237 412T180 350T146 268T134 185Q134 159 138 137T154 98Z"  />
<glyph unicode="p" horiz-adv-x="565" d="M-40 -216L76 327Q87 379 94 417T108 500H204L181 381Q213 444 262 477T374 510Q443 510 479 464T516 346Q516 272 493 207T428 94T325 17T192 -11Q160 -11 141 -9T106 -4L62 -216H-40ZM122 71Q142 66 159 65T195 63Q243 63 283 85T351 144T395 231T411 337Q411 383 391 409T336 436Q308 436 280 419T226 372T182 305T154 226L122 71Z"  />
<glyph unicode="q" horiz-adv-x="570" d="M286 -216L356 106Q318 50 274 20T170 -11Q101 -11 63 33T25 152Q25 223 51 287T124 401T238 480T386 510Q428 510 465 505T538 490L387 -216H286ZM425 427Q401 436 371 436Q320 436 276 413T199 350T149 262T130 160Q130 114 151 89T212 63Q241 63 270 83T324 135T367 205T394 281L425 427Z"  />
<glyph unicode="r" horiz-adv-x="355" d="M7 0L89 385Q95 414 100 442T109 500H203L185 400Q196 421 212 441T250 476T294 500T343 510Q354 510 363 510T383 506L358 410Q341 417 319 417Q283 417 256 400T210 357T177 298T158 235L108 0H7Z"  />
<glyph unicode="s" horiz-adv-x="414" d="M11 94Q66 62 132 62Q151 62 170 65T206 78T232 102T243 142Q243 164 230 180T196 209T152 236T108 267T74 306T60 362Q60 404 77 432T122 478T185 502T255 510Q287 510 323 504T390 487L366 416Q340 429 313 434T256 440Q240 440 223 437T192 427T168 406T158 373Q158 351 172 335T206 306T251 279T295 249T330 208T344 151Q344 106 325 76T276 26T207 -2T131 -11Q93 -11 58 -6T-13 13L11 94Z"  />
<glyph unicode="t" horiz-adv-x="322" d="M246 5Q227 -3 205 -7T155 -11Q133 -11 113 -6T78 11T54 42T45 88Q45 104 47 123T54 161L111 427H20L36 500H127L149 608L258 641L228 500H338L323 427H213L156 162Q153 148 151 134T149 108Q149 84 162 73T197 62Q225 62 256 75L246 5Z"  />
<glyph unicode="u" horiz-adv-x="553" d="M329 0L343 90Q310 43 270 16T167 -11Q106 -11 69 22T31 117Q31 145 37 175L106 502H207L144 199Q141 185 139 171T136 142Q136 109 153 86T214 63Q247 63 272 76T315 112T344 162T362 219L421 502H523L442 116Q436 87 431 58T423 0H329Z"  />
<glyph unicode="v" horiz-adv-x="474" d="M106 0L47 500H152L185 81L393 500H500L236 0H106Z"  />
<glyph unicode="w" horiz-adv-x="796" d="M97 0L49 500H152L180 85L376 500H494L524 85L719 500H818L568 0H446L417 416L219 0H97Z"  />
<glyph unicode="x" horiz-adv-x="479" d="M-52 0L176 264L68 500H177L248 312L386 500H497L289 258L405 0H294L221 207L58 0H-52Z"  />
<glyph unicode="y" horiz-adv-x="475" d="M-50 -142Q-39 -146 -27 -148T-4 -151Q14 -151 29 -145T56 -128T76 -105T90 -79L123 -13L51 500H157L197 87L398 500H503L197 -73Q179 -107 160 -135T118 -184T67 -215T3 -227Q-19 -227 -35 -225T-72 -217L-50 -142Z"  />
<glyph unicode="z" horiz-adv-x="452" d="M-28 0L-11 79L330 427H73L88 500H460L443 419L104 73H371L355 0H-28Z"  />
<glyph unicode="{" horiz-adv-x="289" d="M119 -128Q79 -128 58 -102T37 -38Q37 -30 38 -22T41 -6L75 155Q80 180 80 201Q80 227 68 247T27 267L39 328Q60 328 76 339T105 367T125 403T137 441L170 600Q175 622 185 644T212 683T251 710T300 721H371L359 662H318Q303 662 292 654T274 634T261 608T253 581L220 424Q215 403 205 383T180 345T146 316T106 297Q138 289 153 263T169 204Q169 195 169 187T166 169L132 14Q130 4 129 -5T127 -26Q127 -51 136 -60T162 -69H203L191 -128H119Z"  />
<glyph unicode="|" horiz-adv-x="215" d="M65 -216V775H152V-216H65Z"  />
<glyph unicode="}" horiz-adv-x="289" d="M-83 -128L-71 -69H-30Q-15 -69 -4 -61T16 -40T28 -13T36 14L68 169Q72 190 82 210T108 248T141 278T182 297Q150 305 135 332T119 391Q119 399 120 407T123 424L156 581Q158 591 159 601T160 621Q160 636 154 649T125 662H84L97 721H168Q208 721 229 696T250 633Q250 625 250 617T247 600L213 441Q211 430 210 419T208 395Q208 369 220 349T262 328L248 267Q227 267 211 256T184 229T165 193T153 155L118 -6Q113 -29 102 -51T74 -90T36 -117T-11 -128H-83Z"  />
<glyph unicode="~" horiz-adv-x="562" d="M-1 171Q2 198 10 225T35 275T74 311T129 325Q162 325 198 314T271 290T341 265T405 254Q439 254 456 277T479 329H533Q531 302 523 275T500 226T461 190T406 176Q372 176 336 187T264 211T194 235T129 246Q97 246 78 224T55 171H-1Z"  />
<glyph unicode="&#xA0;" horiz-adv-x="281" />
<glyph unicode="&#xA1;" horiz-adv-x="279" d="M-21 -170L99 318H182L94 -170H-21ZM104 395L125 497H231L209 395H104Z"  />
<glyph unicode="&#xA2;" horiz-adv-x="562" d="M223 0L243 92Q211 97 185 111T139 148T109 199T98 263Q98 322 115 375T164 470T243 539T348 574L367 667H425L407 576Q459 574 508 557L487 483Q464 495 439 500T387 506Q344 506 309 486T250 435T212 364T198 284Q198 259 205 237T227 197T262 170T309 160Q366 160 424 182L413 107Q385 99 358 95T301 90L281 0H223Z"  />
<glyph unicode="&#xA3;" horiz-adv-x="562" d="M12 0L28 76H106L158 318H83L99 392H173L184 447Q207 557 272 617T457 677Q485 677 518 671T573 657L550 579Q531 589 508 594T454 600Q411 600 382 586T333 550T303 499T286 441L275 392H438L422 318H259L208 76H440L424 0H12Z"  />
<glyph unicode="&#xA4;" horiz-adv-x="562" d="M138 279Q149 254 168 235T212 205T266 194Q295 194 320 205T364 234T394 278T405 333Q405 361 394 386T365 431T321 461T266 472Q237 472 212 461T168 432T139 388T128 333Q128 304 138 279ZM79 94L28 145L92 209Q72 238 62 267T52 333Q52 400 92 457L28 522L78 572L142 507Q199 547 266 547Q302 547 331 538T391 508L455 571L505 521L441 457Q460 428 470 398T481 332Q481 265 441 210L505 144L455 94L390 159Q335 118 267 118Q233 118 202 129T143 159L79 94Z"  />
<glyph unicode="&#xA5;" horiz-adv-x="562" d="M151 0L181 138H36L49 203H194L210 276H65L79 341H192L93 667H201L283 358L497 667H603L359 341H477L463 276H314L298 203H447L434 138H284L255 0H151Z"  />
<glyph unicode="&#xA6;" horiz-adv-x="215" d="M65 -216V181H152V-216H65ZM65 379V775H152V379H65Z"  />
<glyph unicode="&#xA7;" horiz-adv-x="562" d="M311 176Q323 185 335 196T359 221T377 250T384 282Q384 305 365 320T325 346L243 387Q231 381 217 371T192 346T174 317T166 287Q166 265 180 250T212 225L311 176ZM29 -13Q68 -32 104 -42T185 -53Q206 -53 228 -47T269 -29T298 1T310 43Q310 71 289 87T240 117L143 166Q113 181 94 207T75 266Q75 294 85 316T111 357T149 391T191 420Q169 434 157 455T144 503Q144 549 163 582T214 636T286 667T369 677Q410 677 443 670T513 650L492 576Q466 588 436 597T375 606Q354 606 331 602T289 588T257 561T244 518Q244 504 250 493T266 473T288 457T313 444L398 401Q430 385 452 364T474 304Q474 277 465 255T440 213T406 178T369 149Q388 134 399 114T411 66Q411 15 391 -21T338 -80T263 -113T175 -124Q133 -124 89 -115T6 -88L29 -13Z"  />
<glyph unicode="&#xA8;" horiz-adv-x="243" d="M57 603L78 700H161L140 603H57ZM226 603L247 700H329L309 603H226Z"  />
<glyph unicode="&#xA9;" horiz-adv-x="768" d="M513 159Q491 150 466 146T417 141Q368 141 329 154T261 192T218 253T202 334Q202 378 218 413T263 474T331 513T417 527Q440 527 465 523T513 511L509 453Q490 461 468 466T425 471Q354 471 315 434T275 334Q275 272 314 235T425 198Q448 198 468 203T509 217L513 159ZM186 133Q224 94 275 71T384 48Q442 48 493 71T581 133T639 224T661 334Q661 392 640 443T581 534T493 595T384 618Q326 618 275 596T187 534T128 444T106 334Q106 276 127 224T186 133ZM250 16Q187 43 141 90T67 200T40 334Q40 405 67 467T140 576T250 650T384 677Q455 677 518 650T627 577T701 468T728 334Q728 263 701 200T628 90T518 16T384 -11Q313 -11 250 16Z"  />
<glyph unicode="&#xAA;" horiz-adv-x="380" d="M272 366Q272 379 274 398T282 441Q259 405 227 382T152 359Q109 359 85 386T60 458Q60 503 77 543T126 613T200 660T293 677Q324 677 349 674T402 663L365 499Q355 456 350 422T345 366H272ZM315 618Q300 624 281 624Q252 624 227 610T182 574T151 523T139 466Q139 443 150 428T185 413Q201 413 218 423T251 449T279 487T296 533L315 618Z"  />
<glyph unicode="&#xAB;" horiz-adv-x="468" d="M107 55L11 256L179 455H266L101 256L191 55H107ZM291 55L195 256L363 455H450L285 256L375 55H291Z"  />
<glyph unicode="&#xAC;" horiz-adv-x="562" d="M25 310V388H536V111H455V310H25Z"  />
<glyph unicode="&#xAD;" horiz-adv-x="326" d="M30 269L47 351H290L273 269H30Z"  />
<glyph unicode="&#xAE;" horiz-adv-x="768" d="M317 365H359Q375 365 391 367T421 377T442 395T450 425Q450 442 442 452T421 467T392 475T358 477H317V365ZM248 153V529H389Q415 529 439 524T481 506T511 475T522 429Q522 391 494 367T428 337Q453 332 467 319T490 285L546 153H472L425 265Q414 292 400 303T351 314H318V153H248ZM187 133Q225 94 275 71T384 48Q442 48 493 71T581 133T640 224T662 334Q662 392 641 443T582 534T493 595T384 618Q326 618 276 596T188 534T129 444T107 334Q107 276 128 224T187 133ZM250 16Q187 43 141 90T67 200T40 334Q40 405 67 467T140 576T250 650T384 677Q455 677 518 650T627 577T701 468T728 334Q728 263 701 200T628 90T518 16T384 -11Q313 -11 250 16Z"  />
<glyph unicode="&#xAF;" horiz-adv-x="243" d="M46 623L58 682H325L312 623H46Z"  />
<glyph unicode="&#xB0;" horiz-adv-x="400" d="M155 527Q155 490 181 465T244 440Q263 440 280 447T310 467T330 497T338 533Q338 572 313 596T249 620Q208 620 182 595T155 527ZM139 423Q120 442 109 468T97 525Q97 557 109 584T141 632T190 665T250 677Q280 677 307 666T353 636T384 591T396 534Q396 502 384 475T352 427T303 394T243 382Q213 382 186 393T139 423Z"  />
<glyph unicode="&#xB1;" horiz-adv-x="562" d="M25 -19V58H536V-19H25ZM25 270V348H240V518H321V348H536V270H321V102H240V270H25Z"  />
<glyph unicode="&#xB2;" horiz-adv-x="430" d="M66 370L80 430L208 525Q234 544 257 562T297 597T325 632T335 667Q335 691 314 706T261 721Q228 721 203 714T154 696L162 756Q186 767 218 773T286 780Q312 780 336 774T378 755T406 725T417 682Q417 652 406 627T375 580T328 536T269 492L180 428H370L357 370H66Z"  />
<glyph unicode="&#xB3;" horiz-adv-x="430" d="M79 438Q101 429 128 425T180 421Q203 421 225 425T264 439T291 464T301 500Q301 515 292 525T269 541T238 549T204 552H156L169 606H213Q232 606 253 609T293 620T322 641T334 674Q334 687 327 696T308 712T281 721T250 724Q220 724 197 720T150 706L159 763Q182 771 209 775T273 780Q298 780 323 775T369 759T401 730T414 687Q414 663 406 645T385 614T354 592T317 578Q346 571 363 550T381 502Q381 463 362 437T314 394T250 370T180 363Q152 363 122 366T63 379L79 438Z"  />
<glyph unicode="&#xB4;" horiz-adv-x="243" d="M127 584L227 720H333L203 584H127Z"  />
<glyph unicode="&#xB5;" horiz-adv-x="562" d="M-40 -216L113 502H214L151 199Q148 184 146 170T143 142Q143 109 160 86T221 63Q254 63 279 76T322 112T351 162T369 219L428 502H530L450 116Q444 87 439 58T430 0H336L351 90Q321 46 282 19T193 -8Q163 -8 142 3T112 27L60 -216H-40Z"  />
<glyph unicode="&#xB6;" horiz-adv-x="562" d="M133 -108L224 322Q192 322 163 330T110 355T72 397T58 458Q58 514 80 555T138 622T222 662T319 675H571L404 -108H327L480 612H363L210 -108H133Z"  />
<glyph unicode="&#xB7;" horiz-adv-x="281" d="M70 258L92 360H197L176 258H70Z"  />
<glyph unicode="&#xB8;" horiz-adv-x="243" d="M-20 -128Q3 -137 22 -140T59 -144Q82 -144 95 -135T109 -110Q109 -95 99 -89T76 -82Q65 -82 54 -83T29 -90L15 -67L72 0H118L74 -52Q91 -48 111 -48Q136 -48 154 -64T173 -107Q169 -148 138 -166T58 -185Q36 -185 13 -182T-37 -167L-20 -128Z"  />
<glyph unicode="&#xB9;" horiz-adv-x="430" d="M203 370L275 694L179 633L148 690L303 774H370L281 370H203Z"  />
<glyph unicode="&#xBA;" horiz-adv-x="380" d="M99 388Q63 418 63 473Q63 515 77 552T118 617T181 661T262 677Q320 677 356 648T393 563Q393 521 379 484T338 419T274 375T193 359Q135 359 99 388ZM142 479Q142 414 202 414Q227 414 247 427T282 462T305 508T313 557Q313 621 253 621Q228 621 208 608T173 573T150 527T142 479Z"  />
<glyph unicode="&#xBB;" horiz-adv-x="468" d="M-17 55L148 255L58 455H142L238 255L70 55H-17ZM167 55L332 255L242 455H326L422 255L254 55H167Z"  />
<glyph unicode="&#xBC;" horiz-adv-x="950" d="M171 -24L594 691H663L240 -24H171ZM437 85L452 151L697 404H783L725 144H784L771 85H712L694 0H622L641 85H437ZM517 143H654L699 339L517 143ZM165 267L237 591L141 530L110 587L265 671H332L243 267H165Z"  />
<glyph unicode="&#xBD;" horiz-adv-x="950" d="M157 -24L580 691H649L226 -24H157ZM464 0L478 60L606 155Q632 174 655 192T695 227T723 262T733 297Q733 321 712 336T659 351Q626 351 601 344T552 326L560 386Q584 397 616 403T684 410Q710 410 734 404T776 385T804 355T815 312Q815 282 804 257T773 210T726 166T667 122L578 58H768L755 0H464ZM150 267L222 591L126 530L95 587L250 671H317L228 267H150Z"  />
<glyph unicode="&#xBE;" horiz-adv-x="950" d="M257 -24L680 691H749L325 -24H257ZM77 335Q99 326 126 322T178 318Q201 318 223 322T262 336T289 361T299 397Q299 412 290 422T267 438T236 446T202 449H154L167 503H211Q230 503 251 506T291 517T320 538T332 571Q332 584 325 593T306 609T279 618T248 621Q218 621 195 617T148 603L157 660Q180 668 207 672T271 677Q296 677 321 672T367 656T399 627T412 584Q412 560 404 542T383 511T352 489T315 475Q344 468 361 447T379 399Q379 360 360 334T312 291T248 267T178 260Q150 260 120 263T61 276L77 335ZM522 85L537 151L782 404H868L810 144H869L856 85H797L779 0H707L726 85H522ZM602 143H739L784 339L602 143Z"  />
<glyph unicode="&#xBF;" horiz-adv-x="427" d="M225 398L246 500H352L330 398H225ZM305 -146Q280 -155 241 -166T145 -177Q114 -177 85 -169T32 -143T-6 -101T-21 -44Q-21 0 -6 31T32 88T84 133T137 176T183 226T210 290L216 322H306L300 291Q291 247 272 215T230 158T181 113T134 73T100 31T86 -20Q86 -58 115 -76T181 -95Q216 -95 253 -86T319 -64L305 -146Z"  />
<glyph unicode="&#xC0;" horiz-adv-x="648" d="M191 255H440L386 590L191 255ZM-64 0L333 667H469L586 0H475L449 176H149L47 0H-64ZM378 724L305 860H412L453 724H378Z"  />
<glyph unicode="&#xC1;" horiz-adv-x="648" d="M191 255H440L386 590L191 255ZM-64 0L333 667H469L586 0H475L449 176H149L47 0H-64ZM362 724L462 860H568L438 724H362Z"  />
<glyph unicode="&#xC2;" horiz-adv-x="648" d="M191 255H440L386 590L191 255ZM-64 0L333 667H469L586 0H475L449 176H149L47 0H-64ZM261 724L391 860H483L555 724H479L427 816L337 724H261Z"  />
<glyph unicode="&#xC3;" horiz-adv-x="648" d="M191 255H440L386 590L191 255ZM-64 0L333 667H469L586 0H475L449 176H149L47 0H-64ZM256 735Q261 754 271 773T296 808T330 833T372 843Q390 843 406 837T436 823T463 809T488 803Q506 803 518 817T536 846H590Q585 828 575 809T549 775T516 749T476 739Q456 739 442 745T414 758T389 772T362 778Q345 778 330 764T311 735H256Z"  />
<glyph unicode="&#xC4;" horiz-adv-x="648" d="M191 255H440L386 590L191 255ZM-64 0L333 667H469L586 0H475L449 176H149L47 0H-64ZM281 743L302 840H385L364 743H281ZM450 743L471 840H553L533 743H450Z"  />
<glyph unicode="&#xC5;" horiz-adv-x="648" d="M191 255H440L386 590L191 255ZM-64 0L333 667H469L586 0H475L449 176H149L47 0H-64ZM360 792Q360 768 376 752T415 736Q438 736 455 752T473 792Q473 815 457 831T418 848Q395 848 378 832T360 792ZM414 696Q374 696 347 723T320 792Q320 812 328 829T349 860T381 880T419 888Q459 888 486 861T513 792Q513 772 505 755T484 724T452 704T414 696Z"  />
<glyph unicode="&#xC6;" horiz-adv-x="895" d="M249 255H449L525 600L249 255ZM-69 0L475 667H906L889 588H618L574 380H832L814 302H558L510 79H791L774 0H396L432 174H188L47 0H-69Z"  />
<glyph unicode="&#xC7;" horiz-adv-x="572" d="M200 -130Q217 -138 233 -142T268 -147Q277 -147 287 -145T306 -138T321 -126T327 -107Q327 -95 318 -89T297 -82Q273 -82 253 -90L243 -70L296 -10Q230 -6 182 18T101 81T53 166T37 261Q37 361 69 438T158 569T290 649T450 677Q507 677 548 668T613 650L584 564Q533 594 448 594Q380 594 325 570T230 503T170 402T148 277Q148 233 160 196T197 131T259 88T347 72Q385 72 422 79T497 102L486 17Q454 3 415 -2T340 -10L301 -52Q310 -49 320 -49T340 -48Q363 -48 379 -61T395 -97Q395 -120 383 -137T353 -164T312 -180T271 -185Q247 -185 223 -181T177 -165L200 -130Z"  />
<glyph unicode="&#xC8;" horiz-adv-x="520" d="M11 0L153 667H531L514 588H243L199 380H457L439 302H183L135 79H416L399 0H11ZM337 724L264 860H371L412 724H337Z"  />
<glyph unicode="&#xC9;" horiz-adv-x="520" d="M11 0L153 667H531L514 588H243L199 380H457L439 302H183L135 79H416L399 0H11ZM298 724L398 860H504L374 724H298Z"  />
<glyph unicode="&#xCA;" horiz-adv-x="520" d="M11 0L153 667H531L514 588H243L199 380H457L439 302H183L135 79H416L399 0H11ZM207 724L337 860H429L501 724H425L373 816L283 724H207Z"  />
<glyph unicode="&#xCB;" horiz-adv-x="520" d="M11 0L153 667H531L514 588H243L199 380H457L439 302H183L135 79H416L399 0H11ZM228 743L249 840H332L311 743H228ZM397 743L418 840H500L480 743H397Z"  />
<glyph unicode="&#xCC;" horiz-adv-x="271" d="M11 0L153 667H261L119 0H11ZM190 724L117 860H224L265 724H190Z"  />
<glyph unicode="&#xCD;" horiz-adv-x="271" d="M11 0L153 667H261L119 0H11ZM170 724L270 860H376L246 724H170Z"  />
<glyph unicode="&#xCE;" horiz-adv-x="271" d="M11 0L153 667H261L119 0H11ZM70 724L200 860H292L364 724H288L236 816L146 724H70Z"  />
<glyph unicode="&#xCF;" horiz-adv-x="271" d="M11 0L153 667H261L119 0H11ZM95 743L116 840H199L178 743H95ZM264 743L285 840H367L347 743H264Z"  />
<glyph unicode="&#xD0;" horiz-adv-x="666" d="M11 0L75 304H0L14 374H90L153 667H348Q410 667 461 651T550 602T607 523T628 412Q628 319 601 243T520 113T391 30T216 0H11ZM136 79H190Q353 79 435 165T517 401Q517 498 466 543T320 588H243L198 374H359L344 304H183L136 79Z"  />
<glyph unicode="&#xD1;" horiz-adv-x="698" d="M11 0L153 667H305L471 94L590 667H688L545 0H393L229 572L108 0H11ZM278 735Q283 754 293 773T318 808T352 833T394 843Q412 843 428 837T458 823T485 809T510 803Q528 803 540 817T558 846H612Q607 828 597 809T571 775T538 749T498 739Q478 739 464 745T436 758T411 772T384 778Q367 778 352 764T333 735H278Z"  />
<glyph unicode="&#xD2;" horiz-adv-x="698" d="M183 119Q201 96 228 83T294 69Q360 69 408 101T488 184T535 297T550 419Q550 452 542 484T516 541T470 581T399 597Q335 597 288 563T210 477T164 362T148 241Q148 206 156 175T183 119ZM168 12Q121 36 92 72T50 153T37 239Q37 322 61 400T133 540T251 639T412 677Q480 677 527 653T604 591T647 508T661 420Q661 335 638 257T568 120T450 25T283 -11Q215 -11 168 12ZM396 724L323 860H430L471 724H396Z"  />
<glyph unicode="&#xD3;" horiz-adv-x="698" d="M183 119Q201 96 228 83T294 69Q360 69 408 101T488 184T535 297T550 419Q550 452 542 484T516 541T470 581T399 597Q335 597 288 563T210 477T164 362T148 241Q148 206 156 175T183 119ZM168 12Q121 36 92 72T50 153T37 239Q37 322 61 400T133 540T251 639T412 677Q480 677 527 653T604 591T647 508T661 420Q661 335 638 257T568 120T450 25T283 -11Q215 -11 168 12ZM380 724L480 860H586L456 724H380Z"  />
<glyph unicode="&#xD4;" horiz-adv-x="698" d="M183 119Q201 96 228 83T294 69Q360 69 408 101T488 184T535 297T550 419Q550 452 542 484T516 541T470 581T399 597Q335 597 288 563T210 477T164 362T148 241Q148 206 156 175T183 119ZM168 12Q121 36 92 72T50 153T37 239Q37 322 61 400T133 540T251 639T412 677Q480 677 527 653T604 591T647 508T661 420Q661 335 638 257T568 120T450 25T283 -11Q215 -11 168 12ZM289 724L419 860H511L583 724H507L455 816L365 724H289Z"  />
<glyph unicode="&#xD5;" horiz-adv-x="698" d="M183 119Q201 96 228 83T294 69Q360 69 408 101T488 184T535 297T550 419Q550 452 542 484T516 541T470 581T399 597Q335 597 288 563T210 477T164 362T148 241Q148 206 156 175T183 119ZM168 12Q121 36 92 72T50 153T37 239Q37 322 61 400T133 540T251 639T412 677Q480 677 527 653T604 591T647 508T661 420Q661 335 638 257T568 120T450 25T283 -11Q215 -11 168 12ZM277 735Q282 754 292 773T317 808T351 833T393 843Q411 843 427 837T457 823T484 809T509 803Q527 803 539 817T557 846H611Q606 828 596 809T570 775T537 749T497 739Q477 739 463 745T435 758T410 772T383 778Q366 778 351 764T332 735H277Z"  />
<glyph unicode="&#xD6;" horiz-adv-x="698" d="M183 119Q201 96 228 83T294 69Q360 69 408 101T488 184T535 297T550 419Q550 452 542 484T516 541T470 581T399 597Q335 597 288 563T210 477T164 362T148 241Q148 206 156 175T183 119ZM168 12Q121 36 92 72T50 153T37 239Q37 322 61 400T133 540T251 639T412 677Q480 677 527 653T604 591T647 508T661 420Q661 335 638 257T568 120T450 25T283 -11Q215 -11 168 12ZM297 743L318 840H401L380 743H297ZM466 743L487 840H569L549 743H466Z"  />
<glyph unicode="&#xD7;" horiz-adv-x="562" d="M38 63L225 250L38 436L94 493L280 305L467 492L523 436L337 250L523 63L467 7L281 194L94 8L38 63Z"  />
<glyph unicode="&#xD8;" horiz-adv-x="698" d="M9 -25L-28 16L69 108Q52 133 45 168T37 239Q37 322 61 400T133 540T251 639T412 677Q479 677 526 654T603 593L698 680L733 639L633 544Q647 512 654 481T661 420Q661 335 638 257T568 120T451 25T288 -11Q225 -11 178 9T100 63L9 -25ZM525 526Q508 557 478 577T399 597Q337 597 290 564T211 480T163 367T147 247Q147 229 149 209T155 177L525 526ZM176 129Q194 101 223 85T294 69Q359 69 407 99T486 177T534 286T551 406Q551 446 545 476L176 129Z"  />
<glyph unicode="&#xD9;" horiz-adv-x="662" d="M158 241Q155 226 153 211T151 180Q151 157 158 137T181 103T222 80T282 72Q320 72 350 85T402 120T439 174T462 242L552 667H660L570 243Q541 107 463 48T263 -11Q221 -11 182 -1T112 30T63 86T44 169Q44 186 45 203T50 240L142 667H249L158 241ZM379 724L306 860H413L454 724H379Z"  />
<glyph unicode="&#xDA;" horiz-adv-x="662" d="M158 241Q155 226 153 211T151 180Q151 157 158 137T181 103T222 80T282 72Q320 72 350 85T402 120T439 174T462 242L552 667H660L570 243Q541 107 463 48T263 -11Q221 -11 182 -1T112 30T63 86T44 169Q44 186 45 203T50 240L142 667H249L158 241ZM355 724L455 860H561L431 724H355Z"  />
<glyph unicode="&#xDB;" horiz-adv-x="662" d="M158 241Q155 226 153 211T151 180Q151 157 158 137T181 103T222 80T282 72Q320 72 350 85T402 120T439 174T462 242L552 667H660L570 243Q541 107 463 48T263 -11Q221 -11 182 -1T112 30T63 86T44 169Q44 186 45 203T50 240L142 667H249L158 241ZM265 724L395 860H487L559 724H483L431 816L341 724H265Z"  />
<glyph unicode="&#xDC;" horiz-adv-x="662" d="M158 241Q155 226 153 211T151 180Q151 157 158 137T181 103T222 80T282 72Q320 72 350 85T402 120T439 174T462 242L552 667H660L570 243Q541 107 463 48T263 -11Q221 -11 182 -1T112 30T63 86T44 169Q44 186 45 203T50 240L142 667H249L158 241ZM285 743L306 840H389L368 743H285ZM454 743L475 840H557L537 743H454Z"  />
<glyph unicode="&#xDD;" horiz-adv-x="578" d="M161 0L217 266L59 667H179L291 349L540 667H655L325 266L268 0H161ZM320 724L420 860H526L396 724H320Z"  />
<glyph unicode="&#xDE;" horiz-adv-x="551" d="M165 217H213Q255 217 292 223T357 245T401 292T417 370Q417 389 409 405T385 434T349 454T304 462H217L165 217ZM11 0L153 667H261L233 539H350Q391 539 424 526T480 490T515 439T528 379Q528 312 504 267T440 193T354 153T260 140H148L119 0H11Z"  />
<glyph unicode="&#xDF;" horiz-adv-x="568" d="M-132 -146Q-107 -151 -87 -151Q-62 -151 -45 -135T-17 -95T0 -45T11 1L118 511Q139 612 204 671T376 731Q407 731 439 724T498 700T540 658T557 595Q557 552 544 527T511 485T468 458T425 437T392 412T378 371Q378 353 388 337T413 306T446 274T479 240T504 203T514 160Q514 118 499 86T457 33T396 0T321 -11Q289 -11 258 -6T197 12L218 85Q238 73 261 66T308 59Q351 59 381 81T411 151Q411 178 390 201T344 249T298 300T277 362Q277 397 290 418T324 454T367 478T411 501T444 534T458 587Q458 608 450 622T429 644T399 656T364 660Q331 660 307 648T265 615T237 567T220 511L112 1Q104 -37 91 -77T57 -150T4 -205T-73 -227Q-93 -227 -112 -225T-151 -220L-132 -146Z"  />
<glyph unicode="&#xE0;" horiz-adv-x="570" d="M352 584L279 720H386L427 584H352ZM353 0Q354 20 358 54T369 127Q333 60 282 25T170 -11Q101 -11 63 33T25 152Q25 223 51 287T124 401T238 480T386 510Q428 510 465 505T538 490L480 220Q465 150 456 92T447 0H353ZM425 427Q401 436 371 436Q320 436 276 413T199 350T149 262T130 160Q130 114 151 89T212 63Q241 63 270 83T324 135T367 205T394 281L425 427Z"  />
<glyph unicode="&#xE1;" horiz-adv-x="570" d="M353 0Q354 20 358 54T369 127Q333 60 282 25T170 -11Q101 -11 63 33T25 152Q25 223 51 287T124 401T238 480T386 510Q428 510 465 505T538 490L480 220Q465 150 456 92T447 0H353ZM425 427Q401 436 371 436Q320 436 276 413T199 350T149 262T130 160Q130 114 151 89T212 63Q241 63 270 83T324 135T367 205T394 281L425 427ZM326 584L426 720H532L402 584H326Z"  />
<glyph unicode="&#xE2;" horiz-adv-x="570" d="M353 0Q354 20 358 54T369 127Q333 60 282 25T170 -11Q101 -11 63 33T25 152Q25 223 51 287T124 401T238 480T386 510Q428 510 465 505T538 490L480 220Q465 150 456 92T447 0H353ZM425 427Q401 436 371 436Q320 436 276 413T199 350T149 262T130 160Q130 114 151 89T212 63Q241 63 270 83T324 135T367 205T394 281L425 427ZM230 584L360 720H452L524 584H448L396 676L306 584H230Z"  />
<glyph unicode="&#xE3;" horiz-adv-x="570" d="M353 0Q354 20 358 54T369 127Q333 60 282 25T170 -11Q101 -11 63 33T25 152Q25 223 51 287T124 401T238 480T386 510Q428 510 465 505T538 490L480 220Q465 150 456 92T447 0H353ZM425 427Q401 436 371 436Q320 436 276 413T199 350T149 262T130 160Q130 114 151 89T212 63Q241 63 270 83T324 135T367 205T394 281L425 427ZM226 595Q231 614 241 633T266 668T300 693T342 703Q360 703 376 697T406 683T433 669T458 663Q476 663 488 677T506 706H560Q555 688 545 669T519 635T486 609T446 599Q426 599 412 605T384 618T359 632T332 638Q315 638 300 624T281 595H226Z"  />
<glyph unicode="&#xE4;" horiz-adv-x="570" d="M353 0Q354 20 358 54T369 127Q333 60 282 25T170 -11Q101 -11 63 33T25 152Q25 223 51 287T124 401T238 480T386 510Q428 510 465 505T538 490L480 220Q465 150 456 92T447 0H353ZM425 427Q401 436 371 436Q320 436 276 413T199 350T149 262T130 160Q130 114 151 89T212 63Q241 63 270 83T324 135T367 205T394 281L425 427ZM257 603L278 700H361L340 603H257ZM426 603L447 700H529L509 603H426Z"  />
<glyph unicode="&#xE5;" horiz-adv-x="570" d="M353 0Q354 20 358 54T369 127Q333 60 282 25T170 -11Q101 -11 63 33T25 152Q25 223 51 287T124 401T238 480T386 510Q428 510 465 505T538 490L480 220Q465 150 456 92T447 0H353ZM425 427Q401 436 371 436Q320 436 276 413T199 350T149 262T130 160Q130 114 151 89T212 63Q241 63 270 83T324 135T367 205T394 281L425 427ZM337 652Q337 628 353 612T392 596Q415 596 432 612T450 652Q450 675 434 691T395 708Q372 708 355 692T337 652ZM391 556Q351 556 324 583T297 652Q297 672 305 689T326 720T358 740T396 748Q436 748 463 721T490 652Q490 632 482 615T461 584T429 564T391 556Z"  />
<glyph unicode="&#xE6;" horiz-adv-x="855" d="M424 430Q411 435 399 436T373 437Q323 437 279 413T201 349T149 259T130 158Q130 139 133 122T145 91T169 71T207 63Q235 63 263 81T317 130T361 202T392 292L424 430ZM518 338Q501 310 491 283Q529 283 572 286T651 301T712 333T736 390Q736 421 716 432T668 444Q636 444 609 429T559 391T518 338ZM728 26Q690 6 646 -2T556 -11Q478 -11 434 25T377 127Q369 111 352 88T307 42T244 5T165 -11Q130 -11 104 1T60 34T33 84T24 147Q24 225 54 291T136 406T255 483T394 511Q433 511 467 506T521 494L502 416Q517 432 536 449T577 479T627 501T686 510Q711 510 737 504T783 485T817 450T830 397Q830 357 813 328T768 280T703 248T627 230T550 222T479 220Q474 207 472 191T470 160Q470 107 501 82T583 57Q619 57 658 67T728 98V26Z"  />
<glyph unicode="&#xE7;" horiz-adv-x="468" d="M118 -128Q141 -137 160 -140T197 -144Q220 -144 233 -135T247 -110Q247 -95 237 -89T214 -82Q203 -82 192 -83T167 -90L153 -67L201 -8Q166 -4 135 8T81 42T43 96T29 175Q29 244 51 305T115 411T216 483T347 510Q415 510 467 490L446 412Q423 425 398 430T345 436Q296 436 257 415T191 359T150 283T135 197Q135 158 146 132T176 91T220 70T274 63Q298 63 325 68T377 85L366 7Q339 -1 309 -6T246 -11L212 -52Q229 -48 249 -48Q274 -48 292 -64T311 -107Q307 -148 276 -166T196 -185Q174 -185 151 -182T101 -167L118 -128Z"  />
<glyph unicode="&#xE8;" horiz-adv-x="509" d="M175 338Q158 310 148 283Q186 283 229 286T308 301T369 333T393 390Q393 421 373 432T325 444Q293 444 266 429T216 391T175 338ZM386 26Q348 6 303 -2T213 -11Q174 -11 140 -2T80 28T39 80T24 154Q24 226 49 291T118 404T219 481T338 510Q366 510 392 504T440 485T474 450T487 397Q487 357 470 328T425 280T360 248T284 230T207 222T136 220Q131 207 129 191T127 160Q127 107 158 82T241 57Q277 57 315 67T385 98L386 26ZM304 584L231 720H338L379 584H304Z"  />
<glyph unicode="&#xE9;" horiz-adv-x="509" d="M175 338Q158 310 148 283Q186 283 229 286T308 301T369 333T393 390Q393 421 373 432T325 444Q293 444 266 429T216 391T175 338ZM386 26Q348 6 303 -2T213 -11Q174 -11 140 -2T80 28T39 80T24 154Q24 226 49 291T118 404T219 481T338 510Q366 510 392 504T440 485T474 450T487 397Q487 357 470 328T425 280T360 248T284 230T207 222T136 220Q131 207 129 191T127 160Q127 107 158 82T241 57Q277 57 315 67T385 98L386 26ZM303 584L403 720H509L379 584H303Z"  />
<glyph unicode="&#xEA;" horiz-adv-x="509" d="M175 338Q158 310 148 283Q186 283 229 286T308 301T369 333T393 390Q393 421 373 432T325 444Q293 444 266 429T216 391T175 338ZM386 26Q348 6 303 -2T213 -11Q174 -11 140 -2T80 28T39 80T24 154Q24 226 49 291T118 404T219 481T338 510Q366 510 392 504T440 485T474 450T487 397Q487 357 470 328T425 280T360 248T284 230T207 222T136 220Q131 207 129 191T127 160Q127 107 158 82T241 57Q277 57 315 67T385 98L386 26ZM195 584L325 720H417L489 584H413L361 676L271 584H195Z"  />
<glyph unicode="&#xEB;" horiz-adv-x="509" d="M175 338Q158 310 148 283Q186 283 229 286T308 301T369 333T393 390Q393 421 373 432T325 444Q293 444 266 429T216 391T175 338ZM386 26Q348 6 303 -2T213 -11Q174 -11 140 -2T80 28T39 80T24 154Q24 226 49 291T118 404T219 481T338 510Q366 510 392 504T440 485T474 450T487 397Q487 357 470 328T425 280T360 248T284 230T207 222T136 220Q131 207 129 191T127 160Q127 107 158 82T241 57Q277 57 315 67T385 98L386 26ZM221 603L242 700H325L304 603H221ZM390 603L411 700H493L473 603H390Z"  />
<glyph unicode="&#xEC;" horiz-adv-x="243" d="M7 0L112 500H213L108 0H7ZM148 584L75 720H182L223 584H148Z"  />
<glyph unicode="&#xED;" horiz-adv-x="243" d="M7 0L112 500H213L108 0H7ZM127 584L227 720H333L203 584H127Z"  />
<glyph unicode="&#xEE;" horiz-adv-x="243" d="M7 0L112 500H213L108 0H7ZM29 584L159 720H251L323 584H247L195 676L105 584H29Z"  />
<glyph unicode="&#xEF;" horiz-adv-x="243" d="M7 0L112 500H213L108 0H7ZM55 603L76 700H159L138 603H55ZM224 603L245 700H327L307 603H224Z"  />
<glyph unicode="&#xF0;" horiz-adv-x="577" d="M157 98Q170 82 189 73T237 63Q280 63 314 87T372 149T408 230T421 312Q421 363 396 395T315 427Q271 427 238 403T181 343T146 264T134 183Q134 158 139 136T157 98ZM249 538L216 578L324 634Q302 650 273 661T215 678L271 731Q313 721 349 704T405 671L518 730L552 689L449 636Q488 593 513 538T539 415Q539 341 522 265T468 128T370 28T223 -11Q182 -11 147 2T86 39T44 98T29 177Q29 238 48 295T105 398T194 470T312 498Q406 498 449 419Q447 467 427 517T372 601L249 538Z"  />
<glyph unicode="&#xF1;" horiz-adv-x="554" d="M7 0L88 385Q94 414 99 442T107 500H201L186 411Q222 460 262 485T365 510Q426 510 463 478T500 384Q500 370 498 356T493 325L425 0H324L387 302Q390 316 392 330T395 359Q395 391 378 413T317 436Q284 436 259 423T215 388T186 339T168 282L108 0H7ZM178 595Q183 614 193 633T218 668T252 693T294 703Q312 703 328 697T358 683T385 669T410 663Q428 663 440 677T458 706H512Q507 688 497 669T471 635T438 609T398 599Q378 599 364 605T336 618T311 632T284 638Q267 638 252 624T233 595H178Z"  />
<glyph unicode="&#xF2;" horiz-adv-x="577" d="M86 33Q60 55 45 89T29 169Q29 238 49 299T109 408T204 482T334 510Q374 510 409 499T472 465T514 409T530 331Q530 263 510 202T450 93T355 17T227 -11Q185 -11 149 0T86 33ZM154 98Q166 82 186 73T239 63Q282 63 316 87T375 149T412 230T425 312Q425 339 420 361T403 400T369 426T315 436Q271 436 237 412T180 350T146 268T134 185Q134 159 138 137T154 98ZM300 584L227 720H334L375 584H300Z"  />
<glyph unicode="&#xF3;" horiz-adv-x="577" d="M86 33Q60 55 45 89T29 169Q29 238 49 299T109 408T204 482T334 510Q374 510 409 499T472 465T514 409T530 331Q530 263 510 202T450 93T355 17T227 -11Q185 -11 149 0T86 33ZM154 98Q166 82 186 73T239 63Q282 63 316 87T375 149T412 230T425 312Q425 339 420 361T403 400T369 426T315 436Q271 436 237 412T180 350T146 268T134 185Q134 159 138 137T154 98ZM294 584L394 720H500L370 584H294Z"  />
<glyph unicode="&#xF4;" horiz-adv-x="577" d="M86 33Q60 55 45 89T29 169Q29 238 49 299T109 408T204 482T334 510Q374 510 409 499T472 465T514 409T530 331Q530 263 510 202T450 93T355 17T227 -11Q185 -11 149 0T86 33ZM154 98Q166 82 186 73T239 63Q282 63 316 87T375 149T412 230T425 312Q425 339 420 361T403 400T369 426T315 436Q271 436 237 412T180 350T146 268T134 185Q134 159 138 137T154 98ZM199 584L329 720H421L493 584H417L365 676L275 584H199Z"  />
<glyph unicode="&#xF5;" horiz-adv-x="577" d="M86 33Q60 55 45 89T29 169Q29 238 49 299T109 408T204 482T334 510Q374 510 409 499T472 465T514 409T530 331Q530 263 510 202T450 93T355 17T227 -11Q185 -11 149 0T86 33ZM154 98Q166 82 186 73T239 63Q282 63 316 87T375 149T412 230T425 312Q425 339 420 361T403 400T369 426T315 436Q271 436 237 412T180 350T146 268T134 185Q134 159 138 137T154 98ZM193 595Q198 614 208 633T233 668T267 693T309 703Q327 703 343 697T373 683T400 669T425 663Q443 663 455 677T473 706H527Q522 688 512 669T486 635T453 609T413 599Q393 599 379 605T351 618T326 632T299 638Q282 638 267 624T248 595H193Z"  />
<glyph unicode="&#xF6;" horiz-adv-x="577" d="M86 33Q60 55 45 89T29 169Q29 238 49 299T109 408T204 482T334 510Q374 510 409 499T472 465T514 409T530 331Q530 263 510 202T450 93T355 17T227 -11Q185 -11 149 0T86 33ZM154 98Q166 82 186 73T239 63Q282 63 316 87T375 149T412 230T425 312Q425 339 420 361T403 400T369 426T315 436Q271 436 237 412T180 350T146 268T134 185Q134 159 138 137T154 98ZM217 603L238 700H321L300 603H217ZM386 603L407 700H489L469 603H386Z"  />
<glyph unicode="&#xF7;" horiz-adv-x="562" d="M266 4Q241 4 224 21T207 65Q207 90 224 107T266 125Q291 125 308 108T326 65Q326 40 309 22T266 4ZM11 210V289H522V210H11ZM266 374Q241 374 224 391T207 434Q207 459 224 476T266 494Q291 494 308 477T326 434Q326 409 309 392T266 374Z"  />
<glyph unicode="&#xF8;" horiz-adv-x="577" d="M5 -27L-25 8L53 80Q42 100 36 126T30 173Q30 254 55 317T121 422T217 487T330 510Q372 510 411 497T477 458L552 528L584 493L506 420Q529 380 529 330Q529 264 509 203T449 94T353 18T224 -11Q182 -11 145 2T81 43L5 -27ZM405 395Q378 436 313 436Q271 436 238 414T182 356T145 278T131 197Q131 182 132 169T137 143L405 395ZM152 106Q164 85 184 74T239 63Q285 63 320 88T379 151T415 229T427 303Q427 318 426 331T421 356L152 106Z"  />
<glyph unicode="&#xF9;" horiz-adv-x="553" d="M329 0L343 90Q310 43 270 16T167 -11Q106 -11 69 22T31 117Q31 145 37 175L106 502H207L144 199Q141 185 139 171T136 142Q136 109 153 86T214 63Q247 63 272 76T315 112T344 162T362 219L421 502H523L442 116Q436 87 431 58T423 0H329ZM293 584L220 720H327L368 584H293Z"  />
<glyph unicode="&#xFA;" horiz-adv-x="553" d="M329 0L343 90Q310 43 270 16T167 -11Q106 -11 69 22T31 117Q31 145 37 175L106 502H207L144 199Q141 185 139 171T136 142Q136 109 153 86T214 63Q247 63 272 76T315 112T344 162T362 219L421 502H523L442 116Q436 87 431 58T423 0H329ZM271 584L371 720H477L347 584H271Z"  />
<glyph unicode="&#xFB;" horiz-adv-x="553" d="M329 0L343 90Q310 43 270 16T167 -11Q106 -11 69 22T31 117Q31 145 37 175L106 502H207L144 199Q141 185 139 171T136 142Q136 109 153 86T214 63Q247 63 272 76T315 112T344 162T362 219L421 502H523L442 116Q436 87 431 58T423 0H329ZM176 584L306 720H398L470 584H394L342 676L252 584H176Z"  />
<glyph unicode="&#xFC;" horiz-adv-x="553" d="M329 0L343 90Q310 43 270 16T167 -11Q106 -11 69 22T31 117Q31 145 37 175L106 502H207L144 199Q141 185 139 171T136 142Q136 109 153 86T214 63Q247 63 272 76T315 112T344 162T362 219L421 502H523L442 116Q436 87 431 58T423 0H329ZM201 603L222 700H305L284 603H201ZM370 603L391 700H473L453 603H370Z"  />
<glyph unicode="&#xFD;" horiz-adv-x="475" d="M-50 -142Q-39 -146 -27 -148T-4 -151Q14 -151 29 -145T56 -128T76 -105T90 -79L123 -13L51 500H157L197 87L398 500H503L197 -73Q179 -107 160 -135T118 -184T67 -215T3 -227Q-19 -227 -35 -225T-72 -217L-50 -142ZM236 584L336 720H442L312 584H236Z"  />
<glyph unicode="&#xFE;" horiz-adv-x="565" d="M122 71Q142 66 159 65T195 63Q243 63 283 85T351 144T395 231T411 337Q411 383 391 409T336 436Q308 436 280 419T226 372T182 305T154 226L122 71ZM-40 -216L160 721H260L188 389Q220 447 267 478T374 510Q443 510 479 464T516 346Q516 272 493 207T428 94T325 17T192 -11Q160 -11 141 -9T106 -4L62 -216H-40Z"  />
<glyph unicode="&#xFF;" horiz-adv-x="475" d="M-50 -142Q-39 -146 -27 -148T-4 -151Q14 -151 29 -145T56 -128T76 -105T90 -79L123 -13L51 500H157L197 87L398 500H503L197 -73Q179 -107 160 -135T118 -184T67 -215T3 -227Q-19 -227 -35 -225T-72 -217L-50 -142ZM164 603L185 700H268L247 603H164ZM333 603L354 700H436L416 603H333Z"  />
<glyph unicode="&#x131;" horiz-adv-x="243" d="M7 0L112 500H213L108 0H7Z"  />
<glyph unicode="&#x152;" horiz-adv-x="899" d="M433 0Q399 -6 370 -8T314 -11Q239 -11 187 8T101 62T53 145T37 249Q37 336 67 413T151 549T280 642T446 677Q473 677 499 675T557 667H911L894 588H623L578 380H836L819 302H562L514 79H796L778 0H433ZM525 588Q500 593 481 595T438 598Q368 598 314 568T223 489T167 378T148 250Q148 215 156 182T185 124T240 84T327 69Q368 69 417 80L525 588Z"  />
<glyph unicode="&#x153;" horiz-adv-x="887" d="M760 26Q722 6 678 -2T588 -11Q561 -11 534 -5T485 14T448 47T427 97Q397 48 346 19T226 -11Q184 -11 148 0T86 33T44 89T29 169Q29 238 49 299T109 408T204 482T334 510Q370 510 398 500T446 472T479 433T496 388Q508 409 529 431T579 470T641 499T712 510Q740 510 766 504T814 485T848 450T861 397Q861 357 844 328T799 280T734 248T658 230T581 222T510 220Q502 191 502 160Q502 107 533 82T615 57Q651 57 690 67T760 98V26ZM548 338Q532 310 523 283Q561 283 604 286T683 301T743 333T767 390Q767 421 747 432T699 444Q667 444 639 429T588 391T548 338ZM154 98Q166 82 186 73T239 63Q283 63 317 88T373 151T407 233T419 316Q419 369 394 402T313 436Q269 436 236 412T180 350T146 268T134 185Q134 159 138 137T154 98Z"  />
<glyph unicode="&#x160;" horiz-adv-x="499" d="M12 105Q49 88 87 78T170 68Q195 68 221 74T268 93T302 128T316 181Q316 215 299 239T256 283T200 321T144 360T101 410T83 479Q83 531 104 568T160 630T242 665T338 677Q379 677 423 671T497 651L470 569Q458 575 442 580T407 590T369 596T334 599Q309 599 284 594T239 577T207 546T194 497Q194 469 211 449T255 409T311 371T367 327T410 269T428 190Q428 137 407 100T349 37T264 1T164 -11Q125 -11 77 -5T-16 18L12 105ZM285 724L212 860H289L340 768L431 860H507L377 724H285Z"  />
<glyph unicode="&#x161;" horiz-adv-x="414" d="M11 94Q66 62 132 62Q151 62 170 65T206 78T232 102T243 142Q243 164 230 180T196 209T152 236T108 267T74 306T60 362Q60 404 77 432T122 478T185 502T255 510Q287 510 323 504T390 487L366 416Q340 429 313 434T256 440Q240 440 223 437T192 427T168 406T158 373Q158 351 172 335T206 306T251 279T295 249T330 208T344 151Q344 106 325 76T276 26T207 -2T131 -11Q93 -11 58 -6T-13 13L11 94ZM215 584L142 720H219L270 628L361 720H437L307 584H215Z"  />
<glyph unicode="&#x178;" horiz-adv-x="578" d="M161 0L217 266L59 667H179L291 349L540 667H655L325 266L268 0H161ZM243 743L264 840H347L326 743H243ZM412 743L433 840H515L495 743H412Z"  />
<glyph unicode="&#x17D;" horiz-adv-x="520" d="M-38 0L-20 86L423 585H97L115 667H560L541 581L103 82H444L427 0H-38ZM298 724L225 860H302L353 768L444 860H520L390 724H298Z"  />
<glyph unicode="&#x17E;" horiz-adv-x="452" d="M-28 0L-11 79L330 427H73L88 500H460L443 419L104 73H371L355 0H-28ZM243 584L170 720H247L298 628L389 720H465L335 584H243Z"  />
<glyph unicode="&#x192;" horiz-adv-x="562" d="M14 -147Q25 -150 35 -150T57 -151Q81 -151 97 -137T125 -101T142 -57T153 -15L225 327H117V400H240L263 505Q270 539 282 570T315 625T363 663T431 677Q468 677 501 667L495 597Q484 600 472 602T449 605Q427 605 412 595T386 569T370 534T360 498L338 400H446V327H323L250 -22Q243 -56 231 -92T200 -159T154 -208T87 -227Q67 -227 48 -226T9 -220L14 -147Z"  />
<glyph unicode="&#x2C6;" horiz-adv-x="243" d="M29 584L159 720H251L323 584H247L195 676L105 584H29Z"  />
<glyph unicode="&#x2C7;" horiz-adv-x="243" d="M133 584L60 720H137L188 628L279 720H355L225 584H133Z"  />
<glyph unicode="&#x2DA;" horiz-adv-x="243" d="M135 652Q135 628 151 612T190 596Q213 596 230 612T248 652Q248 675 232 691T193 708Q170 708 153 692T135 652ZM189 556Q149 556 122 583T95 652Q95 672 103 689T124 720T156 740T194 748Q234 748 261 721T288 652Q288 632 280 615T259 584T227 564T189 556Z"  />
<glyph unicode="&#x2DC;" horiz-adv-x="243" d="M27 595Q32 614 42 633T67 668T101 693T143 703Q161 703 177 697T207 683T234 669T259 663Q277 663 289 677T307 706H361Q356 688 346 669T320 635T287 609T247 599Q227 599 213 605T185 618T160 632T133 638Q116 638 101 624T82 595H27Z"  />
<glyph unicode="&#x2013;" horiz-adv-x="500" d="M-4 275L11 345H504L489 275H-4Z"  />
<glyph unicode="&#x2014;" horiz-adv-x="1000" d="M-4 275L11 345H1004L989 275H-4Z"  />
<glyph unicode="&#x2018;" horiz-adv-x="281" d="M85 491L218 721H293L186 491H85Z"  />
<glyph unicode="&#x2019;" horiz-adv-x="281" d="M90 491L197 721H298L165 491H90Z"  />
<glyph unicode="&#x201A;" horiz-adv-x="281" d="M-47 -128L60 103H161L28 -128H-47Z"  />
<glyph unicode="&#x201C;" horiz-adv-x="463" d="M85 491L218 721H293L186 491H85ZM267 491L400 721H475L368 491H267Z"  />
<glyph unicode="&#x201D;" horiz-adv-x="463" d="M90 491L197 721H298L165 491H90ZM272 491L379 721H480L347 491H272Z"  />
<glyph unicode="&#x201E;" horiz-adv-x="463" d="M-47 -128L60 103H161L28 -128H-47ZM135 -128L242 103H343L210 -128H135Z"  />
<glyph unicode="&#x2020;" horiz-adv-x="562" d="M126 -128L242 419H69L87 504H260L305 721H406L361 504H534L516 419H343L227 -128H126Z"  />
<glyph unicode="&#x2021;" horiz-adv-x="562" d="M127 -128L172 90H-1L17 175H190L243 419H70L88 504H261L306 721H407L362 504H535L517 419H344L291 175H464L446 90H273L228 -128H127Z"  />
<glyph unicode="&#x2022;" horiz-adv-x="562" d="M233 195Q211 205 195 222T169 261T159 310Q159 336 168 358T194 398T233 425T281 435Q306 435 329 425T368 398T395 359T405 310Q405 284 395 262T369 222T329 195T281 185Q255 185 233 195Z"  />
<glyph unicode="&#x2026;" horiz-adv-x="1000" d="M46 0L68 103H174L152 0H46ZM374 0L397 103H502L480 0H374ZM703 0L725 103H831L809 0H703Z"  />
<glyph unicode="&#x2030;" horiz-adv-x="1318" d="M144 337Q150 327 161 321T190 315Q224 315 248 343T288 411T311 491T318 556Q318 569 316 582T307 605T289 622T261 628Q227 628 203 600T163 532T140 452T133 387Q133 373 135 361T144 337ZM625 61Q637 39 672 39Q706 39 730 67T770 135T793 215T800 280Q800 293 798 306T789 329T771 346T743 352Q709 352 685 324T645 256T622 176T614 111Q614 84 625 61ZM1009 61Q1015 51 1026 45T1055 39Q1089 39 1113 67T1153 135T1176 215T1183 280Q1183 293 1181 306T1172 329T1154 346T1126 352Q1092 352 1068 324T1028 256T1005 176T998 111Q998 97 1000 85T1009 61ZM124 275Q101 285 87 302T65 344T58 395Q58 438 70 487T109 579T175 649T271 677Q334 677 363 642T393 553Q393 508 382 457T346 364T279 293T179 265Q147 265 124 275ZM220 -24L643 691H712L288 -24H220ZM606 -1Q583 9 568 26T546 68T539 119Q539 162 551 211T590 303T656 373T753 401Q816 401 845 366T875 277Q875 232 864 181T828 88T761 17T661 -11Q629 -11 606 -1ZM989 -1Q966 9 952 26T930 68T923 119Q923 162 935 211T974 303T1040 373T1136 401Q1199 401 1228 366T1258 277Q1258 232 1247 181T1211 88T1144 17T1044 -11Q1012 -11 989 -1Z"  />
<glyph unicode="&#x2039;" horiz-adv-x="284" d="M107 55L11 256L179 455H266L101 256L191 55H107Z"  />
<glyph unicode="&#x203A;" horiz-adv-x="284" d="M-17 55L148 255L58 455H142L238 255L70 55H-17Z"  />
<glyph unicode="&#x20AC;" horiz-adv-x="562" d="M13 239L37 295H106Q108 315 111 334T120 372H43L67 427H138Q156 480 188 525T262 605T356 658T466 677Q498 677 531 671T594 652L560 573Q534 585 511 589T458 594Q422 594 390 580T330 543T282 489T249 427H499L475 372H229Q224 353 220 334T213 295H442L418 239H209Q209 206 216 176T240 123T283 86T348 72Q376 72 404 76T459 91L456 5Q426 -5 395 -8T332 -11Q274 -11 231 7T160 58T117 137T103 239H13Z"  />
<glyph unicode="&#x2122;" horiz-adv-x="969" d="M184 266V607H51V667H399V607H265V266H184ZM452 266V667H574L702 348L825 667H947V266H871V616L735 266H663L525 616V266H452Z"  />
<glyph unicode="&#xE300;" horiz-adv-x="243" d="M148 724L75 860H182L223 724H148Z"  />
<glyph unicode="&#xE301;" horiz-adv-x="243" d="M127 724L227 860H333L203 724H127Z"  />
<glyph unicode="&#xE302;" horiz-adv-x="243" d="M29 724L159 860H251L323 724H247L195 816L105 724H29Z"  />
<glyph unicode="&#xE303;" horiz-adv-x="243" d="M133 724L60 860H137L188 768L279 860H355L225 724H133Z"  />
<glyph unicode="&#xE304;" horiz-adv-x="243" d="M27 735Q32 754 42 773T67 808T101 833T143 843Q161 843 177 837T207 823T234 809T259 803Q277 803 289 817T307 846H361Q356 828 346 809T320 775T287 749T247 739Q227 739 213 745T185 758T160 772T133 778Q116 778 101 764T82 735H27Z"  />
<glyph unicode="&#xE305;" horiz-adv-x="243" d="M57 743L78 840H161L140 743H57ZM226 743L247 840H329L309 743H226Z"  />
<glyph unicode="&#xE308;" horiz-adv-x="243" d="M135 792Q135 768 151 752T190 736Q213 736 230 752T248 792Q248 815 232 831T193 848Q170 848 153 832T135 792ZM189 696Q149 696 122 723T95 792Q95 812 103 829T124 860T156 880T194 888Q234 888 261 861T288 792Q288 772 280 755T259 724T227 704T189 696Z"  />

</font>
</defs>
</svg>
