<?xml  version="1.0" encoding="UTF-8"?>
<!DOCTYPE svg PUBLIC "-//W3C//DTD SVG 1.0//EN" "http://www.w3.org/TR/2001/REC-SVG-20010904/DTD/svg10.dtd" >
<svg xmlns="http://www.w3.org/2000/svg" >
<metadata>
<version>1.0</version>
<id><![CDATA[Frutiger Next W01 UltraLight Cn]]></id>
<vendor>Monotype Imaging Inc.</vendor>
<credits>
<name>Fonts.com WebFonts</name>
<URL>http://webfonts.fonts.com</URL>
<role>Home of the Web fonts</role>
</credits>
<license>
<URL>http://webfonts.fonts.com/Legal</URL>
</license>
<copyright><![CDATA[Copyright © 2007 Linotype GmbH, www.linotype.com. All rights reserved. This font software may not be reproduced, modified, disclosed or transferred without the express written approval of Linotype GmbH. Frutiger Next is a trademark of Linotype GmbH and may be registered in certain jurisdictions. This typeface is original artwork of Adrian Frutiger and Linotype Design Studio. The design may be protected in certain jurisdictions.]]></copyright>
<trademark><![CDATA[Frutiger Next is a trademark of Linotype GmbH and may be registered in certain jurisdictions.]]></trademark>
<licensee>
<name></name>
</licensee>
</metadata>
<defs >
<font horiz-adv-x="398" id="fc137e78-b09b-48d8-badd-557af133e2d6">
<font-face font-family="" panose-1="2 11 2 6 4 2 4 2 2 3" ascent="721" descent="-279" units-per-em="1000" alphabetic="0">
</font-face>
<missing-glyph horiz-adv-x="224" />

<glyph unicode="&#xA;" />
<glyph unicode="&#xD;" horiz-adv-x="0" />
<glyph unicode=" " horiz-adv-x="224" />
<glyph unicode="!" horiz-adv-x="224" d="M122 142H104L101 667H125L122 142ZM99 0V62H125V0H99Z"  />
<glyph unicode="&quot;" horiz-adv-x="335" d="M212 459V667H234V459H212ZM101 459V667H123V459H101Z"  />
<glyph unicode="#" horiz-adv-x="448" d="M112 0H91L119 233H38V253H122L142 417H56V437H145L173 667H194L166 437H301L330 667H351L323 437H404V417H320L300 253H386V233H297L269 0H248L276 233H141L112 0ZM278 253L299 417H164L143 253H278Z"  />
<glyph unicode="$" horiz-adv-x="448" d="M365 160Q365 121 355 92T327 42T285 9T232 -8V-108H207V-11H200Q168 -11 140 -6T83 13L86 35Q113 21 140 15T200 9Q230 9 256 17T301 44T332 91T343 160Q343 188 337 210T319 252T288 289T244 325L185 368Q137 403 112 439T86 526Q86 590 123 628T216 675V774H238V677H242Q276 677 300 671T349 654L346 632Q323 644 298 650T242 657Q214 657 190 649T147 624T119 583T108 526Q108 481 130 450T200 383L259 340Q310 303 337 263T365 160Z"  />
<glyph unicode="%" horiz-adv-x="700" d="M221 -24H201L482 691H502L221 -24ZM165 290Q212 290 234 336T257 473Q257 563 234 610T165 657Q118 657 96 611T73 474Q73 384 96 337T165 290ZM165 677Q220 677 249 625T279 473Q279 375 249 323T165 270Q110 270 81 322T51 474Q51 572 81 624T165 677ZM536 9Q583 9 605 55T628 192Q628 282 605 329T536 376Q489 376 467 330T444 193Q444 103 467 56T536 9ZM536 396Q591 396 620 344T650 192Q650 94 620 42T536 -11Q481 -11 452 41T422 193Q422 291 452 343T536 396Z"  />
<glyph unicode="&amp;" horiz-adv-x="500" d="M394 339V18Q351 3 317 -4T243 -11Q211 -11 179 -2T121 30T79 87T62 175Q62 211 72 241T101 295T145 332T198 349Q172 354 149 367T109 400T83 446T73 505Q73 547 86 579T123 632T176 665T238 677Q264 677 290 672T345 653L343 631Q316 647 291 652T238 657Q211 657 185 648T139 620T106 573T94 505Q94 464 108 437T145 392T194 367T245 359H372V465H394V359H477V339H394ZM372 339H245Q212 339 183 329T132 299T97 248T84 175Q84 128 98 97T136 46T187 18T243 9Q279 9 308 15T372 33V339Z"  />
<glyph unicode="&apos;" horiz-adv-x="224" d="M101 459V667H123V459H101Z"  />
<glyph unicode="(" horiz-adv-x="224" d="M55 297Q55 346 63 393T88 491T132 598T199 721H217Q178 652 151 595T108 487T84 390T77 297Q77 250 83 205T105 110T148 2T217 -128H199Q156 -58 129 -1T85 106T62 202T55 297Z"  />
<glyph unicode=")" horiz-adv-x="224" d="M169 296Q169 247 161 200T136 102T92 -5T25 -128H7Q46 -59 72 -2T115 106T139 203T147 296Q147 342 141 387T119 483T76 591T7 721H25Q68 650 95 594T139 487T162 391T169 296Z"  />
<glyph unicode="*" horiz-adv-x="350" d="M164 667H186L185 541L296 585L304 566L191 524L266 409L249 398L175 514L101 398L84 409L159 524L46 566L54 585L165 541L164 667Z"  />
<glyph unicode="+" horiz-adv-x="504" d="M263 221V0H241V221H9V241H241V463H263V241H495V221H263Z"  />
<glyph unicode="&#x2c;" horiz-adv-x="224" d="M80 -128H63L112 62H138L80 -128Z"  />
<glyph unicode="-" horiz-adv-x="267" d="M45 300V320H222V300H45Z"  />
<glyph unicode="." horiz-adv-x="224" d="M99 0V62H125V0H99Z"  />
<glyph unicode="/" horiz-adv-x="224" d="M33 0H12L190 667H211L33 0Z"  />
<glyph unicode="0" horiz-adv-x="448" d="M224 657Q186 657 159 635T113 570T85 468T76 333Q76 259 84 199T111 97T157 32T224 9Q261 9 289 31T335 96T363 198T372 333Q372 407 364 467T337 569T291 634T224 657ZM224 677Q269 677 301 653T353 585T384 477T394 333Q394 254 384 191T352 82T299 13T224 -11Q179 -11 147 13T95 81T64 189T54 333Q54 412 64 475T96 584T149 653T224 677Z"  />
<glyph unicode="1" horiz-adv-x="448" d="M240 0V642L114 516L100 533L238 667H262V0H240Z"  />
<glyph unicode="2" horiz-adv-x="448" d="M208 657Q172 657 142 646T83 616L81 637Q109 655 139 666T208 677Q271 677 310 636T349 524Q349 493 344 463T325 397T285 317T217 212L83 20H361V0H57V18L201 225Q243 285 267 328T305 405T323 467T327 524Q327 586 295 621T208 657Z"  />
<glyph unicode="3" horiz-adv-x="448" d="M189 657Q154 657 125 647T70 621L68 642Q94 658 122 667T189 677Q255 677 298 635T341 511Q341 478 332 450T308 401T272 367T228 349Q286 339 319 297T353 189Q353 97 305 43T171 -11Q135 -11 107 -6T51 11V33Q78 20 107 15T171 9Q246 9 288 56T331 189Q331 231 318 259T285 306T238 331T187 339H121V359H187Q215 359 239 369T281 398T309 446T320 511Q320 547 310 574T282 620T240 648T189 657Z"  />
<glyph unicode="4" horiz-adv-x="448" d="M322 667V185H396V165H322V0H300V165H33V183L290 667H322ZM300 185V643L59 185H300Z"  />
<glyph unicode="5" horiz-adv-x="448" d="M375 203Q375 103 327 46T197 -11Q165 -11 138 -6T84 12V35Q110 21 139 15T197 9Q269 9 311 59T353 203Q353 286 317 331T212 377Q188 377 163 373T98 351L103 667H343V647H123L119 377Q144 387 165 392T212 397Q292 397 333 346T375 203Z"  />
<glyph unicode="6" horiz-adv-x="448" d="M228 9Q302 9 341 63T381 206Q381 286 343 335T233 385Q200 385 172 372T123 335T91 280T79 214Q79 118 120 64T228 9ZM228 -11Q190 -11 158 4T103 52T67 137T54 264Q54 363 67 440T109 569T182 649T290 677Q314 677 334 674T377 662L374 640Q330 657 288 657Q231 657 191 632T125 557T87 435T71 271Q80 305 97 330T136 372T183 397T234 405Q274 405 305 390T357 349T390 286T402 206Q402 158 390 119T356 50T301 5T228 -11Z"  />
<glyph unicode="7" horiz-adv-x="448" d="M363 649L146 0H124L340 647H67V667H363V649Z"  />
<glyph unicode="8" horiz-adv-x="448" d="M50 155Q50 219 88 265T206 347Q174 366 149 384T107 422T80 466T70 522Q70 556 82 584T116 633T165 665T225 677Q258 677 286 666T334 635T367 587T379 522Q379 461 346 421T247 346Q288 323 317 302T364 259T390 211T398 154Q398 116 385 86T349 34T294 1T225 -11Q187 -11 155 0T100 33T64 85T50 155ZM91 522Q91 496 98 475T122 434T165 396T229 357Q266 375 290 393T330 431T351 473T358 522Q358 553 348 578T319 621T277 647T225 657Q198 657 174 648T131 620T102 577T91 522ZM377 154Q377 182 371 205T347 249T300 291T225 335Q140 298 106 255T71 155Q71 121 83 94T115 48T164 19T225 9Q257 9 285 19T333 47T365 93T377 154Z"  />
<glyph unicode="9" horiz-adv-x="448" d="M220 657Q146 657 107 603T67 460Q67 380 105 331T215 281Q248 281 276 294T325 331T357 385T369 452Q369 548 328 602T220 657ZM220 677Q258 677 290 662T345 614T381 529T394 402Q394 295 382 218T343 89T271 14T162 -11Q137 -11 116 -8T71 3L74 25Q97 16 119 13T165 9Q224 9 263 32T327 102T363 222T377 395Q368 360 351 335T312 294T265 269T214 261Q174 261 143 276T91 317T58 379T46 460Q46 508 58 547T92 616T147 661T220 677Z"  />
<glyph unicode=":" horiz-adv-x="224" d="M99 0V62H125V0H99ZM99 421V483H125V421H99Z"  />
<glyph unicode=";" horiz-adv-x="224" d="M99 421V483H125V421H99ZM80 -128H63L112 62H138L80 -128Z"  />
<glyph unicode="&lt;" horiz-adv-x="504" d="M9 220V241L495 434V412L33 230L495 42V20L9 220Z"  />
<glyph unicode="=" horiz-adv-x="504" d="M9 135V155H495V135H9ZM9 306V326H495V306H9Z"  />
<glyph unicode="&gt;" horiz-adv-x="504" d="M9 20V42L471 230L9 412V434L495 241V220L9 20Z"  />
<glyph unicode="?" horiz-adv-x="322" d="M273 529Q273 488 263 457T239 397T207 344T175 290T150 230T140 157V142H118V157Q118 199 128 232T152 293T184 346T216 399T241 456T251 526Q251 590 218 623T131 657Q88 657 36 633L34 654Q59 665 82 671T132 677Q196 677 234 638T273 529ZM116 0V62H142V0H116Z"  />
<glyph unicode="@" horiz-adv-x="860" d="M801 320Q801 242 784 181T740 77T679 12T611 -11Q569 -11 544 19T518 109Q491 50 453 20T368 -11Q316 -11 282 31T248 150Q248 218 269 282T328 395T415 473T525 503Q550 503 571 500T614 488L543 157Q540 144 539 135T537 112Q537 60 557 35T612 9Q643 9 673 30T726 92T764 190T779 320Q779 409 757 481T693 605T593 683T463 711Q370 711 299 672T180 566T107 410T82 222Q82 121 108 42T184 -93T304 -177T461 -207Q520 -207 569 -197T679 -159L683 -180Q652 -193 626 -202T573 -216T519 -224T459 -227Q369 -227 296 -196T170 -108T89 33T60 222Q60 325 87 417T165 580T292 690T464 731Q541 731 603 702T709 619T777 489T801 320ZM589 474Q560 483 527 483Q472 483 425 456T344 382T290 276T270 150Q270 81 298 45T372 9Q399 9 423 22T468 60T504 119T528 193L589 474Z"  />
<glyph unicode="A" horiz-adv-x="493" d="M393 197H100L34 0H11L235 667H259L482 0H459L393 197ZM106 217H387L247 640L106 217Z"  />
<glyph unicode="B" horiz-adv-x="470" d="M412 184Q412 134 396 99T349 42T277 10T184 0H90V667H196Q292 667 343 629T394 508Q394 448 360 406T263 352Q412 331 412 184ZM373 508Q373 582 327 614T196 647H111V361H210Q284 361 328 400T373 508ZM390 184Q390 228 376 258T336 306T275 333T200 341H111V20H184Q230 20 268 28T333 55T375 105T390 184Z"  />
<glyph unicode="C" horiz-adv-x="456" d="M424 8Q395 -2 369 -6T308 -11Q247 -11 200 15T120 86T71 195T54 333Q54 408 71 471T123 579T205 651T315 677Q349 677 372 673T422 658L419 636Q393 648 370 652T315 657Q258 657 214 633T139 566T92 464T76 333Q76 263 91 204T136 101T209 34T308 9Q337 9 364 14T421 30L424 8Z"  />
<glyph unicode="D" horiz-adv-x="530" d="M476 333Q476 172 404 86T197 0H90V667H202Q337 667 406 580T476 333ZM454 333Q454 485 391 566T202 647H112V20H198Q321 20 387 100T454 333Z"  />
<glyph unicode="E" horiz-adv-x="410" d="M90 0V667H351V647H112V360H340V340H112V20H362V0H90Z"  />
<glyph unicode="F" horiz-adv-x="380" d="M113 647V360H333V340H113V0H91V667H344V647H113Z"  />
<glyph unicode="G" horiz-adv-x="524" d="M313 657Q256 657 212 633T138 566T92 464T76 333Q76 262 91 203T136 101T208 33T307 9Q354 9 385 19T438 42V323H302V343H459V29Q431 12 394 1T307 -11Q246 -11 199 14T120 86T71 195T54 333Q54 408 71 471T122 580T203 651T313 677Q351 677 384 669T447 646L444 624Q384 657 313 657Z"  />
<glyph unicode="H" horiz-adv-x="524" d="M412 0V340H112V0H90V667H112V360H412V667H434V0H412Z"  />
<glyph unicode="I" horiz-adv-x="202" d="M90 0V667H112V0H90Z"  />
<glyph unicode="J" horiz-adv-x="233" d="M150 131Q150 62 127 26T46 -11Q34 -11 21 -9T-5 -2L-3 19Q10 14 22 12T46 9Q95 9 111 39T128 135V667H150V131Z"  />
<glyph unicode="K" horiz-adv-x="444" d="M411 0L112 345V0H90V667H112V356L390 667H419L136 351L442 0H411Z"  />
<glyph unicode="L" horiz-adv-x="362" d="M90 0V667H112V20H344V0H90Z"  />
<glyph unicode="M" horiz-adv-x="691" d="M601 0H579V628L358 0H334L112 629V0H90V667H121L347 28L571 667H601V0Z"  />
<glyph unicode="N" horiz-adv-x="570" d="M454 0L112 629V0H90V667H116L458 38V667H480V0H454Z"  />
<glyph unicode="O" horiz-adv-x="542" d="M271 657Q222 657 186 633T125 566T88 464T76 333Q76 263 87 204T123 101T184 34T271 9Q320 9 356 33T417 100T454 202T466 333Q466 403 455 462T419 565T358 632T271 657ZM271 677Q326 677 367 652T435 581T475 472T488 333Q488 258 474 195T433 86T366 15T271 -11Q215 -11 175 14T107 85T67 194T54 333Q54 408 68 471T109 580T176 651T271 677Z"  />
<glyph unicode="P" horiz-adv-x="432" d="M397 495Q397 405 347 363T201 321H112V0H90V667H203Q299 667 348 625T397 495ZM375 495Q375 575 332 611T203 647H112V341H201Q287 341 331 376T375 495Z"  />
<glyph unicode="Q" horiz-adv-x="542" d="M271 677Q326 677 367 652T435 581T475 472T488 333Q488 270 479 216T450 119T403 46T338 1L457 -128H426L315 -6Q292 -11 271 -11Q215 -11 175 14T107 85T67 194T54 333Q54 408 68 471T109 580T176 651T271 677ZM271 657Q222 657 186 633T125 566T88 464T76 333Q76 263 87 204T123 101T184 34T271 9Q320 9 356 33T417 100T454 202T466 333Q466 403 455 462T419 565T358 632T271 657Z"  />
<glyph unicode="R" horiz-adv-x="466" d="M206 359Q281 359 326 394T371 505Q371 581 326 614T191 647H112V359H206ZM244 345Q272 340 291 324T326 272L437 0H413L308 263Q294 300 266 319T191 339H112V0H90V667H191Q292 667 342 629T392 505Q392 436 354 395T244 345Z"  />
<glyph unicode="S" horiz-adv-x="382" d="M331 160Q331 116 318 84T283 31T230 0T166 -11Q134 -11 106 -6T49 13L52 35Q79 21 106 15T166 9Q196 9 222 17T267 44T298 91T309 160Q309 188 303 210T285 252T254 289T210 325L151 368Q103 403 78 439T52 526Q52 562 64 590T98 637T147 667T208 677Q242 677 266 671T315 654L312 632Q289 644 264 650T208 657Q180 657 156 649T113 624T85 583T74 526Q74 481 96 450T166 383L225 340Q276 303 303 263T331 160Z"  />
<glyph unicode="T" horiz-adv-x="370" d="M196 647V0H174V647H11V667H359V647H196Z"  />
<glyph unicode="U" horiz-adv-x="528" d="M445 201Q445 154 434 115T401 48T344 5T265 -11Q170 -11 127 46T83 202V667H105V202Q105 110 143 60T265 9Q346 9 384 60T423 202V667H445V201Z"  />
<glyph unicode="V" horiz-adv-x="440" d="M234 0H204L12 667H37L220 25L404 667H428L234 0Z"  />
<glyph unicode="W" horiz-adv-x="710" d="M534 0H503L356 638L204 0H173L14 667H39L189 25L343 667H368L519 25L672 667H696L534 0Z"  />
<glyph unicode="X" horiz-adv-x="453" d="M212 352L32 667H58L226 371L395 667H421L240 352L439 0H412L226 333L39 0H13L212 352Z"  />
<glyph unicode="Y" horiz-adv-x="369" d="M4 667H30L184 333L340 667H365L195 308V0H173V308L4 667Z"  />
<glyph unicode="Z" horiz-adv-x="383" d="M41 647V667H348V648L54 20H352V0H28V19L324 647H41Z"  />
<glyph unicode="[" horiz-adv-x="224" d="M83 -128V721H183V701H105V-108H183V-128H83Z"  />
<glyph unicode="\" horiz-adv-x="224" d="M189 0L12 667H34L211 0H189Z"  />
<glyph unicode="]" horiz-adv-x="224" d="M141 721V-128H41V-108H119V701H41V721H141Z"  />
<glyph unicode="^" horiz-adv-x="504" d="M242 667H266L433 260H409L253 639L94 260H71L242 667Z"  />
<glyph unicode="_" horiz-adv-x="500" d="M0 -125V-75H500V-125H0Z"  />
<glyph unicode="`" horiz-adv-x="178" d="M99 585L12 721H38L116 585H99Z"  />
<glyph unicode="a" horiz-adv-x="406" d="M198 483Q138 483 72 446L70 467Q102 484 132 493T198 503Q233 503 257 492T297 459T320 410T327 347V164Q327 142 327 126T327 92T329 54T333 0H312L308 91Q294 42 259 16T173 -11Q111 -11 75 26T38 126Q38 198 87 242T242 287H306V347Q306 408 282 445T198 483ZM306 268H243Q145 268 102 230T59 126Q59 70 90 40T175 9Q212 9 237 23T278 60T299 110T306 163V268Z"  />
<glyph unicode="b" horiz-adv-x="433" d="M98 0H78V721H100V377Q117 443 152 473T234 503Q273 503 302 483T349 429T377 346T386 243Q386 186 376 140T347 60T300 8T234 -11Q185 -11 152 18T99 117L98 0ZM234 483Q171 483 135 422T98 248Q98 135 133 72T234 9Q267 9 291 26T331 74T356 148T364 243Q364 294 357 338T333 414T293 464T234 483Z"  />
<glyph unicode="c" horiz-adv-x="348" d="M313 9Q290 -2 270 -6T221 -11Q176 -11 143 9T89 65T58 147T47 246Q47 299 58 346T92 428T149 483T228 503Q272 503 313 484L311 462Q290 473 270 478T227 483Q187 483 157 465T108 414T79 339T69 246Q69 198 78 155T105 80T153 28T222 9Q247 9 267 14T311 31L313 9Z"  />
<glyph unicode="d" horiz-adv-x="433" d="M355 173Q355 150 355 132T355 96T357 55T361 0H340L334 115Q315 45 278 17T199 -11Q160 -11 131 9T84 63T56 145T47 249Q47 306 56 352T85 432T132 484T199 503Q302 503 333 376V721H355V173ZM199 9Q263 9 299 70T335 244Q335 357 300 420T199 483Q166 483 142 466T101 418T77 344T69 249Q69 198 76 154T100 78T140 28T199 9Z"  />
<glyph unicode="e" horiz-adv-x="389" d="M68 250Q68 139 102 74T215 9Q248 9 274 16T323 35L325 13Q303 3 278 -4T215 -11Q126 -11 87 59T47 255Q47 310 58 355T89 434T138 485T202 503Q236 503 262 487T306 441T333 369T342 274V250H68ZM321 270Q321 366 291 424T202 483Q172 483 148 467T106 423T79 355T69 270H321Z"  />
<glyph unicode="f" horiz-adv-x="222" d="M184 731Q207 731 227 725L225 703Q215 707 204 708T183 710Q151 710 134 689T117 630V493H204V473H117V0H95V473H22V493H95V630Q95 676 119 703T184 731Z"  />
<glyph unicode="g" horiz-adv-x="433" d="M199 20Q262 20 298 77T335 249Q335 358 302 420T200 483Q167 483 142 466T101 419T77 346T69 254Q69 204 76 161T100 87T140 38T199 20ZM334 121Q315 53 278 27T199 0Q159 0 131 19T84 72T56 152T47 254Q47 309 56 354T85 433T133 484T200 503Q306 503 334 376V493H355V-23Q355 -68 345 -105T314 -170T261 -212T183 -227Q157 -227 129 -223T70 -207L73 -185Q102 -198 129 -202T183 -207Q262 -207 298 -157T334 -24V121Z"  />
<glyph unicode="h" horiz-adv-x="430" d="M78 721H100V396Q110 428 124 448T156 481T192 498T226 503Q261 503 285 490T324 454T345 398T352 326V0H330V321Q330 357 325 387T308 438T276 471T224 483Q195 483 172 469T133 432T109 379T100 320V0H78V721Z"  />
<glyph unicode="i" horiz-adv-x="178" d="M78 0V493H100V0H78ZM77 623V685H101V623H77Z"  />
<glyph unicode="j" horiz-adv-x="182" d="M81 623V685H105V623H81ZM104 -135Q104 -185 85 -206T30 -227Q10 -227 -2 -224L0 -203Q6 -205 13 -206T30 -207Q55 -207 68 -192T82 -131V493H104V-135Z"  />
<glyph unicode="k" horiz-adv-x="362" d="M326 0L100 272V0H78V721H100V283L305 493H334L123 278L355 0H326Z"  />
<glyph unicode="l" horiz-adv-x="178" d="M78 0V721H100V0H78Z"  />
<glyph unicode="m" horiz-adv-x="640" d="M213 483Q184 483 163 469T127 432T107 379T100 320V0H78V319Q78 343 78 361T78 398T76 439T73 493H94L97 401Q106 431 119 450T149 482T182 498T215 503Q263 503 289 475T323 395Q331 428 345 449T377 482T413 498T446 503Q506 503 534 461T562 343V0H540V338Q540 410 518 446T443 483Q415 483 394 470T359 437T338 393T331 345V0H309V341Q309 416 285 449T213 483Z"  />
<glyph unicode="n" horiz-adv-x="430" d="M226 503Q261 503 285 490T324 454T345 398T352 326V0H330V321Q330 357 325 387T308 438T276 471T224 483Q195 483 172 469T133 432T109 379T100 320V0H78V319Q78 343 78 361T78 398T76 439T73 493H94L98 393Q107 425 122 446T154 480T190 498T226 503Z"  />
<glyph unicode="o" horiz-adv-x="424" d="M212 483Q177 483 150 466T105 418T78 343T69 246Q69 193 77 150T103 75T148 26T212 9Q247 9 274 26T319 74T346 149T355 246Q355 299 347 342T321 417T276 466T212 483ZM212 503Q254 503 285 485T337 432T367 351T377 246Q377 188 366 141T334 60T283 8T212 -11Q170 -11 139 7T87 60T57 141T47 246Q47 304 58 351T90 432T141 484T212 503Z"  />
<glyph unicode="p" horiz-adv-x="430" d="M78 319Q78 343 78 361T78 398T76 439T73 493H94L99 377Q118 447 155 475T234 503Q273 503 302 483T349 429T377 346T386 243Q386 186 376 140T347 60T300 8T234 -11Q131 -11 100 116V-216H78V319ZM234 483Q170 483 134 422T98 248Q98 135 133 72T234 9Q267 9 291 26T331 74T356 148T364 243Q364 294 357 338T333 414T293 464T234 483Z"  />
<glyph unicode="q" horiz-adv-x="433" d="M199 9Q263 9 299 70T335 244Q335 357 302 420T200 483Q167 483 142 466T101 418T77 344T69 249Q69 198 76 154T100 78T140 28T199 9ZM333 113Q314 44 278 17T199 -11Q160 -11 131 9T84 63T56 145T47 249Q47 306 56 352T85 432T133 484T200 503Q306 503 334 376V493H355V-216H333V113Z"  />
<glyph unicode="r" horiz-adv-x="244" d="M97 396Q112 453 143 478T206 503Q210 503 215 503T226 501L224 478Q217 480 213 480T202 481Q184 481 166 470T133 439T109 388T100 320V0H78V319Q78 343 78 361T78 398T76 439T73 493H94L97 396Z"  />
<glyph unicode="s" horiz-adv-x="313" d="M273 113Q273 57 237 23T144 -11Q117 -11 93 -8T40 6L43 28Q71 17 94 13T144 9Q192 9 222 36T252 113Q252 133 248 149T235 180T211 208T173 236L122 268Q88 289 66 317T44 388Q44 439 78 471T167 503Q197 503 216 499T256 484L253 462Q233 473 212 478T167 483Q124 483 95 458T65 388Q65 353 84 329T139 282L190 250Q235 221 254 190T273 113Z"  />
<glyph unicode="t" horiz-adv-x="234" d="M211 -2Q198 -7 187 -9T164 -11Q128 -11 108 11T87 83V473H13V493H87V617L109 622V493H212V473H109V84Q109 43 123 26T166 9Q177 9 187 11T208 18L211 -2Z"  />
<glyph unicode="u" horiz-adv-x="425" d="M203 -11Q168 -11 144 1T106 36T85 89T78 157V493H100V162Q100 127 105 99T122 51T154 20T205 9Q234 9 256 23T294 61T317 113T325 173V493H347V174Q347 150 347 132T347 95T349 54T353 0H332L327 96Q318 65 304 45T273 12T238 -6T203 -11Z"  />
<glyph unicode="v" horiz-adv-x="337" d="M180 0H153L15 493H39L167 25L299 493H322L180 0Z"  />
<glyph unicode="w" horiz-adv-x="580" d="M434 0H405L291 464L172 0H143L17 493H41L158 26L279 493H304L420 27L540 493H563L434 0Z"  />
<glyph unicode="x" horiz-adv-x="344" d="M159 258L31 493H57L172 277L289 493H314L186 259L327 0H301L173 240L43 0H18L159 258Z"  />
<glyph unicode="y" horiz-adv-x="337" d="M138 -156Q126 -198 105 -212T64 -227Q56 -227 49 -227T30 -223L33 -202Q43 -205 50 -206T63 -207Q79 -207 93 -196T117 -150L155 -11L18 493H42L168 20L299 493H322L138 -156Z"  />
<glyph unicode="z" horiz-adv-x="326" d="M35 473V493H293V476L50 20H295V0H24V17L269 473H35Z"  />
<glyph unicode="{" horiz-adv-x="224" d="M38 305Q70 307 81 332T92 405V624Q92 678 113 699T169 721H204V701H170Q145 701 130 685T114 624V399Q114 353 102 329T64 296Q93 286 103 261T114 194V-31Q114 -76 129 -92T170 -108H204V-128H169Q134 -128 113 -107T92 -31V188Q92 235 81 258T38 287V305Z"  />
<glyph unicode="|" horiz-adv-x="204" d="M91 -216V775H113V-216H91Z"  />
<glyph unicode="}" horiz-adv-x="224" d="M186 288Q154 286 143 261T132 188V-31Q132 -85 111 -106T55 -128H20V-108H54Q79 -108 94 -92T110 -31V194Q110 240 122 264T160 297Q131 307 121 332T110 399V624Q110 669 95 685T54 701H20V721H55Q90 721 111 700T132 624V405Q132 358 143 335T186 306V288Z"  />
<glyph unicode="~" horiz-adv-x="504" d="M109 255Q30 255 21 175H-1Q4 221 31 248T109 275Q145 275 182 264T256 241T329 217T399 206Q478 206 487 286H509Q504 239 477 213T399 186Q363 186 326 197T252 220T179 244T109 255Z"  />
<glyph unicode="&#xA0;" horiz-adv-x="224" />
<glyph unicode="&#xA1;" horiz-adv-x="224" d="M102 351H120L123 -174H99L102 351ZM125 493V431H99V493H125Z"  />
<glyph unicode="&#xA2;" horiz-adv-x="448" d="M347 108Q327 99 310 95T270 89V0H248V89Q205 91 174 111T124 165T95 241T85 333Q85 381 95 424T125 500T175 553T248 576V667H270V577Q308 575 347 559L345 537Q305 557 262 557Q222 557 193 540T144 492T116 421T107 333Q107 287 115 247T142 176T188 127T257 109Q282 109 302 114T345 130L347 108Z"  />
<glyph unicode="&#xA3;" horiz-adv-x="448" d="M300 677Q329 677 352 672T401 656L398 634Q348 657 300 657Q261 657 234 644T190 608T166 554T158 489V391H324V371H158V20H390V0H58V20H136V371H62V391H136V495Q136 531 145 564T174 622T225 662T300 677Z"  />
<glyph unicode="&#xA4;" horiz-adv-x="448" d="M224 532Q262 532 293 519T349 481L411 552L426 538L363 466Q385 440 397 405T410 331Q410 291 397 257T361 195L426 122L411 108L347 180Q321 157 291 144T224 130Q186 130 155 143T100 179L37 108L22 122L86 194Q63 221 51 256T38 331Q38 370 50 404T85 465L22 538L37 552L99 480Q124 504 155 518T224 532ZM224 150Q259 150 289 163T342 201T376 258T389 331Q389 371 377 404T342 461T289 498T224 512Q189 512 159 499T107 461T72 404T59 331Q59 291 71 258T106 201T159 164T224 150Z"  />
<glyph unicode="&#xA5;" horiz-adv-x="448" d="M244 323H356V303H235V208H356V188H235V0H213V188H92V208H213V303H92V323H204L44 667H69L224 326L380 667H405L244 323Z"  />
<glyph unicode="&#xA6;" horiz-adv-x="204" d="M91 379V775H113V379H91ZM91 -216V181H113V-216H91Z"  />
<glyph unicode="&#xA7;" horiz-adv-x="448" d="M109 546Q109 577 120 601T151 642T195 668T247 677Q276 677 296 673T338 659L335 637Q315 647 294 652T247 657Q224 657 203 650T166 628T141 593T131 546Q131 514 146 488T199 439L289 383Q321 363 340 338T360 272Q360 237 339 205T276 138Q310 118 328 89T347 14Q347 -18 336 -43T306 -86T261 -113T204 -123Q175 -123 148 -118T94 -101L96 -79Q123 -92 149 -97T204 -103Q258 -103 291 -74T325 14Q325 52 311 77T264 123L159 189Q144 198 131 208T109 231T93 260T87 300Q87 335 107 364T177 429Q109 474 109 546ZM261 148Q303 183 321 214T339 272Q339 304 323 326T279 366L193 419Q146 386 127 358T108 300Q108 264 126 243T169 206L261 148Z"  />
<glyph unicode="&#xA8;" horiz-adv-x="178" d="M17 623V685H41V623H17ZM138 623V685H162V623H138Z"  />
<glyph unicode="&#xA9;" horiz-adv-x="800" d="M529 144Q507 133 479 128T424 122Q373 122 334 137T267 181T226 247T212 333Q212 379 227 418T270 485T338 530T427 546Q453 546 479 541T529 525L525 503Q503 514 477 520T427 526Q382 526 347 512T288 472T250 411T237 334Q237 291 249 256T285 195T344 156T426 142Q479 142 525 164L529 144ZM400 9Q468 9 526 32T628 97T697 199T722 332Q722 404 697 463T629 566T527 633T400 657Q332 657 274 634T172 569T103 467T78 334Q78 262 103 203T171 100T273 33T400 9ZM400 -11Q325 -11 262 14T154 85T82 194T56 334Q56 411 82 474T155 582T264 652T400 677Q475 677 538 652T646 580T718 471T744 332Q744 255 718 192T645 84T536 14T400 -11Z"  />
<glyph unicode="&#xAA;" horiz-adv-x="290" d="M217 379L214 431Q202 405 180 389T126 372Q88 372 63 395T38 457Q38 500 69 524T173 549H213V578Q213 618 197 637T145 657Q122 657 105 653T65 638L62 659Q83 667 102 672T145 677Q190 677 212 652T235 578V437Q235 424 235 414T238 379H217ZM173 530Q113 530 86 513T59 458Q59 429 78 411T126 392Q166 392 189 417T213 484V530H173Z"  />
<glyph unicode="&#xAB;" horiz-adv-x="345" d="M150 448H175L68 250L175 55H150L42 250L150 448ZM271 448H296L189 250L296 55H271L163 250L271 448Z"  />
<glyph unicode="&#xAC;" horiz-adv-x="504" d="M473 142V298H9V318H495V142H473Z"  />
<glyph unicode="&#xAD;" horiz-adv-x="267" d="M45 300V320H222V300H45Z"  />
<glyph unicode="&#xAE;" horiz-adv-x="800" d="M527 134L452 283Q440 307 421 321T370 335H313V134H291V545H394Q459 545 489 518T520 441Q520 418 511 400T487 369T453 349T413 342Q450 334 473 288L553 134H527ZM498 441Q498 479 473 502T394 525H313V354H385Q408 354 428 358T464 373T489 400T498 441ZM400 9Q468 9 526 32T628 97T697 199T722 332Q722 404 697 463T629 566T527 633T400 657Q332 657 274 634T172 569T103 467T78 334Q78 262 103 203T171 100T273 33T400 9ZM400 -11Q325 -11 262 14T154 85T82 194T56 334Q56 411 82 474T155 582T264 652T400 677Q475 677 538 652T646 580T718 471T744 332Q744 255 718 192T645 84T536 14T400 -11Z"  />
<glyph unicode="&#xAF;" horiz-adv-x="178" d="M2 646V666H177V646H2Z"  />
<glyph unicode="&#xB0;" horiz-adv-x="400" d="M199 657Q173 657 152 649T116 625T92 588T83 542Q83 491 114 458T199 425Q224 425 245 433T282 457T306 494T315 540Q315 591 284 624T199 657ZM199 677Q230 677 255 667T299 639T326 596T336 541Q336 512 326 487T298 444T254 416T199 405Q167 405 142 415T99 443T72 486T62 541Q62 570 72 595T100 638T144 666T199 677Z"  />
<glyph unicode="&#xB1;" horiz-adv-x="504" d="M263 254V67H241V254H9V274H241V454H263V274H495V254H263ZM9 0V20H495V0H9Z"  />
<glyph unicode="&#xB2;" horiz-adv-x="320" d="M45 379V397L151 516Q172 540 186 559T209 597T222 633T226 671Q226 711 205 735T145 759Q128 759 108 754T68 736L65 757Q85 769 105 774T145 779Q196 779 222 749T248 671Q248 626 228 588T166 502L72 399H256V379H45Z"  />
<glyph unicode="&#xB3;" horiz-adv-x="320" d="M259 490Q259 434 226 403T126 372Q104 372 85 374T43 384L46 405Q69 397 87 395T126 392Q180 392 209 415T238 490Q238 528 211 551T127 574H90V594H127Q173 594 202 616T231 681Q231 717 208 738T137 759Q121 759 101 755T59 740L56 760Q76 769 96 774T137 779Q197 779 224 752T252 682Q252 642 229 618T170 585Q212 580 235 555T259 490Z"  />
<glyph unicode="&#xB4;" horiz-adv-x="178" d="M79 585H62L141 721H166L79 585Z"  />
<glyph unicode="&#xB5;" horiz-adv-x="448" d="M338 96Q330 65 317 45T286 12T251 -6T215 -11Q176 -11 149 9T107 66V-216H85V493H107V157Q107 79 139 44T218 9Q248 9 270 23T307 61T329 113T336 173V493H358V174Q358 150 358 132T358 95T360 54T364 0H343L338 96Z"  />
<glyph unicode="&#xB6;" horiz-adv-x="504" d="M388 667V-108H366V647H268V-108H246V323Q204 323 171 336T116 372T81 426T69 495Q69 531 81 562T116 616T172 653T246 667H388Z"  />
<glyph unicode="&#xB7;" horiz-adv-x="224" d="M99 280V342H125V280H99Z"  />
<glyph unicode="&#xB8;" horiz-adv-x="178" d="M145 -106Q145 -130 126 -147T69 -165Q51 -165 38 -164T6 -157L9 -137Q27 -142 40 -144T69 -146Q94 -146 109 -136T124 -108Q124 -74 86 -74Q68 -74 41 -82L34 -73L80 0H100L61 -61Q78 -57 94 -57Q116 -57 130 -71T145 -106Z"  />
<glyph unicode="&#xB9;" horiz-adv-x="320" d="M168 379V746L73 674L60 690L171 772H189V379H168Z"  />
<glyph unicode="&#xBA;" horiz-adv-x="290" d="M145 392Q170 392 187 404T214 436T229 478T233 524Q233 548 229 571T215 614T188 645T145 657Q119 657 103 645T76 613T61 571T57 525Q57 501 61 478T75 435T102 404T145 392ZM145 372Q115 372 94 385T60 420T41 469T35 525Q35 551 41 578T60 627T95 663T145 677Q175 677 196 664T230 629T249 580T255 524Q255 498 249 471T230 422T195 386T145 372Z"  />
<glyph unicode="&#xBB;" horiz-adv-x="345" d="M195 55H170L277 253L170 448H195L303 253L195 55ZM74 55H49L156 253L49 448H74L182 253L74 55Z"  />
<glyph unicode="&#xBC;" horiz-adv-x="700" d="M185 -24H165L446 691H466L185 -24ZM158 277V644L63 572L50 588L161 670H179V277H158ZM555 99V0H534V99H356V118L532 393H555V119H607V99H555ZM535 365L380 119H535V365Z"  />
<glyph unicode="&#xBD;" horiz-adv-x="700" d="M172 -24H152L433 691H453L172 -24ZM154 277V644L59 572L46 588L157 670H175V277H154ZM404 0V18L510 137Q531 161 545 180T568 218T581 254T585 292Q585 332 564 356T504 380Q487 380 467 375T427 357L424 378Q444 390 464 395T504 400Q555 400 581 370T607 292Q607 247 587 209T525 123L431 20H615V0H404Z"  />
<glyph unicode="&#xBE;" horiz-adv-x="700" d="M241 -24H221L502 691H522L241 -24ZM602 99V0H581V99H403V118L579 393H602V119H654V99H602ZM582 365L427 119H582V365ZM273 388Q273 332 240 301T140 270Q118 270 99 272T57 282L60 303Q83 295 101 293T140 290Q194 290 223 313T252 388Q252 426 225 449T141 472H104V492H141Q187 492 216 514T245 579Q245 615 222 636T151 657Q135 657 115 653T73 638L70 658Q90 667 110 672T151 677Q211 677 238 650T266 580Q266 540 243 516T184 483Q226 478 249 453T273 388Z"  />
<glyph unicode="&#xBF;" horiz-adv-x="322" d="M40 -36Q40 4 50 36T74 96T106 149T138 203T163 263T173 336V351H195V336Q195 294 185 261T161 200T129 147T97 94T72 36T62 -33Q62 -97 95 -130T182 -164Q224 -164 277 -140L279 -161Q254 -172 231 -178T181 -184Q117 -184 79 -145T40 -36ZM197 493V431H171V493H197Z"  />
<glyph unicode="&#xC0;" horiz-adv-x="493" d="M393 197H100L34 0H11L235 667H259L482 0H459L393 197ZM106 217H387L247 640L106 217ZM247 724L160 860H186L264 724H247Z"  />
<glyph unicode="&#xC1;" horiz-adv-x="493" d="M393 197H100L34 0H11L235 667H259L482 0H459L393 197ZM106 217H387L247 640L106 217ZM242 724H225L304 860H329L242 724Z"  />
<glyph unicode="&#xC2;" horiz-adv-x="493" d="M393 197H100L34 0H11L235 667H259L482 0H459L393 197ZM106 217H387L247 640L106 217ZM340 724L246 846L153 724H130L234 860H259L363 724H340Z"  />
<glyph unicode="&#xC3;" horiz-adv-x="493" d="M393 197H100L34 0H11L235 667H259L482 0H459L393 197ZM106 217H387L247 640L106 217ZM298 775Q320 775 330 791T341 831H361Q360 797 343 776T297 755Q279 755 267 763T243 780T220 798T196 806Q174 806 164 790T152 750H132Q133 784 151 805T197 826Q215 826 227 818T250 801T272 783T298 775Z"  />
<glyph unicode="&#xC4;" horiz-adv-x="493" d="M393 197H100L34 0H11L235 667H259L482 0H459L393 197ZM106 217H387L247 640L106 217ZM174 761V823H198V761H174ZM295 761V823H319V761H295Z"  />
<glyph unicode="&#xC5;" horiz-adv-x="493" d="M393 197H100L34 0H11L235 667H259L482 0H459L393 197ZM106 217H387L247 640L106 217ZM247 855Q220 855 204 838T188 792Q188 765 204 747T247 729Q274 729 290 746T306 792Q306 819 290 837T247 855ZM247 875Q282 875 304 851T327 792Q327 758 305 734T247 709Q212 709 190 733T167 792Q167 826 189 850T247 875Z"  />
<glyph unicode="&#xC6;" horiz-adv-x="656" d="M597 667V647H367V360H586V340H367V20H608V0H345V197H117L19 0H-6L331 667H597ZM345 648L127 217H345V648Z"  />
<glyph unicode="&#xC7;" horiz-adv-x="456" d="M354 -106Q354 -130 335 -147T278 -165Q260 -165 247 -164T215 -157L218 -137Q236 -142 249 -144T278 -146Q303 -146 318 -136T333 -108Q333 -74 295 -74Q277 -74 250 -82L243 -73L283 -10Q227 -5 185 23T113 96T69 201T54 333Q54 408 71 471T123 579T205 651T315 677Q349 677 372 673T422 658L419 636Q393 648 370 652T315 657Q258 657 214 633T139 566T92 464T76 333Q76 263 91 204T136 101T209 34T308 9Q337 9 364 14T421 30L424 8Q395 -2 369 -6T308 -11H302L270 -61Q287 -57 303 -57Q325 -57 339 -71T354 -106Z"  />
<glyph unicode="&#xC8;" horiz-adv-x="410" d="M90 0V667H351V647H112V360H340V340H112V20H362V0H90ZM220 724L133 860H159L237 724H220Z"  />
<glyph unicode="&#xC9;" horiz-adv-x="410" d="M90 0V667H351V647H112V360H340V340H112V20H362V0H90ZM222 724H205L284 860H309L222 724Z"  />
<glyph unicode="&#xCA;" horiz-adv-x="410" d="M90 0V667H351V647H112V360H340V340H112V20H362V0H90ZM316 724L222 846L129 724H106L210 860H235L339 724H316Z"  />
<glyph unicode="&#xCB;" horiz-adv-x="410" d="M90 0V667H351V647H112V360H340V340H112V20H362V0H90ZM150 761V823H174V761H150ZM271 761V823H295V761H271Z"  />
<glyph unicode="&#xCC;" horiz-adv-x="202" d="M90 0V667H112V0H90ZM110 724L23 860H49L127 724H110Z"  />
<glyph unicode="&#xCD;" horiz-adv-x="202" d="M90 0V667H112V0H90ZM91 724H74L153 860H178L91 724Z"  />
<glyph unicode="&#xCE;" horiz-adv-x="202" d="M90 0V667H112V0H90ZM195 724L101 846L8 724H-15L89 860H114L218 724H195Z"  />
<glyph unicode="&#xCF;" horiz-adv-x="202" d="M90 0V667H112V0H90ZM29 761V823H53V761H29ZM150 761V823H174V761H150Z"  />
<glyph unicode="&#xD0;" horiz-adv-x="530" d="M476 333Q476 172 404 86T197 0H90V330H28V349H90V667H202Q337 667 406 580T476 333ZM454 333Q454 485 391 566T202 647H112V349H277V330H112V20H198Q321 20 387 100T454 333Z"  />
<glyph unicode="&#xD1;" horiz-adv-x="570" d="M454 0L112 629V0H90V667H116L458 38V667H480V0H454ZM344 775Q366 775 376 791T387 831H407Q406 797 389 776T343 755Q325 755 313 763T289 780T266 798T242 806Q220 806 210 790T198 750H178Q179 784 197 805T243 826Q261 826 273 818T296 801T318 783T344 775Z"  />
<glyph unicode="&#xD2;" horiz-adv-x="542" d="M271 657Q222 657 186 633T125 566T88 464T76 333Q76 263 87 204T123 101T184 34T271 9Q320 9 356 33T417 100T454 202T466 333Q466 403 455 462T419 565T358 632T271 657ZM271 677Q326 677 367 652T435 581T475 472T488 333Q488 258 474 195T433 86T366 15T271 -11Q215 -11 175 14T107 85T67 194T54 333Q54 408 68 471T109 580T176 651T271 677ZM268 724L181 860H207L285 724H268Z"  />
<glyph unicode="&#xD3;" horiz-adv-x="542" d="M271 657Q222 657 186 633T125 566T88 464T76 333Q76 263 87 204T123 101T184 34T271 9Q320 9 356 33T417 100T454 202T466 333Q466 403 455 462T419 565T358 632T271 657ZM271 677Q326 677 367 652T435 581T475 472T488 333Q488 258 474 195T433 86T366 15T271 -11Q215 -11 175 14T107 85T67 194T54 333Q54 408 68 471T109 580T176 651T271 677ZM270 724H253L332 860H357L270 724Z"  />
<glyph unicode="&#xD4;" horiz-adv-x="542" d="M271 657Q222 657 186 633T125 566T88 464T76 333Q76 263 87 204T123 101T184 34T271 9Q320 9 356 33T417 100T454 202T466 333Q466 403 455 462T419 565T358 632T271 657ZM271 677Q326 677 367 652T435 581T475 472T488 333Q488 258 474 195T433 86T366 15T271 -11Q215 -11 175 14T107 85T67 194T54 333Q54 408 68 471T109 580T176 651T271 677ZM364 724L270 846L177 724H154L258 860H283L387 724H364Z"  />
<glyph unicode="&#xD5;" horiz-adv-x="542" d="M271 657Q222 657 186 633T125 566T88 464T76 333Q76 263 87 204T123 101T184 34T271 9Q320 9 356 33T417 100T454 202T466 333Q466 403 455 462T419 565T358 632T271 657ZM271 677Q326 677 367 652T435 581T475 472T488 333Q488 258 474 195T433 86T366 15T271 -11Q215 -11 175 14T107 85T67 194T54 333Q54 408 68 471T109 580T176 651T271 677ZM322 775Q344 775 354 791T365 831H385Q384 797 367 776T321 755Q303 755 291 763T267 780T244 798T220 806Q198 806 188 790T176 750H156Q157 784 175 805T221 826Q239 826 251 818T274 801T296 783T322 775Z"  />
<glyph unicode="&#xD6;" horiz-adv-x="542" d="M271 657Q222 657 186 633T125 566T88 464T76 333Q76 263 87 204T123 101T184 34T271 9Q320 9 356 33T417 100T454 202T466 333Q466 403 455 462T419 565T358 632T271 657ZM271 677Q326 677 367 652T435 581T475 472T488 333Q488 258 474 195T433 86T366 15T271 -11Q215 -11 175 14T107 85T67 194T54 333Q54 408 68 471T109 580T176 651T271 677ZM198 761V823H222V761H198ZM319 761V823H343V761H319Z"  />
<glyph unicode="&#xD7;" horiz-adv-x="504" d="M30 439L44 454L252 245L460 454L474 439L266 231L474 23L460 8L252 216L44 8L30 23L237 231L30 439Z"  />
<glyph unicode="&#xD8;" horiz-adv-x="542" d="M271 677Q325 677 365 653T432 585L504 691L520 680L442 566Q465 521 476 462T488 333Q488 258 474 195T433 86T366 15T271 -11Q217 -11 177 12T110 80L38 -25L22 -14L99 99Q76 144 65 203T54 333Q54 408 68 471T109 580T176 651T271 677ZM466 333Q466 396 457 450T428 546L123 100Q147 57 183 33T271 9Q320 9 356 33T417 100T454 202T466 333ZM271 657Q222 657 186 633T125 566T88 464T76 333Q76 270 85 216T113 120L418 566Q394 609 358 633T271 657Z"  />
<glyph unicode="&#xD9;" horiz-adv-x="528" d="M445 201Q445 154 434 115T401 48T344 5T265 -11Q170 -11 127 46T83 202V667H105V202Q105 110 143 60T265 9Q346 9 384 60T423 202V667H445V201ZM272 724L185 860H211L289 724H272Z"  />
<glyph unicode="&#xDA;" horiz-adv-x="528" d="M445 201Q445 154 434 115T401 48T344 5T265 -11Q170 -11 127 46T83 202V667H105V202Q105 110 143 60T265 9Q346 9 384 60T423 202V667H445V201ZM256 724H239L318 860H343L256 724Z"  />
<glyph unicode="&#xDB;" horiz-adv-x="528" d="M445 201Q445 154 434 115T401 48T344 5T265 -11Q170 -11 127 46T83 202V667H105V202Q105 110 143 60T265 9Q346 9 384 60T423 202V667H445V201ZM359 724L265 846L172 724H149L253 860H278L382 724H359Z"  />
<glyph unicode="&#xDC;" horiz-adv-x="528" d="M445 201Q445 154 434 115T401 48T344 5T265 -11Q170 -11 127 46T83 202V667H105V202Q105 110 143 60T265 9Q346 9 384 60T423 202V667H445V201ZM193 761V823H217V761H193ZM314 761V823H338V761H314Z"  />
<glyph unicode="&#xDD;" horiz-adv-x="369" d="M4 667H30L184 333L340 667H365L195 308V0H173V308L4 667ZM183 724H166L245 860H270L183 724Z"  />
<glyph unicode="&#xDE;" horiz-adv-x="446" d="M90 0V667H112V517H199Q298 517 347 475T397 345Q397 255 347 213T197 171H112V0H90ZM375 345Q375 425 331 461T199 497H112V191H197Q286 191 330 226T375 345Z"  />
<glyph unicode="&#xDF;" horiz-adv-x="421" d="M324 503Q326 517 326 529T326 554Q326 627 302 669T225 711Q192 711 169 698T130 661T108 605T101 534V0H79V536Q79 573 86 608T110 670T155 714T225 731Q289 731 318 685T347 553Q347 547 347 537T346 517T345 498T343 483H327Q275 483 243 458T211 386Q211 358 223 336T255 295T296 257T337 217T368 171T381 113Q381 54 348 22T266 -11Q246 -11 231 -9T192 1L195 23Q218 15 232 12T266 9Q306 9 332 34T359 113Q359 143 347 166T315 209T275 247T234 286T203 330T190 386Q190 412 200 433T228 470T270 494T324 503Z"  />
<glyph unicode="&#xE0;" horiz-adv-x="406" d="M198 483Q138 483 72 446L70 467Q102 484 132 493T198 503Q233 503 257 492T297 459T320 410T327 347V164Q327 142 327 126T327 92T329 54T333 0H312L308 91Q294 42 259 16T173 -11Q111 -11 75 26T38 126Q38 198 87 242T242 287H306V347Q306 408 282 445T198 483ZM306 268H243Q145 268 102 230T59 126Q59 70 90 40T175 9Q212 9 237 23T278 60T299 110T306 163V268ZM193 585L106 721H132L210 585H193Z"  />
<glyph unicode="&#xE1;" horiz-adv-x="406" d="M198 483Q138 483 72 446L70 467Q102 484 132 493T198 503Q233 503 257 492T297 459T320 410T327 347V164Q327 142 327 126T327 92T329 54T333 0H312L308 91Q294 42 259 16T173 -11Q111 -11 75 26T38 126Q38 198 87 242T242 287H306V347Q306 408 282 445T198 483ZM306 268H243Q145 268 102 230T59 126Q59 70 90 40T175 9Q212 9 237 23T278 60T299 110T306 163V268ZM194 585H177L256 721H281L194 585Z"  />
<glyph unicode="&#xE2;" horiz-adv-x="406" d="M198 483Q138 483 72 446L70 467Q102 484 132 493T198 503Q233 503 257 492T297 459T320 410T327 347V164Q327 142 327 126T327 92T329 54T333 0H312L308 91Q294 42 259 16T173 -11Q111 -11 75 26T38 126Q38 198 87 242T242 287H306V347Q306 408 282 445T198 483ZM306 268H243Q145 268 102 230T59 126Q59 70 90 40T175 9Q212 9 237 23T278 60T299 110T306 163V268ZM288 585L194 707L101 585H78L182 721H207L311 585H288Z"  />
<glyph unicode="&#xE3;" horiz-adv-x="406" d="M198 483Q138 483 72 446L70 467Q102 484 132 493T198 503Q233 503 257 492T297 459T320 410T327 347V164Q327 142 327 126T327 92T329 54T333 0H312L308 91Q294 42 259 16T173 -11Q111 -11 75 26T38 126Q38 198 87 242T242 287H306V347Q306 408 282 445T198 483ZM306 268H243Q145 268 102 230T59 126Q59 70 90 40T175 9Q212 9 237 23T278 60T299 110T306 163V268ZM244 637Q266 637 276 653T287 693H307Q306 659 289 638T243 617Q225 617 213 625T189 642T166 660T142 668Q120 668 110 652T98 612H78Q79 646 97 667T143 688Q161 688 173 680T196 663T218 645T244 637Z"  />
<glyph unicode="&#xE4;" horiz-adv-x="406" d="M198 483Q138 483 72 446L70 467Q102 484 132 493T198 503Q233 503 257 492T297 459T320 410T327 347V164Q327 142 327 126T327 92T329 54T333 0H312L308 91Q294 42 259 16T173 -11Q111 -11 75 26T38 126Q38 198 87 242T242 287H306V347Q306 408 282 445T198 483ZM306 268H243Q145 268 102 230T59 126Q59 70 90 40T175 9Q212 9 237 23T278 60T299 110T306 163V268ZM122 623V685H146V623H122ZM243 623V685H267V623H243Z"  />
<glyph unicode="&#xE5;" horiz-adv-x="406" d="M198 483Q138 483 72 446L70 467Q102 484 132 493T198 503Q233 503 257 492T297 459T320 410T327 347V164Q327 142 327 126T327 92T329 54T333 0H312L308 91Q294 42 259 16T173 -11Q111 -11 75 26T38 126Q38 198 87 242T242 287H306V347Q306 408 282 445T198 483ZM306 268H243Q145 268 102 230T59 126Q59 70 90 40T175 9Q212 9 237 23T278 60T299 110T306 163V268ZM194 717Q167 717 151 700T135 654Q135 627 151 609T194 591Q221 591 237 608T253 654Q253 681 237 699T194 717ZM194 737Q229 737 251 713T274 654Q274 620 252 596T194 571Q159 571 137 595T114 654Q114 688 136 712T194 737Z"  />
<glyph unicode="&#xE6;" horiz-adv-x="624" d="M316 258Q316 138 346 74T453 9Q486 9 510 16T558 35L560 13Q538 3 514 -4T453 -11Q393 -11 359 24T310 116Q297 48 259 19T172 -11Q112 -11 75 25T38 123Q38 192 88 234T244 277H295V347Q295 377 291 402T275 445T246 473T200 483Q138 483 72 446L70 467Q102 484 133 493T200 503Q257 503 282 469T312 381Q346 503 437 503Q471 503 497 487T541 442T568 372T577 281V258H316ZM295 258H245Q147 258 103 222T59 123Q59 69 90 39T174 9Q209 9 232 23T269 60T289 110T295 163V258ZM556 277Q556 323 549 361T526 426T489 468T437 483Q408 483 386 468T349 426T325 361T317 277H556Z"  />
<glyph unicode="&#xE7;" horiz-adv-x="348" d="M280 -106Q280 -130 261 -147T204 -165Q186 -165 173 -164T141 -157L144 -137Q162 -142 175 -144T204 -146Q229 -146 244 -136T259 -108Q259 -74 221 -74Q203 -74 176 -82L169 -73L208 -10Q166 -7 136 14T86 71T57 151T47 246Q47 299 58 346T92 428T149 483T228 503Q272 503 313 484L311 462Q290 473 270 478T227 483Q187 483 157 465T108 414T79 339T69 246Q69 198 78 155T105 80T153 28T222 9Q247 9 267 14T311 31L313 9Q292 -1 273 -5T228 -11L196 -61Q213 -57 229 -57Q251 -57 265 -71T280 -106Z"  />
<glyph unicode="&#xE8;" horiz-adv-x="389" d="M68 250Q68 139 102 74T215 9Q248 9 274 16T323 35L325 13Q303 3 278 -4T215 -11Q126 -11 87 59T47 255Q47 310 58 355T89 434T138 485T202 503Q236 503 262 487T306 441T333 369T342 274V250H68ZM321 270Q321 366 291 424T202 483Q172 483 148 467T106 423T79 355T69 270H321ZM200 585L113 721H139L217 585H200Z"  />
<glyph unicode="&#xE9;" horiz-adv-x="389" d="M68 250Q68 139 102 74T215 9Q248 9 274 16T323 35L325 13Q303 3 278 -4T215 -11Q126 -11 87 59T47 255Q47 310 58 355T89 434T138 485T202 503Q236 503 262 487T306 441T333 369T342 274V250H68ZM321 270Q321 366 291 424T202 483Q172 483 148 467T106 423T79 355T69 270H321ZM201 585H184L263 721H288L201 585Z"  />
<glyph unicode="&#xEA;" horiz-adv-x="389" d="M68 250Q68 139 102 74T215 9Q248 9 274 16T323 35L325 13Q303 3 278 -4T215 -11Q126 -11 87 59T47 255Q47 310 58 355T89 434T138 485T202 503Q236 503 262 487T306 441T333 369T342 274V250H68ZM321 270Q321 366 291 424T202 483Q172 483 148 467T106 423T79 355T69 270H321ZM295 585L201 707L108 585H85L189 721H214L318 585H295Z"  />
<glyph unicode="&#xEB;" horiz-adv-x="389" d="M68 250Q68 139 102 74T215 9Q248 9 274 16T323 35L325 13Q303 3 278 -4T215 -11Q126 -11 87 59T47 255Q47 310 58 355T89 434T138 485T202 503Q236 503 262 487T306 441T333 369T342 274V250H68ZM321 270Q321 366 291 424T202 483Q172 483 148 467T106 423T79 355T69 270H321ZM129 623V685H153V623H129ZM250 623V685H274V623H250Z"  />
<glyph unicode="&#xEC;" horiz-adv-x="178" d="M78 0V493H100V0H78ZM99 585L12 721H38L116 585H99Z"  />
<glyph unicode="&#xED;" horiz-adv-x="178" d="M78 0V493H100V0H78ZM79 585H62L141 721H166L79 585Z"  />
<glyph unicode="&#xEE;" horiz-adv-x="178" d="M78 0V493H100V0H78ZM183 585L89 707L-4 585H-27L77 721H102L206 585H183Z"  />
<glyph unicode="&#xEF;" horiz-adv-x="178" d="M78 0V493H100V0H78ZM17 623V685H41V623H17ZM138 623V685H162V623H138Z"  />
<glyph unicode="&#xF0;" horiz-adv-x="424" d="M226 652Q204 669 178 681T122 702L126 721Q188 705 241 664L309 721L320 707L256 653Q282 629 304 597T341 519T366 414T375 276Q375 212 366 160T337 69T286 10T210 -11Q166 -11 135 10T85 66T56 146T47 238Q47 287 56 332T86 413T137 470T211 491Q260 491 298 460T358 351Q349 451 321 524T241 641L164 580L153 594L226 652ZM211 471Q172 471 145 452T101 400T77 325T69 238Q69 193 76 152T101 79T144 28T210 9Q250 9 277 30T322 86T347 165T355 254Q355 300 346 340T318 409T272 454T211 471Z"  />
<glyph unicode="&#xF1;" horiz-adv-x="430" d="M226 503Q261 503 285 490T324 454T345 398T352 326V0H330V321Q330 357 325 387T308 438T276 471T224 483Q195 483 172 469T133 432T109 379T100 320V0H78V319Q78 343 78 361T78 398T76 439T73 493H94L98 393Q107 425 122 446T154 480T190 498T226 503ZM266 637Q288 637 298 653T309 693H329Q328 659 311 638T265 617Q247 617 235 625T211 642T188 660T164 668Q142 668 132 652T120 612H100Q101 646 119 667T165 688Q183 688 195 680T218 663T240 645T266 637Z"  />
<glyph unicode="&#xF2;" horiz-adv-x="424" d="M212 483Q177 483 150 466T105 418T78 343T69 246Q69 193 77 150T103 75T148 26T212 9Q247 9 274 26T319 74T346 149T355 246Q355 299 347 342T321 417T276 466T212 483ZM212 503Q254 503 285 485T337 432T367 351T377 246Q377 188 366 141T334 60T283 8T212 -11Q170 -11 139 7T87 60T57 141T47 246Q47 304 58 351T90 432T141 484T212 503ZM210 585L123 721H149L227 585H210Z"  />
<glyph unicode="&#xF3;" horiz-adv-x="424" d="M212 483Q177 483 150 466T105 418T78 343T69 246Q69 193 77 150T103 75T148 26T212 9Q247 9 274 26T319 74T346 149T355 246Q355 299 347 342T321 417T276 466T212 483ZM212 503Q254 503 285 485T337 432T367 351T377 246Q377 188 366 141T334 60T283 8T212 -11Q170 -11 139 7T87 60T57 141T47 246Q47 304 58 351T90 432T141 484T212 503ZM211 585H194L273 721H298L211 585Z"  />
<glyph unicode="&#xF4;" horiz-adv-x="424" d="M212 483Q177 483 150 466T105 418T78 343T69 246Q69 193 77 150T103 75T148 26T212 9Q247 9 274 26T319 74T346 149T355 246Q355 299 347 342T321 417T276 466T212 483ZM212 503Q254 503 285 485T337 432T367 351T377 246Q377 188 366 141T334 60T283 8T212 -11Q170 -11 139 7T87 60T57 141T47 246Q47 304 58 351T90 432T141 484T212 503ZM305 585L211 707L118 585H95L199 721H224L328 585H305Z"  />
<glyph unicode="&#xF5;" horiz-adv-x="424" d="M212 483Q177 483 150 466T105 418T78 343T69 246Q69 193 77 150T103 75T148 26T212 9Q247 9 274 26T319 74T346 149T355 246Q355 299 347 342T321 417T276 466T212 483ZM212 503Q254 503 285 485T337 432T367 351T377 246Q377 188 366 141T334 60T283 8T212 -11Q170 -11 139 7T87 60T57 141T47 246Q47 304 58 351T90 432T141 484T212 503ZM263 637Q285 637 295 653T306 693H326Q325 659 308 638T262 617Q244 617 232 625T208 642T185 660T161 668Q139 668 129 652T117 612H97Q98 646 116 667T162 688Q180 688 192 680T215 663T237 645T263 637Z"  />
<glyph unicode="&#xF6;" horiz-adv-x="424" d="M212 483Q177 483 150 466T105 418T78 343T69 246Q69 193 77 150T103 75T148 26T212 9Q247 9 274 26T319 74T346 149T355 246Q355 299 347 342T321 417T276 466T212 483ZM212 503Q254 503 285 485T337 432T367 351T377 246Q377 188 366 141T334 60T283 8T212 -11Q170 -11 139 7T87 60T57 141T47 246Q47 304 58 351T90 432T141 484T212 503ZM139 623V685H163V623H139ZM260 623V685H284V623H260Z"  />
<glyph unicode="&#xF7;" horiz-adv-x="504" d="M9 230V250H495V230H9ZM284 48Q284 35 275 26T252 16Q238 16 229 25T220 48Q220 62 229 71T252 81Q266 81 275 72T284 48ZM284 432Q284 419 275 410T252 400Q238 400 229 409T220 432Q220 446 229 455T252 465Q266 465 275 456T284 432Z"  />
<glyph unicode="&#xF8;" horiz-adv-x="424" d="M212 503Q254 503 284 485T335 435L392 516L407 505L345 417Q377 350 377 246Q377 188 366 141T334 60T283 8T212 -11Q170 -11 140 6T89 56L32 -25L17 -14L79 74Q62 107 55 150T47 246Q47 304 58 351T90 432T141 484T212 503ZM212 483Q177 483 150 466T105 418T78 343T69 246Q69 201 74 163T93 94L321 416Q304 448 277 465T212 483ZM355 246Q355 291 349 329T330 397L103 75Q120 43 147 26T212 9Q247 9 274 26T319 74T346 149T355 246Z"  />
<glyph unicode="&#xF9;" horiz-adv-x="425" d="M203 -11Q168 -11 144 1T106 36T85 89T78 157V493H100V162Q100 127 105 99T122 51T154 20T205 9Q234 9 256 23T294 61T317 113T325 173V493H347V174Q347 150 347 132T347 95T349 54T353 0H332L327 96Q318 65 304 45T273 12T238 -6T203 -11ZM208 585L121 721H147L225 585H208Z"  />
<glyph unicode="&#xFA;" horiz-adv-x="425" d="M203 -11Q168 -11 144 1T106 36T85 89T78 157V493H100V162Q100 127 105 99T122 51T154 20T205 9Q234 9 256 23T294 61T317 113T325 173V493H347V174Q347 150 347 132T347 95T349 54T353 0H332L327 96Q318 65 304 45T273 12T238 -6T203 -11ZM208 585H191L270 721H295L208 585Z"  />
<glyph unicode="&#xFB;" horiz-adv-x="425" d="M203 -11Q168 -11 144 1T106 36T85 89T78 157V493H100V162Q100 127 105 99T122 51T154 20T205 9Q234 9 256 23T294 61T317 113T325 173V493H347V174Q347 150 347 132T347 95T349 54T353 0H332L327 96Q318 65 304 45T273 12T238 -6T203 -11ZM307 585L213 707L120 585H97L201 721H226L330 585H307Z"  />
<glyph unicode="&#xFC;" horiz-adv-x="425" d="M203 -11Q168 -11 144 1T106 36T85 89T78 157V493H100V162Q100 127 105 99T122 51T154 20T205 9Q234 9 256 23T294 61T317 113T325 173V493H347V174Q347 150 347 132T347 95T349 54T353 0H332L327 96Q318 65 304 45T273 12T238 -6T203 -11ZM141 623V685H165V623H141ZM262 623V685H286V623H262Z"  />
<glyph unicode="&#xFD;" horiz-adv-x="337" d="M138 -156Q126 -198 105 -212T64 -227Q56 -227 49 -227T30 -223L33 -202Q43 -205 50 -206T63 -207Q79 -207 93 -196T117 -150L155 -11L18 493H42L168 20L299 493H322L138 -156ZM170 585H153L232 721H257L170 585Z"  />
<glyph unicode="&#xFE;" horiz-adv-x="430" d="M98 248Q98 135 133 72T234 9Q267 9 291 26T331 74T356 148T364 243Q364 294 357 338T333 414T293 464T234 483Q171 483 135 422T98 248ZM100 721V377Q117 443 152 473T234 503Q273 503 302 483T349 429T377 346T386 243Q386 186 376 140T347 60T300 8T234 -11Q131 -11 100 116V-216H78V721H100Z"  />
<glyph unicode="&#xFF;" horiz-adv-x="337" d="M138 -156Q126 -198 105 -212T64 -227Q56 -227 49 -227T30 -223L33 -202Q43 -205 50 -206T63 -207Q79 -207 93 -196T117 -150L155 -11L18 493H42L168 20L299 493H322L138 -156ZM98 623V685H122V623H98ZM219 623V685H243V623H219Z"  />
<glyph unicode="&#x131;" horiz-adv-x="178" d="M78 0V493H100V0H78Z"  />
<glyph unicode="&#x152;" horiz-adv-x="675" d="M363 0Q340 -5 320 -8T274 -11Q217 -11 176 14T107 85T67 194T54 333Q54 408 68 471T109 580T178 651T274 677Q300 677 321 675T363 667H616V647H386V360H605V340H386V20H627V0H363ZM274 657Q224 657 187 633T125 566T88 464T76 333Q76 263 87 204T123 101T185 34T274 9Q299 9 319 12T364 22V645Q322 657 274 657Z"  />
<glyph unicode="&#x153;" horiz-adv-x="675" d="M212 503Q275 503 309 463T356 350Q370 430 405 466T488 503Q522 503 548 487T592 442T619 372T628 281V258H367Q367 138 397 74T504 9Q537 9 561 16T609 35L611 13Q589 3 565 -4T504 -11Q447 -11 408 24T357 141Q343 69 308 29T212 -11Q170 -11 139 7T87 60T57 141T47 246Q47 304 58 351T90 432T141 484T212 503ZM212 483Q177 483 150 466T105 418T78 343T69 246Q69 193 77 150T103 75T148 26T212 9Q247 9 272 26T314 74T338 149T346 246Q346 299 339 342T316 417T275 466T212 483ZM607 277Q607 323 600 361T577 426T540 468T488 483Q459 483 437 468T400 426T376 361T368 277H607Z"  />
<glyph unicode="&#x160;" horiz-adv-x="382" d="M331 160Q331 116 318 84T283 31T230 0T166 -11Q134 -11 106 -6T49 13L52 35Q79 21 106 15T166 9Q196 9 222 17T267 44T298 91T309 160Q309 188 303 210T285 252T254 289T210 325L151 368Q103 403 78 439T52 526Q52 562 64 590T98 637T147 667T208 677Q242 677 266 671T315 654L312 632Q289 644 264 650T208 657Q180 657 156 649T113 624T85 583T74 526Q74 481 96 450T166 383L225 340Q276 303 303 263T331 160ZM107 860L201 738L294 860H317L213 724H188L84 860H107Z"  />
<glyph unicode="&#x161;" horiz-adv-x="313" d="M273 113Q273 57 237 23T144 -11Q117 -11 93 -8T40 6L43 28Q71 17 94 13T144 9Q192 9 222 36T252 113Q252 133 248 149T235 180T211 208T173 236L122 268Q88 289 66 317T44 388Q44 439 78 471T167 503Q197 503 216 499T256 484L253 462Q233 473 212 478T167 483Q124 483 95 458T65 388Q65 353 84 329T139 282L190 250Q235 221 254 190T273 113ZM69 721L163 599L256 721H279L175 585H150L46 721H69Z"  />
<glyph unicode="&#x178;" horiz-adv-x="369" d="M4 667H30L184 333L340 667H365L195 308V0H173V308L4 667ZM112 761V823H136V761H112ZM233 761V823H257V761H233Z"  />
<glyph unicode="&#x17D;" horiz-adv-x="383" d="M41 647V667H348V648L54 20H352V0H28V19L324 647H41ZM101 860L195 738L288 860H311L207 724H182L78 860H101Z"  />
<glyph unicode="&#x17E;" horiz-adv-x="326" d="M35 473V493H293V476L50 20H295V0H24V17L269 473H35ZM69 721L163 599L256 721H279L175 585H150L46 721H69Z"  />
<glyph unicode="&#x192;" horiz-adv-x="448" d="M350 657Q313 657 296 632T267 559L232 400H322V380H227L127 -103Q113 -169 87 -198T22 -227Q14 -227 5 -226T-14 -223L-13 -202Q7 -207 22 -207Q52 -207 72 -183T105 -99L205 380H122V400H210L246 563Q258 619 281 648T350 677Q358 677 367 676T389 671L386 649Q374 654 366 655T350 657Z"  />
<glyph unicode="&#x2C6;" horiz-adv-x="178" d="M183 585L89 707L-4 585H-27L77 721H102L206 585H183Z"  />
<glyph unicode="&#x2C7;" horiz-adv-x="178" d="M-4 721L90 599L183 721H206L102 585H77L-27 721H-4Z"  />
<glyph unicode="&#x2DA;" horiz-adv-x="178" d="M90 717Q63 717 47 700T31 654Q31 627 47 609T90 591Q117 591 133 608T149 654Q149 681 133 699T90 717ZM90 737Q125 737 147 713T170 654Q170 620 148 596T90 571Q55 571 33 595T10 654Q10 688 32 712T90 737Z"  />
<glyph unicode="&#x2DC;" horiz-adv-x="178" d="M141 637Q163 637 173 653T184 693H204Q203 659 186 638T140 617Q122 617 110 625T86 642T63 660T39 668Q17 668 7 652T-5 612H-25Q-24 646 -6 667T40 688Q58 688 70 680T93 663T115 645T141 637Z"  />
<glyph unicode="&#x2013;" horiz-adv-x="500" d="M500 320V300H0V320H500Z"  />
<glyph unicode="&#x2014;" horiz-adv-x="1000" d="M0 300V320H1000V300H0Z"  />
<glyph unicode="&#x2018;" horiz-adv-x="224" d="M144 721H161L112 531H86L144 721Z"  />
<glyph unicode="&#x2019;" horiz-adv-x="224" d="M104 531H87L136 721H162L104 531Z"  />
<glyph unicode="&#x201A;" horiz-adv-x="224" d="M80 -128H63L112 62H138L80 -128Z"  />
<glyph unicode="&#x201C;" horiz-adv-x="345" d="M265 721H282L233 531H207L265 721ZM144 721H161L112 531H86L144 721Z"  />
<glyph unicode="&#x201D;" horiz-adv-x="345" d="M104 531H87L136 721H162L104 531ZM225 531H208L257 721H283L225 531Z"  />
<glyph unicode="&#x201E;" horiz-adv-x="345" d="M80 -128H63L112 62H138L80 -128ZM201 -128H184L233 62H259L201 -128Z"  />
<glyph unicode="&#x2020;" horiz-adv-x="448" d="M235 451V-128H213V451H79V471H213V721H235V471H369V451H235Z"  />
<glyph unicode="&#x2021;" horiz-adv-x="448" d="M235 451V144H369V124H235V-128H213V124H79V144H213V451H79V471H213V721H235V471H369V451H235Z"  />
<glyph unicode="&#x2022;" horiz-adv-x="448" d="M317 311Q317 292 310 275T290 246T260 226T224 218Q205 218 188 225T159 245T139 275T131 311Q131 330 138 347T158 376T188 396T224 404Q243 404 260 397T289 377T309 347T317 311Z"  />
<glyph unicode="&#x2026;" horiz-adv-x="1000" d="M154 0V62H180V0H154ZM486 0V62H512V0H486ZM820 0V62H846V0H820Z"  />
<glyph unicode="&#x2030;" horiz-adv-x="990" d="M221 -24H201L482 691H502L221 -24ZM165 290Q212 290 234 336T257 473Q257 563 234 610T165 657Q118 657 96 611T73 474Q73 384 96 337T165 290ZM165 677Q220 677 249 625T279 473Q279 375 249 323T165 270Q110 270 81 322T51 474Q51 572 81 624T165 677ZM536 9Q583 9 605 55T628 192Q628 282 605 329T536 376Q489 376 467 330T444 193Q444 103 467 56T536 9ZM536 396Q591 396 620 344T650 192Q650 94 620 42T536 -11Q481 -11 452 41T422 193Q422 291 452 343T536 396ZM826 9Q873 9 895 55T918 192Q918 282 895 329T826 376Q779 376 757 330T734 193Q734 103 757 56T826 9ZM826 396Q881 396 910 344T940 192Q940 94 910 42T826 -11Q771 -11 742 41T712 193Q712 291 742 343T826 396Z"  />
<glyph unicode="&#x2039;" horiz-adv-x="224" d="M150 448H175L68 250L175 55H150L42 250L150 448Z"  />
<glyph unicode="&#x203A;" horiz-adv-x="224" d="M74 55H49L156 253L49 448H74L182 253L74 55Z"  />
<glyph unicode="&#x20AC;" horiz-adv-x="448" d="M129 260Q140 132 189 71T307 9Q333 9 350 13T391 28L394 6Q372 -2 354 -6T307 -11Q228 -11 174 55T107 260H41L45 280H105Q104 293 104 306T104 333Q104 347 104 360T106 387H42L46 407H108Q121 539 175 608T309 677Q336 677 354 673T395 660L391 639Q371 649 352 653T309 657Q238 657 190 594T130 407H366L362 387H128Q127 374 127 361T126 333Q126 319 126 306T127 280H349L345 260H129Z"  />
<glyph unicode="&#x2122;" horiz-adv-x="730" d="M633 266V644L493 266H470L330 645V266H308V667H343L482 287L622 667H654V266H633ZM134 647V266H112V647H4V667H244V647H134Z"  />
<glyph unicode="&#xE300;" horiz-adv-x="178" d="M99 724L12 860H38L116 724H99Z"  />
<glyph unicode="&#xE301;" horiz-adv-x="178" d="M84 724H67L146 860H171L84 724Z"  />
<glyph unicode="&#xE302;" horiz-adv-x="178" d="M181 724L87 846L-6 724H-29L75 860H100L204 724H181Z"  />
<glyph unicode="&#xE303;" horiz-adv-x="178" d="M7 860L101 738L194 860H217L113 724H88L-16 860H7Z"  />
<glyph unicode="&#xE304;" horiz-adv-x="178" d="M139 775Q161 775 171 791T182 831H202Q201 797 184 776T138 755Q120 755 108 763T84 780T61 798T37 806Q15 806 5 790T-7 750H-27Q-26 784 -8 805T38 826Q56 826 68 818T91 801T113 783T139 775Z"  />
<glyph unicode="&#xE305;" horiz-adv-x="178" d="M15 761V823H39V761H15ZM136 761V823H160V761H136Z"  />
<glyph unicode="&#xE308;" horiz-adv-x="178" d="M101 855Q74 855 58 838T42 792Q42 765 58 747T101 729Q128 729 144 746T160 792Q160 819 144 837T101 855ZM101 875Q136 875 158 851T181 792Q181 758 159 734T101 709Q66 709 44 733T21 792Q21 826 43 850T101 875Z"  />

</font>
</defs>
</svg>
